<svg viewBox="0 0 2516 361" version="1" xmlns="http://www.w3.org/2000/svg" fill-rule="evenodd" clip-rule="evenodd" stroke-linejoin="round" stroke-miterlimit="1"><circle cx="1508" cy="1247" r="413" fill="#bd0000" transform="matrix(.43632 0 0 .43632 -478 -364)"/><circle cx="776" cy="615" r="43" transform="translate(-231) scale(.50189)"/><circle cx="776" cy="615" r="43" transform="translate(-231 -127) scale(.50189)"/><circle cx="776" cy="615" r="43" transform="translate(-231 -257) scale(.50189)"/><circle cx="776" cy="615" r="43" transform="translate(-166) scale(.50189)"/><circle cx="776" cy="615" r="43" transform="translate(-100) scale(.50189)"/><circle cx="776" cy="615" r="43" transform="translate(30 -127) scale(.50189)"/><circle cx="776" cy="615" r="43" transform="translate(-35 -64) scale(.50189)"/><circle cx="776" cy="615" r="43" transform="translate(30 -64) scale(.50189)"/><path d="M202 161h175v41H202zM137 224h174v42H137zM137 97h94v41h-94zM242 97h94v41h-94zM348 97h94v41h-94zM202 31h113v42H202zM329 32h113v42H329z"/><g fill-rule="nonzero"><path d="M635 266h31l54-151 20-2V96h-63v17l17 2-26 79-24-79 16-2V96h-88v17l18 2-27 82-24-82 18-2V96h-97v17l13 2 55 151h31l38-107c6 23 18 56 38 107zM814 272c60 0 92-39 92-92s-38-89-92-89-92 37-92 89 32 92 92 92zm0-19c-15 0-22-21-22-72s7-71 22-71 22 20 22 71-7 72-22 72z"/><path d="M904 266h111v-18l-28-6v-71c3-16 12-32 21-41l1 2c9 13 18 19 30 19 14 0 25-10 26-29-2-22-15-31-32-31s-37 14-46 44l-3-40-6-4-77 24v14l19 3 1 39v22l-1 52-16 3v18z"/><path d="M1126 182c0-39 13-58 32-58 5 0 9 1 13 3v106c-4 3-9 4-14 4-19 0-31-20-31-55zm50 88l74-4v-18l-12-3V67l1-49-6-3-82 15v16l23 4v57a54 54 0 0 0-41-16c-38 0-78 34-78 92 0 59 31 89 69 89 19 0 35-7 49-21l3 19z"/><path d="M1313 272c51 0 83-21 83-62 0-27-13-46-45-55l-20-5c-24-7-28-14-28-21 0-12 10-18 24-18l17 2 7 31h32l3-39c-19-9-36-14-58-14-50 0-78 25-78 60 0 27 15 47 43 54l20 5c23 7 28 14 28 23 0 13-11 18-28 18-9 0-17-2-25-5l-6-36h-32l-1 45c19 11 40 17 64 17zM1606 272c11 0 19-2 38-6l3-28-34-8-24-26c16-21 26-39 35-66l24-4v-16h-80v16l27 5c-4 20-9 35-18 52l-29-31-25-27c35-14 51-30 51-53 0-28-23-45-63-45-43 0-70 22-70 57 0 17 5 34 20 55l2 2c-39 16-53 37-53 62 0 32 22 61 70 61 34 0 53-11 66-24l5 5c18 14 34 19 55 19zm-105-165c-8-14-11-24-11-33 0-14 7-24 20-24s20 9 20 23c0 12-3 30-17 49l-12-15zm3 94c8 10 18 23 29 34-7 3-14 5-23 5-24 0-46-16-46-46 0-12 3-22 9-32l31 39zM1769 110h1l1 14c1 31 15 40 30 40 14 0 22-6 26-20-1-29-27-53-66-53-56 0-100 33-100 91 0 60 43 90 90 90 33 0 60-13 75-41l-14-13c-10 9-20 16-36 16-27 0-45-21-45-60 0-48 22-64 38-64z"/><path d="M1915 272c59 0 92-39 92-92s-39-89-92-89c-54 0-92 37-92 89s32 92 92 92zm0-19c-16 0-23-21-23-72s7-71 23-71c15 0 22 20 22 71s-7 72-22 72zM2079 182c0-39 13-58 32-58 5 0 9 1 13 3v106c-4 3-9 4-14 4-19 0-31-20-31-55zm50 88l74-4v-18l-12-3V67l1-49-6-3-82 15v16l23 4v57a53 53 0 0 0-41-16c-38 0-78 34-78 92 0 59 31 89 69 89 19 0 35-7 49-21l3 19zM2296 91c-46 0-94 30-94 90 0 57 38 91 90 91 35 0 61-13 76-41l-13-13c-10 9-23 16-40 16-21 0-40-14-43-48h97l2-19c0-42-26-76-75-76zm-5 19c9 0 18 8 18 32 0 18-4 24-21 24h-17c2-44 10-56 20-56z"/><path d="M2432 272c51 0 83-21 83-62 0-27-13-46-45-55l-20-5c-24-7-28-14-28-21 0-12 10-18 24-18l17 2 7 31h32l3-39c-19-9-36-14-58-14-50 0-77 25-77 60 0 27 14 47 42 54l20 5c23 7 28 14 28 23 0 13-11 18-28 18-9 0-17-2-25-5l-6-36h-31l-2 45c19 11 40 17 64 17z"/></g></svg>