<svg viewBox="0 0 591 522" version="1" xmlns="http://www.w3.org/2000/svg" fill-rule="evenodd" clip-rule="evenodd" stroke-linejoin="round" stroke-miterlimit="1">
  <path d="M125 64c2-4 5-6 0-10l2-9a2412 2412 0 0 1 7 21c2-2 5-3 2-6a2 2 0 0 1 0-3c2-1 4-1 4 1 1 8 6 16 6 24 0 2 1 4 3 5 1-5 1-10-1-14l-3-14c6 9 7 19 12 28-3-4 2-8-2-12v-3l3-2c2 1 2 2 2 3 2 10 5 20 5 31 0 2 2 4 4 5 0-3-1-6 1-8-4-2 1-7-3-9v-7c-1-1-3-2-1-3s3 1 4 2l4 16c3 10 2 20 1 31v7c1-2 2-5 4-6l2-4c1-12 1-23-3-34-3-8-6-17-11-24-4-5-9-9-14-12s-10-6-14-12c-3-4-8-4-12-5-9-3-17-9-23-16l-7-8-2-1c-2 0-1 2-1 2v33l3 13c2 9 7 17 8 27v2c1 2 0 3-2 4s-2-2-2-3L90 60c-3-9 1-17 1-25 1-6 2-12 0-17S90 7 87 3a2 2 0 0 1 1-3l2 1c8 14 19 23 32 30 7 5 17 7 23 13l23 19c8 9 13 19 16 31l2 13c0 3 3 2 3 1 2-5 7-5 9-9 2-2-3-6 2-7 2-1 4-1 5-4 1-5 6-8 11-10 3-3 8-5 9-10 0-2 1-3 3-3l12-5 10-7c4-3 10-4 15-6l9-4a66 66 0 0 1 46 2h7c6 1 11 4 16 6h2c12 1 17 10 24 17l2 2c10 5 15 15 20 24l2 9c1 7 3 13 7 19l1 5c-1 12 2 24 2 37 0 6-2 11-4 17-3 6-8 11-9 19 0 3-3 5-5 8l-14 21-3 4c-5 2-3 4-1 6 5 6 8 12 10 18 2 5 5 9 8 12 3 2 4 1 4-1 1-6 1-12 3-17l5-28 7-18c5-11 13-18 21-26 9-7 20-11 31-15 5-2 11-5 17-5 4 1 8-2 12-3 11-3 22-5 33-5h21c9 0 17 3 26 4 1 1 3 1 3 3 1 2-2 1-3 2l-14 4c-15 5-25 14-32 27-8 16-20 28-32 40l-29 28-9 5c8 6 14 14 25 12h14l2 2c0 2-2 1-3 1l-17 3c-4 1-8-2-12-4l-10-8c-3-1-6-2-9 1l10 6c8 5 10 10 7 20-4 10-5 21-4 32 1 13 7 24 18 32 6 4 11 8 14 16 4 11 12 21 21 29 3 3 8 4 12 5 16 5 24 17 33 29 7 11 15 22 29 27 0-4-3-7-5-10-8-10-10-22-11-35 0-16-6-30-16-43-9-11-15-24-17-38-2-10-8-17-14-24a87 87 0 0 0-38-25c-2-1-5-2-5-5 0-2 4-1 5-1l23-1 1 1c0 2-1 2-2 2s-4 0-4 2 3 1 5 1c7 1 14 5 22 6l2 2c0 2-2 1-3 1s-4-1-4 1 3 2 4 1l3 2c2 1 4 3 7 2 1-1 4 2 6 3v2h-2l-18-3-2 1c1 2 3 3 5 3 11 1 21 6 31 11v2c-9-2-18-7-27-6 0 3 1 5 4 3 2-1 4 1 5 1 3 1 4 3 7 3 2-1 4 1 6 2 3 1 7 2 10 5l2 2-3 1c-4-1-8-4-13-4l-11-1c1 4 4 4 7 5 10 3 19 7 29 12-3 2-5 1-6 0-4-4-10-3-15-5-2-1-4-2-4 0-1 4 2 1 2 1 1 3 7 0 6 5 4-2 6 4 10 1-2 4-4 5-7 4l-10-3h-3c-1 2 0 3 1 3 7 2 12 5 17 8 2 1 4 1 3 3s-2 0-3 0c-3-1-6-3-10-3 0 2 1 4 3 4 6-1 8 5 11 7l8 6c0 1 2 2 1 3-2 2-2 0-3-1-6-3-11-7-18-9 0 4 2 5 4 6 7 1 10 7 15 11a2 2 0 0 1 0 2c-1 2-2 0-2 0l-5-4h-4c-1 1 1 3 1 4l6 4c3 2 3 5 3 7l-4-2h-2v2c3 8 3 17 8 25 2-1 1-2 1-3-2-4 0-8 2-11 2-2 2-5 2-7v-3c3-6 3-11 3-18 1-5 0-10-1-15l-3-19-1-7c-5-2-2-5-2-8-1-3-3-4-6-5-1 0-3-1-2-2h4v-2l-1-1c-2-7-8-7-14-9l-2-1c1-2 2-1 3-1l5 1-1-4c-8-7-16-15-28-17l-8-5c-5-5-11-10-19-11-1 0-3 0-3-2 3-1 12 1 16 3 3 2 7 3 9 6 4 3 8 4 12 5 7 2 11 6 17 10 8 5 14 13 19 22l4 12 2 4c2 16 7 31 7 47s-4 30-8 45c-1 6 0 11 1 17l4 15 5 7c1 0 3 1 2 2a2 2 0 0 1-3 1c-5-5-11-3-17-7-7-5-14-9-19-16l-16-17c-5-5-10-11-17-13-6-3-10-7-16-9-4-1-6-5-9-7-8-8-13-17-18-26-3-6-7-10-12-14-9-7-15-16-17-28-1-8 0-16 1-24l3-16c1-5-4-14-9-16-5-3-11-3-16-5-10-3-18 3-27 4-3 1-3 3-2 6 4 7 7 14 13 19l4 5c2 4 5 8 9 11 3 2 5 4 6 8 2 6 5 11 9 16 3 2 5 6 5 9 1 8 6 15 8 23l2 17c0 9 3 17 1 26l-4 14-6 14c-1 6-5 11-9 15-4 5-5 11-10 16-5 4-8 9-12 14-3 4-8 5-13 8h-2c-1 6-6 6-9 7-7 3-12 8-20 9l-35 6c-3 0-6 0-9-2-2-2-5-2-8-1-6 2-12 1-17-2-8-4-18-4-26-10l-20-15c-4-2-6-4-11-4-3 1-6 0-9-1 2-3 5-3 7-3s5 1 5-2c0-2-2-3-5-3l-18-1-2-1c3-3 7-1 11-2l6-1c1 0 3 0 2-2h-2c-6 1-11 0-17-2l-12-1c-1 0-3 1-3-1l3-1c8 1 15-3 23-3 1-2-1-1-2-2h-18l-15-2h-10c0-2 1-2 3-2 10-1 21-3 32-3h4c1 0 2-1 1-2 0-2-1-2-2-1-4 0-9-3-13-1-4-5-8 1-13 0-6-3-13-2-20-4 13-4 27-3 40-4 0-2-2-2-3-2l-16-2c-7-1-15 2-21-2h-2c1-2 2-2 4-2 13-1 26-4 40-4 2 0 3 0 3-2-1-2-2-3-3-2-3 2-6 0-9 0h-13c-5 2-9 1-13 0-7 0-13 0-20-2 1-2 3-2 5-2 15-2 31-1 47-3l5-1c-4-3-9-1-13-2h-43c-1 0-3 0-3-2-1-2 2-2 3-2l52-3c4-1 4-2 4-5-4 3-10 3-13-1h-3c-2 3-7 4-12 3-1-1-2-2-4 0h-1c-7-4-14 2-20-2-4-2-9 0-14 1l-7-1c5-3 9-3 14-3 20 0 39-3 59-5 1 0 2 0 2-2l-2-2-8-1c-3-1-4 2-7 2h-11c-11 0-21 2-32-1 7-4 14-3 20-4l21-2 21-3c-3-3-7-3-11-2l-20 1c-5 0-11-4-16 0h-1c-5-4-12 0-19-3 7-2 13-2 19-2l19-2 18-2c6-1 12 0 17-4-3 0-6 1-7-2h-1c-5 3-10 0-15 2l-3 1c-8 0-15-2-23 0l-6-3c5-2 9-2 13-2l39-5 4-1c1 0 3 1 3-1s-2-2-3-2l-18 1c-2-1-3 3-5 2-4-3-8 0-12-1-1-1-3 0-3-2s2-2 3-3l20-2c6-1 12-3 18-2l2-2c0-2-1-2-2-1-2 0-4-2-6 0h-3l-2-1c-4 3-9 0-13 2-4 1-8-3-12-1l-1-1 1-1 3-1c7 2 13-1 20-2 4-1 9-3 13-2 1 0 3 0 3-2l-2-1c-5 0-10-4-14 0h-2l-1-2c1-2 3-3 5-3 4-1 8-3 13-3 3 0 3-2 4-4-3-1-5-3-8-1l-2-1a1 1 0 0 1 2-2c3 1 4-2 7-2a2 2 0 0 0 2-3c-1-2-2-1-3 0l-9 4c-8 5-17 9-26 9h-1c-9 6-18 4-27 3h-2c-9-5-19-5-28-11l-5-4-11-17-1-2c-2-9-4-10-13-10-2 0-4 1-4-2 0-2 3-2 4-2h6c2 0 2-1 1-3 0-2-1-1-2 0h-3c-5-4-10-3-15-3l-3-1 3-1 22-4c-4 1-7 0-10-3l-3 1c-1 2-3 3-5 0-2-1-3 3-6 0-2-2-4 1-5 2-2 0-1-2-2-3-1 0-3 1-3-1 1-2 3-2 4-2l32-3c1 0 2 0 2-2l-2-2-7 1c-5 2-10-1-16 1l-6-2c-6-1-12 1-19 1 1-3 3-3 5-3l41-4h8l2-1-2-2-6 1c-2 0-4 1-6-1h-3c-2 2-4 4-6 0h-2l-2 1c-6-1-13 1-19-1-4-1-9 1-13-1 1-2 2-2 4-2 9 0 17-3 26-3l26-2c2 0 4 0 3-2 0-3-2-2-3-1-5 1-11 0-15-1-5-1-9 3-13 0-1-1-2 1-2 2-2 0-3 1-4-1-1-3-1-3-3-1s-3 2-4 1c-2-2-5-2-7-1-3 1-5 0-8-2l3-2c10 1 21-1 31-1l28-2 2-1c0-2-1-2-2-3-5-2-9 1-14 1-2-1-5 1-7-1h-3l-3 1c-2-2-3-1-6-1-1 1-3 1-4-2 0-2 2-2 4-2l36-4c2 0 4 1 4-2 0-2-3-1-4-1h-29c-4-1-10 3-15-2 17-4 33-4 51-5-2-2-2-4-5-3-4 1-8 1-11-1h-6c-4 1-8-2-12-2 0-3 2-2 4-2l30-3c1 0 4 0 4-2s-3-2-4-1c-4 1-8-4-13-1l-3-3c0-2 2-2 3-2l12-1c5 0 9-4 10-8l1-3c6-2 6-9 8-14 1-3-2-6 0-9-3-2-6-1-9-1-7 2-12 5-18 8-4 2-8 5-13 6l-12 5c-20 7-39 5-57-6-6-3-12-6-16-10l-16-13c-6-6-13-10-21-13l-4-3c5-3 9 0 13 0 12 1 24 1 35-1 5 0 11-1 15-4s8-1 12-3c10-4 21-5 32-7 1-1 0-2-1-2-1-2-1-4 1-5s2 1 3 2l7 7c9 6 16 12 26 15 11 3 21 8 27 19 1-5-1-17-2-22-4-8-8-16-14-23-3-5-9-8-13-13s-9-9-11-14c-1-3-4-4-5-6-5-8-8-17-14-24l-4-8v-4c2-1 3 1 4 2l5 12c1 1 1 3 3 2v-3c0-2-4-5-1-6 2 0 3 4 3 6l4 17zm120 410l2-3c2-4 0-6-2-8h-3v3c2 2 3 5 3 8 4 5 7 11 12 15 2 1 3 2 5 1 1-2 3-4 1-6-1-2-2-3-5-2-2 2-5 2-4-3 1-2 0-5-3-4l-6-1zM103 125c1-1 2-2 5-1s6 3 10 3c-1-7-2-7-18-6l3 4c-1 1-1 4-3 1-2-4-5-5-9-4l-10 2c-5 1-11 1-13 7-3-4-6-4-9-1l-2 1c-3-2-6 1-9 1-10 2-19-1-29 0l13 9c10 6 18 16 29 23 12 7 24 10 37 8 9-2 17-5 25-10 9-5 17-13 28-15l13 1c-4-3-7-7-11-8-4 0-7-3-10-1-5 2-11 2-16 3l-24 7c-5 2-10 4-16 4-10-1-19-6-29-7-2 0-3-1-3-2 1-4-2-4-4-6-1-1-4-1-4-3h3l14 7 7 3c2 0 2-1 3-2v-1h-2c-2 1-4 1-4-2s-1-3-4-2c-3 2 0-4-4-4v-2h2l8 4c4 3 8 4 13 6 1 0 3 0 4-2v-1c-4 0-7-1-8-5-5 4-5-2-7-4 6 0 11 3 16 5l17 6c-1-3-1-2-4-3s-4-5-8-4c1-5-3-3-5-4l-2-2c0-2 2-1 3-1 5 0 10 2 15 4l15 6c0-5-4-3-6-4l-10-8zm99 150l1 2c12 4 26 4 38 8 2 1 3 0 3-2s-1-3-2-3l-21-6c-1 0-3 0-2-2 0-2 1-1 3-1 7 0 13 4 21 3 1 0 2 2 3-1 0-1 1-3-2-4l-7-2-2-3c1-2 2-2 3-1l5 1c2 0 3 1 4-1 1-3-1-3-3-3l-7-4h6c7 1 7 1 10-8l-8-1c-1 0-2-1-2-3s2-1 3-1h10c5 1 6-2 8-6-6 1-10-1-15-2l-2-2c0-2 2-2 3-1l13 1c3 0 5-1 6-3 2-2 2-4-1-4l-9-1c-1-1-3-1-2-3h3c6 0 12 1 19-1 2-1 5-1 6 3l1 1c-3 1-6 1-9 4 2 0 3 2 4 3 2 1 4 1 4-2v-2c2-1 1 2 3 2v-1c0-3 0-5 3-5 3-1 5 2 7 3l-4 4c-6 3-10 8-14 13-7 9-12 20-15 32l-3 24-2 20-3 19c-1 18-7 35-11 52-3 12-6 24-5 37 1 17 9 32 20 45 6 8 15 12 22 19 4 4 11 6 16 7l22 4c9 2 18 1 27 0l27-8c8-2 15-6 21-12 5-5 12-9 13-18l3-3h3l8-15 10-25v-3l1-5c2-1 1-2 2-4l-2-14c1-8-3-15-3-23-1-5-5-8-7-13l-10-20-21-30-19-27c-8-13-16-26-27-37a70 70 0 0 0-35-18c-4-1-11 3-13-5h-1c-5-1-9-2-13 1v-6c2-3-1-4-2-4-5 1-9-1-14 1-2 0-3-1-5-3 4 1 8 0 11-1 13-2 25 2 38 0 7-2 15 0 22 0 11 1 23 1 34 4 1 1 3 1 3-1-6-4-15 0-20-8h-1c-3 3-7 1-11 1l-17-2c-1 0-4 0-3-3l4-1a358 358 0 0 1 51 4c2 1 3 0 4-1 0-3-2-3-3-3-5 0-9-4-14-1l-4-1c-4-1-7-3-11-3-4-1-8 0-12-2l-1-2 2-1c2-1 5-2 7-1 12 2 25 1 37 3 1 1 3 1 3-1l-3-2c-3 0-6 0-8-2h-3c-3 3-6 1-9 0l-2-1c-7 3-13-1-19-1l-20-3c-2 0-5 0-5-2 1-3 3-3 5-3l10 1 27 3h26c2 0 4 1 5-1 0-2-3-1-4-2l-1-1c-6 1-11-2-16-1s-9-5-14-1l-1-1c-3 0-5-2-8-1l-6-1a2 2 0 0 1-2-3c1-2 2-1 3-1l7 1c15 0 30-2 45 2 2 0 3 0 4-2 0-2-2-2-4-2h-9c-6 0-11-6-18-3h-1l-23-3c-1 0-3 0-3-2s2-1 3-1h31c6 1 13-1 20 1a2 2 0 0 0 3-1l-1-1c-5 0-9-5-13-4-5 2-9-2-14-1-4 1-11 2-16-2h-3c-1 2-3 1-5 0h-6a3 3 0 0 1-4-2c0-2 2-2 3-2h54c-1-3-2-3-3-3-6-3-13-2-20-3-5 0-9-2-14-1-4 0-9 1-14-1-1 0-3 0-3-2s2-1 4-1l19-1c8-1 15-2 23-1h12c-2-3-10-6-11-5-2 3-5 2-7 1-4-1-9-3-13-2-3 0-6 1-9-1l-3 1c-3 1-5-1-8-1l-1-1 1-2c9 0 17-3 26-3h19l-2-2c-4-2-9-1-13-1s-7-3-12-2c-6 2-13 0-20 0l-3-2c0-2 2-2 3-2l15-3h30l-1-2c-2-1-4-3-6-2-8 2-15-2-23 0-6 1-13 1-19-2l-2-1 2-2h8c12-2 24-4 36-4l1-1c-4 0-6-3-10-4l-19 2h-13c-5 0-9 3-14 3-3-1-5-3-8-2-3 2-7-1-11 2a1 1 0 0 1-2-1l2-2c6-1 11-3 18-3h4c7 0 14-4 22-4l22-2 2-1-3-4a1 1 0 0 0-2 1c0 4-3 3-4 2-8-2-17-1-25-1l-23 3c-2 1-4 0-6-1 0-1 1-2 3-2l17-4 25-3c1-1 3 0 3-2l-2-3c-1-1-2 0-3 1-1 2-4 1-5 1l-9 1c-6-2-11 0-17 1l-3 1c-5 3-10 2-15 2l-14 3h-5l-3-1c0-2 2-1 3-2 7-2 15-2 22-5 11-4 23-6 35-9l6-1-1-2c-2-1-5-2-7-1l-3 1c-1 1-3 2-5 1s-5 0-7 1c-7 3-13 2-20 4l-10 4-11 2-13 4c-1 0-3 1-3-1-1-1 1-2 2-2l26-10c7-3 15-3 23-7l-3-1h-3c-12 0-22 4-32 8-6 2-12 6-19 7h-3c0-2 1-2 2-3l14-8c8-2 14-7 22-8-2-2-3-1-5-1-10 3-20 6-30 11-1 1-3 2-4-1 0-2-2-1-3-1-3 1 0 2 0 3 1 3-1 2-2 2-2 0-2-2-3-1-6 3-13 5-17 9-4 5-10 9-15 13-4 2-7 5-9 9l-14 19c-3 3-5 8-6 13-2 7-6 13-9 20-4 7-8 14-9 22 0 4-1 8-4 11-5 5-8 12-9 19-1 4-1 9-3 13-6 9-6 20-12 30-3 5-2 12-5 18-6 9-8 18-8 29l3 6 6 9c2 6 6 10 10 15 1 2 4 3 7 0l-2-1c-1-1-3-1-2-3s2 0 3 0c7 3 14 5 19 10 2 3 10 3 12 1-3-1-5-4-9-4-2-1-3-3-3-5h3c8 4 17 5 26 6 2 0 3 0 4-2l-8-3c-6 0-10-4-15-6a1 1 0 0 1-1-2 1 1 0 0 1 2-1c5 3 11 2 16 4l8 2c2-1 5 0 6 1 4 3 6 0 9-1l-23-7c-8-2-17-3-24-9-2-1-5-2-3-5 1-2 4 0 6 1 4 3 9 4 15 6l35 8c5 1 8 0 12-2l-3-2-15-3c-11-2-21-7-32-11l-11-4c-1 0-2 0-2-2h3l10 3c11 2 21 7 33 8l14 3c2 0 3 0 4-2 0-2 0-3-2-4l-34-10c-2-1-5-2-5-6zm190-2l13-4 18-4 15-3c14-3 25-10 33-21 7-7 11-16 20-22 7-5 11-12 16-19 4-8 9-17 15-23 8-10 19-15 31-17 1 0 3 0 5-2h-3c-6 0-12 3-18 4-8 2-17 4-25 8-3 2-5 3-9 3l-10 3c-7 3-11 9-19 12a116 116 0 0 0-59 46l-23 39zm9-28l8-21 3-11c0-1 1-3 3-3v4c0 2-2 5-1 7 1 1 2 0 2-1 3-10 8-20 12-29l3-3c2 1 0 2 0 3l-5 15c-1 1-1 3 1 4 1-5 5-9 7-14l7-14c7-10 7-10 10-11-5 8-9 16-12 25 3-1 5-2 6-4 3-6 8-10 10-16 1-1 2-3 3-2 2 1 0 2 0 3-2 4-4 8-5 14 8-8 12-17 17-25-4 0-7 0-8 3l-2 2v-4c-19 3-30 16-42 29-14 14-16 31-17 49zM243 360l-5 12c-6 7-7 16-10 24 0 1-1 4 2 4 2 0 3 2 5 0s2-4 0-6c-1-2-4-5 0-6 5-1 6-5 5-8-1-5-1-8 4-11 3-2-1-6-1-9zm3-20c5-1 8-6 5-8-4-4-2-6 1-8s3-5 1-7c-2-1-2-2 0-3a2 2 0 0 0 1-4l-3-1a2 2 0 0 0-2 3c0 9-4 19-3 28zm109-103l-8-6c-3-1-6-1-8-4-1-4-5-4-9-5-2 0-3 1-4 3l1 2c2 0 3 1 5-1 3-4 3-1 4 2 1 4 4 7 8 5 3 0 4 1 3 3l1 4c2 1 3 0 4-1l3-2zm-16 277v1l4-1c9 0 17-2 24-6 2-1 3-2 2-4-1-3-3-1-4 0l-5 5c-1 2-2 2-3 0-3-4-4-3-6 1 0 2-3 3-4 1-2-5-3-2-5 1l-3 2zm127-330c8-4 11-13 16-20-14 0-13 12-16 20zm-50 148c-1 3 1 4 2 6l4 1a1 1 0 0 0 0-3c-3-4-3-9-7-13-2 0-2-3-4-2l-2 2c0 2 2 3 3 4l2 1c2 1 3 2 2 4zm-10-17c-1-3-2-8-5-10-2-2-5-3-4-6 0-3-3-2-5-4l-2 2c-1 1 1 2 2 3 2 2 3 5 6 5 2 1 3 2 2 3-2 5 3 6 6 7zm-39-92l-13-3c-3-2-7-1-13-2 9 7 22 9 26 5zm127-56c4 0 12-5 13-8l-2-2c-2 0-5 0-6 2l-5 8zm-15 10c6-6 12-10 15-17-8 2-13 8-15 17zM249 303c2 1-1 4 2 4 4 0 0-2 1-3l1-2 1-8c1-2-1-2-3-3-2 0-2 2-2 3v10-1zm32 200c2 0 2-2 3-4s0-3-2-5c-2-1-2 1-3 2l-3 1c-1 0-3 0-3 2 0 1 1 2 3 2l5 2zm-49-58c5 0 6-4 6-7 0-4-5-1-6-4-2 4 1 7 0 11zm202-93c-1-3-3-5-6-7h-3c0 4 2 7 4 9l2 1c2 1 3 0 3-3zm-192-2l1 2c0 3 1 4 4 3 3 0 3-3 2-4 0-2-4-3-2-7l-3 1-2 5zm-14 52v10c0 1 0 3 2 2 2 0 4 0 4-2 0-1 1-3-1-4l-5-6zm293-246c-6-2-8 2-11 5l-1 2h3c4-1 6-4 9-7zM255 262c2-1 4-4 7-2 1 0 3-2 3-4l-2-3a1 1 0 0 0-2 0c-2 3-6 5-6 9zm128 17c1 3-5 2-3 5s5 6 9 6c-1-4-5-7-6-11zm-133 5c0 2 0 4 2 3 1-1 5-1 4-2-2-3 0-8-4-8-3 1-1 5-2 7zm196 128c0-2 2-5-2-5s-3 4-4 6c0 4 3 3 4 3 4 0 2-3 2-4zm-140 93c-4-2-6-1-8 2 0 2 0 3 2 3 6 3 4-3 6-5zm-69-46c5-3 4-6 2-9-1-2-3 1-4 0-2 4 2 6 2 9zm194-98c1 1-1 5 3 4 1 0 4-1 3-2-1-2 0-6-4-6-1 0-3 1-2 4zm0 93c2 0 2-2 3-4 2-2 1-3-1-4-1-1-2-2-3-1-2 2-3 3-1 5 2 1 1 3 2 4zm-166 38c2 1 3 6 7 4a3 3 0 0 0 1-4c-3-3-5 0-8 0zm21 11c2 3 4 2 5 3 2 0 3-1 4-3l-1-3c-2-1-3 0-4 1l-4 2zm116-19c-2 2-5 2-5 5l2 3c2-2 4-3 5-6l-2-2zm43-95l-2-7-3-2c-2 1-1 3-1 4 0 3 3 4 6 5zm-31 86c0-2-1-3-2-2-2 1-4 3-4 6-1 1 0 2 2 2 4-1 2-5 4-6zM253 269c1 1-1 4 2 4 1-1 4-1 4-4l-4-4c-2 0-2 3-2 4zm183 163c-2 1-3 3-2 5 0 2 1 3 3 3s2-2 2-4c-1-1 0-4-3-4zm-206-11v8l1 2 1-1c2-2 2-4 2-7l-4-2zm155 78l7-3a2 2 0 0 0 1-4h-4l-4 7zM274 232c-1 4-4 5-3 8 1 2 3 0 4-1 4-3 1-4-1-7zm169 192v-1l-2-2h-1c-3 0-2 3-2 4-1 2 1 3 2 3 3 0 2-2 3-4zm-123 92c1-3 5-2 4-6a3 3 0 0 0-4-1c-2 1-2 4 0 7zm58-18c-3 0-3 3-3 5-1 1 1 1 2 1 2 0 4-2 4-4l-3-2zm-42 13c0-2-1-3-2-3-2 0-3 1-4 3 0 2 0 3 2 3s4-1 4-3zm98-142l2 6 4 1 2-1c0-2-2-3-3-3l-5-3zm13 32c-2-1-1-5-4-5-1-1-2 1-2 2 0 2 2 4 4 5 1 1 1-1 2-2zM314 219c1 4 2 6 7 5 0-4-3-5-7-5zm58 45c-2-2-4-4-4-7 0-2-1-2-3-1v3c1 3 4 4 7 5zm-57 244c-1-2-2-2-3-2-3 1-3 3-3 4a1 1 0 0 0 2 2l4-4zm110-53c-2 0-2 2-3 3 0 2 2 3 3 3 2 0 2-2 3-3 0-2-1-2-3-3zm-62-204c-1-4-4-5-8-6 1 4 5 4 8 6z" fill="#bd0000" fill-rule="nonzero"/>
  <path d="M492 315c6 17-4 34-1 51 1-10 7-18 8-28 2 9-2 18 0 28 1-3 3-6 2-9 0-2 0-3 2-4 1-1 2-1 1-2a2 2 0 0 1 1-3c2 0 2-2 1-3s-2-2-1-4h2c2 1 3 2 3 4-2 6-2 11-2 16-1 12-2 24 3 35 1 2 3 4 1 5-2 2-5 0-6-2l-13-15c-11-14-9-28-6-44l4-22 1-3zm27 34c2 4 4 8 0 12v2c3 3-1 9 3 12v2c-5 4 2 6 2 9l2-5c-1-2 0-3 2-3l1 3c2 9 2 19 7 29l1 2 2 1c1-4 2-9 1-14 0-1 0-3 2-3 2-1 1 2 1 3l2 8c0 2 0 4 2 4 3 0 1-3 1-4 1-2-1-4 1-7 3 3 3 7 3 10 0 10 3 19 5 28v2l-1 3c-2 1-2-1-3-2-4-6-8-11-11-18-4-7-10-10-17-14l-6-4c-2-1-5-2-2-6l-1-2c-4-9-2-18-1-27 0-6 4-13 3-19l1-2zm-55-44c1 7-2 15 1 24l4-15 4-13c2 5 0 9-1 14-1 7-3 14-2 22 0 1-1 3 1 2 2 0 0-1 0-2 3-6 0-14 6-19 2-1 1-2 0-3 0-2 1-3 3-3s1 2 1 3c-1 8-1 17-3 25l1 15v3c-1 1-2 0-3-1-7-4-10-11-14-18-6-12-1-23 2-34zM117 92c0 3 2 6 5 7 7 4 13 8 20 10 1 1 2 1 1 2a2 2 0 0 1-2 1l-17-6c-12-2-13-11-15-20-1-2-3-5 0-7 2-1 4 3 6 4 4 6 10 9 15 13 1 1 3 1 2 3h-4l-11-7zm3-11c-4 1-6-2-8-4-7-4-10-10-11-17-1-2-1-3 1-4s2 2 2 3l16 22zm6 30l6 2c5 3 9 6 15 7l4 2v2h-1c-8-3-18-1-24-8l-2-3a2 2 0 0 1 2-2zM86 224c4 1 7-2 11-1 1 0 3 1 3 3a2 2 0 0 1-4 1c-3-1-5-2-8 1-1 1-5-1-5-2-1-3 2-2 3-2zm-13 26l-16 1v-1l16-2v2zm71 166c4-2 8-1 12-2 1 0 2 0 1 1l-1 1c-4 0-7 2-12 0z" fill="#bd0000" fill-rule="nonzero"/>
  <path d="M511 337c-1 2-1 4-2 3-2 0-3-2-4-4 0-1 1-2 2-1s4 0 4 2zM167 438v-1c2-2 5-2 7-1v1l-7 1zm-15-149c6 1 11 4 14 9 1 2 2 4 1 6s-2 3-4 2c-2 0-3-2-3-4-1-3-3-5-6-4s-5 3-2 6a1 1 0 0 1 0 3c-3 1-6-1-8-2-2 0-1-2-1-3v-4c-5-3-7-8-11-12 3-2 4-1 5 1l3 3c4 4 8 3 12-1z" fill="#bd0000" fill-rule="nonzero"/>
  <path d="M152 289c-8-1-12-7-16-14-1-1 3-10 4-11 4-1 7 1 9 3l9 9 1 2h-2l-8-3c-2-1-4 0-4 1-1 2-1 4 1 5l5 2c2 0 4 1 5 3 0 2-3 2-4 3zm39-132c-4 8-4 20-15 24-2 1-3 5-6 3-2-2 2-4 3-6 1-3 4-5 6-7 3-2 3-4 1-6s-2-3-1-5 1-6 5-6h5a2 2 0 0 1 2 3zm-21 35c-1 6 0 13-5 19-1 1 0 2 1 3l1 5c1 2 0 4-1 4-3 0-5-3-8-4v-3c2-9 4-19 8-27l2-2 2 5zm43-60c0 2-1 3-2 3-8 1-13 6-19 10-2 1-3 3-5 1-2-1-1-3 0-5l6-13c1-3 5-4 8-5l2 1v3l-4 3c-1 1-3 2-2 4 1 1 3 2 4 1 4-2 8 0 12-3zm32 64c-3 4-6 3-9 4-8 1-15 4-22 7l-3 1c-2 1-3 1-4-1-1-1 0-2 1-3 3-4 8-5 12-5l4-1c7-4 13-1 21-2zm-68 0c-3 0-3-2-3-4 2-6 7-7 12-8l16-4c1 0 2-1 2 1 1 1 0 2-1 2-8 1-14 7-21 11l-5 2zm47-105c0 2-1 2-2 2-4 3-7 7-8 12s-5 8-10 11h-2v-2l8-13c1-3 2-7 5-9l6-3 3 2zm-4 15c1-3 1-8 6-10 6-3 9-9 16-11h2c1 1 0 2-1 3l-13 11c-2 3-2 7-5 9-1 1-1 4-4 3-2 0-1-3-1-5zm-71 144c2 0 12 6 13 8s1 3-1 3l-7-2h-5c-2 0-4 1-6-1s0-3 0-5c1-2 3-3 6-3zm46-51c0 2-2 3-3 3-6 3-12 5-16 10-1 1-3 1-4-1v-4c2-3 5-4 8-5l11-5c2 0 3 0 4 2zm37-13c-12 2-22 12-35 15 6-10 12-13 35-15zm-4-38c-2 4-6 3-9 4l-16 5c-2 2-4 2-5 0-1-3 0-5 2-6l5-1c6 2 11 0 15-2h8zm100 46c-6-1-13 3-18-2-3 3-6 0-10 0l-1-1 1-2 8-1c7 1 14 3 20 2 2 0 3 0 3 2a2 2 0 0 1-3 2zm-126 81c-3 3-4 3-8 2-4-2-9-2-14-2-3 0-4-1-5-3v-5h4c3 3 9 2 11 4 4 3 8 2 12 4zm49-208c-3 5-6 8-10 10-5 3-11 2-13 9h-3c7-8 13-17 26-19zm-82 217h-2l-7-13c1-2 2-2 3-1l13 9c2 1 2 3-1 3l-6 2zm79-109l-6 1-11 4-4 1c-2 0-3 0-3-2-1-2 0-2 1-3 5-4 11-4 17-5 2-1 3 3 6 2v2zm-46-10h7c1-1 4-1 4 1s-2 2-3 3l-11 4c-2 1-4 3-5 0-1-2 1-7 4-8h4zm131 6c-8-1-16 5-23 0-1-1-4-1-3-3 0-2 2 0 3 0 8 0 15 0 22 2l1 1zm-91 35c-4 4-9 5-13 7l-8 2h-3a2 2 0 0 1 1-4c4-1 7-5 13-4 3 1 6 0 10-1zm-94 35c1-1 0-5 2-4 3 0 7 0 9 3l1 1c-1 3 3 4 1 6l-5-2h-4c-3 1-3-2-4-4zm178-124l-10-2-2-2 2-1c5-1 11-2 16 0l2 2-2 1-6 2zm-38 85c6-3 12-3 18 0 1 0 3 1 2 2 0 2-2 1-3 1-4 1-8-1-12-1-2 1-4-1-5-2zM254 88l2 1c1 1 0 2-1 3-4 1-6 5-9 7l-3 1-1-3c1-4 8-9 12-9zm66 68l10 1c2 1 2 2 2 3a2 2 0 0 1-2 2c-4-2-9-1-13-2-2 0-4-1-3-3 0-2 2 0 3-1h3zm-148 65v-3c2 0 2 2 3 2v2c-2 2-2 5-2 7 1 2 1 3-1 3s-4 0-6-2l1-3c3-1 4-3 5-6zm139-77l9 1 2 2-2 1c-5 1-10 0-15-1l-1-2 2-1h5zm13-21l11 1c1 0 3 0 2 2l-2 2-8-1-5-1c-2 0-4 1-4-2l4-1h2zm-1-22h2c2 0 5-1 5 1 0 3-3 3-5 3h-9l-2-2c0-2 1-2 2-2h7zm-5 33l10 1c1 0 2 1 1 2l-1 1c-5 0-10 1-14-1-2 0-4 0-4-2s3-1 4-1h4zm-156 97c0 2 0 4-2 4s-7-4-7-6a3 3 0 0 1 4-3c3 1 5 3 5 5zm35-20l-7 5h-4c-1-1 0-3 1-4 3-3 6-2 10-1zm92-43c-2 0-5 0-7-2-1 0-3 0-2-1 0-2 1-2 2-2l9 2 2 2c0 2-2 1-4 1zm-67-31c2 0 3 1 3 2 0 3-3 3-6 4-1 0-4-1-3-3 0-3 4-2 6-3zm65 40c5-1 8 0 12 1 1 1 2 2 1 3h-2c-4-2-7-1-11-4zm-4 26l-2 1c-3-1-7-2-10 0a2 2 0 0 1-2-2c-1-1 1-1 2-1h10c1 0 2 0 2 2zm-113 39c-1 2-1 4-3 4s-3-1-3-3 1-4 3-4l3 3zm55 23c-2-1-5-1-7-3l1-1h6c2 1 4 1 3 3l-3 1zm87-83c-1 2-3 1-4 0-2 0-6 0-5-3 1-2 4 1 6 1 1 0 3 0 3 2zm-139 79c-2-1-3-1-3-3a2 2 0 0 1 3-2l2 2c0 2-1 2-2 3zm137 93c-1-2 2-2 3-3 8-6 18-8 28-10 11-3 19 2 28 6 12 5 19 14 24 26 8 18 10 37 2 56-5 13-14 22-26 29-9 6-19 10-31 9h-12c-8-2-13-8-19-11-7-5-10-11-15-17-4-3-5-9-7-13-1-4-4-8-1-12-3-4-2-8-2-12 2-12 6-23 13-32 4-7 8-13 15-16 1 2 2 4 0 4-5 2-7 7-10 11-9 15-12 31-9 49 1 12 7 22 14 31 3 5 7 3 10 4l21 7c5 1 6 1 8-1-4-3-11-1-15-6l1-1h3c9 2 17 4 26 3 2 0 4 0 5-2-2-1-4-2-6-1-6 0-12-2-18-4l-3-2c1-2 3-1 4-1 10 2 20 2 31 2 2 0 3-1 4-3l-6-1-20-2c-1 0-3 0-3-2s2-1 4-1h22c4 0 8 0 11-5l-5 1-18-1c-2 0-5 0-4-3 0-2 3-1 4 0l24-3c2-1 4-1 4-4-10 3-17 3-28 0-1 0-4 0-4-2s3-1 5-1c5 2 10 0 15-1 2 0 5 0 6-3-7-2-15 1-22-2 1-3 3-3 5-3l21-2c3-1 5-1 5-5-10 2-21 2-31-1 6-1 11-4 16-3 4 1 8-1 11-1a2 2 0 0 0 3-2c0-2-2-1-3-1h-8l-15-1c0-1-2-1-1-2l2-1c7 0 14-3 21-4 1 0 2 1 2-1a2 2 0 0 0-2-2l-4 1c-6 1-12 0-18-1l-3-2c0-2 2-1 3-2 6-1 12 0 19-2 1 0 2 0 2-2l-3-1c-7 3-14 0-22-1l-2-1c-1-2 1-2 2-2 6 3 12-1 17-2 1 0 3 0 2-1a2 2 0 0 0-2-2c-7 2-14 0-21 0-2 0-4 0-4-2s2-1 4-1c5-1 11-1 16-4-2-1-3-3-5-2-6 3-13 1-19 1l-2-1 2-2 10-2 2-1c0-2-1-2-2-2-3 0-5-1-8 1h-10c1-3 5-3 6-5-4-2-8 0-11 0-7 1-14 2-20 7h-6zm113 42c-1 9 2 17 1 26l-1 5c-1 2-2 4-4 3s-2-2-2-4a101 101 0 0 0 0-36l-1-13c0-2 1-2 2-1 2 0 3 1 3 3l2 17zm-88-122c0 2 0 5-2 7l-2 1-1-2c1-13-4-25-7-37v-2h3l2 3c2 10 7 19 7 30zm-11-1l-1 4-2-2c-4-9-5-19-7-28v-4l2-3c2 0 2 2 3 3 2 10 2 21 5 30zm70 74v6a1 1 0 0 1-1 2c-1 1-1 0-2-1-3-9-4-19-6-29l1-3c2 0 2 1 2 2 5 7 4 15 6 23zM275 457l1 8-2 2a2 2 0 0 1-2-2c0-8-5-16-3-25 0-2 0-4 2-4 3-1 2 2 2 4l3 17h-1zm12 12c-5-8-8-17-8-27 0-2 0-4 2-4s2 2 2 4c5 8 3 18 4 27zm-21-49v-23l1-2 2 2c0 10 5 20 2 30-1 1 0 3-2 3s-2-2-2-3l-1-7zm83-133c0-6 2-11-2-16a2 2 0 0 1 1-2c1-1 1 1 2 1 4 6 4 13 5 20l1 7c0 1 0 3-2 3l-2-2c-3-3-3-7-3-11zm48 61l-1-7c0-2 0-3 2-4 2 0 2 1 3 2 4 4 2 8 1 11v22l-2-2c-2-7-2-15-3-22zm-123-38c1-6-2-11-2-16l1-4 2-1c1-1 1 0 2 1 0 6 3 12 2 18v7c0 1 0 2-2 3l-2-2-1-6zm139 79c1 2 1 4-1 4s-3-1-3-3l-3-25 1-2c2-1 2 1 2 2 2 7 4 16 4 24zm-149 65s1 2-1 2c-2 1-2-1-3-2-3-7-4-14-1-22 0 0-1-2 1-2l2 2c0 7 3 14 2 22zm21-171c-2 4 0 7 0 11 0 1 1 2-1 3l-2-2c-4-7-4-14-3-21l2-3c2 0 2 2 2 3l2 9zm108 181c1 4 1 8-2 10-1 1-1 3-3 2l-1-3c0-6 2-11 1-17l2-2 2 2c1 2 2 5 1 8zm-34-181c7 6 9 14 5 21l-2 2a2 2 0 0 1-2-2c1-7 1-14-1-21zm-44-13c0 3 0 5-2 5-3 1-3-2-3-3-1-5-3-9-2-13l1-3 2 2c1 4 4 8 4 12zm-17-18c2 7 8 13 6 20 0 2 0 3-2 4-2 0-3-2-3-4l-1-8c1-4-2-8 0-12zm43 16c3 2 4 5 4 8l2 15c0 2 1 5-1 5-3 1-2-2-3-4l-1-7-1-17zm-47 197v-3l2-2 2 2 2 18 1 1-2 2c-2 0-1-2-2-2-3-5-2-10-3-16zm117-43v-16l1-2 2 2c1 6 3 12 1 18-1 1-2 3-3 2-3-1-1-3-1-4zm-100 64c1 2 0 4-2 4s-3-1-3-2l-2-14c0-1 1-3 3-3l1 3 3 12zm-62-52l1-8c0-1 0-4 2-3 2 0 2 2 2 4l1 9c1 2 1 5-2 5-3 1-3-2-4-4v-3zm133-98c0 1 2 3-1 4-2 1-3-2-3-3-1-3-2-7-1-10 1-2 0-4 2-3 2 0 2 1 2 3l1 9zm-8-5c0 1 0 3-2 3-2 1-2-1-2-2-3-3-2-8-4-11l1-2c1-1 1 0 2 1 3 2 5 7 5 11zm37 117c0 3-1 6-4 6-3-1-3-3-2-5v-4c1-2 2-3 4-3s1 2 1 4l1 2zm-9 10c0 3 0 5-2 7 0 2-2 2-4 1l-1-3 3-6c1-1 1-3 3-2 2 0 1 2 1 3zm-129-71c6 5 2 10 4 15l-2 2h-1a2 2 0 0 1-1-2v-15zm49 101l-2 4c-2 0-3-1-3-3-2-3 0-6-2-9l1-2 2 1 4 9zm-59-70l-2 8-1 2a1 1 0 0 1-2-2c2-5 1-9 1-14l1-3c2 0 2 1 2 3l1 6zm31-144c0 1 1 3-2 4-2 0-2-2-2-3-2-3-2-7-1-10l2-1 3 10zm87 194c3 4 3 8 1 12-1 1-1 2-3 1-1 0-2-1-2-3l4-10zm38-99c0 2 0 3-2 4l-2-2-1-8c-1-1 0-2 1-2 1-1 2 0 2 1l2 7zm-52 112c1-2 0-4 2-5 3 0 4 2 3 4 0 2 0 5-3 5-2 0-1-3-2-4zm-94-162c-1 2 1 6-2 6s-1-4-2-7l1-1c0-1 0-4 2-3 2 0 0 2 1 3v2zm5 56l2 8-2 2c-2 0-2-1-2-2 0-3-1-5 2-8zm148 28c1-2-1-5 2-5 3 1 1 5 2 7 0 1 0 3-2 2-3 0-1-3-2-4zm-57-100c0-2-1-4 1-4s3 2 3 4 0 4-2 4c-3 0-1-3-2-4zm-7 24c0 2 0 3-2 3s-1-3-2-5a1 1 0 0 1 1-2l3 4zm53-69l29-9v-2c-6 1-12 0-18 2-1 1-2 2-3 0a254 254 0 0 1 29-9c2 0 4 0 6-3-7 0-13-2-19 1l-3 1c-1 0-3 1-3-1l2-2c8-4 17-4 25-6 3-1 6-1 7-5-9 1-19 0-28 4 2-4 7-5 10-6 9-2 18-3 26-6 2-1 5-2 6 0s-2 4-3 5c-4 2-6 5-7 8-4 9-11 14-18 20-8 8-20 6-30 8l-8 1v-1zm78-64c-2-1-5 0-5-2-1-2 2-2 4-3l12-6 3 1c1 1 0 2-1 3l-12 18c-2 4-5 6-10 5s-11 0-17 1h-10l28-8h-13v-2c6-4 15-1 21-7zm-371-42l-1 1c-8 4-14 12-23 15-2 0-3 1-4-1s0-3 1-4c7-6 16-9 24-12 2-1 3 0 3 1zm-46 5c2-1 4-1 4 1 1 1-1 1-2 2l-8 4c-3 1-5 0-6-3 0-3 2-3 4-3l8-1zm-24-15c0 3-1 3-2 2l-13-4c-4-2 0-2 1-3 2-4 5-1 7 0 3 1 6 3 7 5zm30 26c-2 0-3-1-4-3 0-3 2-3 3-3l10-3h3v1c-1 3-9 8-12 8zm-12-15a42 42 0 0 1-15 4 2 2 0 0 1-1-2c0-2 1-3 3-3l13 1zm64-6l-8 4a1 1 0 0 1-1-1c-1-1 0-1 1-1 2-2 5-3 8-3v1z" fill="#bd0000" fill-rule="nonzero"/>
  <path d="M340 429c2-2 5 0 7-1l2 2a1 1 0 0 1-2 1l-7-2z" fill="#bd0000" fill-rule="nonzero"/>
</svg>
