<svg data-name="Layer 1" xmlns="http://www.w3.org/2000/svg" viewBox="0 0 76 97">
  <path d="M76 74v-5c0-2-1-4-3-5a33 33 0 0 0-6-4 4 4 0 0 1-2-2l-2-1a6 6 0 0 0-1-1 1 1 0 0 1 0-1 4 4 0 0 0 0-4 10 10 0 0 0-3-4 1 1 0 0 1 0-2l1-3 2-2a2 2 0 0 0 2-2l-2-9a4 4 0 0 1-1-4 8 8 0 0 0 0-7 3 3 0 0 1 0-3 2 2 0 0 0 0-2 2 2 0 0 1 0-1 2 2 0 0 0 0-3 2 2 0 0 1-1-2 2 2 0 0 0-1-1 8 8 0 0 0-3-2 23 23 0 0 1-3-2 4 4 0 0 0-3-1 11 11 0 0 1-4-1h-2a7 7 0 0 1-4 0 12 12 0 0 0-2 0 11 11 0 0 1-4 1 1 1 0 0 0-1 0c-2 1-5 1-7 3a31 31 0 0 0-7 8 4 4 0 0 0 0 1l-2 7v8a12 12 0 0 0 2 6 8 8 0 0 1 2 3 4 4 0 0 0 1 3 2 2 0 0 1 1 1l1 6-1 1a72 72 0 0 0-11 4l-7 3c-2 1-4 2-5 5a22 22 0 0 1 0 6v5l1 3a11 11 0 0 0 2 5l7 11c3 5 8 7 13 7h17a61 61 0 0 0 11 0 41 41 0 0 1 7 0 11 11 0 0 0 5-1 2 2 0 0 1 1 0 11 11 0 0 0 7 0 4 4 0 0 1 1 0c2 0 3 0 4-3v-2a20 20 0 0 1 0-6zm-4-9l-5-2 5 2zM59 49a6 6 0 0 1 2 3v1l-1-1a4 4 0 0 0 0-2h-1a12 12 0 0 0-2-2v1h-1v-1l1 3c-2-1-2-2-2-3a2 2 0 0 0 0 3l2 2-3-2 1 1-2-3 1-3a2 2 0 0 0 2 0h1l3 3zm-2 3c2 0 3 2 2 3l-1 1v-1l-1-3zm2 3zm-4 4h-2a1 1 0 0 0-1 0l-4 1 1-1 1-1h3a3 3 0 0 1 1 0s0 1 0 0h-1l-1-2a2 2 0 0 0-1 0h1a2 2 0 0 0 2 1 3 3 0 0 1 2 2l-1 1v-1zm-11-2l1 1v1a1 1 0 0 1-1 0 3 3 0 0 1-1-2v-3a8 8 0 0 0 2 2h-1v1zm-7-2a1 1 0 0 1 1 1 1 1 0 0 0 1-1 1 1 0 0 0-2-1 2 2 0 0 1-2-1c2 1 2-1 3-1l-3-1h2l-2-2h1l-1-1v-1a5 5 0 0 0 1-1v2l1 2a2 2 0 0 1 1 1c1 1 0 2-1 2l4 3-1-1 1-1 1 1a6 6 0 0 1 0 1v3a1 1 0 0 1 0 1h-2l-3-1a2 2 0 0 1 2 0c1-2-1-2-2-4zm4-15v4l-1-2h-1a1 1 0 0 0 1 0v2l-1-1-1 2a1 1 0 0 0 0 1l2 2v2a1 1 0 0 0-1-1v1l-1-1a1 1 0 0 1-1-2 5 5 0 0 0 0-6 3 3 0 0 1 0-1l1 1 2-1a4 4 0 0 0 1 1v-1zm-4 5l-1-2s1 1 0 0h-1v-1l-1-1a5 5 0 0 0 2 1c1 0 2 1 1 3zm-2 0l-1 2a1 1 0 0 1-1-1 3 3 0 0 1 0-2c1 1 1 2 2 1zm6 15h4c-1 2-2 2-4 0zm2-6a4 4 0 0 1-2-3 9 9 0 0 0 0-4v-1a5 5 0 0 0 1-1 8 8 0 0 0 1 2 3 3 0 0 0 1 0c2 1 2 3 2 5l-1-3v-1a10 10 0 0 0 0 5l-2-6h-1l2 4-2-3a6 6 0 0 0 1 6 4 4 0 0 0 2 0 16 16 0 0 0 2 0h-4zm4-5l1-1 1-1c1 1 2 0 3 2h-3c1 1 2 0 3 2a7 7 0 0 0-2-1l-2 1h-1a16 16 0 0 1-1-2h1zm-1-4l2 2c-2 0-2-1-1-2zm4 1l1 1v1l-1-2zm0 6l2 1a2 2 0 0 1 2 2l-1 1a1 1 0 0 1 0-1l-1-2-2-1zm0 6v-1a4 4 0 0 0-1-2 2 2 0 0 1 2 2l-1 1zm-3-5a3 3 0 0 0-1-1l1 1zm-1 6h1l-1 1h2c-1 1-1 2-2 1v-2zm2 0c0-2 0-3-2-3h2a2 2 0 0 1 0 3zm7-5l2 1h-1l-1-1zm3-10l-1 1h-2c1-2 1-2 3-1zm1-1v-2l-1 1v-2h2a3 3 0 0 1-1 3zm2-20a3 3 0 0 1 0 1l-1-1c-1 0 0 0 0 0a8 8 0 0 0 1 6l2 8c0 2-1 2-2 2v-3l-1 2-4-2h1l-1-1h2l-2-3a2 2 0 0 0 0 2 5 5 0 0 1-1 2v2a2 2 0 0 0 2 1 2 2 0 0 1 3 0h-2a6 6 0 0 1-1 3v-1l-1 1v-3l-1 3-1-2v3a8 8 0 0 0-3-2 5 5 0 0 0 1 2l-2-2a4 4 0 0 0 2 4 2 2 0 0 1 1 2c-2-2-4-2-4-4a1 1 0 0 1 1 0 2 2 0 0 1 0 1 6 6 0 0 0-2-4v5a1 1 0 0 0 0 1h1a1 1 0 0 1-1 1v-1a3 3 0 0 1 0-2 2 2 0 0 0 0-1l-1 1v-1l-2 2 1-2-2 2v-2l-1 1a1 1 0 0 1 0-2v-2l1 1 1-1 1 2v-2l-1-1v-1l1-1a14 14 0 0 0 0 2h1v1l1-2c0 2 2 1 2 3l1-1a1 1 0 0 0 0-1v-1l-2-1c1 0 2 1 1-1 2-2-1-2-1-3v2l-1-1a3 3 0 0 0-1-1h-1c-2-1-1 0-1 1a3 3 0 0 1 0 2l-1 1v-1a3 3 0 0 1 0 2l-1-3h-1c-2 0-3-1-3-3a3 3 0 0 0 1 3 6 6 0 0 1 1 2 1 1 0 0 1 0 2l-1-2h1a4 4 0 0 1-2-2 11 11 0 0 1-1-2h-1l-1 4c0 2-1 1-2 1a6 6 0 0 1-2-3h1c1 0-2-1 0-1a12 12 0 0 1-3-1 2 2 0 0 1-1-2 10 10 0 0 1 0-4 1 1 0 0 1 1-1h1l-1 1v2l2-2 2 1v-1a4 4 0 0 0-3-2l-3 2a7 7 0 0 0 0 4c-2-3 0-6 3-6 2-1 4 2 4 3l-1 1a3 3 0 0 1-1 1c0 1-1 1 1 1v1h-1v-3l-1 1c-1 1-1 2 1 3l2 1-1 1 1 1 1-3a1 1 0 0 0 0-1c-2 0-1-2-1-3v-1c2 1 2 1 2 3l-1-2a2 2 0 0 0 0 2v1l2-1h1v-1a2 2 0 0 0 1-1l1-3a3 3 0 0 1-1 2 15 15 0 0 0-1 4 2 2 0 0 0 2 2v-1h1a11 11 0 0 1 1 2l1-1a4 4 0 0 1 0-2l-1 2a4 4 0 0 1-2-3 2 2 0 0 1 0-1l1-5v-1a4 4 0 0 0 2-3 3 3 0 0 0 2-3h1a3 3 0 0 0 4 0 1 1 0 0 1 1-1 4 4 0 0 0 3-1h1a4 4 0 0 0 2-2l2 1v2h-2c-3-1-5 1-7 3v1h1c0-1 0 0 0 0v-1h1c0 2 2 2 4 3l-1-1c-1 0 0-2-1-1a1 1 0 0 1-1 0 1 1 0 0 1 0-1 3 3 0 0 1 4-2h2c1 2 2 4 1 5zm-33-2v3a14 14 0 0 0 0-3zm3-1a2 2 0 0 1 0-1h1c0 1 1 0 0 0a4 4 0 0 0 0 4l-1 1a5 5 0 0 0 0-4zm2-4a5 5 0 0 1 1-5 3 3 0 0 0 0-3c2 1 2 2 2 3a6 6 0 0 1-1 1 4 4 0 0 0 1 7l2 2a40 40 0 0 1-5-3 3 3 0 0 1-1-3l1 3a2 2 0 0 0 0-2zm4-7h-1a2 2 0 0 1 3 1l-1 2a8 8 0 0 0-2 3l-1 2 1-5a11 11 0 0 0 1-1V9zm6 8a1 1 0 0 0 0-1c-2-1-2-3-1-5a4 4 0 0 0 0-3 1 1 0 0 1 1 1 6 6 0 0 0 1 7 4 4 0 0 1 1 3 2 2 0 0 1-1 1 3 3 0 0 0-2-3c-2-2-2-3-1-5a5 5 0 0 0 2 5zm1-9V7a1 1 0 0 1 1 0 2 2 0 0 1 1 3 11 11 0 0 1-1 1c-1 3 1 6 4 6a2 2 0 0 1-3 0 17 17 0 0 0-2-3V8zm3-1c1 0 2 1 1 2v2c-1 2-1 2 1 5l-2-3a8 8 0 0 0-1 2v-3a10 10 0 0 0 1-2V7zm6 2l2 1V9a6 6 0 0 1 0 1c0 2 0 3 3 3-2 1-3 1-4-2 0 2 1 3 3 3a1 1 0 0 1-2 1 4 4 0 0 1-3-3l-2-4h2a14 14 0 0 1 1 2V9zm6 4v1c-1 0-3-3-3-5l1 2-1-3a2 2 0 0 1 2 1 13 13 0 0 1 0 2 1 1 0 0 0 1 1l1 1h-1zm-8-1a5 5 0 0 0 0-1c0 2 1 4 3 5l-3-1v-3zm2 5a4 4 0 0 1-4-1l1-4c-1 3 1 4 3 5zm-4-4v-2a7 7 0 0 1 1-2l-1 3zm-8 7a3 3 0 0 1-1-4l3 3-1 4v-1a2 2 0 0 0-1-3zm-3 9h1v2h-1a4 4 0 0 0 0-3c-1-1 0-2 2-3l-2 4zm1-8v3a7 7 0 0 1 0-3zm-1-2l-1-5 1 2a8 8 0 0 0 0 1v1a7 7 0 0 1 1-3 1 1 0 0 1 0 1c-1 1 0 3 1 4a3 3 0 0 1 1 3c0-2-1-3-3-4zm2-7v-2l-2-3-1-2h1l2 3v4zm-6 10v-1l-1-1h1v1a2 2 0 0 0 1 0 6 6 0 0 1 0 4c2 0 1-1 1-3a4 4 0 0 1 1 2 1 1 0 0 1-1 2 1 1 0 0 1-1-1l-1-1a2 2 0 0 0 0-2zm-2-1a8 8 0 0 0 1 2 1 1 0 0 1 1 1h-1v-3zm4 0a2 2 0 0 1 2 1l-2-1zm-6 0v3h-1 1a5 5 0 0 0 0-3 4 4 0 0 1 0-3l-1 1 2-5a6 6 0 0 1-1 5 2 2 0 0 0 0 2zM59 9a3 3 0 0 1 1 2v1l-1-1a2 2 0 0 1 0-1 3 3 0 0 0-1-1h1zM47 2a6 6 0 0 1 6 1 2 2 0 0 0 2 1 2 2 0 0 1 1 0 4 4 0 0 1-4-1 3 3 0 0 0-3 0l-2-1zm0 0v1a6 6 0 0 1 5 2 1 1 0 0 0 1 0 4 4 0 0 1 4 1h1l-1 1h1v1a1 1 0 0 1-1 0c-1-2-2-1-3-1a2 2 0 0 1-2-1 3 3 0 0 0-2-2v4a6 6 0 0 0-3-3h2l-2-2a6 6 0 0 0-3 0 4 4 0 0 1-3-1 8 8 0 0 1 6 0zm-9-1a3 3 0 0 1 3 1 9 9 0 0 0 4 2 3 3 0 0 1-3 0l-4-2h-1l1-1zm-2 2a3 3 0 0 0 2 1 3 3 0 0 1 3 1h4a1 1 0 0 1 1 0c-1 1-5 2-7 0a1 1 0 0 0-1-1 2 2 0 0 1-3 0 3 3 0 0 0-1-2 2 2 0 0 1 2 1zm-3 0h1a5 5 0 0 0 2 2 3 3 0 0 1-3-1V3zm-2 0h1c0 2 1 3 3 3a2 2 0 0 1 2 0 4 4 0 0 1-5 0 2 2 0 0 1-1-3zm-2 1c0 2 2 3 3 3 2 1 2 2 1 4v-1l-3-3c-1 0-2-1 0-3zm-3 3c0 3 3 1 5 2a4 4 0 0 0-3-1V5c0 2 1 3 2 3s2 1 2 3c-1-2-3-2-5-2l-1-2zm-2 1a4 4 0 0 0 3 2 2 2 0 0 1-3 0V8zm-1 4v-1a3 3 0 0 0 4 0 3 3 0 0 1 2 0 2 2 0 0 1 1 2l-1 2a2 2 0 0 0 0-3 2 2 0 0 0-2 0 16 16 0 0 0-2 1c-2 1-3 0-3-1h1zm-3 2c2 2 4 0 5 0h2a2 2 0 0 1 1 2l-1 9a2 2 0 0 1 0-2 29 29 0 0 0 0-6 3 3 0 0 0 0-1l-1-1-3 1a2 2 0 0 1-2 0 2 2 0 0 1-1-2zm7 11c-2 0-2 0-1-2l1 2zm-3-9c1-1 2 0 2 2h-4c-2 0-2 0-2-2a3 3 0 0 0 4 0zm-1 2c2 0 3 0 3 2v-1a2 2 0 0 0-3 0c-2 2-3 2-3-1 1 2 2 1 3 0zm0 2h3a2 2 0 0 1 0 3 3 3 0 0 0 0-2 2 2 0 0 0-3 0l-1 1c-1 1-3 1-3-1 1 1 2 1 4-1zm-1 4v1a3 3 0 0 1-2 0 2 2 0 0 1-2-1h2a3 3 0 0 0 3-2h1v1c0 2 0 3 2 3l1 2a16 16 0 0 0-2-1h-3l-2 1a3 3 0 0 1-2-2h4a2 2 0 0 1 2-1 2 2 0 0 0-2-1zm-2 8c2 0 2-3 4-3h-2c-1 1-1 2-2 1l-2-1h4a2 2 0 0 1 2-1c1 0 0 0 0 0 1-1 2 0 2 1-2-1-2 0-3 1l-1 2h-2zm3 0h5v2l-2-2-3 1a2 2 0 0 1-2 1 12 12 0 0 0 2-2zm3 1c-1 1-2 3-4 2l2-1a2 2 0 0 1 2-1zm-4 5v-1c1-1 2-2 4-1a2 2 0 0 1 1 3l-2-2-3 1zM1 60l1-1a34 34 0 0 1 7-4 59 59 0 0 0 7-4h1a80 80 0 0 1-7 5l-8 7H1a10 10 0 0 1 0-3zm0 7a7 7 0 0 1 2-4 30 30 0 0 1 8-6l11-7a8 8 0 0 1 2-1 2 2 0 0 1-2 3l-8 4a42 42 0 0 1-4 2 2 2 0 0 0-1 2l14-7a28 28 0 0 1-4 3l-5 3a45 45 0 0 1-5 2l12-3a3 3 0 0 1-2 1L3 68c-2 1-2 0-2-1zm54 28a37 37 0 0 0-4 1l-1-1 2-20a22 22 0 0 1 2-5 19 19 0 0 1 0 5l3 19c0 1 0 2-2 1zm20-2l-2 1a4 4 0 0 0-3 1c-2 1-3 1-4-1s-2-2-4 0a25 25 0 0 1-2 1c-1 1-1 0-2-1v-5l1 2v-1a14 14 0 0 0-1-5l-2-7-1-8a21 21 0 0 1-1-3 5 5 0 0 0 0-2 4 4 0 0 0-1 2 88 88 0 0 0-4 21 35 35 0 0 1 0 6 2 2 0 0 1-3 2V83a7 7 0 0 1 0-1c2-3 2-7 3-10l1-8-2 5v5a2 2 0 0 1-1 1 3 3 0 0 1 0 2 3 3 0 0 1-1 1l-1 1v1l-1 1a36 36 0 0 0-2 14l-1 1H24a5 5 0 0 1-3 0 1 1 0 0 1-1 0l-3-1a2 2 0 0 1-1 0 3 3 0 0 1-1-2h-1l-1-2a9 9 0 0 1-2-2 29 29 0 0 1-3-4l-1-1v-1a20 20 0 0 0-2-3v-1c-3-2-3-5-4-8 1-2 5-3 6-1l2 1a1 1 0 0 0 2 0 1 1 0 0 1 0-1l-1-1v-1l1-1a3 3 0 0 1 3-2l10 1h4l-2-1h-2l2-2a16 16 0 0 1-7 1l-1-1a2 2 0 0 1 1-2 13 13 0 0 1 1 0 5 5 0 0 1 2-1h1a2 2 0 0 1 1 1l1-1a1 1 0 0 1 0-1V44l1-1h-2c-1-1 0-1 1-2l-1-1h3a4 4 0 0 0 1-3c-1 0 0 0 0 0v-1a3 3 0 0 0-1-1h-1a1 1 0 0 1 1-1 11 11 0 0 1 1 1h3l2 3a1 1 0 0 1 1 0c2 1 3 1 3-1a14 14 0 0 1 3 1v1a1 1 0 0 1-1 0l-2-2a5 5 0 0 1 0 2 2 2 0 0 1-2 1 1 1 0 0 1-1-1h-1v4l-1 1a3 3 0 0 0 0 1c2 2 2 5 2 7a6 6 0 0 0 1 3 2 2 0 0 1 0 2 7 7 0 0 0 1 3c1 1 2 2 4 1l1 1h5l3 1h5c2 1 2 0 3-1s1 0 2 1l6 12v1a5 5 0 0 0 0-3l-5-12h-1l-1-1-1 1h-2l-1 1-5-1a1 1 0 0 1 2 0 4 4 0 0 0 2 0h3l1-1v-1h1a2 2 0 0 0 1 1c1 0 2 0 2 2l3 8a5 5 0 0 0 1 1 19 19 0 0 0 0-2 20 20 0 0 0-2-7 12 12 0 0 1-2-4v-1l1 1a36 36 0 0 1 5 13l1 15h1a63 63 0 0 0 1-8l-1-9-1-4-1 2-1-4a5 5 0 0 1 2 1l5 3a1 1 0 0 1 1 1v10l-1-4a38 38 0 0 0-2-7l-1-1v1a14 14 0 0 0 0 4 65 65 0 0 1 1 12v8a20 20 0 0 0 0 3l1-7a15 15 0 0 0 1-7 33 33 0 0 1 1 5 67 67 0 0 1 1 8zM45 48z" fill="#bd0000"/>
  <path d="M33 38v1a1 1 0 0 1 0-1zm23 23zm-24 3a1 1 0 0 1-1-1l-1-1-1-1c1 0 2 0 1-1l-1-1a5 5 0 0 1-1-2l-2-6s0-1 0 0a6 6 0 0 0 0 1v1l1 6 1 1h-3l4 3 2 1 2 1v-1zm-2 18v-1a40 40 0 0 0-4-9h-1a10 10 0 0 0 1 2 3 3 0 0 1-2-1c-1 0 0 0 0 0v1l2 3 1 1a4 4 0 0 1 1 1v1l1 3 1 1v-2zm1-24l1 1a8 8 0 0 0 4 1l-5-2zm32 16l-3-7a18 18 0 0 0-1-3h-2v1a13 13 0 0 1 1 4 70 70 0 0 0 3 8l2 7c2-4 0-6-1-9l1-1zm-4-48v-1c-2 0-4 0-5-2a1 1 0 0 0-1 0h-3s0 1 0 0l1-1c-1 1-1 0-1-1-1 1-3 2-3 4l1-1v1l-2 2c-2 1-2 1-1 3a3 3 0 0 1 1-3l1 1a4 4 0 0 0 0 2 4 4 0 0 1 1-1v-2a1 1 0 0 1 1 0h1c-1 1 0 3 1 3 1 1 1 0 1-1v-1a1 1 0 0 1-1-1 1 1 0 0 1 2 0 1 1 0 0 1 0 1h2l1-1 1-1 1 1-1 1h-1a6 6 0 0 1 1 4v-2l2 2 2 2a12 12 0 0 0-1-4l-1-4zm-7-2a4 4 0 0 1-2 2l2-2zm-3 3c2-1 3-2 5-1l-5 1zm10 3a3 3 0 0 1-1-2h1c1 0 0 0 0 0v2z" fill="#bd0000"/>
  <path d="M46 24a4 4 0 0 0 1-2s0-1 0 0c-1 0-3 0-3 2a1 1 0 0 1-1 0c-2 1 0 3-1 5v1a10 10 0 0 1 2 2 1 1 0 0 0 0-2c-1-2 0-4 2-6zm7 9a18 18 0 0 0 0-4 3 3 0 0 0 0 4zm-5-3a1 1 0 0 0 0 1l1 1a4 4 0 0 0 0-2h-1zm11-8v2a4 4 0 0 0 0-2zM33 35a3 3 0 0 0 1 2l-1-2zm-3 13l1 1h1v-1a2 2 0 0 0 0-1l-3-4h-1v1a5 5 0 0 0 0 2zm0 1v3l4 1-4-4zm1 6l4 2c-1-2-2-2-4-2zm15-12zM35 25zm0 0zm24-12zM45 48zm-1 0h1-1zM16 81l-1-1-1-1-1-2-2-3-1-1v1a7 7 0 0 0 1 1 5 5 0 0 1 0 2 4 4 0 0 1-1-1H8l1 1a9 9 0 0 1 2 1l1 1a3 3 0 0 1 1 0v1h1a2 2 0 0 1 1 1h1z" fill="#bd0000"/>
</svg>
