<?xml version="1.0" encoding="UTF-8" standalone="no"?>
<!DOCTYPE svg PUBLIC "-//W3C//DTD SVG 1.1//EN" "http://www.w3.org/Graphics/SVG/1.1/DTD/svg11.dtd">
<svg width="100%" height="100%" viewBox="0 0 1090 369" version="1.1" xmlns="http://www.w3.org/2000/svg" xmlns:xlink="http://www.w3.org/1999/xlink" xml:space="preserve" xmlns:serif="http://www.serif.com/" style="fill-rule:evenodd;clip-rule:evenodd;stroke-linejoin:round;stroke-miterlimit:1.41421;">
    <g transform="matrix(1,0,0,1,-198.348,-1631.31)">
        <g id="SEO" transform="matrix(0.860381,0,0,0.860381,201.729,1528.89)">
            <g>
                <g transform="matrix(1.16228,0,0,1.16228,-287.361,-682.583)">
                    <g opacity="0.69562">
                        <path d="M272.25,707.252L285.75,707.252C287.407,707.252 288.75,707.096 288.75,708.752L288.75,801.752C288.75,803.409 287.407,806.252 285.75,806.252L272.25,806.252C270.593,806.252 269.25,803.409 269.25,801.752L269.25,708.752C269.25,707.096 270.593,707.252 272.25,707.252Z" style="fill:rgb(189,0,0);fill-rule:nonzero;"/>
                        <rect x="394" y="741" width="17" height="33" style="fill:rgb(17,17,17);fill-opacity:0.297886;fill-rule:nonzero;"/>
                        <rect x="355" y="791" width="20" height="28" style="fill:rgb(189,0,0);fill-rule:nonzero;"/>
                        <path d="M291,800L291,734L287,734L287,800" style="fill:rgb(17,17,17);fill-rule:nonzero;"/>
                        <path d="M269,709.501L267,709.501L267,802.501C267.004,803.393 267.301,804.151 267.681,804.782C268.262,805.729 269.054,806.459 269.942,807.023C270.839,807.574 271.825,807.986 273,808L286.5,808C287.287,808.005 288.057,807.765 288.664,807.374C289.584,806.781 290.142,805.941 290.493,805.104C290.842,804.257 290.998,803.376 291,802.501L291,800.091L324.065,779.276C324.648,778.91 325,778.272 325,777.584L325,734.418C325,733.729 324.648,733.092 324.065,732.725L291,711.911L291,709.501C291,708.918 290.928,708.34 290.738,707.774C290.466,706.927 289.855,706.113 289.052,705.642C288.252,705.162 287.369,705.001 286.5,705L273,705C271.838,705.01 270.611,705.259 269.446,705.86C268.868,706.167 268.297,706.573 267.82,707.174C267.345,707.765 266.993,708.607 267,709.501L271,709.501L270.677,709.501L270.979,709.613L271,709.501L270.677,709.501L270.979,709.613L270.751,709.528L270.965,709.645L270.979,709.613L270.751,709.528L270.965,709.645L270.91,709.615L270.961,709.652L270.965,709.645L270.91,709.615L270.961,709.652C270.956,709.635 271.221,709.398 271.652,709.248C272.073,709.088 272.622,708.997 273,709L286.5,709C286.746,709 286.894,709.034 286.952,709.054L286.987,709.068L287.019,709.007L286.978,709.062L286.987,709.068L287.019,709.007L286.978,709.062L287.093,708.907L286.939,709.023L286.978,709.062L287.093,708.907L286.939,709.023L287.029,708.956L286.933,709.014L286.939,709.023L287.029,708.956L286.933,709.014L286.94,709.029C286.957,709.071 287.001,709.222 287,709.501L287,713.015C287,713.703 287.352,714.341 287.935,714.708L321,735.522L321,776.479L287.935,797.294C287.352,797.661 287,798.298 287,798.987L287,802.501C287.008,802.993 286.847,803.558 286.676,803.811C286.594,803.942 286.528,803.993 286.516,804L286.518,804.003L286.517,804L286.516,804L286.518,804.003L286.517,804L286.519,804.008L286.518,804L286.517,804L286.519,804.008L286.518,804L286.5,804L273,804C272.957,804.004 272.739,803.972 272.48,803.855C272.087,803.688 271.615,803.345 271.329,803.014C271.185,802.851 271.086,802.694 271.04,802.593L271.001,802.491L270.999,802.482L270.849,802.501L271,802.501L270.999,802.482L270.849,802.501L271,802.501L271,709.501L269,709.501Z" style="fill:rgb(17,17,17);fill-rule:nonzero;"/>
                        <path d="M394,727L396,727C395.999,724.238 393.762,722.002 391,722L326,722C323.238,722.002 321.001,724.238 321,727L321,787C321.001,789.763 323.238,791.999 326,792L391,792C393.762,791.999 395.999,789.763 396,787L396,727L394,727L392,727L392,787C391.999,787.552 391.552,787.999 391,788L326,788C325.448,787.999 325.001,787.552 325,787L325,727C325.001,726.449 325.448,726.001 326,726L391,726C391.552,726.001 391.999,726.449 392,727L394,727Z" style="fill:rgb(17,17,17);fill-rule:nonzero;"/>
                        <path d="M355,802L366,802L366,798L355,798" style="fill:rgb(17,17,17);fill-rule:nonzero;"/>
                        <path d="M355,811L366,811L366,807L355,807" style="fill:rgb(17,17,17);fill-rule:nonzero;"/>
                        <path d="M334,772L345,772L345,768L334,768" style="fill:rgb(17,17,17);fill-rule:nonzero;"/>
                        <path d="M334,781L381,781L381,777L334,777" style="fill:rgb(17,17,17);fill-rule:nonzero;"/>
                        <path d="M410,741L410,756L414,756L414,741" style="fill:rgb(17,17,17);fill-rule:nonzero;"/>
                    </g>
                </g>
                <g>
                    <path d="M514.578,321C512.487,321 507.605,321 507.605,321L470.399,321L405.299,321L377.399,321C377.399,321 365.559,321 361.125,321C329.025,321 303,291.976 303,259.876C303,227.775 329.025,198.752 361.125,198.752C369.437,198.752 377.32,200.525 384.478,203.67C382.919,198.423 382.049,192.88 382.049,187.127C382.049,155.027 408.073,129.002 440.18,129.002C472.274,129.002 498.299,155.027 498.299,187.127C498.299,192.169 497.594,197.035 496.389,201.697C502.119,199.81 508.225,198.752 514.578,198.752C546.68,198.752 572.704,227.775 572.704,259.876C572.704,291.976 546.68,321 514.578,321Z" style="fill:rgb(17,17,17);fill-opacity:0.300996;fill-rule:nonzero;"/>
                    <path d="M1042.58,378.001C1040.49,378.001 1035.6,378.001 1035.6,378.001L998.399,378.001L933.299,378.001L905.399,378.001C905.399,378.001 893.559,378.001 889.125,378.001C857.024,378.001 831,348.976 831,316.875C831,284.775 857.024,255.752 889.125,255.752C897.436,255.752 905.32,257.525 912.477,260.67C910.919,255.423 910.049,249.88 910.049,244.127C910.049,212.027 936.073,186.002 968.179,186.002C1000.27,186.002 1026.3,212.027 1026.3,244.127C1026.3,249.169 1025.59,254.035 1024.39,258.696C1030.12,256.81 1036.22,255.752 1042.58,255.752C1074.68,255.752 1100.7,284.775 1100.7,316.875C1100.7,348.976 1074.68,378.001 1042.58,378.001Z" style="fill:rgb(17,17,17);fill-opacity:0.300996;fill-rule:nonzero;"/>
                    <g transform="matrix(1,0,0,1,-73.4752,62.4487)">
                        <path d="M239.59,476C238.274,476 235.203,476 235.203,476L211.8,476L170.849,476L153.3,476C153.3,476 145.852,476 143.063,476C122.871,476 106.5,457.13 106.5,436.938C106.5,416.746 122.871,397.877 143.063,397.877C148.291,397.877 153.25,398.992 157.752,400.97C156.772,397.67 156.224,394.183 156.224,390.565C156.224,370.373 172.595,354.002 192.79,354.002C212.979,354.002 229.349,370.373 229.349,390.565C229.349,393.736 228.906,396.798 228.147,399.729C231.752,398.542 235.593,397.877 239.59,397.877C259.782,397.877 276.153,416.746 276.153,436.938C276.153,457.13 259.782,476 239.59,476Z" style="fill:rgb(17,17,17);fill-opacity:0.300996;fill-rule:nonzero;"/>
                    </g>
                    <path d="M731.59,458.001C730.274,458.001 727.203,458.001 727.203,458.001L703.799,458.001L662.849,458.001L645.299,458.001C645.299,458.001 637.852,458.001 635.063,458.001C614.871,458.001 598.5,439.13 598.5,418.938C598.5,398.746 614.871,379.877 635.063,379.877C640.291,379.877 645.249,380.992 649.752,382.97C648.77,379.67 648.224,376.183 648.224,372.565C648.224,352.373 664.594,336.002 684.791,336.002C704.979,336.002 721.349,352.373 721.349,372.565C721.349,375.736 720.905,378.798 720.146,381.73C723.753,380.542 727.594,379.877 731.59,379.877C751.781,379.877 768.152,398.746 768.152,418.938C768.152,439.13 751.781,458.001 731.59,458.001Z" style="fill:rgb(17,17,17);fill-opacity:0.300996;fill-rule:nonzero;"/>
                    <path d="M769.249,282L792,282L792,242L769.249,242C769.058,242 764.94,232.695 764.638,232.12L781.377,215.997L752.348,187.278L734.864,204.173C734.294,203.871 726,199.909 723,199.719L723,177L682,177L682,199.719C682,199.909 672.16,204.026 671.593,204.328L655.211,187.584L626.362,216.618L643.19,232.12C642.891,232.695 638.862,242 638.667,242L615,242L615,282L638.667,282C638.862,288 642.978,294.326 643.28,294.888L626.543,312.51L655.569,341.984L671.593,325.462C672.16,325.762 682,330.099 682,330.294L682,354L723,354L723,330.294C726,330.099 734.294,325.982 734.864,325.682L751.973,342.424L781.192,313.395L764.543,294.888C764.845,294.326 769.058,288 769.249,282Z" style="fill:rgb(189,0,0);fill-opacity:0.695714;fill-rule:nonzero;"/>
                    <path d="M724.485,265.004C724.485,276.346 715.298,285.537 703.96,285.537C692.618,285.537 683.429,276.346 683.429,265.004C683.429,253.666 692.618,244.478 703.96,244.478C715.298,244.478 724.485,253.666 724.485,265.004Z" style="fill:white;fill-opacity:0.695714;fill-rule:nonzero;"/>
                    <g transform="matrix(0.852505,0,0,0.852505,-20.8893,76.607)">
                        <g transform="matrix(1,0,0,1,-130.106,-55.9435)">
                            <path d="M304.25,387L327,387L327,347L304.25,347C304.058,347 299.94,337.695 299.638,337.12L316.377,320.997L287.348,292.278L269.864,309.173C269.294,308.871 261,304.909 258,304.719L258,282L217,282L217,304.719C217,304.909 207.16,309.026 206.593,309.328L190.211,292.584L161.362,321.618L178.191,337.12C177.892,337.695 173.863,347 173.668,347L150,347L150,387L173.668,387C173.863,393 177.979,399.326 178.28,399.888L161.543,417.51L190.569,446.984L206.593,430.462C207.16,430.762 217,435.099 217,435.294L217,459L258,459L258,435.294C261,435.099 269.294,430.982 269.864,430.682L286.973,447.424L316.192,418.395L299.543,399.888C299.845,399.326 304.058,393 304.25,387Z" style="fill:rgb(189,0,0);fill-opacity:0.695714;fill-rule:nonzero;"/>
                        </g>
                        <g transform="matrix(1,0,0,1,-130.106,-55.9435)">
                            <path d="M259.484,370.004C259.484,381.346 250.298,390.537 238.96,390.537C227.618,390.537 218.429,381.346 218.429,370.004C218.429,358.666 227.618,349.478 238.96,349.478C250.298,349.478 259.484,358.666 259.484,370.004Z" style="fill:white;fill-opacity:0.695714;fill-rule:nonzero;"/>
                        </g>
                    </g>
                    <g transform="matrix(1,0,0,1,101.477,42.0868)">
                        <g transform="matrix(1,0,0,1,91.9584,35.2458)">
                            <path d="M1037.75,393L1060,393L1060,353L1037.75,353C1037.56,353 1033.44,343.695 1033.14,343.12L1049.88,326.997L1020.85,298.278L1003.11,315.173C1002.54,314.871 994,310.909 991,310.719L991,288L951,288L951,310.719C951,310.909 940.91,315.026 940.343,315.328L923.836,298.584L894.924,327.618L911.722,343.12C911.423,343.695 907.362,353 907.167,353L883,353L883,393L907.167,393C907.362,399 911.478,405.326 911.78,405.888L895.043,423.51L924.069,452.984L940.343,436.462C940.91,436.762 951,441.099 951,441.294L951,465L991,465L991,441.294C994,441.099 1002.54,436.982 1003.11,436.682L1020.35,453.424L1049.63,424.395L1033.01,405.888C1033.31,405.326 1037.56,399 1037.75,393Z" style="fill:rgb(189,0,0);fill-opacity:0.695714;fill-rule:nonzero;"/>
                        </g>
                        <g transform="matrix(1,0,0,1,91.9584,35.2458)">
                            <path d="M992.985,376.004C992.985,387.346 983.798,396.537 972.46,396.537C961.117,396.537 951.928,387.346 951.928,376.004C951.928,364.666 961.117,355.478 972.46,355.478C983.798,355.478 992.985,364.666 992.985,376.004Z" style="fill:white;fill-opacity:0.695714;fill-rule:nonzero;"/>
                        </g>
                    </g>
                    <g transform="matrix(1,0,0,1,101.81,-0.933204)">
                        <path d="M989.24,521.962C987.798,523.669 986.062,525.119 984.114,526.235L986.35,530.14C988.758,528.761 990.898,526.972 992.677,524.867L989.24,521.962ZM977.839,528.482C976.796,528.659 975.723,528.751 974.626,528.751C973.442,528.751 972.286,528.643 971.164,528.439L970.355,532.865C971.742,533.119 973.17,533.251 974.626,533.251C975.975,533.251 977.299,533.137 978.589,532.919L977.839,528.482ZM964.918,526.108C962.985,524.967 961.268,523.494 959.848,521.768L956.373,524.627C958.125,526.756 960.242,528.573 962.631,529.983L964.918,526.108ZM956.573,515.961C955.878,513.98 955.5,511.851 955.5,509.626L955.501,509.377L951.002,509.32C951,509.422 951,509.523 951,509.626C951,512.363 951.467,515 952.327,517.451L956.573,515.961ZM956.744,502.823C957.548,500.713 958.715,498.779 960.172,497.101L956.772,494.152C954.976,496.223 953.533,498.611 952.539,501.222L956.744,502.823ZM965.352,492.895C967.275,491.827 969.399,491.081 971.656,490.73L970.963,486.283C968.173,486.718 965.543,487.641 963.167,488.961L965.352,492.895ZM978.33,490.859C980.565,491.297 982.66,492.125 984.544,493.27L986.882,489.425C984.555,488.01 981.961,486.985 979.196,486.443L978.33,490.859ZM989.558,497.676C990.945,499.407 992.037,501.383 992.758,503.527L997.023,502.093C996.131,499.44 994.781,496.998 993.07,494.862L989.558,497.676ZM993.75,509.626C993.75,511.94 993.341,514.149 992.592,516.196L996.818,517.742C997.745,515.209 998.25,512.472 998.25,509.626L993.75,509.626Z" style="fill:rgb(35,31,32);fill-opacity:0.695714;fill-rule:nonzero;"/>
                    </g>
                    <path d="M984.701,509.665C984.701,515.084 980.31,519.476 974.891,519.476C969.472,519.476 965.08,515.084 965.08,509.665C965.08,504.247 969.472,499.854 974.891,499.854C980.31,499.854 984.701,504.247 984.701,509.665Z" style="fill:white;fill-opacity:0.695714;fill-rule:nonzero;"/>
                    <path d="M215.24,242.962C213.798,244.669 212.063,246.119 210.114,247.235L212.35,251.14C214.758,249.761 216.898,247.972 218.677,245.867L215.24,242.962ZM203.84,249.482C202.796,249.659 201.723,249.751 200.627,249.751C199.442,249.751 198.286,249.643 197.164,249.439L196.356,253.865C197.742,254.119 199.17,254.251 200.627,254.251C201.975,254.251 203.3,254.137 204.59,253.919L203.84,249.482ZM190.919,247.108C188.985,245.967 187.268,244.494 185.848,242.768L182.373,245.627C184.126,247.756 186.242,249.573 188.631,250.983L190.919,247.108ZM182.574,236.961C181.879,234.98 181.5,232.851 181.5,230.626L181.502,230.377L177.002,230.32C177.001,230.422 177,230.524 177,230.626C177,233.363 177.467,236 178.328,238.451L182.574,236.961ZM182.745,223.823C183.548,221.713 184.716,219.779 186.172,218.101L182.773,215.152C180.976,217.223 179.533,219.611 178.539,222.222L182.745,223.823ZM191.353,213.895C193.276,212.827 195.399,212.081 197.656,211.73L196.964,207.283C194.174,207.718 191.543,208.641 189.167,209.961L191.353,213.895ZM204.33,211.859C206.566,212.297 208.661,213.125 210.545,214.27L212.883,210.425C210.556,209.01 207.962,207.985 205.196,207.443L204.33,211.859ZM215.559,218.676C216.946,220.407 218.037,222.383 218.758,224.527L223.023,223.093C222.131,220.44 220.782,217.998 219.07,215.862L215.559,218.676ZM219.75,230.626C219.75,232.94 219.341,235.149 218.592,237.196L222.819,238.742C223.745,236.209 224.25,233.472 224.25,230.626L219.75,230.626Z" style="fill:rgb(35,31,32);fill-opacity:0.695714;fill-rule:nonzero;"/>
                    <path d="M210.702,230.665C210.702,236.084 206.31,240.476 200.892,240.476C195.472,240.476 191.08,236.084 191.08,230.665C191.08,225.247 195.472,220.854 200.892,220.854C206.31,220.854 210.702,225.247 210.702,230.665Z" style="fill:white;fill-opacity:0.695714;fill-rule:nonzero;"/>
                    <g transform="matrix(1,0,0,1,26.9011,-80.1307)">
                        <path d="M501,260L501,273.324L531.579,252.159L501,230.992L501,242L312,242L312,260L501,260Z" style="fill:rgb(189,0,0);fill-opacity:0.695714;fill-rule:nonzero;"/>
                    </g>
                    <g transform="matrix(1,0,0,1,26.9011,-80.1307)">
                        <path d="M426,261L498,261L498,271.855C498,272.602 498.411,273.28 499.072,273.627C499.733,273.973 500.525,273.924 501.138,273.5L531.716,252.334C532.254,251.961 532.577,251.345 532.577,250.69C532.577,250.034 532.254,249.418 531.716,249.045L501.138,227.878C500.525,227.453 499.733,227.404 499.072,227.75C498.411,228.097 498,228.776 498,229.522L498,239L312,239C311.838,239.007 293.665,239.001 273.13,247.916C262.866,252.377 252.006,259.084 242.586,269.166C233.166,279.245 225.209,292.701 220.744,310.514L222.684,311L222.684,309L174,309L174,313L222.684,313C223.602,313 224.401,312.378 224.624,311.487C228.939,294.3 236.537,281.506 245.509,271.897C258.962,257.492 275.592,250.247 288.896,246.621C295.544,244.809 301.351,243.902 305.48,243.45C307.545,243.224 309.19,243.112 310.311,243.056C310.872,243.028 311.302,243.014 311.588,243.007C311.731,243.004 311.838,243.002 311.907,243.001L311.982,243.001L312,243L500,243C500.527,243 501.042,242.787 501.414,242.415C501.787,242.042 502,241.527 502,241L502,233.339L527.063,250.69L502,268.038L502,259C502,258.474 501.787,257.959 501.414,257.586C501.042,257.214 500.527,257 500,257L426,257L426,261Z" style="fill:rgb(35,31,32);fill-opacity:0.695714;fill-rule:nonzero;"/>
                    </g>
                    <path d="M666,480L666,466.554L635.421,487.718L666,508.885L666,498L855,498L855,480L666,480Z" style="fill:rgb(189,0,0);fill-opacity:0.695714;fill-rule:nonzero;"/>
                    <path d="M741,479L669,479L669,468.022C669,467.276 668.589,466.597 667.928,466.25C667.267,465.904 666.475,465.953 665.862,466.378L635.284,487.543C634.746,487.916 634.423,488.532 634.423,489.187C634.423,489.843 634.745,490.459 635.284,490.832L665.862,512C666.475,512.424 667.267,512.473 667.928,512.127C668.589,511.78 669,511.102 669,510.355L669,501L855.034,501C855.2,500.994 873.426,500.681 895.912,491.098L894.343,487.418C883.447,492.064 873.563,494.464 866.421,495.698C862.851,496.315 859.966,496.642 857.984,496.813C856.993,496.899 856.228,496.946 855.716,496.971C855.46,496.984 855.268,496.992 855.141,496.996L855.003,497L854.966,497.001L855,499L855,497L667,497C666.473,497 665.958,497.214 665.586,497.586C665.213,497.959 665,498.474 665,499L665,506.538L639.937,489.188L665,471.839L665,481C665,481.527 665.213,482.042 665.586,482.415C665.958,482.787 666.473,483 667,483L741,483L741,479Z" style="fill:rgb(35,31,32);fill-opacity:0.695714;fill-rule:nonzero;"/>
                    <g transform="matrix(1,0,0,1,319.186,-182.464)">
                        <g>
                            <g>
                                <path d="M832.638,301.502C870.751,301.502 901.654,332.401 901.654,370.516C901.654,408.63 870.751,439.531 832.638,439.531C794.524,439.531 763.623,408.63 763.623,370.516C763.623,332.401 794.524,301.502 832.638,301.502Z" style="fill:rgb(189,0,0);fill-opacity:0.695714;fill-rule:nonzero;"/>
                                <path d="M867.122,383L876,383L876,362L867.122,362C867.025,359 864.965,355.11 864.814,354.822L873.189,345.641L858.668,330.716L849.428,338.888C849.143,338.738 846,336.477 843,336.379L843,327L822,327L822,336.379C822,336.477 817.818,338.535 817.534,338.686L809.708,330.311L795.461,344.834L803.971,354.822C803.821,355.11 801.899,359 801.803,362L787,362L787,383L801.803,383C801.899,383 803.957,386.436 804.108,386.717L795.735,394.169L810.256,408.227L817.534,399.624C817.818,399.773 822,401.602 822,401.699L822,416L843,416L843,401.699C846,401.602 849.143,399.543 849.428,399.393L858.234,407.766L872.972,393.244L864.706,386.717C864.857,386.436 867.025,383 867.122,383Z" style="fill:white;fill-opacity:0.695714;fill-rule:nonzero;"/>
                                <path d="M843.499,370.252L841.249,370.252C841.248,372.744 840.246,374.98 838.614,376.615C836.978,378.248 834.742,379.251 832.249,379.252C829.757,379.251 827.521,378.248 825.885,376.615C824.253,374.98 823.25,372.744 823.249,370.252C823.25,367.759 824.253,365.523 825.885,363.888C827.521,362.255 829.756,361.253 832.249,361.252C834.742,361.253 836.978,362.255 838.614,363.888C840.246,365.523 841.248,367.759 841.249,370.252L845.749,370.252C845.748,362.795 839.706,356.753 832.249,356.752C824.792,356.753 818.751,362.795 818.749,370.252C818.751,377.708 824.792,383.75 832.249,383.752C839.707,383.75 845.748,377.708 845.749,370.252L843.499,370.252Z" style="fill:rgb(35,31,32);fill-opacity:0.695714;fill-rule:nonzero;"/>
                                <path d="M902.93,423.433L887.729,408.233L886.138,409.824L887.963,411.139C896.538,399.24 900.827,385.208 900.826,371.184C900.829,353.682 894.145,336.158 880.788,322.803C867.431,309.444 849.903,302.756 832.396,302.759C814.889,302.756 797.361,309.444 784.003,322.803C770.644,336.161 763.956,353.689 763.959,371.196C763.956,388.704 770.644,406.231 784.003,419.589C797.356,432.943 814.875,439.625 832.374,439.622C846.022,439.623 859.678,435.56 871.37,427.439L870.086,425.591L868.495,427.182L883.838,442.525L887.02,439.343L871.677,424C870.909,423.232 869.695,423.123 868.803,423.743C857.885,431.327 845.132,435.122 832.374,435.122C816.011,435.12 799.671,428.891 787.185,416.407C774.697,403.917 768.461,387.567 768.459,371.196C768.461,354.826 774.697,338.476 787.185,325.985C799.676,313.497 816.026,307.261 832.396,307.259C848.767,307.261 865.116,313.497 877.607,325.985C890.093,338.473 896.324,354.818 896.327,371.184C896.326,384.294 892.32,397.397 884.313,408.508C883.669,409.401 883.769,410.637 884.547,411.415L899.748,426.615L902.93,423.433Z" style="fill:rgb(35,31,32);fill-opacity:0.695714;fill-rule:nonzero;"/>
                                <path d="M908.764,417.599L878.005,448.359L913.006,483.362L922.022,474.344L943.418,452.949L943.765,452.602L908.764,417.599Z" style="fill:rgb(189,0,0);fill-opacity:0.695714;fill-rule:nonzero;"/>
                                <path d="M887.55,458.966L904.521,441.995L901.338,438.813L884.368,455.785" style="fill:rgb(35,31,32);fill-opacity:0.695714;fill-rule:nonzero;"/>
                                <path d="M897.097,468.511L914.067,451.541L910.885,448.359L893.915,465.329" style="fill:rgb(35,31,32);fill-opacity:0.695714;fill-rule:nonzero;"/>
                                <path d="M905.581,476.997L922.553,460.027L919.371,456.845L902.399,473.815" style="fill:rgb(35,31,32);fill-opacity:0.695714;fill-rule:nonzero;"/>
                            </g>
                        </g>
                    </g>
                    <g transform="matrix(1,0,0,1,71.045,73.2368)">
                        <path d="M833.445,330.534C855.972,330.534 874.236,348.795 874.236,371.323C874.236,393.852 855.972,412.113 833.445,412.113C810.915,412.113 792.655,393.852 792.655,371.323C792.655,348.795 810.915,330.534 833.445,330.534Z" style="fill:rgb(189,0,0);fill-opacity:0.695714;fill-rule:nonzero;"/>
                    </g>
                    <path d="M206.38,460.765L414.491,371.675L543.42,474.944C544.214,475.375 545.195,475.286 545.9,474.722L661.858,340.581L834.022,203.285L832.31,199.124L659.847,336.543C659.652,336.623 659.46,336.736 659.296,336.868L544.251,470.276L415.608,367.162C414.966,366.814 414.187,366.8 413.533,367.125L204.375,456.737L206.38,460.765Z" style="fill:rgb(35,31,32);fill-opacity:0.695714;fill-rule:nonzero;"/>
                    <g transform="matrix(1,0,0,1,2.47816,38.8485)">
                        <path d="M554,433.501C554,437.384 552.155,440.836 549.295,443.03C547.273,444.58 544.744,445.501 542,445.501C535.373,445.501 530,440.128 530,433.501C530,426.873 535.373,421.501 542,421.501C548.627,421.501 554,426.873 554,433.501Z" style="fill:rgb(189,0,0);fill-opacity:0.695714;fill-rule:nonzero;"/>
                    </g>
                    <path d="M670.999,337.501C670.999,344.128 665.626,349.501 658.999,349.501C652.372,349.501 646.999,344.128 646.999,337.501C646.999,330.873 652.372,325.501 658.999,325.501C665.626,325.501 670.999,330.873 670.999,337.501Z" style="fill:white;fill-opacity:0.695714;fill-rule:nonzero;"/>
                    <path d="M665.124,337.563C665.124,340.911 662.41,343.625 659.062,343.625C655.714,343.625 652.999,340.911 652.999,337.563C652.999,334.215 655.714,331.501 659.062,331.501C662.41,331.501 665.124,334.215 665.124,337.563Z" style="fill:rgb(189,0,0);fill-opacity:0.695714;fill-rule:nonzero;"/>
                    <g transform="matrix(1,0,0,1,2.47816,38.8485)">
                        <path d="M548.124,433.563C548.124,436.911 545.41,439.625 542.063,439.625C538.714,439.625 536,436.911 536,433.563C536,430.215 538.714,427.501 542.063,427.501C545.41,427.501 548.124,430.215 548.124,433.563Z" style="fill:white;fill-opacity:0.695714;fill-rule:nonzero;"/>
                    </g>
                    <g transform="matrix(1,0,0,1,-8.073,-76.513)">
                        <path d="M888.499,249.001C888.499,255.628 883.126,261.001 876.499,261.001C869.872,261.001 864.499,255.628 864.499,249.001C864.499,242.373 869.872,237.001 876.499,237.001C883.126,237.001 888.499,242.373 888.499,249.001Z" style="fill:rgb(189,0,0);fill-opacity:0.695714;fill-rule:nonzero;"/>
                        <path d="M882.624,249.063C882.624,252.411 879.909,255.125 876.562,255.125C873.214,255.125 870.499,252.411 870.499,249.063C870.499,245.715 873.214,243.001 876.562,243.001C879.909,243.001 882.624,245.715 882.624,249.063Z" style="fill:white;fill-opacity:0.695714;fill-rule:nonzero;"/>
                        <path d="M921.375,248.513L919.125,248.513C919.124,260.47 914.284,271.275 906.449,279.113C898.611,286.948 887.806,291.788 875.849,291.789C863.892,291.788 853.087,286.948 845.249,279.113C837.414,271.275 832.574,260.47 832.573,248.513C832.574,236.556 837.414,225.751 845.249,217.913C853.087,210.077 863.892,205.238 875.849,205.237C887.806,205.238 898.611,210.077 906.449,217.913C914.284,225.751 919.124,236.556 919.125,248.513L923.625,248.513C923.623,222.127 902.235,200.739 875.849,200.737C849.463,200.739 828.075,222.127 828.073,248.513C828.075,274.899 849.463,296.287 875.849,296.289C902.235,296.287 923.623,274.899 923.625,248.513L921.375,248.513Z" style="fill:rgb(35,31,32);fill-opacity:0.695714;fill-rule:nonzero;"/>
                        <path d="M909.75,247.95L907.5,247.95C907.499,256.439 904.066,264.103 898.504,269.668C892.939,275.23 885.275,278.663 876.786,278.664C868.298,278.663 860.634,275.23 855.069,269.668C849.507,264.103 846.074,256.439 846.073,247.95C846.074,239.462 849.507,231.798 855.069,226.233C860.634,220.671 868.298,217.238 876.786,217.237C885.275,217.238 892.939,220.671 898.504,226.233C904.066,231.798 907.499,239.462 907.5,247.95L912,247.95C911.998,228.502 896.235,212.739 876.786,212.737C857.338,212.739 841.575,228.502 841.573,247.95C841.575,267.399 857.338,283.162 876.786,283.164C896.235,283.162 911.998,267.399 912,247.95L909.75,247.95Z" style="fill:rgb(35,31,32);fill-opacity:0.695714;fill-rule:nonzero;"/>
                        <path d="M897.75,247.95L895.5,247.95C895.499,253.125 893.409,257.789 890.019,261.183C886.625,264.573 881.961,266.663 876.786,266.664C871.612,266.663 866.947,264.573 863.554,261.183C860.164,257.789 858.074,253.125 858.073,247.95C858.074,242.776 860.164,238.111 863.554,234.718C866.947,231.328 871.612,229.238 876.786,229.237C881.961,229.238 886.625,231.328 890.019,234.718C893.409,238.111 895.499,242.776 895.5,247.95L900,247.95C899.998,235.129 889.608,224.738 876.786,224.737C863.965,224.738 853.574,235.129 853.573,247.95C853.574,260.772 863.965,271.162 876.786,271.164C889.608,271.162 899.998,260.772 900,247.95L897.75,247.95Z" style="fill:rgb(35,31,32);fill-opacity:0.695714;fill-rule:nonzero;"/>
                        <path d="M877,250L952,250L952,246L877,246" style="fill:rgb(35,31,32);fill-opacity:0.695714;fill-rule:nonzero;"/>
                    </g>
                    <g transform="matrix(1,0,0,1,10.491,10.984)">
                        <path d="M416,358.501C416,365.128 410.627,370.501 404,370.501C397.373,370.501 392,365.128 392,358.501C392,351.873 397.373,346.501 404,346.501C410.627,346.501 416,351.873 416,358.501Z" style="fill:white;fill-opacity:0.695714;fill-rule:nonzero;"/>
                    </g>
                    <path d="M218,459.001C218,465.628 212.627,471.001 206,471.001C199.373,471.001 194,465.628 194,459.001C194,452.373 199.373,447.001 206,447.001C212.627,447.001 218,452.373 218,459.001Z" style="fill:rgb(189,0,0);fill-opacity:0.695714;fill-rule:nonzero;"/>
                    <g transform="matrix(1,0,0,1,10.491,10.984)">
                        <path d="M410.124,358.563C410.124,361.911 407.41,364.625 404.063,364.625C400.714,364.625 398,361.911 398,358.563C398,355.215 400.714,352.501 404.063,352.501C407.41,352.501 410.124,355.215 410.124,358.563Z" style="fill:rgb(189,0,0);fill-opacity:0.695714;fill-rule:nonzero;"/>
                    </g>
                    <path d="M212.124,459.063C212.124,462.411 209.41,465.125 206.063,465.125C202.714,465.125 200,462.411 200,459.063C200,455.715 202.714,453.001 206.063,453.001C209.41,453.001 212.124,455.715 212.124,459.063Z" style="fill:white;fill-opacity:0.695714;fill-rule:nonzero;"/>
                    <path d="M922.553,473.814L936.341,487.604L949.069,474.875L935.281,461.087L943.418,452.949L922.022,474.344L922.553,473.814Z" style="fill:white;fill-opacity:0.695714;fill-rule:nonzero;"/>
                    <path d="M559,342L604,342L604,338L559,338" style="fill:rgb(35,31,32);fill-opacity:0.695714;fill-rule:nonzero;"/>
                    <path d="M615,405L659,405C659.527,405 660.042,404.787 660.414,404.415C660.787,404.042 661,403.527 661,403L661,374L657,374L657,401L615,401L615,405Z" style="fill:rgb(35,31,32);fill-opacity:0.695714;fill-rule:nonzero;"/>
                    <g transform="matrix(1,0,0,1,-5.77502,-78.013)">
                        <path d="M961.5,249.5L971.625,239L941.25,239L934.125,249.5L941.062,260L971.625,260L961.5,249.5Z" style="fill:rgb(17,17,17);fill-opacity:0.695714;fill-rule:nonzero;"/>
                    </g>
                    <g transform="matrix(1,0,0,1,-5.90416,-37.5116)">
                        <g transform="matrix(1,0,0,1,16.047,-35.8283)">
                            <path d="M262,384L262,374.588C262.001,372.814 261.644,371.162 260.971,369.707C259.967,367.519 258.265,365.807 256.204,364.687C254.14,363.562 251.722,363.001 249.166,363L230.949,363C227.544,363.002 224.35,363.997 221.935,365.991C220.732,366.986 219.735,368.236 219.052,369.693C218.366,371.15 217.999,372.808 218,374.588L218,384L222,384L222,374.588C222.001,373.35 222.248,372.3 222.672,371.394C223.311,370.039 224.363,368.972 225.782,368.203C227.197,367.438 228.979,367 230.949,367L249.166,367C251.797,367 254.038,367.778 255.559,369.062C256.324,369.706 256.92,370.473 257.338,371.38C257.756,372.288 257.999,373.343 258,374.588L258,384L262,384Z" style="fill:rgb(35,31,32);fill-opacity:0.695714;fill-rule:nonzero;"/>
                        </g>
                        <g transform="matrix(1,0,0,1,16.047,-35.8283)">
                            <path d="M248,347.287L250,347.287C249.999,342.157 245.843,338.002 240.714,338L237.286,338C232.157,338.002 228.001,342.157 228,347.287L228,352.714C228.001,357.844 232.157,361.999 237.286,362L240.714,362C245.843,361.999 249.999,357.844 250,352.714L250,347.287L248,347.287L246,347.287L246,352.714C245.999,354.18 245.411,355.489 244.452,356.452C243.489,357.412 242.18,357.999 240.714,358L237.286,358C235.82,357.999 234.511,357.412 233.548,356.452C232.589,355.489 232.001,354.18 232,352.714L232,347.287C232.001,345.821 232.589,344.512 233.548,343.549C234.511,342.589 235.82,342.001 237.286,342L240.714,342C242.18,342.001 243.489,342.589 244.452,343.549C245.411,344.512 245.999,345.82 246,347.287L248,347.287Z" style="fill:rgb(35,31,32);fill-opacity:0.695714;fill-rule:nonzero;"/>
                        </g>
                        <g transform="matrix(1,0,0,1,16.047,-35.8283)">
                            <path d="M279,364.501L276.75,364.501C276.749,374.863 272.556,384.224 265.767,391.017C258.974,397.807 249.613,402 239.25,402.001C228.888,402 219.527,397.807 212.734,391.017C205.944,384.224 201.751,374.863 201.75,364.501C201.751,354.138 205.944,344.777 212.734,337.984C219.527,331.194 228.888,327.002 239.25,327.001C249.613,327.002 258.974,331.194 265.767,337.984C272.556,344.777 276.749,354.138 276.75,364.501L281.25,364.501C281.249,341.304 262.447,322.502 239.25,322.501C216.053,322.502 197.252,341.304 197.25,364.501C197.252,387.698 216.053,406.499 239.25,406.501C262.447,406.499 281.249,387.698 281.25,364.501L279,364.501Z" style="fill:rgb(35,31,32);fill-opacity:0.695714;fill-rule:nonzero;"/>
                        </g>
                    </g>
                    <g transform="matrix(1,0,0,1,0,-63.7776)">
                        <path d="M751,226L751,224L570,224L570,195L749,195L749,226L751,226L751,224L751,226L753,226L753,193C753,192.474 752.787,191.959 752.414,191.586C752.042,191.214 751.527,191 751,191L568,191C567.473,191 566.958,191.214 566.586,191.586C566.213,191.959 566,192.474 566,193L566,226C566,226.527 566.213,227.042 566.586,227.415C566.958,227.787 567.473,228 568,228L751,228C751.527,228 752.042,227.787 752.414,227.415C752.787,227.042 753,226.527 753,226L751,226Z" style="fill:rgb(35,31,32);fill-opacity:0.695714;fill-rule:nonzero;"/>
                        <path d="M706.5,192.751L706.5,225.751L711,225.751L711,192.751" style="fill:rgb(35,31,32);fill-opacity:0.695714;fill-rule:nonzero;"/>
                        <rect x="576" y="200" width="124" height="19" style="fill:rgb(17,17,17);fill-opacity:0.695714;fill-rule:nonzero;"/>
                        <path d="M593.824,209.163C593.824,211.599 591.848,213.575 589.412,213.575C586.976,213.575 585,211.599 585,209.163C585,206.727 586.976,204.751 589.412,204.751C591.848,204.751 593.824,206.727 593.824,209.163Z" style="fill:rgb(189,0,0);fill-opacity:0.695714;fill-rule:nonzero;"/>
                        <path d="M608.95,209.163C608.95,211.599 606.974,213.575 604.538,213.575C602.101,213.575 600.126,211.599 600.126,209.163C600.126,206.727 602.101,204.751 604.538,204.751C606.974,204.751 608.95,206.727 608.95,209.163Z" style="fill:rgb(189,0,0);fill-opacity:0.695714;fill-rule:nonzero;"/>
                        <path d="M624.076,209.163C624.076,211.599 622.1,213.575 619.664,213.575C617.228,213.575 615.252,211.599 615.252,209.163C615.252,206.727 617.228,204.751 619.664,204.751C622.1,204.751 624.076,206.727 624.076,209.163Z" style="fill:rgb(189,0,0);fill-opacity:0.695714;fill-rule:nonzero;"/>
                        <path d="M640.324,209.163C640.324,211.599 638.348,213.575 635.912,213.575C633.476,213.575 631.5,211.599 631.5,209.163C631.5,206.727 633.476,204.751 635.912,204.751C638.348,204.751 640.324,206.727 640.324,209.163Z" style="fill:rgb(189,0,0);fill-opacity:0.695714;fill-rule:nonzero;"/>
                        <path d="M655.45,209.163C655.45,211.599 653.474,213.575 651.038,213.575C648.601,213.575 646.626,211.599 646.626,209.163C646.626,206.727 648.601,204.751 651.038,204.751C653.474,204.751 655.45,206.727 655.45,209.163Z" style="fill:rgb(189,0,0);fill-opacity:0.695714;fill-rule:nonzero;"/>
                        <path d="M670.576,209.163C670.576,211.599 668.6,213.575 666.164,213.575C663.728,213.575 661.752,211.599 661.752,209.163C661.752,206.727 663.728,204.751 666.164,204.751C668.6,204.751 670.576,206.727 670.576,209.163Z" style="fill:rgb(189,0,0);fill-opacity:0.695714;fill-rule:nonzero;"/>
                    </g>
                    <g transform="matrix(1,0,0,1,-1.37988,26.2125)">
                        <path d="M462,513L462,443C462,442.474 461.787,441.959 461.414,441.586C461.042,441.214 460.527,441 460,441L402,441L402,416C402,415.474 401.787,414.959 401.414,414.586C401.042,414.214 400.527,414 400,414L350,414C349.473,414 348.958,414.214 348.586,414.586C348.213,414.959 348,415.474 348,416L348,513L352,513L352,441.932L352,418L398,418L398,443C398,443.527 398.213,444.042 398.586,444.415C398.958,444.787 399.473,445 400,445L458,445L458,513L462,513Z" style="fill:rgb(35,31,32);fill-opacity:0.695714;fill-rule:nonzero;"/>
                        <path d="M400,441L363,441L363,445L400,445" style="fill:rgb(35,31,32);fill-opacity:0.695714;fill-rule:nonzero;"/>
                        <path d="M452,443L452,441L402,441L402,435L450,435L450,443L452,443L452,441L452,443L454,443L454,433C454,432.474 453.787,431.959 453.414,431.586C453.042,431.214 452.527,431 452,431L400,431C399.473,431 398.958,431.214 398.586,431.586C398.213,431.959 398,432.474 398,433L398,443C398,443.527 398.213,444.042 398.586,444.415C398.958,444.787 399.473,445 400,445L452,445C452.527,445 453.042,444.787 453.414,444.415C453.787,444.042 454,443.527 454,443L452,443Z" style="fill:rgb(35,31,32);fill-opacity:0.695714;fill-rule:nonzero;"/>
                        <path d="M379,474L387,474L387,470L379,470" style="fill:rgb(35,31,32);fill-opacity:0.695714;fill-rule:nonzero;"/>
                        <path d="M379,487L430,487L430,483L379,483" style="fill:rgb(35,31,32);fill-opacity:0.695714;fill-rule:nonzero;"/>
                        <path d="M379,499L430,499L430,495L379,495" style="fill:rgb(35,31,32);fill-opacity:0.695714;fill-rule:nonzero;"/>
                        <path d="M393,474L400,474L400,470L393,470" style="fill:rgb(35,31,32);fill-opacity:0.695714;fill-rule:nonzero;"/>
                        <path d="M406,474L414,474L414,470L406,470" style="fill:rgb(35,31,32);fill-opacity:0.695714;fill-rule:nonzero;"/>
                        <path d="M478.25,441.063C478.25,452.903 468.65,462.5 456.812,462.5C444.973,462.5 435.375,452.903 435.375,441.063C435.375,429.223 444.973,419.626 456.812,419.626C468.65,419.626 478.25,429.223 478.25,441.063Z" style="fill:rgb(189,0,0);fill-opacity:0.695714;fill-rule:nonzero;"/>
                        <path d="M447.857,442.817L453.094,448.055C453.513,448.474 454.093,448.714 454.685,448.714C455.278,448.714 455.857,448.474 456.276,448.055L468.221,436.108L465.039,432.926L454.685,443.282L451.039,439.635L447.857,442.817Z" style="fill:rgb(35,31,32);fill-opacity:0.695714;fill-rule:nonzero;"/>
                    </g>
                    <path d="M1036.51,287.993L1014.31,292.691L1019.71,298.09L1010.16,307.636L1017.59,315.061L1027.13,305.514L1031.81,310.192L1036.51,287.993Z" style="fill:white;fill-opacity:0.695714;fill-rule:nonzero;"/>
                    <path d="M580.509,520.493L558.308,525.191L563.707,530.59L554.161,540.136L561.586,547.561L571.131,538.014L575.81,542.692L580.509,520.493Z" style="fill:white;fill-opacity:0.695714;fill-rule:nonzero;"/>
                    <g transform="matrix(1,0,0,1,87.9347,40.7819)">
                        <path d="M415.014,185.991L419.712,208.192L425.111,202.793L434.657,212.339L442.082,204.914L432.535,195.369L437.213,190.69L415.014,185.991Z" style="fill:white;fill-opacity:0.695714;fill-rule:nonzero;"/>
                    </g>
                    <g transform="matrix(1,0,0,1,-52.7297,125.359)">
                        <path d="M143.513,359.991L148.212,382.192L153.61,376.793L163.157,386.339L170.581,378.914L161.035,369.369L165.712,364.69L143.513,359.991Z" style="fill:white;fill-opacity:0.695714;fill-rule:nonzero;"/>
                    </g>
                    <g transform="matrix(1,0,0,1,58.2881,69.8189)">
                        <path d="M950.153,370.878L934.308,355.033L931.126,358.215L946.971,374.06" style="fill:rgb(35,31,32);fill-opacity:0.695714;fill-rule:nonzero;"/>
                        <path d="M961.878,365.91L957.098,370.69L960.28,373.871L965.06,369.092" style="fill:rgb(35,31,32);fill-opacity:0.695714;fill-rule:nonzero;"/>
                        <path d="M991.403,381.378L976.403,366.378L973.221,369.56L988.221,384.56" style="fill:rgb(35,31,32);fill-opacity:0.695714;fill-rule:nonzero;"/>
                        <path d="M962.531,362.438L960.281,362.438C960.282,367.203 964.141,371.062 968.906,371.063C973.671,371.062 977.53,367.203 977.531,362.438C977.53,357.674 973.671,353.814 968.906,353.813C964.141,353.814 960.282,357.674 960.281,362.438L964.781,362.438C964.782,361.291 965.239,360.275 965.989,359.521C966.742,358.771 967.759,358.314 968.906,358.313C970.053,358.314 971.07,358.771 971.823,359.521C972.573,360.275 973.03,361.291 973.031,362.438C973.03,363.585 972.573,364.602 971.823,365.355C971.07,366.105 970.053,366.562 968.906,366.563C967.759,366.562 966.742,366.105 965.989,365.355C965.239,364.602 964.782,363.585 964.781,362.438L962.531,362.438Z" style="fill:rgb(35,31,32);fill-opacity:0.695714;fill-rule:nonzero;"/>
                        <path d="M947.531,377.438L945.281,377.438C945.282,382.203 949.141,386.062 953.906,386.063C958.671,386.062 962.53,382.203 962.531,377.438C962.53,372.674 958.671,368.814 953.906,368.813C949.141,368.814 945.282,372.674 945.281,377.438L949.781,377.438C949.782,376.291 950.239,375.275 950.989,374.521C951.742,373.771 952.759,373.314 953.906,373.313C955.053,373.314 956.07,373.771 956.823,374.521C957.573,375.275 958.03,376.291 958.031,377.438C958.03,378.585 957.573,379.602 956.823,380.355C956.07,381.105 955.053,381.562 953.906,381.563C952.759,381.562 951.742,381.105 950.989,380.355C950.239,379.602 949.782,378.585 949.781,377.438L947.531,377.438Z" style="fill:rgb(35,31,32);fill-opacity:0.695714;fill-rule:nonzero;"/>
                        <path d="M922.031,351.938L919.781,351.938C919.782,356.703 923.641,360.562 928.406,360.563C933.171,360.562 937.03,356.703 937.031,351.938C937.03,347.174 933.171,343.314 928.406,343.313C923.641,343.314 919.782,347.174 919.781,351.938L924.281,351.938C924.282,350.791 924.739,349.775 925.489,349.021C926.242,348.271 927.259,347.814 928.406,347.813C929.553,347.814 930.57,348.271 931.323,349.021C932.073,349.775 932.53,350.791 932.531,351.938C932.53,353.085 932.073,354.102 931.323,354.855C930.57,355.605 929.553,356.062 928.406,356.063C927.259,356.062 926.242,355.605 925.489,354.855C924.739,354.102 924.282,353.085 924.281,351.938L922.031,351.938Z" style="fill:rgb(35,31,32);fill-opacity:0.695714;fill-rule:nonzero;"/>
                    </g>
                    <g transform="matrix(1,0,0,1,-184.409,43.3589)">
                        <g>
                            <g>
                                <path d="M419.157,321.376L403.311,305.531L400.129,308.713L415.975,324.558" style="fill:rgb(35,31,32);fill-opacity:0.695714;fill-rule:nonzero;"/>
                                <path d="M430.881,316.407L426.101,321.187L429.283,324.369L434.063,319.589" style="fill:rgb(35,31,32);fill-opacity:0.695714;fill-rule:nonzero;"/>
                                <path d="M460.407,331.876L445.407,316.876L442.225,320.058L457.225,335.058" style="fill:rgb(35,31,32);fill-opacity:0.695714;fill-rule:nonzero;"/>
                                <path d="M431.534,312.936L429.284,312.936C429.285,317.701 433.145,321.56 437.909,321.561C442.674,321.56 446.533,317.701 446.534,312.936C446.533,308.171 442.674,304.312 437.909,304.311C433.145,304.312 429.285,308.172 429.284,312.936L433.784,312.936C433.785,311.789 434.242,310.772 434.992,310.019C435.746,309.269 436.762,308.812 437.909,308.811C439.056,308.812 440.073,309.269 440.826,310.019C441.576,310.772 442.033,311.789 442.034,312.936C442.033,314.083 441.576,315.1 440.826,315.853C440.073,316.603 439.056,317.06 437.909,317.061C436.762,317.06 435.746,316.603 434.992,315.853C434.242,315.1 433.785,314.083 433.784,312.936L431.534,312.936Z" style="fill:rgb(35,31,32);fill-opacity:0.695714;fill-rule:nonzero;"/>
                                <path d="M416.534,327.936L414.284,327.936C414.285,332.701 418.145,336.56 422.909,336.561C427.674,336.56 431.533,332.701 431.534,327.936C431.533,323.171 427.674,319.312 422.909,319.311C418.145,319.312 414.285,323.172 414.284,327.936L418.784,327.936C418.785,326.789 419.242,325.772 419.992,325.019C420.746,324.269 421.762,323.812 422.909,323.811C424.056,323.812 425.073,324.269 425.826,325.019C426.576,325.772 427.033,326.789 427.034,327.936C427.033,329.083 426.576,330.1 425.826,330.853C425.073,331.603 424.056,332.06 422.909,332.061C421.762,332.06 420.746,331.603 419.992,330.853C419.242,330.1 418.785,329.083 418.784,327.936L416.534,327.936Z" style="fill:rgb(35,31,32);fill-opacity:0.695714;fill-rule:nonzero;"/>
                                <path d="M391.034,302.436L388.784,302.436C388.785,307.201 392.645,311.06 397.409,311.061C402.174,311.06 406.033,307.201 406.034,302.436C406.033,297.671 402.174,293.812 397.409,293.811C392.645,293.812 388.785,297.672 388.784,302.436L393.284,302.436C393.285,301.289 393.742,300.272 394.492,299.519C395.246,298.769 396.262,298.312 397.409,298.311C398.556,298.312 399.573,298.769 400.326,299.519C401.076,300.272 401.533,301.289 401.534,302.436C401.533,303.583 401.076,304.6 400.326,305.353C399.573,306.103 398.556,306.56 397.409,306.561C396.262,306.56 395.246,306.103 394.492,305.353C393.742,304.6 393.285,303.583 393.284,302.436L391.034,302.436Z" style="fill:rgb(35,31,32);fill-opacity:0.695714;fill-rule:nonzero;"/>
                                <g transform="matrix(1,0,0,1,-40.5644,11.087)">
                                    <path d="M536.24,347.962C534.798,349.669 533.063,351.119 531.114,352.235L533.35,356.14C535.758,354.761 537.898,352.972 539.677,350.867L536.24,347.962ZM524.839,354.482C523.796,354.659 522.723,354.751 521.627,354.751C520.442,354.751 519.286,354.643 518.164,354.439L517.356,358.865C518.742,359.119 520.169,359.251 521.627,359.251C522.974,359.251 524.3,359.137 525.589,358.919L524.839,354.482ZM511.918,352.108C509.985,350.967 508.268,349.494 506.848,347.768L503.373,350.627C505.125,352.756 507.242,354.573 509.631,355.983L511.918,352.108ZM503.573,341.961C502.879,339.98 502.5,337.851 502.5,335.626L502.502,335.377L498.002,335.32C498.001,335.422 498,335.524 498,335.626C498,338.363 498.467,341 499.327,343.451L503.573,341.961ZM503.745,328.823C504.548,326.713 505.716,324.779 507.172,323.101L503.772,320.152C501.976,322.223 500.533,324.611 499.539,327.222L503.745,328.823ZM512.352,318.895C514.276,317.827 516.399,317.081 518.656,316.73L517.963,312.283C515.174,312.718 512.543,313.641 510.167,314.961L512.352,318.895ZM525.33,316.859C527.566,317.297 529.66,318.125 531.545,319.27L533.882,315.425C531.555,314.01 528.961,312.985 526.196,312.443L525.33,316.859ZM536.558,323.676C537.946,325.407 539.037,327.383 539.758,329.527L544.023,328.093C543.131,325.44 541.782,322.998 540.07,320.862L536.558,323.676ZM540.75,335.626C540.75,337.94 540.341,340.149 539.592,342.196L543.818,343.742C544.745,341.209 545.25,338.472 545.25,335.626L540.75,335.626Z" style="fill:rgb(35,31,32);fill-opacity:0.695714;fill-rule:nonzero;"/>
                                </g>
                                <g transform="matrix(1,0,0,1,-40.5644,11.087)">
                                    <path d="M531.702,335.665C531.702,341.084 527.31,345.476 521.892,345.476C516.472,345.476 512.08,341.084 512.08,335.665C512.08,330.247 516.472,325.854 521.892,325.854C527.31,325.854 531.702,330.247 531.702,335.665Z" style="fill:rgb(189,0,0);fill-opacity:0.695714;fill-rule:nonzero;"/>
                                </g>
                            </g>
                        </g>
                    </g>
                    <rect x="759" y="159" width="42" height="26" style="fill:white;fill-opacity:0.695714;fill-rule:nonzero;"/>
                    <g transform="matrix(1,0,0,1,-22.4162,356.356)">
                        <g>
                            <g>
                                <path d="M765,169L772,169L772,165L765,165" style="fill:rgb(35,31,32);fill-opacity:0.695714;fill-rule:nonzero;"/>
                                <path d="M765,177L793,177L793,173L765,173" style="fill:rgb(35,31,32);fill-opacity:0.695714;fill-rule:nonzero;"/>
                                <path d="M888,169L895,169L895,165L888,165" style="fill:rgb(35,31,32);fill-opacity:0.695714;fill-rule:nonzero;"/>
                                <path d="M888,177L916,177L916,173L888,173" style="fill:rgb(35,31,32);fill-opacity:0.695714;fill-rule:nonzero;"/>
                                <path d="M826,169L834,169L834,165L826,165" style="fill:rgb(35,31,32);fill-opacity:0.695714;fill-rule:nonzero;"/>
                                <path d="M826,177L855,177L855,173L826,173" style="fill:rgb(35,31,32);fill-opacity:0.695714;fill-rule:nonzero;"/>
                            </g>
                        </g>
                    </g>
                    <path d="M228,523L235,523L235,519L228,519" style="fill:rgb(35,31,32);fill-opacity:0.695714;fill-rule:nonzero;"/>
                    <path d="M228,531L256,531L256,527L228,527" style="fill:rgb(35,31,32);fill-opacity:0.695714;fill-rule:nonzero;"/>
                    <path d="M289,523L297,523L297,519L289,519" style="fill:rgb(35,31,32);fill-opacity:0.695714;fill-rule:nonzero;"/>
                    <path d="M289,531L318,531L318,527L289,527" style="fill:rgb(35,31,32);fill-opacity:0.695714;fill-rule:nonzero;"/>
                    <path d="M186,498L178,498L178,502L186,502" style="fill:rgb(35,31,32);fill-opacity:0.695714;fill-rule:nonzero;"/>
                    <path d="M186,485L135,485L135,489L186,489" style="fill:rgb(35,31,32);fill-opacity:0.695714;fill-rule:nonzero;"/>
                    <path d="M186,473L135,473L135,477L186,477" style="fill:rgb(35,31,32);fill-opacity:0.695714;fill-rule:nonzero;"/>
                    <path d="M172,498L165,498L165,502L172,502" style="fill:rgb(35,31,32);fill-opacity:0.695714;fill-rule:nonzero;"/>
                    <path d="M159,498L151,498L151,502L159,502" style="fill:rgb(35,31,32);fill-opacity:0.695714;fill-rule:nonzero;"/>
                    <g transform="matrix(1,0,0,1,-49.65,53.3977)">
                        <path d="M990,262L997,262L997,258L990,258" style="fill:rgb(35,31,32);fill-opacity:0.695714;fill-rule:nonzero;"/>
                    </g>
                    <g transform="matrix(1,0,0,1,-49.65,53.3977)">
                        <path d="M990,249L1041,249L1041,245L990,245" style="fill:rgb(35,31,32);fill-opacity:0.695714;fill-rule:nonzero;"/>
                    </g>
                    <g transform="matrix(1,0,0,1,-49.65,53.3977)">
                        <path d="M990,237L1041,237L1041,233L990,233" style="fill:rgb(35,31,32);fill-opacity:0.695714;fill-rule:nonzero;"/>
                    </g>
                    <g transform="matrix(1,0,0,1,-49.65,53.3977)">
                        <path d="M1003,262L1011,262L1011,258L1003,258" style="fill:rgb(35,31,32);fill-opacity:0.695714;fill-rule:nonzero;"/>
                    </g>
                    <g transform="matrix(1,0,0,1,-49.65,53.3977)">
                        <path d="M1017,262L1024,262L1024,258L1017,258" style="fill:rgb(35,31,32);fill-opacity:0.695714;fill-rule:nonzero;"/>
                    </g>
                    <path d="M672,414L679,414L679,410L672,410" style="fill:rgb(35,31,32);fill-opacity:0.695714;fill-rule:nonzero;"/>
                    <path d="M684,414L691,414L691,410L684,410" style="fill:rgb(35,31,32);fill-opacity:0.695714;fill-rule:nonzero;"/>
                    <path d="M696,414L718,414L718,410L696,410" style="fill:rgb(35,31,32);fill-opacity:0.695714;fill-rule:nonzero;"/>
                    <path d="M724,414L729,414L729,410L724,410" style="fill:rgb(35,31,32);fill-opacity:0.695714;fill-rule:nonzero;"/>
                    <path d="M1020,346L1027,346L1027,342L1020,342" style="fill:rgb(35,31,32);fill-opacity:0.695714;fill-rule:nonzero;"/>
                    <path d="M1032,346L1039,346L1039,342L1032,342" style="fill:rgb(35,31,32);fill-opacity:0.695714;fill-rule:nonzero;"/>
                    <path d="M1044,346L1066,346L1066,342L1044,342" style="fill:rgb(35,31,32);fill-opacity:0.695714;fill-rule:nonzero;"/>
                    <path d="M1072,346L1077,346L1077,342L1072,342" style="fill:rgb(35,31,32);fill-opacity:0.695714;fill-rule:nonzero;"/>
                    <path d="M289,217L297,217L297,213L289,213" style="fill:rgb(35,31,32);fill-opacity:0.695714;fill-rule:nonzero;"/>
                    <path d="M301,217L309,217L309,213L301,213" style="fill:rgb(35,31,32);fill-opacity:0.695714;fill-rule:nonzero;"/>
                    <path d="M313,217L336,217L336,213L313,213" style="fill:rgb(35,31,32);fill-opacity:0.695714;fill-rule:nonzero;"/>
                    <path d="M342,217L346,217L346,213L342,213" style="fill:rgb(35,31,32);fill-opacity:0.695714;fill-rule:nonzero;"/>
                    <g transform="matrix(1,0,0,1,0,4.8008)">
                        <path d="M591,283L598,283L598,279L591,279" style="fill:rgb(35,31,32);fill-opacity:0.695714;fill-rule:nonzero;"/>
                        <path d="M603,283L610,283L610,279L603,279" style="fill:rgb(35,31,32);fill-opacity:0.695714;fill-rule:nonzero;"/>
                        <path d="M615,283L637,283L637,279L615,279" style="fill:rgb(35,31,32);fill-opacity:0.695714;fill-rule:nonzero;"/>
                        <path d="M643,283L648,283L648,279L643,279" style="fill:rgb(35,31,32);fill-opacity:0.695714;fill-rule:nonzero;"/>
                    </g>
                    <path d="M502,499L510,499L510,495L502,495" style="fill:rgb(35,31,32);fill-opacity:0.695714;fill-rule:nonzero;"/>
                    <path d="M514,499L522,499L522,495L514,495" style="fill:rgb(35,31,32);fill-opacity:0.695714;fill-rule:nonzero;"/>
                    <path d="M526,499L549,499L549,495L526,495" style="fill:rgb(35,31,32);fill-opacity:0.695714;fill-rule:nonzero;"/>
                    <path d="M555,499L559,499L559,495L555,495" style="fill:rgb(35,31,32);fill-opacity:0.695714;fill-rule:nonzero;"/>
                    <path d="M94,411L102,411L102,407L94,407" style="fill:rgb(35,31,32);fill-opacity:0.695714;fill-rule:nonzero;"/>
                    <path d="M106,411L114,411L114,407L106,407" style="fill:rgb(35,31,32);fill-opacity:0.695714;fill-rule:nonzero;"/>
                    <path d="M118,411L141,411L141,407L118,407" style="fill:rgb(35,31,32);fill-opacity:0.695714;fill-rule:nonzero;"/>
                    <path d="M147,411L151,411L151,407L147,407" style="fill:rgb(35,31,32);fill-opacity:0.695714;fill-rule:nonzero;"/>
                    <path d="M738.74,368.962C737.298,370.669 735.563,372.119 733.614,373.235L735.85,377.14C738.258,375.761 740.398,373.972 742.177,371.867L738.74,368.962ZM727.339,375.482C726.296,375.659 725.223,375.751 724.126,375.751C722.942,375.751 721.786,375.643 720.664,375.439L719.855,379.865C721.242,380.119 722.67,380.251 724.126,380.251C725.475,380.251 726.8,380.137 728.089,379.919L727.339,375.482ZM714.418,373.108C712.485,371.967 710.768,370.494 709.348,368.768L705.873,371.627C707.625,373.756 709.742,375.573 712.131,376.983L714.418,373.108ZM706.073,362.961C705.378,360.98 705,358.851 705,356.626L705.001,356.377L700.502,356.32C700.501,356.422 700.5,356.524 700.5,356.626C700.5,359.363 700.967,362 701.827,364.451L706.073,362.961ZM706.244,349.823C707.048,347.713 708.216,345.779 709.672,344.101L706.272,341.152C704.476,343.223 703.033,345.611 702.039,348.222L706.244,349.823ZM714.852,339.895C716.775,338.827 718.899,338.081 721.156,337.73L720.463,333.283C717.674,333.718 715.043,334.641 712.667,335.961L714.852,339.895ZM727.83,337.859C730.066,338.297 732.16,339.125 734.044,340.27L736.382,336.425C734.055,335.01 731.461,333.985 728.696,333.443L727.83,337.859ZM739.058,344.676C740.445,346.407 741.537,348.383 742.258,350.527L746.523,349.093C745.631,346.44 744.282,343.998 742.57,341.862L739.058,344.676ZM743.25,356.626C743.25,358.94 742.841,361.149 742.092,363.196L746.318,364.742C747.245,362.209 747.75,359.472 747.75,356.626L743.25,356.626Z" style="fill:rgb(35,31,32);fill-opacity:0.695714;fill-rule:nonzero;"/>
                    <path d="M734.202,356.665C734.202,362.084 729.81,366.476 724.391,366.476C718.972,366.476 714.58,362.084 714.58,356.665C714.58,351.247 718.972,346.854 724.391,346.854C729.81,346.854 734.202,351.247 734.202,356.665Z" style="fill:rgb(189,0,0);fill-opacity:0.695714;fill-rule:nonzero;"/>
                </g>
            </g>
            <g transform="matrix(1.23751,0,0,1.23751,235.929,-326.041)">
                <path d="M146.483,596.187C188.531,596.187 215.315,579.483 215.315,545.499C215.315,522.747 204.371,507.195 177.587,499.995L161.459,495.675C141.587,490.203 138.419,484.443 138.419,478.395C138.419,468.603 146.771,463.707 157.715,463.707C163.763,463.707 168.083,464.283 171.827,465.147L178.163,490.779L204.659,490.779L206.963,458.235C191.123,450.747 176.723,446.715 159.155,446.715C117.683,446.715 94.931,467.739 94.931,496.539C94.931,519.003 107.027,535.131 129.779,541.179L146.195,545.499C165.491,550.683 169.523,556.443 169.523,564.219C169.523,575.163 160.883,579.195 146.483,579.195C138.995,579.195 132.371,577.755 125.747,575.163L121.139,545.211L94.931,545.211L93.491,582.075C109.043,591.579 126.611,596.187 146.483,596.187Z" style="fill-rule:nonzero;"/>
                <path d="M300.851,462.267C308.339,462.267 315.539,469.467 315.539,489.339C315.539,504.027 311.795,508.635 297.971,508.635L284.435,508.635C285.299,472.923 291.923,462.267 300.851,462.267ZM304.307,446.715C266.579,446.715 226.835,471.483 226.835,521.019C226.835,568.539 258.515,596.187 301.715,596.187C330.227,596.187 351.827,585.819 364.211,562.491L352.979,551.547C344.915,559.323 334.547,565.083 320.147,565.083C303.155,565.083 287.603,553.275 284.723,525.051L364.787,525.051C365.939,519.867 366.227,515.835 366.227,509.787C366.227,474.939 345.491,446.715 304.307,446.715Z" style="fill-rule:nonzero;"/>
                <path d="M454.355,596.187C503.603,596.187 530.387,564.219 530.387,520.443C530.387,476.667 498.707,446.715 454.355,446.715C410.003,446.715 378.323,477.531 378.323,520.443C378.323,563.355 404.819,596.187 454.355,596.187ZM454.355,580.347C441.683,580.347 435.923,563.355 435.923,521.307C435.923,479.547 441.683,462.555 454.355,462.555C467.027,462.555 472.787,479.547 472.787,521.307C472.787,563.355 467.027,580.347 454.355,580.347Z" style="fill-rule:nonzero;"/>
            </g>
        </g>
    </g>
</svg>
