<?xml version="1.0" encoding="UTF-8" standalone="no"?>
<!DOCTYPE svg PUBLIC "-//W3C//DTD SVG 1.1//EN" "http://www.w3.org/Graphics/SVG/1.1/DTD/svg11.dtd">
<svg width="100%" height="100%" viewBox="0 0 1162 324" version="1.1" xmlns="http://www.w3.org/2000/svg" xmlns:xlink="http://www.w3.org/1999/xlink" xml:space="preserve" xmlns:serif="http://www.serif.com/" style="fill-rule:evenodd;clip-rule:evenodd;stroke-linejoin:round;stroke-miterlimit:1.41421;">
    <g transform="matrix(1,0,0,1,-160.615,-665.599)">
        <g>
            <g transform="matrix(1,0,0,1,121.801,-32.8377)">
                <g opacity="0.702255">
                    <path d="M366.158,893L394,893L394,843L366.158,843C365.92,843 360.79,831.395 360.413,830.678L381.267,810.587L345.103,774.806L323.55,795.853C322.841,795.475 312,790.539 309,790.302L309,762L258,762L258,790.302C258,790.539 245.476,795.667 244.77,796.044L224.227,775.184L188.221,811.354L209.152,830.678C208.778,831.395 203.728,843 203.485,843L174,843L174,893L203.485,893C203.728,900 208.855,908.257 209.23,908.958L188.379,930.861L224.54,967.554L244.77,946.96C245.476,947.335 258,952.725 258,952.966L258,983L309,983L309,952.966C312,952.725 322.841,947.596 323.55,947.223L344.751,968.078L381.094,931.915L360.324,908.958C360.7,908.257 365.92,900 366.158,893Z" style="fill:rgb(230,231,232);fill-rule:nonzero;"/>
                    <path d="M310.393,871.633C310.393,885.762 298.948,897.212 284.823,897.212C270.693,897.212 259.245,885.762 259.245,871.633C259.245,857.509 270.693,846.062 284.823,846.062C298.948,846.062 310.393,857.509 310.393,871.633Z" style="fill:rgb(243,244,244);fill-rule:nonzero;"/>
                    <path d="M1044.16,893L1072,893L1072,843L1044.16,843C1043.92,843 1038.79,831.395 1038.41,830.678L1059.27,810.587L1023.1,774.806L1001.55,795.853C1000.84,795.475 990,790.539 987,790.302L987,762L936,762L936,790.302C936,790.539 923.476,795.667 922.769,796.044L902.226,775.184L866.221,811.354L887.152,830.678C886.778,831.395 881.727,843 881.484,843L852,843L852,893L881.484,893C881.727,900 886.854,908.257 887.229,908.958L866.379,930.861L902.54,967.554L922.769,946.96C923.476,947.335 936,952.725 936,952.966L936,983L987,983L987,952.966C990,952.725 1000.84,947.596 1001.55,947.223L1022.75,968.078L1059.09,931.915L1038.32,908.958C1038.7,908.257 1043.92,900 1044.16,893Z" style="fill:rgb(230,231,232);fill-rule:nonzero;"/>
                    <path d="M988.393,871.633C988.393,885.762 976.948,897.212 962.823,897.212C948.693,897.212 937.245,885.762 937.245,871.633C937.245,857.509 948.693,846.062 962.823,846.062C976.948,846.062 988.393,857.509 988.393,871.633Z" style="fill:rgb(243,244,244);fill-rule:nonzero;"/>
                    <path d="M568.393,871.633C568.393,885.762 556.948,897.212 542.823,897.212C528.693,897.212 517.245,885.762 517.245,871.633C517.245,857.509 528.693,846.062 542.823,846.062C556.948,846.062 568.393,857.509 568.393,871.633Z" style="fill:rgb(243,244,244);fill-rule:nonzero;"/>
                    <g transform="matrix(1,0,0,1,71,-38.3744)">
                        <rect x="1089" y="789" width="37" height="14" style="fill:rgb(189,0,0);fill-rule:nonzero;"/>
                        <g transform="matrix(1,0,0,0.389686,0,496.186)">
                            <path d="M951,813L951,932L955,932L955,813" style="fill:rgb(17,17,17);fill-rule:nonzero;"/>
                        </g>
                        <path d="M1090,931L1090,929L1062,929L1062,903L1088,903L1088,931L1090,931L1090,929L1090,931L1092,931L1092,901C1092,900.474 1091.79,899.959 1091.41,899.586C1091.04,899.214 1090.53,899 1090,899L1060,899C1059.47,899 1058.96,899.214 1058.59,899.586C1058.21,899.959 1058,900.474 1058,901L1058,931C1058,931.527 1058.21,932.042 1058.59,932.415C1058.96,932.787 1059.47,933 1060,933L1090,933C1090.53,933 1091.04,932.787 1091.41,932.415C1091.79,932.042 1092,931.527 1092,931L1090,931Z" style="fill:rgb(17,17,17);fill-rule:nonzero;"/>
                        <path d="M1058.16,902.342L1088.16,932.343L1091.34,929.161L1061.34,899.16" style="fill:rgb(17,17,17);fill-rule:nonzero;"/>
                        <path d="M1088.16,899.16L1058.16,929.161L1061.34,932.343L1091.34,902.342" style="fill:rgb(17,17,17);fill-rule:nonzero;"/>
                        <path d="M1090,901L1090,899L1062,899L1062,873L1088,873L1088,901L1090,901L1090,899L1090,901L1092,901L1092,871C1092,870.474 1091.79,869.959 1091.41,869.586C1091.04,869.214 1090.53,869 1090,869L1060,869C1059.47,869 1058.96,869.214 1058.59,869.586C1058.21,869.959 1058,870.474 1058,871L1058,901C1058,901.527 1058.21,902.042 1058.59,902.415C1058.96,902.787 1059.47,903 1060,903L1090,903C1090.53,903 1091.04,902.787 1091.41,902.415C1091.79,902.042 1092,901.527 1092,901L1090,901Z" style="fill:rgb(17,17,17);fill-rule:nonzero;"/>
                        <path d="M1058.16,872.342L1088.16,902.343L1091.34,899.161L1061.34,869.16" style="fill:rgb(17,17,17);fill-rule:nonzero;"/>
                        <path d="M1088.16,869.16L1058.16,899.161L1061.34,902.343L1091.34,872.342" style="fill:rgb(17,17,17);fill-rule:nonzero;"/>
                        <path d="M1090,871L1090,869L1062,869L1062,843L1088,843L1088,871L1090,871L1090,869L1090,871L1092,871L1092,841C1092,840.474 1091.79,839.959 1091.41,839.586C1091.04,839.214 1090.53,839 1090,839L1060,839C1059.47,839 1058.96,839.214 1058.59,839.586C1058.21,839.959 1058,840.474 1058,841L1058,871C1058,871.527 1058.21,872.042 1058.59,872.415C1058.96,872.787 1059.47,873 1060,873L1090,873C1090.53,873 1091.04,872.787 1091.41,872.415C1091.79,872.042 1092,871.527 1092,871L1090,871Z" style="fill:rgb(17,17,17);fill-rule:nonzero;"/>
                        <path d="M1058.16,842.342L1088.16,872.343L1091.34,869.161L1061.34,839.16" style="fill:rgb(17,17,17);fill-rule:nonzero;"/>
                        <path d="M1088.16,839.16L1058.16,869.161L1061.34,872.343L1091.34,842.342" style="fill:rgb(17,17,17);fill-rule:nonzero;"/>
                        <path d="M1090,841L1090,839L1062,839L1062,813L1088,813L1088,841L1090,841L1090,839L1090,841L1092,841L1092,811C1092,810.474 1091.79,809.959 1091.41,809.586C1091.04,809.214 1090.53,809 1090,809L1060,809C1059.47,809 1058.96,809.214 1058.59,809.586C1058.21,809.959 1058,810.474 1058,811L1058,841C1058,841.527 1058.21,842.042 1058.59,842.415C1058.96,842.787 1059.47,843 1060,843L1090,843C1090.53,843 1091.04,842.787 1091.41,842.415C1091.79,842.042 1092,841.527 1092,841L1090,841Z" style="fill:rgb(17,17,17);fill-rule:nonzero;"/>
                        <path d="M1058.16,812.342L1088.16,842.343L1091.34,839.161L1061.34,809.16" style="fill:rgb(17,17,17);fill-rule:nonzero;"/>
                        <path d="M1088.16,809.16L1058.16,839.161L1061.34,842.343L1091.34,812.342" style="fill:rgb(17,17,17);fill-rule:nonzero;"/>
                        <path d="M1058.16,782.342L1088.16,812.343L1091.34,809.161L1061.34,779.16" style="fill:rgb(17,17,17);fill-rule:nonzero;"/>
                        <path d="M1088.16,779.16L1058.16,809.161L1061.34,812.343L1091.34,782.342" style="fill:rgb(17,17,17);fill-rule:nonzero;"/>
                        <path d="M1090,781L1090,779L1062,779L1062,753L1088,753L1088,781L1090,781L1090,779L1090,781L1092,781L1092,751C1092,750.474 1091.79,749.959 1091.41,749.586C1091.04,749.214 1090.53,749 1090,749L1060,749C1059.47,749 1058.96,749.214 1058.59,749.586C1058.21,749.959 1058,750.474 1058,751L1058,781C1058,781.527 1058.21,782.042 1058.59,782.415C1058.96,782.787 1059.47,783 1060,783L1090,783C1090.53,783 1091.04,782.787 1091.41,782.415C1091.79,782.042 1092,781.527 1092,781L1090,781Z" style="fill:rgb(17,17,17);fill-rule:nonzero;"/>
                        <path d="M1058.16,752.342L1088.16,782.343L1091.34,779.161L1061.34,749.16" style="fill:rgb(17,17,17);fill-rule:nonzero;"/>
                        <path d="M1088.16,749.16L1058.16,779.161L1061.34,782.343L1091.34,752.342" style="fill:rgb(17,17,17);fill-rule:nonzero;"/>
                        <path d="M1060,811L1060,809L1032,809L1032,783L1058,783L1058,811L1060,811L1060,809L1060,811L1062,811L1062,781C1062,780.474 1061.79,779.959 1061.41,779.586C1061.04,779.214 1060.53,779 1060,779L1030,779C1029.47,779 1028.96,779.214 1028.59,779.586C1028.21,779.959 1028,780.474 1028,781L1028,811C1028,811.527 1028.21,812.042 1028.59,812.415C1028.96,812.787 1029.47,813 1030,813L1060,813C1060.53,813 1061.04,812.787 1061.41,812.415C1061.79,812.042 1062,811.527 1062,811L1060,811Z" style="fill:rgb(17,17,17);fill-rule:nonzero;"/>
                        <path d="M1061.34,809.161L1031.34,779.16L1028.16,782.342L1058.16,812.343" style="fill:rgb(17,17,17);fill-rule:nonzero;"/>
                        <path d="M1058.16,779.16L1028.16,809.161L1031.34,812.343L1061.34,782.342" style="fill:rgb(17,17,17);fill-rule:nonzero;"/>
                        <path d="M1030,811L1030,809L1002,809L1002,783L1028,783L1028,811L1030,811L1030,809L1030,811L1032,811L1032,781C1032,780.474 1031.79,779.959 1031.41,779.586C1031.04,779.214 1030.53,779 1030,779L1000,779C999.473,779 998.958,779.214 998.586,779.586C998.213,779.959 998,780.474 998,781L998,811C998,811.527 998.213,812.042 998.586,812.415C998.958,812.787 999.473,813 1000,813L1030,813C1030.53,813 1031.04,812.787 1031.41,812.415C1031.79,812.042 1032,811.527 1032,811L1030,811Z" style="fill:rgb(17,17,17);fill-rule:nonzero;"/>
                        <path d="M998.159,782.342L1028.16,812.343L1031.34,809.161L1001.34,779.16" style="fill:rgb(17,17,17);fill-rule:nonzero;"/>
                        <path d="M1028.16,779.16L998.159,809.161L1001.34,812.343L1031.34,782.342" style="fill:rgb(17,17,17);fill-rule:nonzero;"/>
                        <path d="M1000,811L1000,809L972,809L972,783L998,783L998,811L1000,811L1000,809L1000,811L1002,811L1002,781C1002,780.474 1001.79,779.959 1001.41,779.586C1001.04,779.214 1000.53,779 1000,779L970,779C969.473,779 968.958,779.214 968.586,779.586C968.213,779.959 968,780.474 968,781L968,811C968,811.527 968.213,812.042 968.586,812.415C968.958,812.787 969.473,813 970,813L1000,813C1000.53,813 1001.04,812.787 1001.41,812.415C1001.79,812.042 1002,811.527 1002,811L1000,811Z" style="fill:rgb(17,17,17);fill-rule:nonzero;"/>
                        <path d="M968.159,782.342L998.16,812.343L1001.34,809.161L971.341,779.16" style="fill:rgb(17,17,17);fill-rule:nonzero;"/>
                        <path d="M998.16,779.16L968.159,809.161L971.341,812.343L1001.34,782.342" style="fill:rgb(17,17,17);fill-rule:nonzero;"/>
                        <path d="M1127,811L1127,809L1092,809L1092,783L1125,783L1125,811L1127,811L1127,809L1127,811L1129,811L1129,781C1129,780.474 1128.79,779.959 1128.41,779.586C1128.04,779.214 1127.53,779 1127,779L1090,779C1089.47,779 1088.96,779.214 1088.59,779.586C1088.21,779.959 1088,780.474 1088,781L1088,811C1088,811.527 1088.21,812.042 1088.59,812.415C1088.96,812.787 1089.47,813 1090,813L1127,813C1127.53,813 1128.04,812.787 1128.41,812.415C1128.79,812.042 1129,811.527 1129,811L1127,811Z" style="fill:rgb(17,17,17);fill-rule:nonzero;"/>
                        <path d="M1059,809L931,809L931,813L1059,813" style="fill:rgb(17,17,17);fill-rule:nonzero;"/>
                        <path d="M941,811L941,813L970,813C970.527,813 971.042,812.787 971.414,812.415C971.787,812.042 972,811.527 972,811L972,780.751C972,780.056 971.634,779.404 971.04,779.042C970.446,778.681 969.698,778.655 969.081,778.974L940.081,793.974C939.418,794.317 939,795.004 939,795.751L939,811C939,811.527 939.213,812.042 939.586,812.415C939.958,812.787 940.473,813 941,813L941,811L943,811L943,796.968L968,784.037L968,809L941,809L941,811L943,811L941,811Z" style="fill:rgb(17,17,17);fill-rule:nonzero;"/>
                        <path d="M948,805L952,805L952,801L948,801" style="fill:rgb(17,17,17);fill-rule:nonzero;"/>
                        <path d="M957,805L961,805L961,801L957,801" style="fill:rgb(17,17,17);fill-rule:nonzero;"/>
                        <path d="M1036,933L1113,933L1113,929L1036,929" style="fill:rgb(17,17,17);fill-rule:nonzero;"/>
                    </g>
                    <g transform="matrix(1,0,0,1,0.390875,-56.5634)">
                        <path d="M651,789L651,887L741,887L741,801.62L741,789L651,789Z" style="fill:rgb(189,0,0);fill-rule:nonzero;"/>
                        <path d="M704,815L704,813L688,813L688,799L702,799L702,815L704,815L704,813L704,815L706,815L706,797C706,796.474 705.787,795.959 705.414,795.586C705.042,795.214 704.527,795 704,795L686,795C685.473,795 684.958,795.214 684.586,795.586C684.213,795.959 684,796.474 684,797L684,815C684,815.527 684.213,816.042 684.586,816.415C684.958,816.787 685.473,817 686,817L704,817C704.527,817 705.042,816.787 705.414,816.415C705.787,816.042 706,815.527 706,815L704,815Z" style="fill:rgb(17,17,17);fill-rule:nonzero;"/>
                        <path d="M731,845L731,843L715,843L715,829L729,829L729,845L731,845L731,843L731,845L733,845L733,827C733,826.474 732.787,825.959 732.414,825.586C732.042,825.214 731.527,825 731,825L713,825C712.473,825 711.958,825.214 711.586,825.586C711.213,825.959 711,826.474 711,827L711,845C711,845.527 711.213,846.042 711.586,846.415C711.958,846.787 712.473,847 713,847L731,847C731.527,847 732.042,846.787 732.414,846.415C732.787,846.042 733,845.527 733,845L731,845Z" style="fill:rgb(17,17,17);fill-rule:nonzero;"/>
                        <path d="M677,845L677,843L661,843L661,829L675,829L675,845L677,845L677,843L677,845L679,845L679,827C679,826.474 678.787,825.959 678.414,825.586C678.042,825.214 677.527,825 677,825L659,825C658.473,825 657.958,825.214 657.586,825.586C657.213,825.959 657,826.474 657,827L657,845C657,845.527 657.213,846.042 657.586,846.415C657.958,846.787 658.473,847 659,847L677,847C677.527,847 678.042,846.787 678.414,846.415C678.787,846.042 679,845.527 679,845L677,845Z" style="fill:rgb(17,17,17);fill-rule:nonzero;"/>
                        <path d="M753,840L753,765.751C753.004,762.682 751.661,759.947 749.598,758.044C747.534,756.135 744.744,755.002 741.75,755L650.25,755C647.256,755.002 644.466,756.135 642.402,758.044C640.339,759.947 638.996,762.682 639,765.751L639,932L643,932L643,765.751C643.004,763.849 643.801,762.209 645.12,760.979C646.439,759.756 648.274,758.999 650.25,759L741.75,759C743.726,758.999 745.561,759.756 746.88,760.979C748.199,762.209 748.996,763.849 749,765.751L749,840L753,840Z" style="fill:rgb(17,17,17);fill-rule:nonzero;"/>
                        <path d="M642,781L751,781L751,777L642,777" style="fill:rgb(17,17,17);fill-rule:nonzero;"/>
                        <path d="M678,769L694,769L694,765L678,765" style="fill:rgb(17,17,17);fill-rule:nonzero;"/>
                        <path d="M699,769L712,769L712,765L699,765" style="fill:rgb(17,17,17);fill-rule:nonzero;"/>
                    </g>
                    <rect x="712" y="858" width="18" height="18" style="fill:rgb(189,0,0);fill-rule:nonzero;"/>
                    <g transform="matrix(1,0,0,1,14.339,0)">
                        <path d="M765.009,965.992L742.808,970.691L748.207,976.091L738.661,985.635L746.086,993.061L755.631,983.514L760.309,988.192L765.009,965.992Z" style="fill:rgb(189,0,0);fill-rule:nonzero;"/>
                    </g>
                    <path d="M208.509,968.992L186.308,973.691L191.707,979.091L182.161,988.635L189.586,996.061L199.131,986.514L203.81,991.192L208.509,968.992Z" style="fill:rgb(189,0,0);fill-rule:nonzero;"/>
                    <g transform="matrix(1,0,0,1,10.9584,63.367)">
                        <path d="M949.013,707.991L953.711,730.192L959.111,724.792L968.657,734.339L976.081,726.913L966.534,717.368L971.212,712.69L949.013,707.991Z" style="fill:rgb(189,0,0);fill-rule:nonzero;"/>
                    </g>
                    <path d="M341.514,715.491L346.212,737.692L351.611,732.292L361.157,741.839L368.581,734.413L359.035,724.868L363.712,720.19L341.514,715.491Z" style="fill:rgb(189,0,0);fill-rule:nonzero;"/>
                    <g transform="matrix(1,0,0,1,-854.549,-202.34)">
                        <path d="M998,1031L998,1029L904,1029L904,934L996,934L996,1031L998,1031L998,1029L998,1031L1000,1031L1000,932C1000,931.474 999.787,930.959 999.414,930.586C999.042,930.214 998.527,930 998,930L902,930C901.473,930 900.958,930.214 900.586,930.586C900.213,930.959 900,931.474 900,932L900,1031C900,1031.53 900.213,1032.04 900.586,1032.41C900.958,1032.79 901.473,1033 902,1033L998,1033C998.527,1033 999.042,1032.79 999.414,1032.41C999.787,1032.04 1000,1031.53 1000,1031L998,1031Z" style="fill:rgb(17,17,17);fill-rule:nonzero;"/>
                        <path d="M910,943L990,943L990,939L910,939" style="fill:rgb(17,17,17);fill-rule:nonzero;"/>
                        <rect x="910" y="950" width="80" height="73" style="fill:rgb(189,0,0);fill-rule:nonzero;"/>
                    </g>
                    <rect x="750.032" y="918.751" width="73.5" height="12" style="fill:white;fill-rule:nonzero;"/>
                    <g transform="matrix(0.000268677,1,-1,0.000268677,1706.19,94.1127)">
                        <path d="M750.032,918.751L747.782,918.751L747.782,930.751C747.782,931.343 748.022,931.923 748.441,932.342C748.86,932.761 749.44,933.001 750.032,933.001L823.532,933.001C824.125,933.001 824.704,932.761 825.123,932.342C825.542,931.923 825.782,931.343 825.782,930.751L825.782,918.751C825.782,918.158 825.542,917.579 825.123,917.16C824.704,916.741 824.125,916.501 823.532,916.501L750.032,916.501C749.44,916.501 748.86,916.741 748.441,917.16C748.022,917.579 747.782,918.158 747.782,918.751L750.032,918.751L750.032,921.001L821.282,921.001L821.282,928.501L752.282,928.501L752.282,918.751L750.032,918.751L750.032,921.001L750.032,918.751Z" style="fill:rgb(17,17,17);fill-rule:nonzero;"/>
                        <path d="M732.032,918.751L729.782,918.751L729.782,930.751C729.782,931.343 730.022,931.923 730.441,932.342C730.86,932.761 731.44,933.001 732.032,933.001L750.032,933.001C750.625,933.001 751.204,932.761 751.623,932.342C752.042,931.923 752.282,931.343 752.282,930.751L752.282,918.751C752.282,918.158 752.042,917.579 751.623,917.16C751.204,916.741 750.625,916.501 750.032,916.501L732.032,916.501C731.44,916.501 730.86,916.741 730.441,917.16C730.022,917.579 729.782,918.158 729.782,918.751L732.032,918.751L732.032,921.001L747.782,921.001L747.782,928.501L734.282,928.501L734.282,918.751L732.032,918.751L732.032,921.001L732.032,918.751Z" style="fill:rgb(17,17,17);fill-rule:nonzero;"/>
                        <path d="M841.5,924.03L840.712,921.923L825.782,927.507L825.782,921.757L840.866,926.189L841.5,924.03L840.712,921.923L841.5,924.03L842.134,921.871L824.166,916.592C823.488,916.393 822.75,916.526 822.184,916.949C821.618,917.373 821.282,918.044 821.282,918.751L821.282,930.751C821.282,931.488 821.644,932.179 822.25,932.599C822.856,933.02 823.63,933.116 824.32,932.858L842.288,926.137C843.198,925.797 843.783,924.92 843.748,923.949C843.713,922.978 843.066,922.145 842.134,921.871L841.5,924.03Z" style="fill:rgb(17,17,17);fill-rule:nonzero;"/>
                        <path d="M743.282,918.001L743.282,913.501L798.782,913.501L798.782,909.001L741.032,909.001C740.44,909.001 739.86,909.241 739.441,909.66C739.022,910.079 738.782,910.658 738.782,911.251L738.782,918.001L743.282,918.001Z" style="fill:rgb(17,17,17);fill-rule:nonzero;"/>
                    </g>
                    <g transform="matrix(1,0,0,1,618,271.344)">
                        <g transform="matrix(1,0,0,1,181,-219.844)">
                            <path d="M370,957L370,901C370,900.474 369.787,899.959 369.414,899.586C369.042,899.214 368.527,899 368,899L322,899L322,878C322,877.474 321.787,876.959 321.414,876.586C321.042,876.214 320.527,876 320,876L280,876C279.473,876 278.958,876.214 278.586,876.586C278.213,876.959 278,877.474 278,878L278,957L282,957L282,899.183L282,880L318,880L318,901C318,901.527 318.213,902.042 318.586,902.415C318.958,902.787 319.473,903 320,903L366,903L366,957L370,957Z" style="fill:rgb(17,17,17);fill-rule:nonzero;"/>
                        </g>
                        <g transform="matrix(1,0,0,1,181,-219.844)">
                            <path d="M321,899L289,899L289,903L321,903" style="fill:rgb(17,17,17);fill-rule:nonzero;"/>
                        </g>
                        <g transform="matrix(1,0,0,1,181,-219.844)">
                            <path d="M362,901L362,899L322,899L322,894L360,894L360,901L362,901L362,899L362,901L364,901L364,892C364,891.474 363.787,890.959 363.414,890.586C363.042,890.214 362.527,890 362,890L320,890C319.473,890 318.958,890.214 318.586,890.586C318.213,890.959 318,891.474 318,892L318,901C318,901.527 318.213,902.042 318.586,902.415C318.958,902.787 319.473,903 320,903L362,903C362.527,903 363.042,902.787 363.414,902.415C363.787,902.042 364,901.527 364,901L362,901Z" style="fill:rgb(17,17,17);fill-rule:nonzero;"/>
                        </g>
                        <g transform="matrix(1,0,0,1,181,-219.844)">
                            <path d="M289,957L289,909L358,909L358,957" style="fill:rgb(189,0,0);fill-rule:nonzero;"/>
                        </g>
                        <g transform="matrix(1,0,0,1,181,-219.844)">
                            <path d="M310.028,923.799L300.465,929.987C299.827,930.399 299.443,931.101 299.438,931.86C299.432,932.62 299.807,933.326 300.44,933.748L310.002,940.123L312.498,936.379L305.786,931.904L312.472,927.577L310.028,923.799Z" style="fill:rgb(17,17,17);fill-rule:nonzero;"/>
                        </g>
                        <g transform="matrix(1,0,0,1,181,-219.844)">
                            <path d="M318.703,946.188L329.953,923.5L325.922,921.501L314.672,944.189" style="fill:rgb(17,17,17);fill-rule:nonzero;"/>
                        </g>
                        <g transform="matrix(1,0,0,1,181,-219.844)">
                            <path d="M337.41,940.14L346.972,933.952C347.61,933.539 347.995,932.838 348,932.079C348.005,931.319 347.63,930.612 346.998,930.191L337.436,923.816L334.94,927.56L341.652,932.035L334.965,936.362L337.41,940.14Z" style="fill:rgb(17,17,17);fill-rule:nonzero;"/>
                        </g>
                    </g>
                    <g transform="matrix(1,0,0,1,0,19.3375)">
                        <path d="M603,947L544,947L544,951L603,951" style="fill:rgb(17,17,17);fill-rule:nonzero;"/>
                    </g>
                    <g transform="matrix(1,0,0,1,0,19.3375)">
                        <path d="M619,947L610,947L610,951L619,951" style="fill:rgb(17,17,17);fill-rule:nonzero;"/>
                    </g>
                    <g transform="matrix(1,0,0,1,0,19.3375)">
                        <path d="M552.841,953.932L547.682,948.773L552.702,943.753L549.52,940.571L542.909,947.182C542.03,948.06 542.03,949.485 542.909,950.364L549.659,957.114L552.841,953.932Z" style="fill:rgb(17,17,17);fill-rule:nonzero;"/>
                    </g>
                    <g transform="matrix(1,0,0,1,7.091,-15.6048)">
                        <path d="M559,825L616,825L616,821L559,821" style="fill:rgb(17,17,17);fill-rule:nonzero;"/>
                    </g>
                    <path d="M544,825L553,825L553,821L544,821" style="fill:rgb(17,17,17);fill-rule:nonzero;"/>
                    <g transform="matrix(1,0,0,1,7.091,-15.6048)">
                        <path d="M608.159,817.753L613.318,822.912L608.298,827.932L611.48,831.114L618.091,824.503C618.51,824.084 618.75,823.504 618.75,822.912C618.75,822.319 618.51,821.74 618.091,821.321L611.341,814.571L608.159,817.753Z" style="fill:rgb(17,17,17);fill-rule:nonzero;"/>
                    </g>
                    <g transform="matrix(1,0,0,1,41.1318,-73.8674)">
                        <path d="M908,877L908,875L835,875L835,807L906,807L906,877L908,877L908,875L908,877L910,877L910,805C910,804.474 909.787,803.959 909.414,803.586C909.042,803.214 908.527,803 908,803L833,803C832.473,803 831.958,803.214 831.586,803.586C831.213,803.959 831,804.474 831,805L831,877C831,877.527 831.213,878.042 831.586,878.415C831.958,878.787 832.473,879 833,879L908,879C908.527,879 909.042,878.787 909.414,878.415C909.787,878.042 910,877.527 910,877L908,877Z" style="fill:rgb(17,17,17);fill-rule:nonzero;"/>
                        <path d="M840,834L844,834L844,830L840,830" style="fill:rgb(17,17,17);fill-rule:nonzero;"/>
                        <path d="M859,834L901,834L901,830L859,830" style="fill:rgb(17,17,17);fill-rule:nonzero;"/>
                        <path d="M840,849L844,849L844,845L840,845" style="fill:rgb(17,17,17);fill-rule:nonzero;"/>
                        <path d="M859,849L901,849L901,845L859,845" style="fill:rgb(17,17,17);fill-rule:nonzero;"/>
                        <path d="M840,864L844,864L844,860L840,860" style="fill:rgb(17,17,17);fill-rule:nonzero;"/>
                        <path d="M847,834L852,834L852,830L847,830" style="fill:rgb(17,17,17);fill-rule:nonzero;"/>
                        <path d="M847,849L852,849L852,845L847,845" style="fill:rgb(17,17,17);fill-rule:nonzero;"/>
                        <path d="M847,864L852,864L852,860L847,860" style="fill:rgb(17,17,17);fill-rule:nonzero;"/>
                        <path d="M859,864L901,864L901,860L859,860" style="fill:rgb(17,17,17);fill-rule:nonzero;"/>
                        <rect x="840" y="812" width="61" height="10" style="fill:rgb(189,0,0);fill-rule:nonzero;"/>
                        <path d="M892,819L898,819L898,815L892,815" style="fill:rgb(35,31,32);fill-rule:nonzero;"/>
                    </g>
                    <g transform="matrix(-0.000501966,1,-1,-0.000501966,743.44,521.021)">
                        <g transform="matrix(1,0,0,1,31.9577,-96.5939)">
                            <path d="M386.501,786.751L384.251,786.751L384.251,796.501L315.251,796.501L315.251,789.001L386.501,789.001L386.501,786.751L384.251,786.751L386.501,786.751L386.501,784.501L313.001,784.501C312.408,784.501 311.829,784.741 311.41,785.16C310.991,785.579 310.751,786.158 310.751,786.751L310.751,798.751C310.751,799.343 310.991,799.923 311.41,800.342C311.829,800.761 312.408,801.001 313.001,801.001L386.501,801.001C387.093,801.001 387.673,800.761 388.092,800.342C388.511,799.923 388.751,799.343 388.751,798.751L388.751,786.751C388.751,786.158 388.511,785.579 388.092,785.16C387.673,784.741 387.093,784.501 386.501,784.501L386.501,786.751Z" style="fill:rgb(17,17,17);fill-rule:nonzero;"/>
                        </g>
                        <g transform="matrix(1,0,0,1,31.9577,-96.5939)">
                            <path d="M404.501,786.751L402.251,786.751L402.251,796.501L388.751,796.501L388.751,789.001L404.501,789.001L404.501,786.751L402.251,786.751L404.501,786.751L404.501,784.501L386.501,784.501C385.908,784.501 385.329,784.741 384.91,785.16C384.491,785.579 384.251,786.158 384.251,786.751L384.251,798.751C384.251,799.343 384.491,799.923 384.91,800.342C385.329,800.761 385.908,801.001 386.501,801.001L404.501,801.001C405.093,801.001 405.673,800.761 406.092,800.342C406.51,799.923 406.751,799.343 406.751,798.751L406.751,786.751C406.751,786.158 406.511,785.579 406.092,785.16C405.673,784.741 405.093,784.501 404.501,784.501L404.501,786.751Z" style="fill:rgb(17,17,17);fill-rule:nonzero;"/>
                        </g>
                        <g transform="matrix(1,0,0,1,31.9577,-96.5939)">
                            <path d="M295.033,792.03L294.245,794.137L312.212,800.858C312.903,801.116 313.677,801.02 314.283,800.599C314.889,800.179 315.251,799.488 315.251,798.751L315.251,786.751C315.251,786.044 314.915,785.373 314.349,784.949C313.783,784.526 313.044,784.393 312.366,784.592L294.399,789.871C293.466,790.145 292.819,790.978 292.784,791.949C292.749,792.92 293.335,793.797 294.245,794.137L295.033,792.03L295.667,794.189L310.751,789.757L310.751,795.507L295.821,789.923L295.033,792.03L295.667,794.189L295.033,792.03Z" style="fill:rgb(17,17,17);fill-rule:nonzero;"/>
                        </g>
                        <g transform="matrix(1,0,0,1,31.9577,-96.5939)">
                            <path d="M397.751,786.001L397.751,779.251C397.751,778.658 397.511,778.079 397.092,777.66C396.673,777.241 396.093,777.001 395.501,777.001L337.751,777.001L337.751,781.501L393.251,781.501L393.251,786.001L397.751,786.001Z" style="fill:rgb(17,17,17);fill-rule:nonzero;"/>
                        </g>
                    </g>
                    <g transform="matrix(1,0,0,1,14.365,-59.0575)">
                        <path d="M244,782L244,780L217,780L217,771L242,771L242,782L244,782L244,780L244,782L246,782L246,769C246,768.474 245.787,767.959 245.414,767.586C245.042,767.214 244.527,767 244,767L215,767C214.473,767 213.958,767.214 213.586,767.586C213.213,767.959 213,768.474 213,769L213,782C213,782.527 213.213,783.042 213.586,783.415C213.958,783.787 214.473,784 215,784L244,784C244.527,784 245.042,783.787 245.414,783.415C245.787,783.042 246,782.527 246,782L244,782Z" style="fill:rgb(17,17,17);fill-rule:nonzero;"/>
                    </g>
                    <g transform="matrix(1,0,0,1,14.365,-59.0575)">
                        <path d="M218,820L218,818L193,818L193,808L216,808L216,820L218,820L218,818L218,820L220,820L220,806C220,805.474 219.787,804.959 219.414,804.586C219.042,804.214 218.527,804 218,804L191,804C190.473,804 189.958,804.214 189.586,804.586C189.213,804.959 189,805.474 189,806L189,820C189,820.527 189.213,821.042 189.586,821.415C189.958,821.787 190.473,822 191,822L218,822C218.527,822 219.042,821.787 219.414,821.415C219.787,821.042 220,820.527 220,820L218,820Z" style="fill:rgb(17,17,17);fill-rule:nonzero;"/>
                    </g>
                    <g transform="matrix(1,0,0,1,14.365,-59.0575)">
                        <path d="M268,820L268,818L243,818L243,808L266,808L266,820L268,820L268,818L268,820L270,820L270,806C270,805.474 269.787,804.959 269.414,804.586C269.042,804.214 268.527,804 268,804L241,804C240.473,804 239.958,804.214 239.586,804.586C239.213,804.959 239,805.474 239,806L239,820C239,820.527 239.213,821.042 239.586,821.415C239.958,821.787 240.473,822 241,822L268,822C268.527,822 269.042,821.787 269.414,821.415C269.787,821.042 270,820.527 270,820L268,820Z" style="fill:rgb(17,17,17);fill-rule:nonzero;"/>
                    </g>
                    <g transform="matrix(1,0,0,1,14.365,-59.0575)">
                        <path d="M227,783L227,795L231,795L231,783" style="fill:rgb(17,17,17);fill-rule:nonzero;"/>
                    </g>
                    <g transform="matrix(1,0,0,1,14.365,-59.0575)">
                        <path d="M207,807L207,798L251,798L251,807L255,807L255,796C255,795.474 254.787,794.959 254.414,794.586C254.042,794.214 253.527,794 253,794L205,794C204.473,794 203.958,794.214 203.586,794.586C203.213,794.959 203,795.474 203,796L203,807L207,807Z" style="fill:rgb(17,17,17);fill-rule:nonzero;"/>
                    </g>
                    <g transform="matrix(1,0,0,1,14.365,-59.0575)">
                        <rect x="223.5" y="773.251" width="12" height="4.5" style="fill:rgb(189,0,0);fill-rule:nonzero;"/>
                    </g>
                    <g transform="matrix(1,0,0,1,14.365,-59.0575)">
                        <rect x="198.75" y="810.751" width="12" height="4.5" style="fill:rgb(189,0,0);fill-rule:nonzero;"/>
                    </g>
                    <g transform="matrix(1,0,0,1,14.365,-59.0575)">
                        <rect x="248.25" y="810.751" width="12" height="4.5" style="fill:rgb(189,0,0);fill-rule:nonzero;"/>
                    </g>
                    <path d="M320,962L320,968L324,968L324,962" style="fill:rgb(17,17,17);fill-rule:nonzero;"/>
                    <path d="M320,972L320,978L324,978L324,972" style="fill:rgb(17,17,17);fill-rule:nonzero;"/>
                    <path d="M320,983L320,989L324,989L324,983" style="fill:rgb(17,17,17);fill-rule:nonzero;"/>
                    <path d="M328,988L334,988L334,984L328,984" style="fill:rgb(17,17,17);fill-rule:nonzero;"/>
                    <path d="M339,988L345,988L345,984L339,984" style="fill:rgb(17,17,17);fill-rule:nonzero;"/>
                    <path d="M349,988L355,988L355,984L349,984" style="fill:rgb(17,17,17);fill-rule:nonzero;"/>
                    <path d="M288,988L294,988L294,984L288,984" style="fill:rgb(17,17,17);fill-rule:nonzero;"/>
                    <path d="M298,988L304,988L304,984L298,984" style="fill:rgb(17,17,17);fill-rule:nonzero;"/>
                    <path d="M309,988L315,988L315,984L309,984" style="fill:rgb(17,17,17);fill-rule:nonzero;"/>
                    <g transform="matrix(1,0,0,1,-33.5383,-36.3674)">
                        <path d="M864,774L858,774L858,778L864,778" style="fill:rgb(17,17,17);fill-rule:nonzero;"/>
                        <path d="M853,774L847,774L847,778L853,778" style="fill:rgb(17,17,17);fill-rule:nonzero;"/>
                        <path d="M844,774L838,774L838,778L844,778" style="fill:rgb(17,17,17);fill-rule:nonzero;"/>
                        <path d="M864,764L858,764L858,768L864,768" style="fill:rgb(17,17,17);fill-rule:nonzero;"/>
                        <path d="M853,764L825,764L825,768L853,768" style="fill:rgb(17,17,17);fill-rule:nonzero;"/>
                        <path d="M864,753L816,753L816,757L864,757" style="fill:rgb(17,17,17);fill-rule:nonzero;"/>
                    </g>
                    <path d="M120,803L114,803L114,807L120,807" style="fill:rgb(17,17,17);fill-rule:nonzero;"/>
                    <path d="M109,803L103,803L103,807L109,807" style="fill:rgb(17,17,17);fill-rule:nonzero;"/>
                    <path d="M100,803L94,803L94,807L100,807" style="fill:rgb(17,17,17);fill-rule:nonzero;"/>
                    <path d="M120,792L114,792L114,796L120,796" style="fill:rgb(17,17,17);fill-rule:nonzero;"/>
                    <path d="M109,792L81,792L81,796L109,796" style="fill:rgb(17,17,17);fill-rule:nonzero;"/>
                    <path d="M120,782L72,782L72,786L120,786" style="fill:rgb(17,17,17);fill-rule:nonzero;"/>
                    <path d="M360,741L367,741L367,737L360,737" style="fill:rgb(17,17,17);fill-rule:nonzero;"/>
                    <path d="M375,741L382,741L382,737L375,737" style="fill:rgb(17,17,17);fill-rule:nonzero;"/>
                    <path d="M390,741L397,741L397,737L390,737" style="fill:rgb(17,17,17);fill-rule:nonzero;"/>
                    <path d="M405,741L412,741L412,737L405,737" style="fill:rgb(17,17,17);fill-rule:nonzero;"/>
                    <path d="M693,993L700,993L700,989L693,989" style="fill:rgb(17,17,17);fill-rule:nonzero;"/>
                    <path d="M708,993L715,993L715,989L708,989" style="fill:rgb(17,17,17);fill-rule:nonzero;"/>
                    <path d="M723,993L730,993L730,989L723,989" style="fill:rgb(17,17,17);fill-rule:nonzero;"/>
                    <path d="M738,993L745,993L745,989L738,989" style="fill:rgb(17,17,17);fill-rule:nonzero;"/>
                    <path d="M111,996L160,996L160,992L111,992" style="fill:rgb(17,17,17);fill-rule:nonzero;"/>
                    <path d="M168,996L175,996L175,992L168,992" style="fill:rgb(17,17,17);fill-rule:nonzero;"/>
                    <path d="M183,996L190,996L190,992L183,992" style="fill:rgb(17,17,17);fill-rule:nonzero;"/>
                    <path d="M967,733L975,733L975,729L967,729" style="fill:rgb(17,17,17);fill-rule:nonzero;"/>
                    <path d="M982,733L990,733L990,729L982,729" style="fill:rgb(17,17,17);fill-rule:nonzero;"/>
                    <path d="M997,733L1044,733L1044,729L997,729" style="fill:rgb(17,17,17);fill-rule:nonzero;"/>
                    <g transform="matrix(1,0,0,1,9.83798,-45.228)">
                        <path d="M419,878L419,876L399,876L399,858L417,858L417,878L419,878L419,876L419,878L421,878L421,856C421,855.474 420.787,854.959 420.414,854.586C420.042,854.214 419.527,854 419,854L397,854C396.473,854 395.958,854.214 395.586,854.586C395.213,854.959 395,855.474 395,856L395,878C395,878.527 395.213,879.042 395.586,879.415C395.958,879.787 396.473,880 397,880L419,880C419.527,880 420.042,879.787 420.414,879.415C420.787,879.042 421,878.527 421,878L419,878Z" style="fill:rgb(17,17,17);fill-rule:nonzero;"/>
                    </g>
                    <g transform="matrix(1,0,0,1,9.83798,-45.228)">
                        <path d="M395.159,857.342L417.659,879.842L420.841,876.66L398.341,854.16" style="fill:rgb(17,17,17);fill-rule:nonzero;"/>
                    </g>
                    <g transform="matrix(1,0,0,1,9.83798,-45.228)">
                        <path d="M417.659,854.16L395.159,876.66L398.341,879.842L420.841,857.342" style="fill:rgb(17,17,17);fill-rule:nonzero;"/>
                    </g>
                    <g transform="matrix(1,0,0,1,-36.1554,0)">
                        <path d="M1067,1001L1067,999L1047,999L1047,981L1065,981L1065,1001L1067,1001L1067,999L1067,1001L1069,1001L1069,979C1069,978.474 1068.79,977.959 1068.41,977.586C1068.04,977.214 1067.53,977 1067,977L1045,977C1044.47,977 1043.96,977.214 1043.59,977.586C1043.21,977.959 1043,978.474 1043,979L1043,1001C1043,1001.53 1043.21,1002.04 1043.59,1002.41C1043.96,1002.79 1044.47,1003 1045,1003L1067,1003C1067.53,1003 1068.04,1002.79 1068.41,1002.41C1068.79,1002.04 1069,1001.53 1069,1001L1067,1001Z" style="fill:rgb(17,17,17);fill-rule:nonzero;"/>
                    </g>
                    <g transform="matrix(1,0,0,1,-36.1554,0)">
                        <path d="M1043.16,980.342L1065.66,1002.84L1068.84,999.66L1046.34,977.16" style="fill:rgb(17,17,17);fill-rule:nonzero;"/>
                    </g>
                    <g transform="matrix(1,0,0,1,-36.1554,0)">
                        <path d="M1065.66,977.16L1043.16,999.66L1046.34,1002.84L1068.84,980.342" style="fill:rgb(17,17,17);fill-rule:nonzero;"/>
                    </g>
                    <g transform="matrix(1,0,0,1,0.0744129,8.90851)">
                        <path d="M671,976L671,974L651,974L651,955L669,955L669,976L671,976L671,974L671,976L673,976L673,953C673,952.474 672.787,951.959 672.414,951.586C672.042,951.214 671.527,951 671,951L649,951C648.473,951 647.958,951.214 647.586,951.586C647.213,951.959 647,952.474 647,953L647,976C647,976.527 647.213,977.042 647.586,977.415C647.958,977.787 648.473,978 649,978L671,978C671.527,978 672.042,977.787 672.414,977.415C672.787,977.042 673,976.527 673,976L671,976Z" style="fill:rgb(17,17,17);fill-rule:nonzero;"/>
                    </g>
                    <g transform="matrix(1,0,0,1,0.0744129,8.90851)">
                        <path d="M647.159,954.842L669.659,977.342L672.841,974.16L650.341,951.66" style="fill:rgb(17,17,17);fill-rule:nonzero;"/>
                    </g>
                    <g transform="matrix(1,0,0,1,0.0744129,8.90851)">
                        <path d="M669.659,951.66L647.159,974.16L650.341,977.342L672.841,954.842" style="fill:rgb(17,17,17);fill-rule:nonzero;"/>
                    </g>
                    <g transform="matrix(1,0,0,1,-185,-24.8101)">
                        <path d="M809,808L809,806L789,806L789,787L807,787L807,808L809,808L809,806L809,808L811,808L811,785C811,784.474 810.786,783.959 810.414,783.586C810.042,783.214 809.526,783 809,783L787,783C786.473,783 785.958,783.214 785.586,783.586C785.213,783.959 785,784.474 785,785L785,808C785,808.527 785.213,809.042 785.586,809.415C785.958,809.787 786.473,810 787,810L809,810C809.526,810 810.042,809.787 810.414,809.415C810.786,809.042 811,808.527 811,808L809,808Z" style="fill:rgb(17,17,17);fill-rule:nonzero;"/>
                        <path d="M785.159,786.842L807.659,809.342L810.841,806.16L788.341,783.66" style="fill:rgb(17,17,17);fill-rule:nonzero;"/>
                        <path d="M807.659,783.66L785.159,806.16L788.341,809.342L810.841,786.842" style="fill:rgb(17,17,17);fill-rule:nonzero;"/>
                    </g>
                    <g transform="matrix(1,0,0,1,2.46402,33.3289)">
                        <path d="M239,943L239,941L219,941L219,922L237,922L237,943L239,943L239,941L239,943L241,943L241,920C241,919.474 240.787,918.959 240.414,918.586C240.042,918.214 239.527,918 239,918L217,918C216.473,918 215.958,918.214 215.586,918.586C215.213,918.959 215,919.474 215,920L215,943C215,943.527 215.213,944.042 215.586,944.415C215.958,944.787 216.473,945 217,945L239,945C239.527,945 240.042,944.787 240.414,944.415C240.787,944.042 241,943.527 241,943L239,943Z" style="fill:rgb(17,17,17);fill-rule:nonzero;"/>
                    </g>
                    <g transform="matrix(1,0,0,1,2.46402,33.3289)">
                        <path d="M215.159,921.842L237.659,944.342L240.841,941.16L218.341,918.66" style="fill:rgb(17,17,17);fill-rule:nonzero;"/>
                    </g>
                    <g transform="matrix(1,0,0,1,2.46402,33.3289)">
                        <path d="M237.659,918.66L215.159,941.16L218.341,944.342L240.841,921.842" style="fill:rgb(17,17,17);fill-rule:nonzero;"/>
                    </g>
                    <g transform="matrix(1,0,0,1,-70.9597,99.8289)">
                        <path d="M197,845L197,854L201,854L201,845" style="fill:rgb(17,17,17);fill-rule:nonzero;"/>
                    </g>
                    <g transform="matrix(1,0,0,1,-70.9597,99.8289)">
                        <path d="M197,861L197,869L201,869L201,861" style="fill:rgb(17,17,17);fill-rule:nonzero;"/>
                    </g>
                    <g transform="matrix(1,0,0,1,-70.9597,99.8289)">
                        <path d="M186,859L193,859L193,855L186,855" style="fill:rgb(17,17,17);fill-rule:nonzero;"/>
                    </g>
                    <g transform="matrix(1,0,0,1,-70.9597,99.8289)">
                        <path d="M204,859L211,859L211,855L204,855" style="fill:rgb(17,17,17);fill-rule:nonzero;"/>
                    </g>
                    <g transform="matrix(1,0,0,1,274.895,-70.7632)">
                        <path d="M417,965L417,974L421,974L421,965" style="fill:rgb(17,17,17);fill-rule:nonzero;"/>
                    </g>
                    <g transform="matrix(1,0,0,1,274.895,-70.7632)">
                        <path d="M417,981L417,989L421,989L421,981" style="fill:rgb(17,17,17);fill-rule:nonzero;"/>
                    </g>
                    <g transform="matrix(1,0,0,1,274.895,-70.7632)">
                        <path d="M406,979L414,979L414,975L406,975" style="fill:rgb(17,17,17);fill-rule:nonzero;"/>
                    </g>
                    <g transform="matrix(1,0,0,1,274.895,-70.7632)">
                        <path d="M424,979L432,979L432,975L424,975" style="fill:rgb(17,17,17);fill-rule:nonzero;"/>
                    </g>
                    <path d="M576,726L576,735L580,735L580,726" style="fill:rgb(17,17,17);fill-rule:nonzero;"/>
                    <path d="M576,743L576,750L580,750L580,743" style="fill:rgb(17,17,17);fill-rule:nonzero;"/>
                    <path d="M565,741L573,741L573,737L565,737" style="fill:rgb(17,17,17);fill-rule:nonzero;"/>
                    <path d="M583,741L591,741L591,737L583,737" style="fill:rgb(17,17,17);fill-rule:nonzero;"/>
                    <path d="M815,971L815,980L819,980L819,971" style="fill:rgb(17,17,17);fill-rule:nonzero;"/>
                    <path d="M815,987L815,995L819,995L819,987" style="fill:rgb(17,17,17);fill-rule:nonzero;"/>
                    <path d="M804,985L811,985L811,981L804,981" style="fill:rgb(17,17,17);fill-rule:nonzero;"/>
                    <path d="M822,985L829,985L829,981L822,981" style="fill:rgb(17,17,17);fill-rule:nonzero;"/>
                    <g transform="matrix(1,0,0,1,39.1318,119.126)">
                        <path d="M923,738L923,747L927,747L927,738" style="fill:rgb(17,17,17);fill-rule:nonzero;"/>
                    </g>
                    <g transform="matrix(1,0,0,1,39.1318,119.126)">
                        <path d="M923,755L923,762L927,762L927,755" style="fill:rgb(17,17,17);fill-rule:nonzero;"/>
                    </g>
                    <g transform="matrix(1,0,0,1,39.1318,119.126)">
                        <path d="M912,753L919,753L919,749L912,749" style="fill:rgb(17,17,17);fill-rule:nonzero;"/>
                    </g>
                    <g transform="matrix(1,0,0,1,39.1318,119.126)">
                        <path d="M930,753L937,753L937,749L930,749" style="fill:rgb(17,17,17);fill-rule:nonzero;"/>
                    </g>
                    <g transform="matrix(1,0,0,1,77.615,113.437)">
                        <path d="M134,738L134,747L138,747L138,738" style="fill:rgb(17,17,17);fill-rule:nonzero;"/>
                    </g>
                    <g transform="matrix(1,0,0,1,77.615,113.437)">
                        <path d="M134,755L134,762L138,762L138,755" style="fill:rgb(17,17,17);fill-rule:nonzero;"/>
                    </g>
                    <g transform="matrix(1,0,0,1,77.615,113.437)">
                        <path d="M120,753L129,753L129,749L120,749" style="fill:rgb(17,17,17);fill-rule:nonzero;"/>
                    </g>
                    <g transform="matrix(1,0,0,1,77.615,113.437)">
                        <path d="M142,753L151,753L151,749L142,749" style="fill:rgb(17,17,17);fill-rule:nonzero;"/>
                    </g>
                </g>
            </g>
            <g transform="matrix(0.653719,0,0,0.653719,142.538,535.361)">
                <path d="M177.91,598.628C242.231,598.628 283.203,573.075 283.203,521.09C283.203,486.286 266.461,462.496 225.49,451.482L200.819,444.873C170.42,436.503 165.574,427.692 165.574,418.44C165.574,403.461 178.35,395.972 195.091,395.972C204.343,395.972 210.951,396.853 216.679,398.174L226.371,437.384L266.902,437.384L270.426,387.601C246.196,376.147 224.168,369.979 197.294,369.979C133.854,369.979 99.05,402.139 99.05,446.195C99.05,480.559 117.553,505.23 152.357,514.481L177.469,521.09C206.986,529.02 213.154,537.831 213.154,549.726C213.154,566.467 199.937,572.635 177.91,572.635C166.455,572.635 156.322,570.432 146.19,566.467L139.141,520.649L99.05,520.649L96.847,577.04C120.637,591.579 147.511,598.628 177.91,598.628Z" style="fill-rule:nonzero;"/>
                <path d="M405.237,528.139L405.237,410.07L445.768,410.07L445.768,377.028L405.237,377.028L405.237,314.469L352.81,314.469L326.377,377.028L296.419,380.993L296.419,410.07L321.531,410.07L321.531,485.845C321.531,503.027 321.09,515.803 321.09,532.985C321.09,580.124 346.202,598.628 389.817,598.628C425.943,598.628 447.53,584.089 459.425,558.537L448.411,548.404C440.922,554.131 434.313,557.215 426.824,557.215C414.488,557.215 405.237,547.964 405.237,528.139Z" style="fill-rule:nonzero;"/>
                <path d="M464.271,591.579L604.368,591.579L604.368,569.11L570.005,561.621C569.564,540.915 569.564,516.244 569.564,499.062L569.564,471.307C573.089,451.482 584.984,431.216 595.557,419.321L597.76,422.405C609.214,439.146 620.228,446.636 634.767,446.636C652.389,446.636 666.927,432.978 668.249,409.188C665.165,382.314 648.864,369.979 627.277,369.979C606.13,369.979 581.019,388.042 569.564,425.489L566.04,374.825L558.11,369.979L460.747,400.377L460.747,418.44L484.537,422.405C485.418,440.027 485.859,447.076 485.859,471.307L485.859,499.062C485.859,517.125 485.859,543.118 485.418,564.264L464.271,569.11L464.271,591.579Z" style="fill-rule:nonzero;"/>
                <path d="M836.982,598.628C868.262,598.628 885.443,588.054 896.017,561.18L883.241,554.131C877.954,562.061 874.87,563.824 871.345,563.824C866.499,563.824 863.856,560.74 863.856,556.334L863.856,455.447C863.856,395.091 841.388,369.979 780.591,369.979C709.661,369.979 673.095,396.412 673.095,434.3C677.501,450.16 689.396,458.09 706.577,458.09C725.521,458.09 742.703,444.433 742.703,408.748L742.703,393.769C744.906,393.769 747.109,393.769 749.311,393.769C777.066,393.769 782.794,405.664 782.794,443.111L782.794,458.971C772.661,461.615 762.969,464.258 755.92,466.02C684.55,484.964 665.606,507.873 665.606,541.796C665.606,577.922 688.074,598.628 722.878,598.628C754.598,598.628 768.255,586.292 785.437,567.348C792.926,587.614 809.227,598.628 836.982,598.628ZM743.144,332.972L762.087,348.392C770.899,342.664 779.71,336.497 808.786,316.231C828.171,302.574 841.828,289.798 841.828,273.938C841.828,256.756 828.171,246.182 814.954,246.182C797.773,246.182 788.961,255.875 775.745,277.903C755.039,312.266 748.871,322.399 743.144,332.972ZM741.381,528.139C741.381,504.349 757.682,490.251 770.017,484.524C773.542,482.761 777.948,480.999 782.794,479.677L782.794,552.81C776.185,557.656 770.017,560.299 764.29,560.299C751.514,560.299 741.381,549.726 741.381,528.139Z" style="fill-rule:nonzero;"/>
                <path d="M1072.68,369.979C1047.57,369.979 1029.51,377.028 1005.72,404.783L1003.51,374.825L995.582,369.979L898.219,400.377L898.219,418.44L922.009,422.405C922.891,440.027 923.331,447.517 923.331,471.747L923.331,499.062C923.331,517.125 923.331,543.118 922.891,564.264L902.625,569.11L902.625,591.579L1024.22,591.579L1024.22,569.11L1007.48,565.586C1007.04,543.999 1007.04,517.565 1007.04,499.062L1007.04,428.573C1017.61,421.524 1028.18,417.118 1035.67,417.118C1049.77,417.118 1055.5,425.93 1055.5,449.279L1055.5,499.062C1055.5,517.565 1055.5,543.558 1055.06,564.705L1036.11,569.11L1036.11,591.579L1158.15,591.579L1158.15,569.11L1139.64,565.145C1139.2,543.999 1139.2,518.006 1139.2,499.062L1139.2,443.552C1139.2,395.531 1111.01,369.979 1072.68,369.979Z" style="fill-rule:nonzero;"/>
                <path d="M1174.45,293.763L1174.45,313.588L1198.24,317.993L1198.24,499.062C1198.24,514.481 1198.24,542.677 1197.8,564.264L1177.53,569.11L1177.53,591.579L1301.33,591.579L1301.33,569.11L1282.38,565.145C1281.94,544.439 1281.94,517.125 1281.94,498.181L1293.4,488.048L1335.25,591.579L1437.46,591.579L1437.46,569.11L1409.71,561.621L1351.55,434.741L1386.8,403.021L1425.57,397.734L1425.57,377.028L1322.48,377.028L1322.48,397.734L1351.55,402.139L1281.94,468.223L1281.94,340.021L1283.71,278.784L1276.22,273.938L1174.45,293.763Z" style="fill-rule:nonzero;"/>
                <path d="M1486.36,693.788C1529.1,693.788 1547.16,665.152 1565.66,617.572L1648.93,402.139L1675.36,397.734L1675.36,377.028L1593.42,377.028L1593.42,397.734L1618.97,403.021L1581.52,509.195L1543.63,403.021L1569.63,397.293L1569.63,377.028L1436.14,377.028L1436.14,397.734L1455.52,401.258L1546.72,610.523C1540.99,626.823 1531.3,641.802 1521.17,653.697L1518.08,648.851C1506.19,629.467 1489.89,626.823 1477.99,626.823C1459.05,626.823 1442.75,636.956 1438.78,658.984C1440.99,678.368 1462.13,693.788 1486.36,693.788Z" style="fill-rule:nonzero;"/>
            </g>
            <g transform="matrix(0.373917,0,0,0.373917,382.685,546.863)">
                <path d="M263.699,464.859L278.099,466.875L256.499,532.251L236.627,466.875L249.875,464.859L249.875,451.323L176.723,451.323L176.723,464.859L191.699,466.875L169.523,534.555L149.939,466.875L164.339,464.859L164.339,451.323L84.275,451.323L84.275,464.859L95.507,466.587L140.723,591.579L166.643,591.579L197.459,502.875L228.851,591.579L254.771,591.579L299.411,466.875L316.115,464.859L316.115,451.323L263.699,451.323L263.699,464.859Z" style="fill-rule:nonzero;"/>
                <path d="M389.267,462.267C396.755,462.267 403.955,469.467 403.955,489.339C403.955,504.027 400.211,508.635 386.387,508.635L372.851,508.635C373.715,472.923 380.339,462.267 389.267,462.267ZM392.723,446.715C354.995,446.715 315.251,471.483 315.251,521.019C315.251,568.539 346.931,596.187 390.131,596.187C418.643,596.187 440.243,585.819 452.627,562.491L441.395,551.547C433.331,559.323 422.963,565.083 408.563,565.083C391.571,565.083 376.019,553.275 373.139,525.051L453.203,525.051C454.355,519.867 454.643,515.835 454.643,509.787C454.643,474.939 433.907,446.715 392.723,446.715Z" style="fill-rule:nonzero;"/>
                <path d="M544.211,568.539C538.739,568.539 534.419,567.099 530.675,564.507L530.675,479.547C534.707,476.955 539.315,475.227 544.211,475.227C559.475,475.227 569.555,487.611 569.555,520.443C569.555,553.275 559.475,568.539 544.211,568.539ZM462.707,591.867L521.747,596.187L527.507,580.059C536.723,590.427 548.531,596.187 565.235,596.187C597.203,596.187 627.731,567.675 627.731,520.443C627.731,471.195 602.387,446.715 570.707,446.715C554.579,446.715 541.331,452.187 529.811,463.419L529.811,427.131L530.963,387.099L526.067,383.931L460.403,396.891L460.403,409.851L475.955,411.867L475.955,531.387C475.955,543.195 475.955,560.475 475.667,574.299L462.707,577.179L462.707,591.867Z" style="fill-rule:nonzero;"/>
            </g>
        </g>
    </g>
</svg>
