<?xml version="1.0" encoding="UTF-8" standalone="no"?>
<!DOCTYPE svg PUBLIC "-//W3C//DTD SVG 1.1//EN" "http://www.w3.org/Graphics/SVG/1.1/DTD/svg11.dtd">
<svg width="100%" height="100%" viewBox="0 0 1095 316" version="1.1" xmlns="http://www.w3.org/2000/svg" xmlns:xlink="http://www.w3.org/1999/xlink" xml:space="preserve" xmlns:serif="http://www.serif.com/" style="fill-rule:evenodd;clip-rule:evenodd;stroke-linejoin:round;stroke-miterlimit:1.41421;">
    <g transform="matrix(1,0,0,1,-62.404,-686.957)">
        <g>
            <g id="Design" transform="matrix(1,0,0,1,11.28,503.956)">
                <g>
                    <g opacity="0.698373">
                        <g transform="matrix(1,0,0,1,8.53254,-10.1173)">
                            <path d="M1133.94,284.16C1133.94,328.43 1098.05,364.319 1053.78,364.319C1009.51,364.319 973.624,328.43 973.624,284.16C973.624,239.889 1009.51,204.001 1053.78,204.001C1098.05,204.001 1133.94,239.889 1133.94,284.16Z" style="fill:rgb(189,0,0);fill-rule:nonzero;"/>
                        </g>
                        <g transform="matrix(1,0,0,1,8.53254,-10.1173)">
                            <path d="M1102.1,283.223C1102.1,309.389 1080.88,330.601 1054.72,330.601C1028.55,330.601 1007.34,309.389 1007.34,283.223C1007.34,257.058 1028.55,235.846 1054.72,235.846C1080.88,235.846 1102.1,257.058 1102.1,283.223Z" style="fill:white;fill-rule:nonzero;"/>
                        </g>
                        <path d="M211.442,416.16C211.442,460.43 175.553,496.319 131.284,496.319C87.013,496.319 51.124,460.43 51.124,416.16C51.124,371.889 87.013,336.001 131.284,336.001C175.553,336.001 211.442,371.889 211.442,416.16Z" style="fill:rgb(189,0,0);fill-rule:nonzero;"/>
                        <path d="M179.597,415.223C179.597,441.389 158.385,462.601 132.22,462.601C106.055,462.601 84.842,441.389 84.842,415.223C84.842,389.058 106.055,367.846 132.22,367.846C158.385,367.846 179.597,389.058 179.597,415.223Z" style="fill:white;fill-rule:nonzero;"/>
                        <path d="M192.437,197.066L215.164,304.469L241.283,278.348L287.467,324.53L323.38,288.609L277.198,242.434L299.824,219.8L192.437,197.066Z" style="fill:rgb(17,17,17);fill-opacity:0.25;fill-rule:nonzero;"/>
                        <path d="M480.475,284.889L420.059,297.934L434.534,312.409L409.357,337.587L429.522,357.748L455.388,331.945L467.903,344.785L480.475,284.889Z" style="fill:rgb(17,17,17);fill-opacity:0.25;fill-rule:nonzero;"/>
                        <path d="M886.567,227.866L899.612,288.282L914.087,273.806L939.265,298.984L959.426,278.819L933.622,252.953L946.463,240.437L886.567,227.866Z" style="fill:rgb(17,17,17);fill-opacity:0.25;fill-rule:nonzero;"/>
                        <path d="M694.658,351L723,351L723,302L694.658,302C694.419,302 689.29,290.145 688.913,289.428L709.766,269.212L673.603,233.369L651.8,254.385C651.091,254.007 640,249.039 637,248.802L637,221.001L586,221.001L586,248.802C586,249.039 573.726,254.167 573.02,254.544L552.602,233.684L516.658,269.854L537.621,289.428C537.247,290.145 532.228,302 531.984,302L502,302L502,351L531.984,351C532.228,359 537.354,366.507 537.729,367.208L516.879,389.236L553.04,425.992L573.02,405.429C573.726,405.804 586,411.225 586,411.466L586,441L637,441L637,411.466C640,411.225 651.091,406.096 651.8,405.723L673.126,426.578L709.531,390.415L688.792,367.208C689.169,366.507 694.419,359 694.658,351Z" style="fill:rgb(189,0,0);fill-rule:nonzero;"/>
                        <path d="M638.893,330.133C638.893,344.262 627.448,355.712 613.323,355.712C599.193,355.712 587.745,344.262 587.745,330.133C587.745,316.009 599.193,304.562 613.323,304.562C627.448,304.562 638.893,316.009 638.893,330.133Z" style="fill:white;fill-rule:nonzero;"/>
                        <g transform="matrix(0.821341,0,0,1.08989,46.2727,-26.1573)">
                            <rect x="166" y="291" width="93" height="89" style="fill:rgb(189,0,0);fill-rule:nonzero;"/>
                        </g>
                        <path d="M120,381L132,381L132,377L120,377" style="fill:rgb(0,1,17);fill-rule:nonzero;"/>
                        <path d="M258,240.001L258,282L262,282L262,240.001" style="fill:rgb(0,1,17);fill-rule:nonzero;"/>
                        <path d="M120,231.001L250,231.001L250,227.001L120,227.001" style="fill:rgb(0,1,17);fill-rule:nonzero;"/>
                        <path d="M112,369L112,239.001L108,239.001L108,369" style="fill:rgb(0,1,17);fill-rule:nonzero;"/>
                        <path d="M121,238.001L121,236.001L103,236.001L103,220.001L119,220.001L119,238.001L121,238.001L121,236.001L121,238.001L123,238.001L123,218.001C123,217.474 122.787,216.959 122.414,216.586C122.042,216.214 121.527,216.001 121,216.001L101,216.001C100.473,216.001 99.958,216.214 99.585,216.586C99.213,216.959 99,217.474 99,218.001L99,238.001C99,238.527 99.213,239.042 99.585,239.415C99.958,239.787 100.473,240.001 101,240.001L121,240.001C121.527,240.001 122.042,239.787 122.414,239.415C122.787,239.042 123,238.527 123,238.001L121,238.001Z" style="fill:rgb(0,1,17);fill-rule:nonzero;"/>
                        <path d="M271,239.001L271,237.001L253,237.001L253,222L269,222L269,239.001L271,239.001L271,237.001L271,239.001L273,239.001L273,220.001C273,219.474 272.787,218.959 272.414,218.586C272.042,218.214 271.527,218.001 271,218.001L251,218.001C250.473,218.001 249.958,218.214 249.586,218.586C249.213,218.959 249,219.474 249,220.001L249,239.001C249,239.527 249.213,240.042 249.586,240.415C249.958,240.787 250.473,241.001 251,241.001L271,241.001C271.527,241.001 272.042,240.787 272.414,240.415C272.787,240.042 273,239.527 273,239.001L271,239.001Z" style="fill:rgb(0,1,17);fill-rule:nonzero;"/>
                        <path d="M121,388L121,386L103,386L103,370L119,370L119,388L121,388L121,386L121,388L123,388L123,368C123,367.474 122.787,366.959 122.414,366.586C122.042,366.214 121.527,366 121,366L101,366C100.473,366 99.958,366.214 99.585,366.586C99.213,366.959 99,367.474 99,368L99,388C99,388.527 99.213,389.042 99.585,389.415C99.958,389.787 100.473,390 101,390L121,390C121.527,390 122.042,389.787 122.414,389.415C122.787,389.042 123,388.527 123,388L121,388Z" style="fill:rgb(0,1,17);fill-rule:nonzero;"/>
                        <rect x="107.25" y="224.251" width="7.5" height="7.5" style="fill:rgb(17,17,17);fill-rule:nonzero;"/>
                        <rect x="107.25" y="374.251" width="7.5" height="7.5" style="fill:rgb(17,17,17);fill-rule:nonzero;"/>
                        <path d="M1095,294L1083,294L1083,298L1095,298" style="fill:rgb(0,1,17);fill-rule:nonzero;"/>
                        <path d="M957,435L957,423L953,423L953,435" style="fill:rgb(0,1,17);fill-rule:nonzero;"/>
                        <path d="M1095,444L964,444L964,448L1095,448" style="fill:rgb(0,1,17);fill-rule:nonzero;"/>
                        <path d="M1103,306L1103,437L1107,437L1107,306" style="fill:rgb(0,1,17);fill-rule:nonzero;"/>
                        <path d="M1094,437L1094,439L1112,439L1112,455L1096,455L1096,437L1094,437L1094,439L1094,437L1092,437L1092,457C1092,457.527 1092.21,458.042 1092.59,458.415C1092.96,458.787 1093.47,459 1094,459L1114,459C1114.53,459 1115.04,458.787 1115.41,458.415C1115.79,458.042 1116,457.527 1116,457L1116,437C1116,436.474 1115.79,435.959 1115.41,435.586C1115.04,435.214 1114.53,435 1114,435L1094,435C1093.47,435 1092.96,435.214 1092.59,435.586C1092.21,435.959 1092,436.474 1092,437L1094,437Z" style="fill:rgb(0,1,17);fill-rule:nonzero;"/>
                        <path d="M944,436L944,438L962,438L962,453L946,453L946,436L944,436L944,438L944,436L942,436L942,455C942,455.527 942.213,456.042 942.586,456.415C942.958,456.787 943.473,457 944,457L964,457C964.527,457 965.042,456.787 965.414,456.415C965.787,456.042 966,455.527 966,455L966,436C966,435.474 965.787,434.959 965.414,434.586C965.042,434.214 964.527,434 964,434L944,434C943.473,434 942.958,434.214 942.586,434.586C942.213,434.959 942,435.474 942,436L944,436Z" style="fill:rgb(0,1,17);fill-rule:nonzero;"/>
                        <path d="M1094,287L1094,289L1112,289L1112,305L1096,305L1096,287L1094,287L1094,289L1094,287L1092,287L1092,307C1092,307.527 1092.21,308.042 1092.59,308.415C1092.96,308.787 1093.47,309 1094,309L1114,309C1114.53,309 1115.04,308.787 1115.41,308.415C1115.79,308.042 1116,307.527 1116,307L1116,287C1116,286.474 1115.79,285.959 1115.41,285.586C1115.04,285.214 1114.53,285 1114,285L1094,285C1093.47,285 1092.96,285.214 1092.59,285.586C1092.21,285.959 1092,286.474 1092,287L1094,287Z" style="fill:rgb(0,1,17);fill-rule:nonzero;"/>
                        <rect x="1100.25" y="443.251" width="7.5" height="7.5" style="fill:rgb(17,17,17);fill-rule:nonzero;"/>
                        <rect x="1100.25" y="293.251" width="7.5" height="7.5" style="fill:rgb(17,17,17);fill-rule:nonzero;"/>
                        <rect x="950.25" y="442.126" width="7.5" height="7.5" style="fill:rgb(17,17,17);fill-rule:nonzero;"/>
                        <path d="M488.303,303.997C488.304,296.132 489.862,289.023 492.788,282.719C497.179,273.269 504.658,265.58 514.833,259.986C525.004,254.398 537.874,250.944 552.877,250.104L552.625,245.611C531.908,246.774 514.754,252.748 502.688,262.812C496.66,267.841 491.921,273.897 488.706,280.824C485.49,287.75 483.801,295.537 483.803,303.997L488.303,303.997Z" style="fill:rgb(0,1,17);fill-rule:nonzero;"/>
                        <path d="M567.749,249.902L634.5,249.902L634.5,245.402L567.749,245.402" style="fill:rgb(0,1,17);fill-rule:nonzero;"/>
                        <path d="M483,249.902L552.746,249.902L552.746,245.402L483,245.402" style="fill:rgb(0,1,17);fill-rule:nonzero;"/>
                        <path d="M484,256L484,254L471,254L471,243.001L482,243.001L482,256L484,256L484,254L484,256L486,256L486,241.001C486,240.474 485.787,239.959 485.414,239.586C485.042,239.214 484.527,239.001 484,239.001L469,239.001C468.473,239.001 467.958,239.214 467.586,239.586C467.213,239.959 467,240.474 467,241.001L467,256C467,256.527 467.213,257.042 467.586,257.415C467.958,257.787 468.473,258 469,258L484,258C484.527,258 485.042,257.787 485.414,257.415C485.787,257.042 486,256.527 486,256L484,256Z" style="fill:rgb(0,1,17);fill-rule:nonzero;"/>
                        <path d="M649,256L649,254L636,254L636,243.001L647,243.001L647,256L649,256L649,254L649,256L651,256L651,241.001C651,240.474 650.787,239.959 650.414,239.586C650.042,239.214 649.527,239.001 649,239.001L634,239.001C633.473,239.001 632.958,239.214 632.586,239.586C632.213,239.959 632,240.474 632,241.001L632,256C632,256.527 632.213,257.042 632.586,257.415C632.958,257.787 633.473,258 634,258L649,258C649.527,258 650.042,257.787 650.414,257.415C650.787,257.042 651,256.527 651,256L649,256Z" style="fill:rgb(0,1,17);fill-rule:nonzero;"/>
                        <path d="M568,256L568,254L555,254L555,243.001L566,243.001L566,256L568,256L568,254L568,256L570,256L570,241.001C570,240.474 569.787,239.959 569.414,239.586C569.042,239.214 568.527,239.001 568,239.001L553,239.001C552.473,239.001 551.958,239.214 551.586,239.586C551.213,239.959 551,240.474 551,241.001L551,256C551,256.527 551.213,257.042 551.586,257.415C551.958,257.787 552.473,258 553,258L568,258C568.527,258 569.042,257.787 569.414,257.415C569.787,257.042 570,256.527 570,256L568,256Z" style="fill:rgb(0,1,17);fill-rule:nonzero;"/>
                        <path d="M493,319L493,317L480,317L480,306L491,306L491,319L493,319L493,317L493,319L495,319L495,304C495,303.474 494.787,302.959 494.414,302.586C494.042,302.214 493.527,302 493,302L478,302C477.473,302 476.958,302.214 476.586,302.586C476.213,302.959 476,303.474 476,304L476,319C476,319.527 476.213,320.042 476.586,320.415C476.958,320.787 477.473,321 478,321L493,321C493.527,321 494.042,320.787 494.414,320.415C494.787,320.042 495,319.527 495,319L493,319Z" style="fill:rgb(0,1,17);fill-rule:nonzero;"/>
                        <path d="M673,414.433L674.511,413.122L661,397.551L661,346L671,346L671,414.433L673,414.433L674.511,413.122L673,414.433L675,414.433L675,344C675,343.474 674.787,342.959 674.414,342.586C674.042,342.214 673.527,342 673,342L659,342C658.473,342 657.958,342.214 657.586,342.586C657.213,342.959 657,343.474 657,344L657,398.298C657,398.777 657.175,399.247 657.489,399.608L671.489,415.744C672.035,416.373 672.919,416.598 673.699,416.307C674.48,416.015 675,415.266 675,414.433L673,414.433Z" style="fill:rgb(0,1,17);fill-rule:nonzero;"/>
                        <path d="M683,414.433L684.465,415.795L699.465,399.659C699.807,399.291 700,398.801 700,398.298L700,344C700,343.474 699.787,342.959 699.414,342.586C699.042,342.214 698.527,342 698,342L683,342C682.473,342 681.958,342.214 681.586,342.586C681.213,342.959 681,343.474 681,344L681,414.433C681,415.254 681.504,415.994 682.268,416.294C683.033,416.595 683.906,416.396 684.465,415.795L683,414.433L685,414.433L685,346L696,346L696,397.512L681.535,413.071L683,414.433L685,414.433L683,414.433Z" style="fill:rgb(0,1,17);fill-rule:nonzero;"/>
                        <path d="M671,414L671,423L675,423L675,414" style="fill:rgb(0,1,17);fill-rule:nonzero;"/>
                        <path d="M681,414L681,423L685,423L685,414" style="fill:rgb(0,1,17);fill-rule:nonzero;"/>
                        <path d="M689,328L691,328L691,305C691,304.474 690.787,303.959 690.414,303.586C690.042,303.214 689.527,303 689,303L667,303C666.473,303 665.958,303.214 665.586,303.586C665.213,303.959 665,304.474 665,305L665,326L659,326C658.473,326 657.958,326.214 657.586,326.586C657.213,326.959 657,327.474 657,328L657,344C657,344.527 657.213,345.042 657.586,345.415C657.958,345.787 658.473,346 659,346L698,346C698.527,346 699.042,345.787 699.414,345.415C699.786,345.042 700,344.527 700,344L700,328C700,327.474 699.787,326.959 699.414,326.586C699.042,326.214 698.527,326 698,326L689,326L689,328L691,328L689,328L689,330L696,330L696,342L661,342L661,330L667,330C667.527,330 668.042,329.787 668.414,329.415C668.787,329.042 669,328.527 669,328L669,307L687,307L687,328C687,328.527 687.213,329.042 687.586,329.415C687.958,329.787 688.473,330 689,330L689,328Z" style="fill:rgb(0,1,17);fill-rule:nonzero;"/>
                        <path d="M667,330L679,330L679,326L667,326" style="fill:rgb(0,1,17);fill-rule:nonzero;"/>
                        <path d="M676,318L682,318L682,314L676,314" style="fill:rgb(0,1,17);fill-rule:nonzero;"/>
                        <path d="M624,426L738,426L738,422L624,422" style="fill:rgb(0,1,17);fill-rule:nonzero;"/>
                        <path d="M998.75,360.751C998.75,377.941 1012.81,391.876 1030,391.876C1047.19,391.876 1061.19,377.941 1061.19,360.751C1061.19,347.391 1053,336.033 1041,331.618L1041,323L1018,323L1018,331.892C1007,336.5 998.75,347.674 998.75,360.751Z" style="fill:rgb(189,0,0);fill-rule:nonzero;"/>
                        <path d="M1042,322L1042,320L1021,320L1021,310L1040,310L1040,322L1042,322L1042,320L1042,322L1044,322L1044,308C1044,307.474 1043.79,306.959 1043.41,306.586C1043.04,306.214 1042.53,306 1042,306L1019,306C1018.47,306 1017.96,306.214 1017.59,306.586C1017.21,306.959 1017,307.474 1017,308L1017,322C1017,322.527 1017.21,323.042 1017.59,323.415C1017.96,323.787 1018.47,324 1019,324L1042,324C1042.53,324 1043.04,323.787 1043.41,323.415C1043.79,323.042 1044,322.527 1044,322L1042,322Z" style="fill:rgb(0,1,17);fill-rule:nonzero;"/>
                        <path d="M1028,321L1028,362L1032,362L1032,321" style="fill:rgb(0,1,17);fill-rule:nonzero;"/>
                        <path d="M1024.12,366.062L1026.37,366.062C1026.38,365.21 1026.71,364.459 1027.27,363.898C1027.83,363.34 1028.58,363.002 1029.44,363.001C1030.29,363.002 1031.04,363.34 1031.6,363.898C1032.16,364.459 1032.5,365.21 1032.5,366.062C1032.5,366.916 1032.16,367.667 1031.6,368.228C1031.04,368.786 1030.29,369.124 1029.44,369.125C1028.58,369.124 1027.83,368.786 1027.27,368.228C1026.71,367.667 1026.38,366.916 1026.37,366.062L1024.12,366.062L1021.87,366.062C1021.88,370.241 1025.26,373.624 1029.44,373.625C1033.61,373.624 1037,370.241 1037,366.062C1037,361.884 1033.61,358.502 1029.44,358.501C1025.26,358.502 1021.88,361.884 1021.87,366.062L1024.12,366.062Z" style="fill:rgb(0,1,17);fill-rule:nonzero;"/>
                        <path d="M1041,299L1018,299L1018,303L1041,303" style="fill:rgb(0,1,17);fill-rule:nonzero;"/>
                        <path d="M1041,291L1018,291L1018,295L1041,295" style="fill:rgb(0,1,17);fill-rule:nonzero;"/>
                        <path d="M1032,293L1032,251.001L1028,251.001L1028,293" style="fill:rgb(0,1,17);fill-rule:nonzero;"/>
                        <path d="M452,263L452,261L316,261L316,250L450,250L450,263L452,263L452,261L452,263L454,263L454,248.001C454,247.474 453.787,246.959 453.414,246.586C453.042,246.214 452.527,246.001 452,246.001L314,246.001C313.473,246.001 312.958,246.214 312.586,246.586C312.213,246.959 312,247.474 312,248.001L312,263C312,263.527 312.213,264.042 312.586,264.415C312.958,264.787 313.473,265 314,265L452,265C452.527,265 453.042,264.787 453.414,264.415C453.787,264.042 454,263.527 454,263L452,263Z" style="fill:rgb(0,1,17);fill-rule:nonzero;"/>
                        <path d="M322,258L327,258L327,254L322,254" style="fill:rgb(0,1,17);fill-rule:nonzero;"/>
                        <path d="M331,258L336,258L336,254L331,254" style="fill:rgb(0,1,17);fill-rule:nonzero;"/>
                        <path d="M420,258L445,258L445,254L420,254" style="fill:rgb(0,1,17);fill-rule:nonzero;"/>
                        <path d="M268,386L268,384L160,384L160,276L266,276L266,386L268,386L268,384L268,386L270,386L270,274C270,273.474 269.787,272.959 269.414,272.586C269.042,272.214 268.527,272 268,272L158,272C157.473,272 156.958,272.214 156.586,272.586C156.213,272.959 156,273.474 156,274L156,386C156,386.527 156.213,387.042 156.586,387.415C156.958,387.787 157.473,388 158,388L268,388C268.527,388 269.042,387.787 269.414,387.415C269.787,387.042 270,386.527 270,386L268,386Z" style="fill:rgb(0,1,17);fill-rule:nonzero;"/>
                        <path d="M159,286L268,286L268,282L159,282" style="fill:rgb(0,1,17);fill-rule:nonzero;"/>
                        <g transform="matrix(1,0,0,1,25.2374,4)">
                            <path d="M212,326L212,345L216,345L216,326" style="fill:rgb(0,1,17);fill-rule:nonzero;"/>
                        </g>
                        <g transform="matrix(1,0,0,1,25.7374,2.5)">
                            <path d="M204,339L223,339L223,335L204,335" style="fill:rgb(0,1,17);fill-rule:nonzero;"/>
                        </g>
                        <path d="M934,346L934,344L916,344L916,252L932,252L932,346L934,346L934,344L934,346L936,346L936,250.001C936,249.474 935.787,248.959 935.414,248.586C935.042,248.214 934.527,248.001 934,248.001L914,248.001C913.473,248.001 912.958,248.214 912.586,248.586C912.213,248.959 912,249.474 912,250.001L912,346C912,346.527 912.213,347.042 912.586,347.415C912.958,347.787 913.473,348 914,348L934,348C934.527,348 935.042,347.787 935.414,347.415C935.787,347.042 936,346.527 936,346L934,346Z" style="fill:rgb(0,1,17);fill-rule:nonzero;"/>
                        <path d="M915,264L934,264L934,260L915,260" style="fill:rgb(0,1,17);fill-rule:nonzero;"/>
                        <path d="M915,276L934,276L934,272L915,272" style="fill:rgb(0,1,17);fill-rule:nonzero;"/>
                        <path d="M915,288L934,288L934,284L915,284" style="fill:rgb(0,1,17);fill-rule:nonzero;"/>
                        <path d="M915,300L934,300L934,296L915,296" style="fill:rgb(0,1,17);fill-rule:nonzero;"/>
                        <path d="M915,312L934,312L934,308L915,308" style="fill:rgb(0,1,17);fill-rule:nonzero;"/>
                        <path d="M915,324L934,324L934,320L915,320" style="fill:rgb(0,1,17);fill-rule:nonzero;"/>
                        <path d="M915,336L934,336L934,332L915,332" style="fill:rgb(0,1,17);fill-rule:nonzero;"/>
                        <path d="M921,261L921,347L925,347L925,261" style="fill:rgb(0,1,17);fill-rule:nonzero;"/>
                        <rect x="179.532" y="469.126" width="73.5" height="12" style="fill:rgb(189,0,0);fill-rule:nonzero;"/>
                        <path d="M179.532,469.126L177.282,469.126L177.282,481.126C177.282,481.718 177.522,482.298 177.941,482.717C178.36,483.136 178.94,483.376 179.532,483.376L253.032,483.376C253.625,483.376 254.204,483.136 254.623,482.717C255.042,482.298 255.282,481.718 255.282,481.126L255.282,469.126C255.282,468.533 255.042,467.954 254.623,467.535C254.204,467.116 253.625,466.876 253.032,466.876L179.532,466.876C178.94,466.876 178.36,467.116 177.941,467.535C177.522,467.954 177.282,468.533 177.282,469.126L179.532,469.126L179.532,471.376L250.782,471.376L250.782,478.876L181.782,478.876L181.782,469.126L179.532,469.126L179.532,471.376L179.532,469.126Z" style="fill:rgb(0,1,17);fill-rule:nonzero;"/>
                        <path d="M161.532,469.126L159.282,469.126L159.282,481.126C159.282,481.718 159.522,482.298 159.941,482.717C160.36,483.136 160.94,483.376 161.532,483.376L179.532,483.376C180.125,483.376 180.704,483.136 181.123,482.717C181.542,482.298 181.782,481.718 181.782,481.126L181.782,469.126C181.782,468.533 181.542,467.954 181.123,467.535C180.704,467.116 180.125,466.876 179.532,466.876L161.532,466.876C160.94,466.876 160.36,467.116 159.941,467.535C159.522,467.954 159.282,468.533 159.282,469.126L161.532,469.126L161.532,471.376L177.282,471.376L177.282,478.876L163.782,478.876L163.782,469.126L161.532,469.126L161.532,471.376L161.532,469.126Z" style="fill:rgb(0,1,17);fill-rule:nonzero;"/>
                        <path d="M271,474.405L270.212,472.298L255.282,477.882L255.282,472.132L270.366,476.564L271,474.405L270.212,472.298L271,474.405L271.634,472.246L253.666,466.967C252.988,466.768 252.25,466.901 251.684,467.324C251.118,467.748 250.782,468.419 250.782,469.126L250.782,481.126C250.782,481.863 251.144,482.554 251.75,482.975C252.356,483.395 253.13,483.491 253.82,483.233L271.788,476.512C272.698,476.172 273.284,475.295 273.248,474.324C273.213,473.353 272.566,472.52 271.634,472.246L271,474.405Z" style="fill:rgb(0,1,17);fill-rule:nonzero;"/>
                        <path d="M172.782,468.376L172.782,463.876L228.282,463.876L228.282,459.376L170.532,459.376C169.94,459.376 169.36,459.616 168.941,460.035C168.522,460.454 168.282,461.033 168.282,461.626L168.282,468.376L172.782,468.376Z" style="fill:rgb(0,1,17);fill-rule:nonzero;"/>
                        <path d="M255,495.001L261,495.001L261,490.501L255,490.501" style="fill:rgb(0,1,17);fill-rule:nonzero;"/>
                        <path d="M270,495.001L276,495.001L276,490.501L270,490.501" style="fill:rgb(0,1,17);fill-rule:nonzero;"/>
                        <path d="M285,495.001L291,495.001L291,490.501L285,490.501" style="fill:rgb(0,1,17);fill-rule:nonzero;"/>
                        <path d="M255,459.001L261,459.001L261,454.501L255,454.501" style="fill:rgb(0,1,17);fill-rule:nonzero;"/>
                        <path d="M270,459.001L276,459.001L276,454.501L270,454.501" style="fill:rgb(0,1,17);fill-rule:nonzero;"/>
                        <path d="M285,459.001L291,459.001L291,454.501L285,454.501" style="fill:rgb(0,1,17);fill-rule:nonzero;"/>
                        <path d="M277,477L292,477L292,473L277,473" style="fill:rgb(0,1,17);fill-rule:nonzero;"/>
                        <path d="M290,468L290,482L294,482L294,468" style="fill:rgb(0,1,17);fill-rule:nonzero;"/>
                        <rect x="760" y="186.001" width="39" height="35" style="fill:white;fill-rule:nonzero;"/>
                        <path d="M798,183.001L792,183.001L792,187.501L798,187.501" style="fill:rgb(0,1,17);fill-rule:nonzero;"/>
                        <path d="M783,183.001L777,183.001L777,187.501L783,187.501" style="fill:rgb(0,1,17);fill-rule:nonzero;"/>
                        <path d="M768,183.001L762,183.001L762,187.501L768,187.501" style="fill:rgb(0,1,17);fill-rule:nonzero;"/>
                        <path d="M798,218.251L792,218.251L792,222.751L798,222.751" style="fill:rgb(0,1,17);fill-rule:nonzero;"/>
                        <path d="M783,218.251L777,218.251L777,222.751L783,222.751" style="fill:rgb(0,1,17);fill-rule:nonzero;"/>
                        <path d="M768,218.251L762,218.251L762,222.751L768,222.751" style="fill:rgb(0,1,17);fill-rule:nonzero;"/>
                        <path d="M775,201.001L760,201.001L760,205.001L775,205.001" style="fill:rgb(0,1,17);fill-rule:nonzero;"/>
                        <path d="M763,210.001L763,197.001L759,197.001L759,210.001" style="fill:rgb(0,1,17);fill-rule:nonzero;"/>
                        <rect x="800.25" y="197.251" width="73.5" height="12" style="fill:rgb(0,1,17);fill-rule:nonzero;"/>
                        <path d="M873.75,197.251L871.5,197.251L871.5,207.001L802.5,207.001L802.5,199.501L873.75,199.501L873.75,197.251L871.5,197.251L873.75,197.251L873.75,195.001L800.25,195.001C799.657,195.001 799.078,195.241 798.659,195.66C798.24,196.079 798,196.658 798,197.251L798,209.251C798,209.843 798.24,210.423 798.659,210.842C799.078,211.261 799.657,211.501 800.25,211.501L873.75,211.501C874.342,211.501 874.922,211.261 875.341,210.842C875.76,210.423 876,209.843 876,209.251L876,197.251C876,196.658 875.76,196.079 875.341,195.66C874.922,195.241 874.342,195.001 873.75,195.001L873.75,197.251Z" style="fill:rgb(0,1,17);fill-rule:nonzero;"/>
                        <path d="M891.75,197.251L889.5,197.251L889.5,207.001L876,207.001L876,199.501L891.75,199.501L891.75,197.251L889.5,197.251L891.75,197.251L891.75,195.001L873.75,195.001C873.157,195.001 872.578,195.241 872.159,195.66C871.74,196.079 871.5,196.658 871.5,197.251L871.5,209.251C871.5,209.843 871.74,210.423 872.159,210.842C872.578,211.261 873.157,211.501 873.75,211.501L891.75,211.501C892.342,211.501 892.922,211.261 893.341,210.842C893.76,210.423 894,209.843 894,209.251L894,197.251C894,196.658 893.76,196.079 893.341,195.66C892.922,195.241 892.342,195.001 891.75,195.001L891.75,197.251Z" style="fill:rgb(0,1,17);fill-rule:nonzero;"/>
                        <path d="M782.282,202.53L781.494,204.637L799.462,211.358C800.152,211.616 800.926,211.52 801.532,211.1C802.138,210.679 802.5,209.988 802.5,209.251L802.5,197.251C802.5,196.544 802.164,195.873 801.598,195.449C801.032,195.026 800.294,194.893 799.616,195.092L781.648,200.371C780.715,200.645 780.069,201.478 780.034,202.449C779.999,203.42 780.584,204.297 781.494,204.637L782.282,202.53L782.916,204.689L798,200.257L798,206.007L783.07,200.423L782.282,202.53L782.916,204.689L782.282,202.53Z" style="fill:rgb(0,1,17);fill-rule:nonzero;"/>
                        <path d="M885,196.501L885,189.751C885,189.158 884.76,188.579 884.341,188.16C883.922,187.741 883.342,187.501 882.75,187.501L825,187.501L825,192.001L880.5,192.001L880.5,196.501L885,196.501Z" style="fill:rgb(0,1,17);fill-rule:nonzero;"/>
                        <path d="M544.509,466.493L522.307,471.191L527.707,476.59L518.161,486.136L525.586,493.561L535.131,484.014L539.81,488.692L544.509,466.493Z" style="fill:rgb(17,17,17);fill-opacity:0.25;fill-rule:nonzero;"/>
                        <path d="M1119.01,358.493L1096.81,363.191L1102.21,368.59L1092.66,378.136L1100.09,385.561L1109.63,376.014L1114.31,380.692L1119.01,358.493Z" style="fill:rgb(17,17,17);fill-opacity:0.25;fill-rule:nonzero;"/>
                        <path d="M944.513,190.491L949.211,212.692L954.611,207.292L964.157,216.839L971.581,209.413L962.034,199.868L966.712,195.19L944.513,190.491Z" style="fill:rgb(17,17,17);fill-opacity:0.25;fill-rule:nonzero;"/>
                        <path d="M373.014,190.491L377.711,212.692L383.111,207.292L392.657,216.839L400.081,209.413L390.535,199.868L395.212,195.19L373.014,190.491Z" style="fill:rgb(17,17,17);fill-opacity:0.25;fill-rule:nonzero;"/>
                        <path d="M95.513,296.991L100.212,319.192L105.611,313.792L115.157,323.339L122.581,315.913L113.035,306.368L117.712,301.69L95.513,296.991Z" style="fill:rgb(17,17,17);fill-opacity:0.25;fill-rule:nonzero;"/>
                        <path d="M1083,249.001L994,249.001L994,253.001L1083,253.001" style="fill:rgb(0,1,17);fill-rule:nonzero;"/>
                        <g transform="matrix(1,0,0,1,0,27.2284)">
                            <path d="M402,371L481,371L481,429L402,429" style="fill:rgb(189,0,0);fill-rule:nonzero;"/>
                        </g>
                        <g transform="matrix(1,0,0,1,0,27.2284)">
                            <path d="M493,363.209L495,363.209C494.999,359.779 492.221,357.002 488.791,357L375.209,357C371.779,357.002 369.001,359.779 369,363.209L369,434.792C369.001,438.222 371.779,440.999 375.209,441L488.791,441C492.221,440.999 494.999,438.222 495,434.792L495,363.209L493,363.209L491,363.209L491,434.792C490.999,435.408 490.756,435.948 490.353,436.354C489.947,436.756 489.408,436.999 488.791,437L375.209,437C374.592,436.999 374.053,436.756 373.647,436.354C373.244,435.948 373.001,435.408 373,434.792L373,363.209C373.001,362.593 373.244,362.053 373.647,361.647C374.053,361.245 374.592,361.001 375.209,361L488.791,361C489.408,361.001 489.947,361.245 490.353,361.647C490.756,362.053 490.999,362.593 491,363.209L493,363.209Z" style="fill:rgb(0,1,17);fill-rule:nonzero;"/>
                        </g>
                        <g transform="matrix(1,0,0,1,0,27.2284)">
                            <path d="M399,359L399,438L403,438L403,359" style="fill:rgb(0,1,17);fill-rule:nonzero;"/>
                        </g>
                        <g transform="matrix(1,0,0,1,0,27.2284)">
                            <path d="M390.939,398.019C390.939,400.343 389.054,402.228 386.73,402.228C384.406,402.228 382.521,400.343 382.521,398.019C382.521,395.695 384.406,393.811 386.73,393.811C389.054,393.811 390.939,395.695 390.939,398.019Z" style="fill:rgb(189,0,0);fill-rule:nonzero;"/>
                        </g>
                        <g transform="matrix(1,0,0,1,0,27.2284)">
                            <path d="M382,418L391,418L391,414L382,414" style="fill:rgb(0,1,17);fill-rule:nonzero;"/>
                        </g>
                        <g transform="matrix(1,0,0,1,0,27.2284)">
                            <path d="M382,429L391,429L391,425L382,425" style="fill:rgb(0,1,17);fill-rule:nonzero;"/>
                        </g>
                        <g transform="matrix(1,0,0,1,0,27.2284)">
                            <path d="M382,373L391,373L391,369L382,369" style="fill:rgb(0,1,17);fill-rule:nonzero;"/>
                        </g>
                        <g transform="matrix(1,0,0,1,0,27.2284)">
                            <path d="M382,384L391,384L391,380L382,380" style="fill:rgb(0,1,17);fill-rule:nonzero;"/>
                        </g>
                        <g transform="matrix(1,0,0,1,0,27.2284)">
                            <path d="M411,384L411,379L415,379L415,375L409,375C408.473,375 407.958,375.214 407.586,375.586C407.213,375.959 407,376.474 407,377L407,384L411,384Z" style="fill:rgb(0,1,17);fill-rule:nonzero;"/>
                        </g>
                        <g transform="matrix(1,0,0,1,0,27.2284)">
                            <path d="M407,413L407,419C407,419.527 407.213,420.042 407.586,420.415C407.958,420.787 408.473,421 409,421L415,421L415,417L411,417L411,413L407,413Z" style="fill:rgb(0,1,17);fill-rule:nonzero;"/>
                        </g>
                        <g transform="matrix(1,0,0,1,0,27.2284)">
                            <path d="M473,413L473,417L469,417L469,421L475,421C475.527,421 476.042,420.787 476.414,420.415C476.787,420.042 477,419.527 477,419L477,413L473,413Z" style="fill:rgb(0,1,17);fill-rule:nonzero;"/>
                        </g>
                        <g transform="matrix(1,0,0,1,0,27.2284)">
                            <path d="M477,384L477,377C477,376.474 476.787,375.959 476.414,375.586C476.042,375.214 475.527,375 475,375L469,375L469,379L473,379L473,384L477,384Z" style="fill:rgb(0,1,17);fill-rule:nonzero;"/>
                        </g>
                        <path d="M633.557,370.199C633.554,379.509 631.522,387.408 627.926,394.083C622.532,404.086 613.56,411.423 602.24,416.308C590.929,421.187 577.303,423.555 562.906,423.553C547.233,423.555 530.544,420.761 514.979,415.572L513.557,419.841C529.577,425.179 546.701,428.051 562.906,428.053C582.75,428.045 601.391,423.745 615.264,414.318C622.194,409.604 627.918,403.585 631.887,396.219C635.859,388.855 638.059,380.164 638.057,370.199L633.557,370.199Z" style="fill:rgb(0,1,17);fill-rule:nonzero;"/>
                        <path d="M396,213.001L403,213.001L403,209.001L396,209.001" style="fill:rgb(0,1,17);fill-rule:nonzero;"/>
                        <path d="M411,213.001L418,213.001L418,209.001L411,209.001" style="fill:rgb(0,1,17);fill-rule:nonzero;"/>
                        <path d="M426,213.001L433,213.001L433,209.001L426,209.001" style="fill:rgb(0,1,17);fill-rule:nonzero;"/>
                        <path d="M441,213.001L448,213.001L448,209.001L441,209.001" style="fill:rgb(0,1,17);fill-rule:nonzero;"/>
                        <g transform="matrix(1,0,0,1,2.31113,-52.8253)">
                            <rect x="307" y="279" width="24" height="158" style="fill:rgb(189,0,0);fill-rule:nonzero;"/>
                        </g>
                        <g transform="matrix(1,0,0,1,2.31113,-52.8253)">
                            <path d="M309,360L319,360L319,356L309,356" style="fill:rgb(17,17,17);fill-rule:nonzero;"/>
                        </g>
                        <g transform="matrix(1,0,0,1,2.31113,-52.8253)">
                            <path d="M309,345L319,345L319,341L309,341" style="fill:rgb(17,17,17);fill-rule:nonzero;"/>
                        </g>
                        <g transform="matrix(1,0,0,1,2.31113,-52.8253)">
                            <path d="M309,330L319,330L319,326L309,326" style="fill:rgb(17,17,17);fill-rule:nonzero;"/>
                        </g>
                        <g transform="matrix(1,0,0,1,2.31113,-52.8253)">
                            <path d="M309,315L319,315L319,311L309,311" style="fill:rgb(17,17,17);fill-rule:nonzero;"/>
                        </g>
                        <g transform="matrix(1,0,0,1,2.31113,-52.8253)">
                            <path d="M309,300L319,300L319,296L309,296" style="fill:rgb(17,17,17);fill-rule:nonzero;"/>
                        </g>
                        <g transform="matrix(1,0,0,1,2.31113,-52.8253)">
                            <path d="M309,420L319,420L319,416L309,416" style="fill:rgb(17,17,17);fill-rule:nonzero;"/>
                        </g>
                        <g transform="matrix(1,0,0,1,2.31113,-52.8253)">
                            <path d="M309,405L319,405L319,401L309,401" style="fill:rgb(17,17,17);fill-rule:nonzero;"/>
                        </g>
                        <g transform="matrix(1,0,0,1,2.31113,-52.8253)">
                            <path d="M309,390L319,390L319,386L309,386" style="fill:rgb(17,17,17);fill-rule:nonzero;"/>
                        </g>
                        <g transform="matrix(1,0,0,1,2.31113,-52.8253)">
                            <path d="M309,375L319,375L319,371L309,371" style="fill:rgb(17,17,17);fill-rule:nonzero;"/>
                        </g>
                        <path d="M564,321L564,338L568,338L568,321" style="fill:rgb(17,17,17);fill-rule:nonzero;"/>
                        <path d="M558,331L574,331L574,327L558,327" style="fill:rgb(17,17,17);fill-rule:nonzero;"/>
                        <path d="M549,339L549,315L561,315L561,311L547,311C546.473,311 545.958,311.214 545.586,311.586C545.213,311.959 545,312.474 545,313L545,339L549,339Z" style="fill:rgb(17,17,17);fill-rule:nonzero;"/>
                        <path d="M585,321L585,345L573,345L573,349L587,349C587.527,349 588.042,348.787 588.414,348.415C588.787,348.042 589,347.527 589,347L589,321L585,321Z" style="fill:rgb(17,17,17);fill-rule:nonzero;"/>
                        <path d="M125,420L125,437L129,437L129,420" style="fill:rgb(17,17,17);fill-rule:nonzero;"/>
                        <path d="M118,430L135,430L135,426L118,426" style="fill:rgb(17,17,17);fill-rule:nonzero;"/>
                        <path d="M109,438L109,414L121,414L121,410L107,410C106.473,410 105.958,410.214 105.586,410.586C105.213,410.959 105,411.474 105,412L105,438L109,438Z" style="fill:rgb(17,17,17);fill-rule:nonzero;"/>
                        <path d="M146,423L146,444L133,444L133,448L148,448C148.527,448 149.042,447.787 149.414,447.415C149.787,447.042 150,446.527 150,446L150,423L146,423Z" style="fill:rgb(17,17,17);fill-rule:nonzero;"/>
                        <path d="M962,372L962,389L966,389L966,372" style="fill:rgb(17,17,17);fill-rule:nonzero;"/>
                        <path d="M955,382L972,382L972,378L955,378" style="fill:rgb(17,17,17);fill-rule:nonzero;"/>
                        <path d="M946,390L946,366L958,366L958,362L944,362C943.473,362 942.958,362.214 942.586,362.586C942.213,362.959 942,363.474 942,364L942,390L946,390Z" style="fill:rgb(17,17,17);fill-rule:nonzero;"/>
                        <path d="M983,372L983,396L970,396L970,400L985,400C985.527,400 986.042,399.787 986.414,399.415C986.787,399.042 987,398.527 987,398L987,372L983,372Z" style="fill:rgb(17,17,17);fill-rule:nonzero;"/>
                        <path d="M682,252L705,252L705,296L709,296L709,250.001C709,249.474 708.787,248.959 708.414,248.586C708.042,248.214 707.527,248.001 707,248.001L682,248.001L682,252.001L682,252Z" style="fill:rgb(17,17,17);fill-rule:nonzero;"/>
                        <path d="M1083,422L1015,422L1015,426L1083,426" style="fill:rgb(17,17,17);fill-rule:nonzero;"/>
                        <path d="M383.728,481.365L381.478,481.365C381.477,482.576 380.993,483.653 380.199,484.45C379.402,485.243 378.325,485.727 377.114,485.728C375.902,485.727 374.826,485.243 374.029,484.45C373.235,483.653 372.751,482.576 372.75,481.365C372.751,480.153 373.235,479.076 374.029,478.279C374.826,477.486 375.902,477.002 377.114,477.001C378.325,477.002 379.402,477.486 380.199,478.279C380.993,479.076 381.477,480.153 381.478,481.365L385.978,481.365C385.976,476.469 382.01,472.503 377.114,472.501C372.218,472.503 368.252,476.469 368.25,481.365C368.252,486.26 372.218,490.227 377.114,490.228C382.01,490.227 385.976,486.26 385.978,481.365L383.728,481.365Z" style="fill:rgb(17,17,17);fill-rule:nonzero;"/>
                        <path d="M406.4,481.365L404.15,481.365C404.149,482.576 403.666,483.653 402.873,484.45C402.076,485.243 401,485.727 399.788,485.728C398.576,485.727 397.499,485.243 396.702,484.45C395.909,483.653 395.425,482.576 395.424,481.365C395.425,480.153 395.909,479.076 396.702,478.279C397.499,477.486 398.576,477.002 399.788,477.001C401,477.002 402.076,477.486 402.873,478.279C403.666,479.076 404.149,480.153 404.15,481.365L408.65,481.365C408.649,476.469 404.684,472.502 399.788,472.501C394.891,472.502 390.926,476.469 390.924,481.365C390.926,486.26 394.891,490.227 399.788,490.228C404.684,490.227 408.649,486.26 408.65,481.365L406.4,481.365Z" style="fill:rgb(17,17,17);fill-rule:nonzero;"/>
                        <path d="M429.076,481.365L426.826,481.365C426.825,482.576 426.341,483.653 425.548,484.45C424.751,485.243 423.674,485.727 422.462,485.728C421.251,485.727 420.174,485.243 419.377,484.45C418.584,483.653 418.1,482.576 418.099,481.365C418.1,480.153 418.584,479.076 419.377,478.279C420.174,477.486 421.251,477.002 422.462,477.001C423.674,477.002 424.751,477.486 425.548,478.279C426.341,479.076 426.825,480.153 426.826,481.365L431.326,481.365C431.324,476.469 427.358,472.503 422.462,472.501C417.567,472.503 413.6,476.469 413.599,481.365C413.6,486.26 417.567,490.227 422.462,490.228C427.358,490.227 431.324,486.26 431.326,481.365L429.076,481.365Z" style="fill:rgb(17,17,17);fill-rule:nonzero;"/>
                        <path d="M614.728,194.865L612.478,194.865C612.477,196.076 611.993,197.153 611.199,197.95C610.402,198.743 609.325,199.227 608.114,199.228C606.902,199.227 605.825,198.743 605.028,197.95C604.235,197.153 603.751,196.076 603.75,194.865C603.751,193.653 604.235,192.576 605.028,191.779C605.825,190.986 606.902,190.502 608.114,190.501C609.325,190.502 610.402,190.986 611.199,191.779C611.993,192.576 612.477,193.653 612.478,194.865L616.978,194.865C616.976,189.969 613.01,186.003 608.114,186.001C603.218,186.003 599.252,189.969 599.25,194.865C599.252,199.76 603.218,203.727 608.114,203.728C613.01,203.727 616.976,199.76 616.978,194.865L614.728,194.865Z" style="fill:rgb(17,17,17);fill-rule:nonzero;"/>
                        <path d="M637.4,194.865L635.15,194.865C635.149,196.076 634.666,197.153 633.872,197.95C633.076,198.743 632,199.227 630.788,199.228C629.576,199.227 628.499,198.743 627.702,197.95C626.909,197.153 626.425,196.076 626.424,194.865C626.425,193.653 626.909,192.576 627.702,191.779C628.499,190.986 629.576,190.502 630.788,190.501C632,190.502 633.076,190.986 633.872,191.779C634.666,192.576 635.149,193.653 635.15,194.865L639.65,194.865C639.649,189.969 635.684,186.002 630.788,186.001C625.891,186.002 621.926,189.969 621.924,194.865C621.926,199.76 625.891,203.727 630.788,203.728C635.684,203.727 639.649,199.76 639.65,194.865L637.4,194.865Z" style="fill:rgb(17,17,17);fill-rule:nonzero;"/>
                        <path d="M660.076,194.865L657.826,194.865C657.825,196.076 657.341,197.153 656.548,197.95C655.751,198.743 654.674,199.227 653.462,199.228C652.251,199.227 651.174,198.743 650.377,197.95C649.583,197.153 649.1,196.076 649.099,194.865C649.1,193.653 649.583,192.576 650.377,191.779C651.174,190.986 652.251,190.502 653.462,190.501C654.674,190.502 655.751,190.986 656.548,191.779C657.341,192.576 657.825,193.653 657.826,194.865L662.326,194.865C662.324,189.969 658.358,186.003 653.462,186.001C648.566,186.003 644.6,189.969 644.599,194.865C644.6,199.76 648.566,203.727 653.462,203.728C658.358,203.727 662.324,199.76 662.326,194.865L660.076,194.865Z" style="fill:rgb(17,17,17);fill-rule:nonzero;"/>
                        <path d="M1032,200.001L1032,209.001L1036,209.001L1036,200.001" style="fill:rgb(17,17,17);fill-rule:nonzero;"/>
                        <path d="M1032,216.001L1032,224.001L1036,224.001L1036,216.001" style="fill:rgb(17,17,17);fill-rule:nonzero;"/>
                        <path d="M1021,214.001L1029,214.001L1029,210.001L1021,210.001" style="fill:rgb(17,17,17);fill-rule:nonzero;"/>
                        <path d="M1039,214.001L1047,214.001L1047,210.001L1039,210.001" style="fill:rgb(17,17,17);fill-rule:nonzero;"/>
                        <path d="M585,450L585,459L589,459L589,450" style="fill:rgb(17,17,17);fill-rule:nonzero;"/>
                        <path d="M585,467L585,474L589,474L589,467" style="fill:rgb(17,17,17);fill-rule:nonzero;"/>
                        <path d="M574,465L582,465L582,461L574,461" style="fill:rgb(17,17,17);fill-rule:nonzero;"/>
                        <path d="M592,465L600,465L600,461L592,461" style="fill:rgb(17,17,17);fill-rule:nonzero;"/>
                        <path d="M314,183.001L314,192.001L318,192.001L318,183.001" style="fill:rgb(17,17,17);fill-rule:nonzero;"/>
                        <path d="M314,200.001L314,207.001L318,207.001L318,200.001" style="fill:rgb(17,17,17);fill-rule:nonzero;"/>
                        <path d="M303,198.001L310,198.001L310,194.001L303,194.001" style="fill:rgb(17,17,17);fill-rule:nonzero;"/>
                        <path d="M321,198.001L328,198.001L328,194.001L321,194.001" style="fill:rgb(17,17,17);fill-rule:nonzero;"/>
                        <path d="M71,339L71,348L75,348L75,339" style="fill:rgb(17,17,17);fill-rule:nonzero;"/>
                        <path d="M60,354L67,354L67,350L60,350" style="fill:rgb(17,17,17);fill-rule:nonzero;"/>
                        <clipPath id="_clip1">
                            <path d="M60,354L67,354L67,350L60,350" clip-rule="nonzero"/>
                        </clipPath>
                        <g clip-path="url(#_clip1)">
                            <path d="M71,356L71,363L75,363L75,356" style="fill:rgb(17,17,17);fill-rule:nonzero;"/>
                        </g>
                        <path d="M78,354L85,354L85,350L78,350" style="fill:rgb(17,17,17);fill-rule:nonzero;"/>
                        <path d="M1131,318L1131,327L1135,327L1135,318" style="fill:rgb(17,17,17);fill-rule:nonzero;"/>
                        <path d="M1131,335L1131,342L1135,342L1135,335" style="fill:rgb(17,17,17);fill-rule:nonzero;"/>
                        <path d="M1120,333L1128,333L1128,329L1120,329" style="fill:rgb(17,17,17);fill-rule:nonzero;"/>
                        <path d="M1138,333L1146,333L1146,329L1138,329" style="fill:rgb(17,17,17);fill-rule:nonzero;"/>
                    </g>
                </g>
            </g>
            <g transform="matrix(1,0,0,1,0.75,511.329)">
                <g transform="matrix(1,0,0,1,67.4231,-183.987)">
                    <path d="M207.251,596.187C227.699,596.187 238.931,589.275 245.843,571.707L237.491,567.099C234.035,572.283 232.019,573.435 229.715,573.435C226.547,573.435 224.819,571.419 224.819,568.539L224.819,502.587C224.819,463.131 210.131,446.715 170.387,446.715C124.019,446.715 100.115,463.995 100.115,488.763C102.995,499.131 110.771,504.315 122.003,504.315C134.387,504.315 145.619,495.387 145.619,472.059L145.619,462.267C147.059,462.267 148.499,462.267 149.939,462.267C168.083,462.267 171.827,470.043 171.827,494.523L171.827,504.891C165.203,506.619 158.867,508.347 154.259,509.499C107.603,521.883 95.219,536.859 95.219,559.035C95.219,582.651 109.907,596.187 132.659,596.187C153.395,596.187 162.323,588.123 173.555,575.739C178.451,588.987 189.107,596.187 207.251,596.187ZM144.755,550.107C144.755,534.555 155.411,525.339 163.475,521.595C165.779,520.443 168.659,519.291 171.827,518.427L171.827,566.235C167.507,569.403 163.475,571.131 159.731,571.131C151.379,571.131 144.755,564.219 144.755,550.107Z" style="fill-rule:nonzero;"/>
                    <path d="M308.051,522.171C308.051,490.203 319.283,474.363 335.123,474.363C339.155,474.363 342.611,475.227 345.779,476.955L345.779,564.507C342.323,566.523 338.291,567.675 333.971,567.675C318.419,567.675 308.051,551.259 308.051,522.171ZM410.867,591.579L410.867,576.891L400.499,574.299L400.499,427.131L401.651,387.099L396.755,383.931L329.363,396.891L329.363,409.851L347.795,412.731L347.795,459.963C339.443,451.611 329.363,446.715 314.099,446.715C282.707,446.715 249.875,474.651 249.875,522.747C249.875,571.707 275.219,596.187 306.899,596.187C322.739,596.187 335.987,591.003 347.219,579.483L349.811,595.035L410.867,591.579Z" style="fill-rule:nonzero;"/>
                    <path d="M498.419,531.099C498.419,542.907 498.419,559.899 498.131,573.723L484.883,576.891L484.883,591.579L564.371,591.579L564.371,576.891L553.427,574.587C553.139,560.475 553.139,543.195 553.139,531.099L553.139,487.899C560.051,481.563 566.963,477.531 572.723,477.531C582.227,477.531 584.819,483.003 584.819,498.555L584.819,531.099C584.819,543.195 584.819,560.187 584.531,574.011L572.147,576.891L572.147,591.579L651.923,591.579L651.923,576.891L639.827,574.299C639.539,560.475 639.539,543.483 639.539,531.099L639.539,494.811C639.539,463.419 620.819,446.715 595.187,446.715C579.059,446.715 567.539,451.323 552.275,469.467L552.275,427.131L553.427,387.099L548.531,383.931L482.867,396.891L482.867,409.851L498.419,412.731L498.419,531.099Z" style="fill-rule:nonzero;"/>
                    <path d="M739.187,596.187C788.435,596.187 815.219,564.219 815.219,520.443C815.219,476.667 783.539,446.715 739.187,446.715C694.835,446.715 663.155,477.531 663.155,520.443C663.155,563.355 689.651,596.187 739.187,596.187ZM739.187,580.347C726.515,580.347 720.755,563.355 720.755,521.307C720.755,479.547 726.515,462.555 739.187,462.555C751.859,462.555 757.619,479.547 757.619,521.307C757.619,563.355 751.859,580.347 739.187,580.347Z" style="fill-rule:nonzero;"/>
                    <path d="M919.763,462.267L920.915,462.267L921.491,474.363C922.643,499.707 934.163,507.195 946.259,507.195C957.779,507.195 964.403,502.011 968.147,490.491C966.707,466.875 945.395,446.715 913.139,446.715C866.771,446.715 830.771,474.075 830.771,521.883C830.771,571.995 866.195,596.187 905.363,596.187C932.723,596.187 954.323,585.819 966.707,562.491L955.475,551.547C947.411,559.323 938.771,565.083 926.099,565.083C903.059,565.083 888.371,547.515 888.371,515.547C888.371,475.803 906.515,462.267 919.763,462.267Z" style="fill-rule:nonzero;"/>
                </g>
                <g transform="matrix(0.364858,0,0,0.364858,518.41,273.486)">
                    <path d="M92.915,396.891L92.915,409.851L108.467,412.731L108.467,531.099C108.467,541.179 108.467,559.611 108.179,573.723L94.931,576.891L94.931,591.579L175.859,591.579L175.859,576.891L163.475,574.299C163.187,560.763 163.187,542.907 163.187,530.523L170.675,523.899L198.035,591.579L264.851,591.579L264.851,576.891L246.707,571.995L208.691,489.051L231.731,468.315L257.075,464.859L257.075,451.323L189.683,451.323L189.683,464.859L208.691,467.739L163.187,510.939L163.187,427.131L164.339,387.099L159.443,383.931L92.915,396.891Z" style="fill-rule:nonzero;"/>
                    <path d="M271.475,591.579L363.059,591.579L363.059,576.891L340.595,571.995C340.307,558.459 340.307,542.331 340.307,531.099L340.307,512.955C342.611,499.995 350.387,486.747 357.299,478.971L358.739,480.987C366.227,491.931 373.427,496.827 382.931,496.827C394.451,496.827 403.955,487.899 404.819,472.347C402.803,454.779 392.147,446.715 378.035,446.715C364.211,446.715 347.795,458.523 340.307,483.003L338.003,449.883L332.819,446.715L269.171,466.587L269.171,478.395L284.723,480.987C285.299,492.507 285.587,497.115 285.587,512.955L285.587,531.099C285.587,542.907 285.587,559.899 285.299,573.723L271.475,576.891L271.475,591.579Z" style="fill-rule:nonzero;"/>
                    <path d="M479.123,462.267C486.611,462.267 493.811,469.467 493.811,489.339C493.811,504.027 490.067,508.635 476.243,508.635L462.707,508.635C463.571,472.923 470.195,462.267 479.123,462.267ZM482.579,446.715C444.851,446.715 405.107,471.483 405.107,521.019C405.107,568.539 436.787,596.187 479.987,596.187C508.499,596.187 530.099,585.819 542.483,562.491L531.251,551.547C523.187,559.323 512.819,565.083 498.419,565.083C481.427,565.083 465.875,553.275 462.995,525.051L543.059,525.051C544.211,519.867 544.499,515.835 544.499,509.787C544.499,474.939 523.763,446.715 482.579,446.715Z" style="fill-rule:nonzero;"/>
                    <path d="M669.491,596.187C689.939,596.187 701.171,589.275 708.083,571.707L699.731,567.099C696.275,572.283 694.259,573.435 691.955,573.435C688.787,573.435 687.059,571.419 687.059,568.539L687.059,502.587C687.059,463.131 672.371,446.715 632.627,446.715C586.259,446.715 562.355,463.995 562.355,488.763C565.235,499.131 573.011,504.315 584.243,504.315C596.627,504.315 607.859,495.387 607.859,472.059L607.859,462.267C609.299,462.267 610.739,462.267 612.179,462.267C630.323,462.267 634.067,470.043 634.067,494.523L634.067,504.891C627.443,506.619 621.107,508.347 616.499,509.499C569.843,521.883 557.459,536.859 557.459,559.035C557.459,582.651 572.147,596.187 594.899,596.187C615.635,596.187 624.563,588.123 635.795,575.739C640.691,588.987 651.347,596.187 669.491,596.187ZM606.995,550.107C606.995,534.555 617.651,525.339 625.715,521.595C628.019,520.443 630.899,519.291 634.067,518.427L634.067,566.235C629.747,569.403 625.715,571.131 621.971,571.131C613.619,571.131 606.995,564.219 606.995,550.107Z" style="fill-rule:nonzero;"/>
                    <path d="M780.371,550.107L780.371,472.923L806.867,472.923L806.867,451.323L780.371,451.323L780.371,410.427L746.099,410.427L728.819,451.323L709.235,453.915L709.235,472.923L725.651,472.923L725.651,522.459C725.651,533.691 725.363,542.043 725.363,553.275C725.363,584.091 741.779,596.187 770.291,596.187C793.907,596.187 808.019,586.683 815.795,569.979L808.595,563.355C803.699,567.099 799.379,569.115 794.483,569.115C786.419,569.115 780.371,563.067 780.371,550.107Z" style="fill-rule:nonzero;"/>
                    <path d="M861.011,429.723C875.699,429.723 887.507,419.355 887.507,404.955C887.507,390.555 875.699,380.187 861.011,380.187C846.323,380.187 834.515,390.555 834.515,404.955C834.515,419.355 846.323,429.723 861.011,429.723ZM901.331,576.891L889.235,574.299C888.947,560.475 888.947,543.195 888.947,531.099L888.947,492.795L889.811,449.883L884.627,446.715L817.811,466.587L817.811,478.395L833.363,480.987C833.939,492.507 834.227,501.435 834.227,517.275L834.227,531.099C834.227,542.907 834.227,559.899 833.939,574.011L820.979,576.891L820.979,591.579L901.331,591.579L901.331,576.891Z" style="fill-rule:nonzero;"/>
                    <path d="M1003.57,464.859L1019.41,468.027L997.235,534.267L973.331,468.315L988.595,464.859L988.595,451.323L901.907,451.323L901.907,464.859L915.731,467.739L966.995,591.579L992.915,591.579L1040.43,467.739L1057.71,464.859L1057.71,451.323L1003.57,451.323L1003.57,464.859Z" style="fill-rule:nonzero;"/>
                    <path d="M1107.25,429.723C1121.94,429.723 1133.75,419.355 1133.75,404.955C1133.75,390.555 1121.94,380.187 1107.25,380.187C1092.56,380.187 1080.76,390.555 1080.76,404.955C1080.76,419.355 1092.56,429.723 1107.25,429.723ZM1147.57,576.891L1135.48,574.299C1135.19,560.475 1135.19,543.195 1135.19,531.099L1135.19,492.795L1136.05,449.883L1130.87,446.715L1064.05,466.587L1064.05,478.395L1079.6,480.987C1080.18,492.507 1080.47,501.435 1080.47,517.275L1080.47,531.099C1080.47,542.907 1080.47,559.899 1080.18,574.011L1067.22,576.891L1067.22,591.579L1147.57,591.579L1147.57,576.891Z" style="fill-rule:nonzero;"/>
                    <path d="M1227.06,550.107L1227.06,472.923L1253.56,472.923L1253.56,451.323L1227.06,451.323L1227.06,410.427L1192.79,410.427L1175.51,451.323L1155.92,453.915L1155.92,472.923L1172.34,472.923L1172.34,522.459C1172.34,533.691 1172.05,542.043 1172.05,553.275C1172.05,584.091 1188.47,596.187 1216.98,596.187C1240.6,596.187 1254.71,586.683 1262.48,569.979L1255.28,563.355C1250.39,567.099 1246.07,569.115 1241.17,569.115C1233.11,569.115 1227.06,563.067 1227.06,550.107Z" style="fill-rule:nonzero;"/>
                    <path d="M1378.84,596.187C1399.28,596.187 1410.52,589.275 1417.43,571.707L1409.08,567.099C1405.62,572.283 1403.6,573.435 1401.3,573.435C1398.13,573.435 1396.4,571.419 1396.4,568.539L1396.4,502.587C1396.4,463.131 1381.71,446.715 1341.97,446.715C1295.6,446.715 1271.7,463.995 1271.7,488.763C1274.58,499.131 1282.36,504.315 1293.59,504.315C1305.97,504.315 1317.2,495.387 1317.2,472.059L1317.2,462.267C1318.64,462.267 1320.08,462.267 1321.52,462.267C1339.67,462.267 1343.41,470.043 1343.41,494.523L1343.41,504.891C1336.79,506.619 1330.45,508.347 1325.84,509.499C1279.19,521.883 1266.8,536.859 1266.8,559.035C1266.8,582.651 1281.49,596.187 1304.24,596.187C1324.98,596.187 1333.91,588.123 1345.14,575.739C1350.04,588.987 1360.69,596.187 1378.84,596.187ZM1316.34,550.107C1316.34,534.555 1327,525.339 1335.06,521.595C1337.36,520.443 1340.24,519.291 1343.41,518.427L1343.41,566.235C1339.09,569.403 1335.06,571.131 1331.32,571.131C1322.96,571.131 1316.34,564.219 1316.34,550.107Z" style="fill-rule:nonzero;"/>
                </g>
            </g>
        </g>
    </g>
</svg>
