<svg xmlns="http://www.w3.org/2000/svg" xmlns:xlink="http://www.w3.org/1999/xlink" viewBox="0 0 332.82 177.41"><defs><linearGradient id="linear-gradient" x1="513.93" y1="-61.95" x2="-122.79" y2="358.74" gradientUnits="userSpaceOnUse"><stop offset="0" stop-color="#fff"/><stop offset="0.14" stop-color="#fafafa"/><stop offset="0.3" stop-color="#ececec"/><stop offset="0.48" stop-color="#d5d5d6"/><stop offset="0.66" stop-color="#b4b5b6"/><stop offset="0.85" stop-color="#8a8c8d"/><stop offset="1" stop-color="#626466"/></linearGradient><linearGradient id="linear-gradient-2" x1="487.62" y1="-101.76" x2="-149.1" y2="318.93" xlink:href="#linear-gradient"/><linearGradient id="linear-gradient-3" x1="448.37" y1="-161.15" x2="-188.34" y2="259.53" xlink:href="#linear-gradient"/><linearGradient id="linear-gradient-4" x1="474.69" y1="-121.35" x2="-162.04" y2="299.35" xlink:href="#linear-gradient"/><linearGradient id="linear-gradient-5" x1="515.97" y1="-58.86" x2="-120.75" y2="361.83" xlink:href="#linear-gradient"/><linearGradient id="linear-gradient-6" x1="492.93" y1="-93.72" x2="-143.78" y2="326.97" xlink:href="#linear-gradient"/><linearGradient id="linear-gradient-7" x1="446.33" y1="-164.24" x2="-190.38" y2="256.44" xlink:href="#linear-gradient"/><linearGradient id="linear-gradient-8" x1="469.37" y1="-129.39" x2="-167.35" y2="291.31" xlink:href="#linear-gradient"/><radialGradient id="radial-gradient" cx="102.6" cy="159.8" r="82.5" gradientTransform="translate(2.17 -1.37) rotate(0.77)" gradientUnits="userSpaceOnUse"><stop offset="0.49" stop-color="#80a2b0"/><stop offset="0.52" stop-color="#92afbb"/><stop offset="0.58" stop-color="#b3c8d0"/><stop offset="0.64" stop-color="#cfdce1"/><stop offset="0.71" stop-color="#e4ebee"/><stop offset="0.78" stop-color="#f3f7f8"/><stop offset="0.87" stop-color="#fcfdfd"/><stop offset="1" stop-color="#fff"/></radialGradient><radialGradient id="radial-gradient-2" cx="45.47" cy="111.55" r="90.13" gradientUnits="userSpaceOnUse"><stop offset="0.32" stop-color="#fff"/><stop offset="1" stop-color="#ededed"/></radialGradient><radialGradient id="radial-gradient-3" cx="114.27" cy="165.67" r="74.14" xlink:href="#radial-gradient-2"/></defs><title>words_codes_branislav_dudas_algorithm</title><g style="isolation:isolate"><g id="Layer_1" data-name="Layer 1"><polygon points="208.56 70.71 195.38 70.71 187.62 62.95 176.28 62.95 169.87 69.35 136.29 69.35 132.35 65.41 121.94 65.41 121.94 65.01 132.52 65.01 136.46 68.94 169.7 68.94 176.11 62.54 187.79 62.54 195.55 70.3 208.39 70.3 219.91 58.78 249.58 58.78 257.94 50.42 261.31 50.42 267.08 44.65 277.52 44.65 290.51 31.66 290.8 31.95 277.69 45.06 267.24 45.06 261.48 50.83 258.11 50.83 249.75 59.19 220.08 59.19 208.56 70.71" style="fill:#bd0000;mix-blend-mode:multiply"/><path d="M129.81,130.86a.76.76,0,1,1,.76-.76A.76.76,0,0,1,129.81,130.86Z" transform="translate(-7.82 -64.89)" style="fill:#bd0000;mix-blend-mode:multiply"/><path d="M299,97.26a.76.76,0,1,0-1.08,0A.76.76,0,0,0,299,97.26Z" transform="translate(-7.82 -64.89)" style="fill:#bd0000;mix-blend-mode:multiply"/><polygon points="294.89 124.38 286.08 115.57 279.86 115.57 269.01 104.72 263.77 104.72 256.45 112.04 247.17 112.04 238.03 102.9 223.77 102.9 216.76 109.91 201.07 109.91 192.98 101.82 177.8 101.82 176.06 103.56 166.22 103.56 162 99.33 140.14 99.33 136.88 102.59 120.6 102.59 120.6 102.19 136.71 102.19 139.97 98.92 162.16 98.92 166.39 103.15 175.9 103.15 177.63 101.41 193.15 101.41 201.24 109.5 216.59 109.5 223.6 102.5 238.2 102.5 247.34 111.64 256.28 111.64 263.6 104.32 269.18 104.32 280.02 115.16 286.24 115.16 295.18 124.09 294.89 124.38" style="fill:#bd0000;mix-blend-mode:multiply"/><path d="M128.46,168a.77.77,0,0,1-.76-.76.77.77,0,1,1,1.53,0A.76.76,0,0,1,128.46,168Z" transform="translate(-7.82 -64.89)" style="fill:#bd0000;mix-blend-mode:multiply"/><path d="M302.29,189.64a.76.76,0,1,0,0-1.08A.76.76,0,0,0,302.29,189.64Z" transform="translate(-7.82 -64.89)" style="fill:#bd0000;mix-blend-mode:multiply"/><polygon points="325.31 109.24 318.14 102.06 288.3 102.06 279.73 93.5 267.72 93.5 261.14 86.91 251.66 86.91 246.74 91.83 237.74 91.83 233.17 87.27 222.03 87.27 219.1 90.2 206.38 90.2 198.67 82.5 181.26 82.5 174.31 89.45 162.33 89.45 153.41 80.53 122.78 80.53 122.78 80.12 153.58 80.12 162.5 89.04 174.14 89.04 181.09 82.09 198.84 82.09 206.54 89.8 218.94 89.8 221.87 86.86 233.34 86.86 237.9 91.43 246.57 91.43 251.49 86.51 261.31 86.51 267.89 93.09 279.9 93.09 288.46 101.66 318.31 101.66 325.6 108.95 325.31 109.24" style="fill:#bd0000;mix-blend-mode:multiply"/><path d="M130.64,146a.77.77,0,1,1,.77-.77A.77.77,0,0,1,130.64,146Z" transform="translate(-7.82 -64.89)" style="fill:#bd0000;mix-blend-mode:multiply"/><path d="M332.71,174.49a.76.76,0,0,0,1.08,0,.75.75,0,0,0,0-1.07.76.76,0,0,0-1.08,0A.75.75,0,0,0,332.71,174.49Z" transform="translate(-7.82 -64.89)" style="fill:#bd0000;mix-blend-mode:multiply"/><polygon points="217.6 84.28 207.61 84.28 200.85 77.51 178.28 77.51 172.21 83.58 164.59 83.58 154.96 73.95 136.37 73.95 131.85 69.43 122.95 69.43 122.95 69.03 132.02 69.03 136.54 73.55 155.13 73.55 164.76 83.18 172.04 83.18 178.12 77.11 201.02 77.11 207.78 83.87 217.43 83.87 222.84 78.46 240.04 78.46 245.04 83.46 265.33 83.46 277.31 71.47 301.16 71.47 306.22 66.41 306.51 66.7 301.33 71.88 277.48 71.88 265.49 83.86 244.87 83.86 239.87 78.87 223.01 78.87 217.6 84.28" style="fill:#bd0000;mix-blend-mode:multiply"/><path d="M130.81,134.88a.76.76,0,1,1,.76-.76A.76.76,0,0,1,130.81,134.88Z" transform="translate(-7.82 -64.89)" style="fill:#bd0000;mix-blend-mode:multiply"/><path d="M314.7,132a.76.76,0,1,0-1.08,0A.76.76,0,0,0,314.7,132Z" transform="translate(-7.82 -64.89)" style="fill:#bd0000;mix-blend-mode:multiply"/><polygon points="163.29 86.2 155.25 78.16 135.78 78.16 130.49 72.87 123.42 72.87 123.42 72.47 130.66 72.47 135.95 77.76 155.42 77.76 163.58 85.92 163.29 86.2" style="fill:#bd0000;mix-blend-mode:multiply"/><path d="M131.28,138.32a.77.77,0,0,1-.77-.76.78.78,0,0,1,.77-.77.77.77,0,0,1,.76.77A.76.76,0,0,1,131.28,138.32Z" transform="translate(-7.82 -64.89)" style="fill:#bd0000;mix-blend-mode:multiply"/><path d="M170.7,151.46a.76.76,0,0,0,1.08,0,.78.78,0,0,0,0-1.08.76.76,0,0,0-1.08,1.08Z" transform="translate(-7.82 -64.89)" style="fill:#bd0000;mix-blend-mode:multiply"/><polygon points="215.99 80.39 206.96 80.39 200.06 73.49 177.66 73.49 171.63 79.51 166.63 79.51 160.89 73.78 161.18 73.49 166.79 79.11 171.47 79.11 177.49 73.08 200.23 73.08 207.13 79.98 215.82 79.98 222.51 73.3 241.53 73.3 241.53 73.7 222.68 73.7 215.99 80.39" style="fill:#bd0000;mix-blend-mode:multiply"/><path d="M168.34,139.09a.78.78,0,0,1,0-1.08.76.76,0,1,1,0,1.08Z" transform="translate(-7.82 -64.89)" style="fill:#bd0000;mix-blend-mode:multiply"/><path d="M249.31,139.15a.77.77,0,0,0,.77-.76.78.78,0,0,0-.77-.77.77.77,0,0,0-.76.77A.76.76,0,0,0,249.31,139.15Z" transform="translate(-7.82 -64.89)" style="fill:#bd0000;mix-blend-mode:multiply"/><polygon points="172.99 73.1 167.55 73.1 167.55 72.69 172.82 72.69 176.87 68.64 188.39 68.64 188.39 69.04 177.04 69.04 172.99 73.1" style="fill:#bd0000;mix-blend-mode:multiply"/><path d="M175.41,138.55a.77.77,0,0,1-.76-.77.76.76,0,0,1,1.52,0A.77.77,0,0,1,175.41,138.55Z" transform="translate(-7.82 -64.89)" style="fill:#bd0000;mix-blend-mode:multiply"/><path d="M196.17,134.49a.76.76,0,1,0-.76-.76A.76.76,0,0,0,196.17,134.49Z" transform="translate(-7.82 -64.89)" style="fill:#bd0000;mix-blend-mode:multiply"/><polygon points="211.16 75.45 210.87 75.17 221.91 64.14 256.35 64.14 266.04 54.45 285.63 54.45 293.51 46.57 303.64 46.57 311.07 39.14 324.84 39.14 324.84 39.55 311.24 39.55 303.81 46.98 293.67 46.98 285.79 54.86 266.2 54.86 256.52 64.54 222.07 64.54 211.16 75.45" style="fill:#bd0000;mix-blend-mode:multiply"/><path d="M219.41,140.71a.76.76,0,1,1,0-1.08A.76.76,0,0,1,219.41,140.71Z" transform="translate(-7.82 -64.89)" style="fill:#bd0000;mix-blend-mode:multiply"/><path d="M332.62,105a.77.77,0,1,0-.76-.77A.76.76,0,0,0,332.62,105Z" transform="translate(-7.82 -64.89)" style="fill:#bd0000;mix-blend-mode:multiply"/><polygon points="215.66 76.8 215.38 76.52 225.17 66.72 244.14 66.72 249.82 72.41 260.86 72.41 269.27 63.99 291.29 63.99 291.29 64.4 269.44 64.4 261.03 72.82 249.66 72.82 243.97 67.13 225.34 67.13 215.66 76.8" style="fill:#bd0000;mix-blend-mode:multiply"/><path d="M223.91,142.06a.76.76,0,1,1,0-1.08A.76.76,0,0,1,223.91,142.06Z" transform="translate(-7.82 -64.89)" style="fill:#bd0000;mix-blend-mode:multiply"/><path d="M299.07,129.85a.77.77,0,1,0-.76-.76A.76.76,0,0,0,299.07,129.85Z" transform="translate(-7.82 -64.89)" style="fill:#bd0000;mix-blend-mode:multiply"/><polygon points="258.1 69.04 251.53 69.04 251.53 68.64 257.93 68.64 266.71 59.86 292.6 59.86 299.02 53.44 308.14 53.44 313.25 48.33 313.54 48.61 308.31 53.85 299.19 53.85 292.77 60.26 266.88 60.26 258.1 69.04" style="fill:#bd0000;mix-blend-mode:multiply"/><path d="M259.4,134.49a.76.76,0,1,1,.76-.76A.76.76,0,0,1,259.4,134.49Z" transform="translate(-7.82 -64.89)" style="fill:#bd0000;mix-blend-mode:multiply"/><path d="M321.73,113.93a.76.76,0,0,0-1.08-1.08.76.76,0,0,0,1.08,1.08Z" transform="translate(-7.82 -64.89)" style="fill:#bd0000;mix-blend-mode:multiply"/><polygon points="264.51 80.42 247.91 80.42 243.41 75.91 230.71 75.91 230.71 75.51 243.58 75.51 248.08 80.01 264.35 80.01 275.15 69.2 294.33 69.2 294.33 69.61 275.32 69.61 264.51 80.42" style="fill:#bd0000;mix-blend-mode:multiply"/><path d="M238.57,141.36a.77.77,0,0,1-.77-.76.78.78,0,0,1,.77-.77.77.77,0,0,1,.76.77A.76.76,0,0,1,238.57,141.36Z" transform="translate(-7.82 -64.89)" style="fill:#bd0000;mix-blend-mode:multiply"/><path d="M302.11,135.06a.77.77,0,0,0,.77-.77.77.77,0,1,0-.77.77Z" transform="translate(-7.82 -64.89)" style="fill:#bd0000;mix-blend-mode:multiply"/><polygon points="262.6 76.92 249.15 76.92 243.29 71.07 227.22 71.07 227.22 70.66 243.46 70.66 249.32 76.52 262.43 76.52 272.23 66.72 296.21 66.72 305.61 57.32 313.81 57.32 313.81 57.73 305.78 57.73 296.38 67.13 272.4 67.13 262.6 76.92" style="fill:#bd0000;mix-blend-mode:multiply"/><path d="M235.08,136.52a.77.77,0,1,1,.76-.76A.76.76,0,0,1,235.08,136.52Z" transform="translate(-7.82 -64.89)" style="fill:#bd0000;mix-blend-mode:multiply"/><path d="M321.59,123.18a.77.77,0,1,0-.76-.76A.76.76,0,0,0,321.59,123.18Z" transform="translate(-7.82 -64.89)" style="fill:#bd0000;mix-blend-mode:multiply"/><polygon points="254.5 61.84 222.72 61.84 222.72 61.43 254.33 61.43 266.6 49.16 279.32 49.16 287.48 41 300.49 41 309.06 32.42 309.35 32.71 300.65 41.41 287.65 41.41 279.49 49.57 266.77 49.57 254.5 61.84" style="fill:#bd0000;mix-blend-mode:multiply"/><path d="M230.57,127.29a.77.77,0,1,1,.77-.77A.76.76,0,0,1,230.57,127.29Z" transform="translate(-7.82 -64.89)" style="fill:#bd0000;mix-blend-mode:multiply"/><path d="M317.54,98a.76.76,0,0,0,0-1.08.78.78,0,0,0-1.08,0A.76.76,0,0,0,317.54,98Z" transform="translate(-7.82 -64.89)" style="fill:#bd0000;mix-blend-mode:multiply"/><polygon points="134.93 98.77 121.84 98.77 121.84 98.36 134.77 98.36 139.49 93.63 160.69 93.63 160.69 94.04 139.66 94.04 134.93 98.77" style="fill:#bd0000;mix-blend-mode:multiply"/><path d="M129.7,164.21a.76.76,0,0,1,0-1.52.76.76,0,1,1,0,1.52Z" transform="translate(-7.82 -64.89)" style="fill:#bd0000;mix-blend-mode:multiply"/><path d="M168.48,159.49a.77.77,0,0,0,.76-.77.76.76,0,1,0-1.52,0A.77.77,0,0,0,168.48,159.49Z" transform="translate(-7.82 -64.89)" style="fill:#bd0000;mix-blend-mode:multiply"/><polygon points="317.41 107.54 278.87 107.54 271.66 100.33 263.49 100.33 257.87 105.96 249.61 105.96 241.94 98.29 223.17 98.29 214.64 106.82 201.7 106.82 194.88 100 168.2 100 164.71 96.52 146.83 96.52 146.83 96.11 164.88 96.11 168.37 99.6 195.05 99.6 201.86 106.41 214.47 106.41 223 97.88 242.11 97.88 249.78 105.55 257.7 105.55 263.33 99.93 271.83 99.93 279.04 107.14 317.41 107.14 317.41 107.54" style="fill:#bd0000;mix-blend-mode:multiply"/><path d="M154.7,162a.76.76,0,1,1,.76-.76A.76.76,0,0,1,154.7,162Z" transform="translate(-7.82 -64.89)" style="fill:#bd0000;mix-blend-mode:multiply"/><path d="M325.19,173a.76.76,0,1,0-.76-.76A.76.76,0,0,0,325.19,173Z" transform="translate(-7.82 -64.89)" style="fill:#bd0000;mix-blend-mode:multiply"/><polygon points="316.28 105.31 287.19 105.31 277.74 95.86 265.34 95.86 261.31 91.83 253.64 91.83 250.22 95.25 236 95.25 232.26 91.5 228.77 91.5 225.67 94.6 206.26 94.6 198.49 86.83 184.92 86.83 179.29 92.46 165.97 92.46 165.97 92.06 179.12 92.06 184.75 86.43 198.66 86.43 206.42 94.19 225.51 94.19 228.6 91.1 232.43 91.1 236.17 94.84 250.05 94.84 253.47 91.42 261.48 91.42 265.51 95.45 277.91 95.45 287.36 104.9 316.28 104.9 316.28 105.31" style="fill:#bd0000;mix-blend-mode:multiply"/><path d="M173.83,157.91a.76.76,0,0,1-.76-.76.77.77,0,1,1,.76.76Z" transform="translate(-7.82 -64.89)" style="fill:#bd0000;mix-blend-mode:multiply"/><path d="M324.07,170.76a.77.77,0,0,0,.76-.77.77.77,0,0,0-1.53,0A.77.77,0,0,0,324.07,170.76Z" transform="translate(-7.82 -64.89)" style="fill:#bd0000;mix-blend-mode:multiply"/><polygon points="158.22 91.56 138.82 91.56 134.77 87.51 123.42 87.51 123.42 87.1 134.93 87.1 138.99 91.16 158.22 91.16 158.22 91.56" style="fill:#bd0000;mix-blend-mode:multiply"/><path d="M131.28,153a.78.78,0,0,1-.77-.77.77.77,0,0,1,.77-.76.76.76,0,0,1,.76.76A.77.77,0,0,1,131.28,153Z" transform="translate(-7.82 -64.89)" style="fill:#bd0000;mix-blend-mode:multiply"/><path d="M166,157a.77.77,0,1,0-.76-.76A.76.76,0,0,0,166,157Z" transform="translate(-7.82 -64.89)" style="fill:#bd0000;mix-blend-mode:multiply"/><polygon points="155.52 87.17 141.41 87.17 137.24 83 121.61 83 121.61 82.6 137.41 82.6 141.58 86.76 155.52 86.76 155.52 87.17" style="fill:#bd0000;mix-blend-mode:multiply"/><circle cx="121.65" cy="82.8" r="0.76" style="fill:#bd0000;mix-blend-mode:multiply"/><path d="M163.3,152.62a.77.77,0,1,0-.76-.77A.76.76,0,0,0,163.3,152.62Z" transform="translate(-7.82 -64.89)" style="fill:#bd0000;mix-blend-mode:multiply"/><polygon points="215.41 100.51 208.22 100.51 198.71 91 187.06 91 183.12 94.94 168.45 94.94 168.45 94.53 182.95 94.53 186.89 90.59 198.88 90.59 208.39 100.11 215.41 100.11 215.41 100.51" style="fill:#bd0000;mix-blend-mode:multiply"/><path d="M176.31,160.39a.77.77,0,1,1,.76-.77A.76.76,0,0,1,176.31,160.39Z" transform="translate(-7.82 -64.89)" style="fill:#bd0000;mix-blend-mode:multiply"/><path d="M223.19,166a.77.77,0,1,0-.76-.76A.76.76,0,0,0,223.19,166Z" transform="translate(-7.82 -64.89)" style="fill:#bd0000;mix-blend-mode:multiply"/><polygon points="204.33 101.68 196.46 93.81 188.97 93.81 185.15 97.64 170.93 97.64 170.93 97.23 184.98 97.23 188.8 93.41 196.63 93.41 204.62 101.4 204.33 101.68" style="fill:#bd0000;mix-blend-mode:multiply"/><path d="M178.79,163.09a.77.77,0,1,1,.76-.76A.76.76,0,0,1,178.79,163.09Z" transform="translate(-7.82 -64.89)" style="fill:#bd0000;mix-blend-mode:multiply"/><circle cx="204.45" cy="101.51" r="0.76" style="fill:#bd0000;mix-blend-mode:multiply"/><polygon points="267.23 87.39 266.94 87.1 276.73 77.31 303.19 77.31 311.23 69.27 311.52 69.55 303.36 77.71 276.9 77.71 267.23 87.39" style="fill:#bd0000;mix-blend-mode:multiply"/><path d="M275.47,152.64a.76.76,0,0,1-1.08,0,.78.78,0,0,1,0-1.08.76.76,0,1,1,1.08,1.08Z" transform="translate(-7.82 -64.89)" style="fill:#bd0000;mix-blend-mode:multiply"/><path d="M319.71,134.87a.76.76,0,1,0-1.08,0A.78.78,0,0,0,319.71,134.87Z" transform="translate(-7.82 -64.89)" style="fill:#bd0000;mix-blend-mode:multiply"/><polygon points="331.94 104.44 324.35 96.85 316.36 96.85 312.64 93.14 304.48 93.14 300.2 97.42 289.23 97.42 281.8 89.98 269.77 89.98 269.77 89.58 281.96 89.58 289.4 97.01 300.04 97.01 304.31 92.73 312.81 92.73 316.53 96.45 324.52 96.45 332.23 104.16 331.94 104.44" style="fill:#bd0000;mix-blend-mode:multiply"/><path d="M277.63,155.43a.76.76,0,1,1,.77-.76A.76.76,0,0,1,277.63,155.43Z" transform="translate(-7.82 -64.89)" style="fill:#bd0000;mix-blend-mode:multiply"/><path d="M339.34,169.7a.76.76,0,1,0,0-1.08A.78.78,0,0,0,339.34,169.7Z" transform="translate(-7.82 -64.89)" style="fill:#bd0000;mix-blend-mode:multiply"/><polygon points="300.43 87.68 293.79 87.68 288.33 82.22 278.48 82.22 273.98 86.71 273.69 86.42 278.31 81.81 288.5 81.81 293.95 87.27 300.26 87.27 305.41 82.12 312.87 82.12 317.12 77.87 317.41 78.15 313.04 82.53 305.58 82.53 300.43 87.68" style="fill:#bd0000;mix-blend-mode:multiply"/><path d="M282.23,152a.76.76,0,1,1,0-1.08A.76.76,0,0,1,282.23,152Z" transform="translate(-7.82 -64.89)" style="fill:#bd0000;mix-blend-mode:multiply"/><path d="M325.61,143.46a.76.76,0,0,0-1.08-1.08.76.76,0,1,0,1.08,1.08Z" transform="translate(-7.82 -64.89)" style="fill:#bd0000;mix-blend-mode:multiply"/><polygon points="309.88 80.08 297.92 80.08 297.92 79.67 309.72 79.67 318.6 70.79 318.89 71.07 309.88 80.08" style="fill:#bd0000;mix-blend-mode:multiply"/><path d="M305.78,145.53a.77.77,0,0,1-.76-.77.76.76,0,0,1,1.52,0A.77.77,0,0,1,305.78,145.53Z" transform="translate(-7.82 -64.89)" style="fill:#bd0000;mix-blend-mode:multiply"/><path d="M327.08,136.39a.76.76,0,1,0-1.08,0A.78.78,0,0,0,327.08,136.39Z" transform="translate(-7.82 -64.89)" style="fill:#bd0000;mix-blend-mode:multiply"/><polygon points="304.26 90.1 288.21 90.1 284.95 86.83 278.1 86.83 278.1 86.43 285.12 86.43 288.38 89.69 304.09 89.69 307.97 85.81 316.02 85.81 327.75 74.08 328.04 74.37 316.19 86.21 308.14 86.21 304.26 90.1" style="fill:#bd0000;mix-blend-mode:multiply"/><path d="M286,152.28a.77.77,0,0,1-.76-.76.77.77,0,1,1,1.53,0A.76.76,0,0,1,286,152.28Z" transform="translate(-7.82 -64.89)" style="fill:#bd0000;mix-blend-mode:multiply"/><path d="M336.23,139.68a.76.76,0,1,0-1.08,0A.76.76,0,0,0,336.23,139.68Z" transform="translate(-7.82 -64.89)" style="fill:#bd0000;mix-blend-mode:multiply"/><polygon points="298.27 94.15 288.89 94.15 285.18 90.44 285.46 90.15 289.06 93.74 298.27 93.74 298.27 94.15" style="fill:#bd0000;mix-blend-mode:multiply"/><path d="M292.63,155.75a.78.78,0,0,1,0-1.08.76.76,0,1,1,0,1.08Z" transform="translate(-7.82 -64.89)" style="fill:#bd0000;mix-blend-mode:multiply"/><path d="M306.05,159.6a.77.77,0,1,0-.76-.76A.76.76,0,0,0,306.05,159.6Z" transform="translate(-7.82 -64.89)" style="fill:#bd0000;mix-blend-mode:multiply"/><polygon points="324.84 123.65 313.43 123.65 311.3 121.51 298.91 121.51 289.68 112.28 279.9 112.28 279.9 111.87 289.85 111.87 299.08 121.1 311.46 121.1 313.6 123.24 324.84 123.24 324.84 123.65" style="fill:#bd0000;mix-blend-mode:multiply"/><path d="M287.77,177.73A.78.78,0,0,1,287,177a.77.77,0,0,1,.77-.76.76.76,0,0,1,.76.76A.77.77,0,0,1,287.77,177.73Z" transform="translate(-7.82 -64.89)" style="fill:#bd0000;mix-blend-mode:multiply"/><path d="M332.62,189.1a.77.77,0,0,0,.77-.77.77.77,0,1,0-.77.77Z" transform="translate(-7.82 -64.89)" style="fill:#bd0000;mix-blend-mode:multiply"/><polygon points="331.82 119.42 313.83 119.42 311.97 117.57 301.73 117.57 293.73 109.57 282.38 109.57 282.38 109.17 293.9 109.17 301.89 117.16 312.14 117.16 313.99 119.02 331.82 119.02 331.82 119.42" style="fill:#bd0000;mix-blend-mode:multiply"/><path d="M290.24,175a.76.76,0,1,1,.77-.76A.76.76,0,0,1,290.24,175Z" transform="translate(-7.82 -64.89)" style="fill:#bd0000;mix-blend-mode:multiply"/><path d="M339.6,184.87a.76.76,0,1,0-.76-.76A.76.76,0,0,0,339.6,184.87Z" transform="translate(-7.82 -64.89)" style="fill:#bd0000;mix-blend-mode:multiply"/><polygon points="320.18 116.66 314.9 111.38 302.2 111.38 302.2 110.97 315.06 110.97 320.46 116.37 320.18 116.66" style="fill:#bd0000;mix-blend-mode:multiply"/><path d="M310.06,176.82a.76.76,0,1,1,.76-.76A.76.76,0,0,1,310.06,176.82Z" transform="translate(-7.82 -64.89)" style="fill:#bd0000;mix-blend-mode:multiply"/><path d="M327.58,181.91a.76.76,0,1,0,1.08-1.08.78.78,0,0,0-1.08,0A.76.76,0,0,0,327.58,181.91Z" transform="translate(-7.82 -64.89)" style="fill:#bd0000;mix-blend-mode:multiply"/><polygon points="166.51 62.63 144.44 62.63 127.72 45.91 117.24 45.91 111.87 51.29 90.36 51.29 90.36 50.99 111.75 50.99 117.12 45.61 127.84 45.61 144.56 62.33 166.38 62.33 174.37 54.35 197.88 54.35 205.38 46.84 226.11 46.84 226.11 47.14 205.5 47.14 198 54.64 174.49 54.64 166.51 62.63" style="fill:#231f20"/><path d="M98.21,116.7a.68.68,0,1,1,.68-.68A.68.68,0,0,1,98.21,116.7Z" transform="translate(-7.82 -64.89)" style="fill:#231f20"/><path d="M233.9,112.56a.68.68,0,0,0,.68-.68.68.68,0,1,0-.68.68Z" transform="translate(-7.82 -64.89)" style="fill:#231f20"/><polygon points="284.68 31.75 268.92 31.75 261.72 24.55 245.64 24.55 241.54 28.65 223.2 28.65 217.23 22.68 194.05 22.68 194.05 22.38 217.36 22.38 223.33 28.35 241.41 28.35 245.52 24.25 261.84 24.25 269.05 31.45 284.56 31.45 293.2 22.81 319.51 22.81 319.51 23.11 293.32 23.11 284.68 31.75" style="fill:#231f20"/><path d="M201.91,88.09a.67.67,0,1,1,0-1.34.67.67,0,1,1,0,1.34Z" transform="translate(-7.82 -64.89)" style="fill:#231f20"/><path d="M327.3,88.52a.67.67,0,0,0,0-1.34.67.67,0,1,0,0,1.34Z" transform="translate(-7.82 -64.89)" style="fill:#231f20"/><polygon points="175.89 112.88 157.33 112.88 144.12 99.67 136.03 99.67 133.2 102.51 123.92 102.51 123.92 102.21 133.08 102.21 135.91 99.37 144.24 99.37 157.46 112.58 175.77 112.58 180.21 108.14 207.42 108.14 215.61 99.95 239.19 99.95 247.33 108.1 304.76 108.1 304.76 108.4 247.21 108.4 239.06 100.25 215.73 100.25 207.54 108.44 180.33 108.44 175.89 112.88"/><path d="M131.78,167.92a.67.67,0,0,1-.67-.67.68.68,0,0,1,.67-.68.69.69,0,0,1,.68.68A.68.68,0,0,1,131.78,167.92Z" transform="translate(-7.82 -64.89)"/><path d="M312.55,173.81a.68.68,0,1,0-.67-.67A.67.67,0,0,0,312.55,173.81Z" transform="translate(-7.82 -64.89)"/><polygon points="289.03 125.56 255.58 125.56 243.04 113.02 213.59 113.02 213.59 112.72 243.16 112.72 255.7 125.26 289.03 125.26 289.03 125.56" style="fill:#231f20"/><path d="M221.44,178.43a.68.68,0,0,1,0-1.35.68.68,0,1,1,0,1.35Z" transform="translate(-7.82 -64.89)" style="fill:#231f20"/><path d="M296.82,191a.68.68,0,1,0-.67-.67A.67.67,0,0,0,296.82,191Z" transform="translate(-7.82 -64.89)" style="fill:#231f20"/><g style="mix-blend-mode:multiply"><polygon points="93.51 92.97 67.44 92.97 67.44 92.41 93.28 92.41 96.28 89.41 105.57 89.41 115.45 79.52 163.16 79.52 175.32 67.36 175.71 67.76 163.39 80.08 115.69 80.08 105.81 89.96 96.52 89.96 93.51 92.97" style="fill:#231f20"/><path d="M182.56,131.74a1.05,1.05,0,1,1,0,1.49A1.06,1.06,0,0,1,182.56,131.74Z" transform="translate(-7.82 -64.89)" style="fill:#231f20"/><path d="M75.32,156.53a1,1,0,1,0,1.05,1.05A1,1,0,0,0,75.32,156.53Z" transform="translate(-7.82 -64.89)" style="fill:#231f20"/><polygon points="127.95 105.07 100.13 105.07 100.13 104.51 127.72 104.51 140.22 92.02 187.69 92.02 205.75 73.96 273.58 73.96 273.58 74.52 205.98 74.52 187.92 92.58 140.45 92.58 127.95 105.07" style="fill:#231f20"/><path d="M281.35,140.17a1,1,0,1,0-1.05-1A1,1,0,0,0,281.35,140.17Z" transform="translate(-7.82 -64.89)" style="fill:#231f20"/><polygon points="129.97 80.11 129.58 79.71 143.06 66.23 166.56 66.23 174.69 58.12 241.55 58.12 241.55 58.67 174.92 58.67 166.8 66.79 143.29 66.79 129.97 80.11" style="fill:#231f20"/><path d="M249.32,124.33a1.05,1.05,0,1,0-1-1A1,1,0,0,0,249.32,124.33Z" transform="translate(-7.82 -64.89)" style="fill:#231f20"/><polygon points="144.19 79.97 143.79 79.58 149.42 73.96 158.41 73.96 158.41 74.52 149.65 74.52 144.19 79.97" style="fill:#231f20"/><path d="M166.19,140.17a1,1,0,1,0-1.05-1A1,1,0,0,0,166.19,140.17Z" transform="translate(-7.82 -64.89)" style="fill:#231f20"/><polygon points="196.25 84.17 182.92 84.17 177.29 78.55 177.69 78.15 183.15 83.61 196.25 83.61 196.25 84.17" style="fill:#231f20"/><path d="M186.1,142.53a1.05,1.05,0,1,0,0,1.49A1.06,1.06,0,0,0,186.1,142.53Z" transform="translate(-7.82 -64.89)" style="fill:#231f20"/><polygon points="194.74 97.8 167.02 97.8 161.81 92.58 162.2 92.19 167.25 97.24 194.51 97.24 211.77 79.98 237.01 79.98 237.01 80.54 212 80.54 194.74 97.8" style="fill:#231f20"/><path d="M244.78,146.19a1,1,0,1,0-1.05-1A1,1,0,0,0,244.78,146.19Z" transform="translate(-7.82 -64.89)" style="fill:#231f20"/><polygon points="226.11 66 190.42 66 183.06 58.65 183.46 58.25 190.65 65.44 226.11 65.44 226.11 66" style="fill:#231f20"/><path d="M233.88,131.66a1,1,0,1,0-1-1A1,1,0,0,0,233.88,131.66Z" transform="translate(-7.82 -64.89)" style="fill:#231f20"/><polygon points="229.8 74.32 229.41 73.93 234.49 68.85 262 68.85 262 69.41 234.72 69.41 229.8 74.32" style="fill:#231f20"/><path d="M269.77,135.06a1,1,0,1,0-1-1A1,1,0,0,0,269.77,135.06Z" transform="translate(-7.82 -64.89)" style="fill:#231f20"/><polygon points="270.66 92.98 264.47 86.78 224.38 86.78 218.05 80.45 218.44 80.06 224.61 86.22 264.7 86.22 271.06 92.59 270.66 92.98" style="fill:#231f20"/><path d="M277.91,158.38a1,1,0,0,0,1.48,0,1.06,1.06,0,0,0,0-1.49,1,1,0,0,0-1.48,0A1.06,1.06,0,0,0,277.91,158.38Z" transform="translate(-7.82 -64.89)" style="fill:#231f20"/><polygon points="82.18 89.96 71.17 89.96 65.41 84.2 65.8 83.81 71.4 89.41 81.95 89.41 103.42 67.94 119.09 67.94 135.79 51.24 157.96 51.24 157.96 51.8 136.02 51.8 119.32 68.5 103.65 68.5 82.18 89.96" style="fill:#231f20"/><path d="M165.73,115.36a1,1,0,1,1-1,1A1,1,0,0,1,165.73,115.36Z" transform="translate(-7.82 -64.89)" style="fill:#231f20"/><path d="M74.21,148.19a1.06,1.06,0,0,0-1.49,0,1,1,0,0,0,0,1.48,1.06,1.06,0,0,0,1.49,0A1,1,0,0,0,74.21,148.19Z" transform="translate(-7.82 -64.89)" style="fill:#231f20"/><polygon points="98.42 84.28 87.75 84.28 87.75 83.73 98.19 83.73 107.62 74.3 117.07 74.3 117.07 74.86 107.85 74.86 98.42 84.28" style="fill:#231f20"/><path d="M124.85,140.52a1.05,1.05,0,1,0-1-1.05A1,1,0,0,0,124.85,140.52Z" transform="translate(-7.82 -64.89)" style="fill:#231f20"/><polygon points="149.65 61.91 125.79 61.91 125.79 61.35 149.42 61.35 154.36 56.41 167.93 56.41 170.24 54.1 170.63 54.5 168.16 56.97 154.59 56.97 149.65 61.91" style="fill:#231f20"/><path d="M179,120a1.06,1.06,0,0,0,0-1.49,1,1,0,0,0-1.48,0,1.06,1.06,0,0,0,0,1.49A1,1,0,0,0,179,120Z" transform="translate(-7.82 -64.89)" style="fill:#231f20"/><polygon points="136.01 73.95 128.29 73.95 124.6 70.26 124.99 69.86 128.52 73.39 136.01 73.39 136.01 73.95" style="fill:#231f20"/><path d="M133.4,134.24a1.05,1.05,0,1,0,0,1.49A1.06,1.06,0,0,0,133.4,134.24Z" transform="translate(-7.82 -64.89)" style="fill:#231f20"/><polygon points="250.37 56.95 246.29 52.88 202.4 52.88 196.32 46.8 170.32 46.8 160.29 56.83 159.9 56.44 170.08 46.25 196.56 46.25 202.63 52.32 246.53 52.32 250.76 56.55 250.37 56.95" style="fill:#231f20"/><path d="M257.61,122.35a1,1,0,0,0,1.48,0,1.06,1.06,0,0,0,0-1.49,1,1,0,0,0-1.48,0A1.06,1.06,0,0,0,257.61,122.35Z" transform="translate(-7.82 -64.89)" style="fill:#231f20"/><polygon points="194.74 75.55 192.23 73.04 170.32 73.04 170.32 72.48 192.47 72.48 195.14 75.15 194.74 75.55" style="fill:#231f20"/><path d="M202,140.94a1.06,1.06,0,0,0,1.49,0,1,1,0,0,0,0-1.48,1.06,1.06,0,0,0-1.49,0A1,1,0,0,0,202,140.94Z" transform="translate(-7.82 -64.89)" style="fill:#231f20"/><polygon points="195.87 52.73 183.08 52.73 177.1 46.74 177.49 46.35 183.31 52.17 195.87 52.17 195.87 52.73" style="fill:#231f20"/><path d="M203.64,118.38a1,1,0,1,0-1-1A1,1,0,0,0,203.64,118.38Z" transform="translate(-7.82 -64.89)" style="fill:#231f20"/><polygon points="221.5 69.89 205.5 69.89 201.61 66 202.01 65.61 205.73 69.33 221.5 69.33 221.5 69.89" style="fill:#231f20"/><path d="M229.27,135.55a1.05,1.05,0,1,0-1.05-1.05A1,1,0,0,0,229.27,135.55Z" transform="translate(-7.82 -64.89)" style="fill:#231f20"/><polygon points="212.68 52.75 212.29 52.35 222.06 42.59 263.17 42.59 270.67 35.09 271.06 35.49 263.4 43.14 222.29 43.14 212.68 52.75" style="fill:#231f20"/><path d="M279.39,101a1.06,1.06,0,0,0,0-1.49,1,1,0,0,0-1.48,0,1.06,1.06,0,0,0,0,1.49A1,1,0,0,0,279.39,101Z" transform="translate(-7.82 -64.89)" style="fill:#231f20"/></g><path d="M89.76,213.36c-.39,0-.79,0-1.19-.05l-5.3-.26c-1.44-.18-2.41-.35-2.42-.35l-.11,0-.06-.1s-1-1.69-1.89-3.32c-.45-.82-.87-1.65-1.17-2.26,0,0-.31-.61-.45-.95l-2.74-.71-1-.25c-.61-.15-1.29-.31-2-.54l-4.92-1.81a10.76,10.76,0,0,1-1-.47L65,202l-2.73-1.31a13.94,13.94,0,0,1-1.93-1l-.68-.41.26-.44.7.43a13.56,13.56,0,0,0,1.86,1l2.74,1.32.55.26a9.75,9.75,0,0,0,1,.45l4.91,1.8c.66.22,1.3.38,1.93.53l1,.25,3,.79v.14a10.83,10.83,0,0,0,.46,1c.31.62.72,1.43,1.16,2.25.75,1.4,1.59,2.82,1.82,3.2.29.05,1.13.18,2.27.32l5.29.27a18.63,18.63,0,0,0,2.8,0l4.8-.24c.09-.09.27-.28.5-.54L98,210.58l1.76-2.13,2.27-.34c.8-.15,1.77-.41,2.81-.68l1.84-.47a27.35,27.35,0,0,0,3.67-1.15l.88-.33,2.15-.78.72.27a9.09,9.09,0,0,0,1,.34l1.54.46,2.25-1.09.79-.37a12.46,12.46,0,0,0,1.56-.83l2.63-1.59.94-.57a18.29,18.29,0,0,0,1.63-1l4.29-3.21.8,0H133l2.15-.06,2.54-2.32,2.43-2.66c.23-.28.49-.55.75-.83a22.49,22.49,0,0,0,1.92-2.3l.54-.73a51.61,51.61,0,0,0,3.9-5.62l1.79-3c0-.13-.07-.42-.17-.81l-.51-2.05c-.37-1.45-.79-2.85-.79-2.86l0-.1.9-1.87c.28-.68.6-1.56.93-2.48.19-.51.38-1,.57-1.57l.3-.79c.18-.48.35-.93.48-1.38l1-3.78-1.26-2.31-1.57-2.38.25-1.68c0-.31.1-.66.16-1a14,14,0,0,0,.27-2.41l.26-5.13.5,0-.26,5.11a14.6,14.6,0,0,1-.27,2.48c-.07.37-.12.71-.16,1l-.23,1.49,1.48,2.24,1.37,2.51-1,4c-.14.48-.32,1-.49,1.42-.1.26-.2.53-.29.79-.2.53-.39,1.06-.57,1.57-.34.93-.66,1.81-.95,2.52l-.82,1.71c.1.33.45,1.54.77,2.79l.51,2a6.66,6.66,0,0,1,.19,1v.08l-1.88,3.1a50.85,50.85,0,0,1-3.92,5.68l-.54.71a23.69,23.69,0,0,1-2,2.35c-.26.27-.51.55-.75.82L138,195.06l-2.7,2.47-3.87.08-.63,0-4.15,3.11a16.94,16.94,0,0,1-1.67,1.07c-.31.19-.63.37-.94.57l-2.62,1.59a12.72,12.72,0,0,1-1.62.85l-.77.37-2.44,1.18-1.72-.51c-.36-.1-.72-.24-1-.35l-.55-.21-2,.72c-.28.09-.57.2-.88.32a26.9,26.9,0,0,1-3.73,1.17l-1.83.47c-1,.27-2,.53-2.85.69l-2.08.31-1.65,2-1.24,1.43a8,8,0,0,1-.6.64l-.07.06-5,.26C90.9,213.33,90.34,213.36,89.76,213.36Z" transform="translate(-7.82 -64.89)" style="fill:#bd0000"/><path d="M59.66,199.27l-2.77-1.68a11.82,11.82,0,0,1-1.58-1.07l-3.73-2.79a1.7,1.7,0,0,1-.29-.23l-2.59.06-2.89,0-.47-.43-.3-.27a8.24,8.24,0,0,1-.76-.73l-2.92-3.22a23.22,23.22,0,0,1-2.09-2.55c-.22-.31-.44-.6-.64-.85L37.5,184l-.83-.18c-.52-.11-1.2-.29-2-.54-1.4-.43-2.85-.92-2.87-.93s-.16,0-1.94-3.15l-1.59-3.28c-.1-.23-.22-.46-.33-.69a22.75,22.75,0,0,1-1.34-3.15l-1.76-4.81-1.58-6.11.36-.71.82-1.38,1.15-1.85-.38-2.49A17.92,17.92,0,0,1,25,152L24.82,149a28.65,28.65,0,0,1,0-4.36c0-.5,0-1,.06-1.39l.14-2.56c0-.12,0-.21.47-.59l2.18-1.85.32-2.07c0-.23.07-.46.1-.71a13.73,13.73,0,0,1,.28-1.52l.81-3.16a28.76,28.76,0,0,1,1.2-4l.71-2-.93-2.43a11.26,11.26,0,0,1-.42-1.29c-.05-.17-.09-.33-.14-.48l-.26-.91,1.09-2.26c.11-.22.23-.46.34-.7.23-.48.48-1,.76-1.53l3-4.87a13.65,13.65,0,0,1,1-1.4c.16-.22.33-.43.47-.63l1.52-2,1.31,0h.6c.6,0,1.28,0,2,0,1.62.09,3.19.24,3.66.28l1.9-2.09.55-.51c1.22-1.13,2.73-2.54,4.3-3.87l4.08-3c.28-.2.56-.36.82-.52s.28-.16.41-.25l2.53-1.53.26.43-2.53,1.53c-.13.09-.27.17-.41.25s-.52.31-.78.5l-4.06,3c-1.55,1.31-3.07,2.71-4.28,3.84l-.53.49-2,2.26h-.11c-.22,0-2-.2-3.79-.29-.71,0-1.38,0-2,0h-.6l-1.06,0-1.37,1.84-.48.64A14.56,14.56,0,0,0,35,110.6l-3,4.85c-.27.52-.52,1-.74,1.51l-.34.7-1,2.09.2.71c.05.15.1.32.15.49a9.9,9.9,0,0,0,.4,1.25l1,2.61L30.88,127a27.52,27.52,0,0,0-1.18,3.93L28.89,134a13.9,13.9,0,0,0-.27,1.47c0,.25-.07.5-.11.73l-.34,2.25-2.32,2c-.14.12-.25.23-.3.28l-.13,2.51c0,.43,0,.9-.07,1.4a26.59,26.59,0,0,0,0,4.29l.15,3.07a17.12,17.12,0,0,0,.24,2.62l.4,2.68-2,3.37-.27.52,1.52,5.9,1.75,4.8A23.63,23.63,0,0,0,28.41,175l.33.7,1.57,3.26c.9,1.59,1.58,2.67,1.75,2.95.41.13,1.61.53,2.77.88.77.25,1.44.43,2,.54l1,.22L39,185.18l.65.86a22.27,22.27,0,0,0,2,2.51l2.93,3.22a8.83,8.83,0,0,0,.73.69l.31.29L46,193H48.7l2.94-.06v.15l.23.18,3.75,2.8a11.05,11.05,0,0,0,1.53,1l2.77,1.68Z" transform="translate(-7.82 -64.89)" style="fill:#bd0000"/><path d="M149.74,147l-.31-6c-.08-.66-.19-1.37-.3-2.09-.07-.43-.14-.87-.2-1.32s-.14-.84-.2-1.26a13.52,13.52,0,0,0-.39-2.12l-1.29-5-.31-.86.07-.11s1.05-1.5,2-3.08c.83-1.3,1.62-2.68,1.91-3.18l-.19-.52c-.09-.24-.24-.54-.42-.9s-.2-.43-.32-.66c-.22-.44-.45-.94-.7-1.47-.49-1-1-2.17-1.64-3.29l-2.76-4.53a7.16,7.16,0,0,0-.7-1,4.19,4.19,0,0,1-.3-.41l-.33-.44-2.56-.56-2.69-.51-.06-.09a3.18,3.18,0,0,0-.35-.42L136.67,106c-.32-.33-.66-.72-1-1.13-.67-.75-1.43-1.6-2.25-2.38l-3.56-3.24a9.13,9.13,0,0,0-.87-.71,2.81,2.81,0,0,1-.36-.27l-.55-.41-.35-1.77-.34-1.6-.49-.37-.3-.22a9.63,9.63,0,0,0-1.23-.83l-1.5-.92c-1-.63-2.22-1.35-3.41-2l-5.15-2.48a13,13,0,0,0-1.23-.49c-.19-.06-.37-.13-.51-.19l-.76-.27-1.13-2-1.11-1.91c-.13,0-.4-.15-.82-.27l-6-1.54c-.84-.16-1.72-.3-2.65-.44l-1.42-.21a44,44,0,0,0-6.39-.62l-1.33-.07a24.63,24.63,0,0,0-3.41,0c-.25.23-1.24,1.13-2.16,2s-1.76,1.74-2,2v.15H84.1a12.71,12.71,0,0,0-1.91.22l-4.31.65a13.07,13.07,0,0,0-1.92.41l-4.11,1a24.27,24.27,0,0,0-1.33,2.3L69,91.24l-.12-.33c-1.26.41-8.4,3.64-8.87,4.15l-.16-.14-.27.14,0-.29c.31-.45,7.9-4,9.27-4.38l1.21-2.33a25.39,25.39,0,0,1,1.37-2.36v-.12l4.39-1.13a13.61,13.61,0,0,1,2-.42l4.29-.65A13,13,0,0,1,84,83.16c.25-.25,1.12-1.13,2-2,1.07-1,2.23-2.07,2.24-2.09l.17-.15.09.08a24.38,24.38,0,0,1,3.46,0l1.32.06a44.92,44.92,0,0,1,6.44.63l1.41.22c.94.13,1.83.27,2.7.44l6,1.55c.94.27,1.08.35,1.1.48l1.13,1.93,1,1.89.59.21.5.19a12.65,12.65,0,0,1,1.28.5l5.17,2.49c1.21.7,2.39,1.43,3.43,2.06l1.49.91a9.86,9.86,0,0,1,1.29.87l.28.21.66.49.68,3.37.41.31.34.25a7.63,7.63,0,0,1,.93.76l3.56,3.23c.83.79,1.6,1.65,2.28,2.41.36.41.7.79,1,1.12l1.07,1.18a3.9,3.9,0,0,1,.35.41l2.48.47,2.75.59.45.61a4.34,4.34,0,0,0,.29.39,8.45,8.45,0,0,1,.74,1.07l2.75,4.54c.63,1.13,1.18,2.3,1.67,3.33.24.52.48,1,.7,1.46.11.24.22.46.32.66.18.37.33.68.43.94l.28.74-.06.1c-.25.44-1.1,1.92-2,3.31s-1.72,2.62-2,3l.24.64,1.29,5a15.53,15.53,0,0,1,.4,2.18c.06.42.12.84.19,1.25l.21,1.33c.11.72.22,1.44.31,2.12l.3,6Z" transform="translate(-7.82 -64.89)" style="fill:#bd0000"/><path d="M89.85,204.81a63.9,63.9,0,0,1-16.71-2.47c-.87-.25-1.72-.57-2.54-.88l-1.37-.5-1.93-.71-1.9-.91c-.43-.23-.87-.43-1.3-.63-.78-.37-1.59-.75-2.35-1.2l-3.4-2.07a56.71,56.71,0,0,1-11.61-10,34.6,34.6,0,0,1-3.2-3.91c-.39-.54-.79-1.07-1.19-1.59A16.46,16.46,0,0,1,41.12,178c-.2-.33-.39-.66-.59-1l-.62-1c-.37-.6-.74-1.19-1.06-1.8a55.44,55.44,0,0,1-6.24-19.49l-.26-1.68c0-.41-.06-.75-.07-1.09L32,147l1.45-.07.25,5c0,.31,0,.63.06,1l.26,1.68a54.21,54.21,0,0,0,6.09,19c.3.58.65,1.14,1,1.71l.61,1c.21.31.41.66.62,1A14.64,14.64,0,0,0,43.49,179c.41.53.81,1.07,1.22,1.62a32.31,32.31,0,0,0,3.09,3.8,55.76,55.76,0,0,0,11.33,9.77l3.36,2c.7.42,1.44.76,2.22,1.13l1.34.64,1.81.88,1.86.68,1.39.51c.79.3,1.62.61,2.44.84a62.35,62.35,0,0,0,16.3,2.42A62.67,62.67,0,0,0,106.12,201c.83-.24,1.65-.55,2.45-.85.47-.18.93-.35,1.4-.51l1.91-.71,1.76-.85c.43-.22.88-.43,1.32-.64.78-.37,1.53-.71,2.23-1.13l3.39-2.06a55.6,55.6,0,0,0,11.25-9.71,33.43,33.43,0,0,0,3.14-3.84l1.21-1.62a14.71,14.71,0,0,0,1.13-1.73c.2-.35.41-.7.63-1s.39-.66.6-1c.35-.57.7-1.13,1-1.71a54,54,0,0,0,6.08-19l.27-1.75c0-.3,0-.62.06-.93l.25-5,1.44.07L147.4,152c0,.34,0,.68-.07,1.05l-.27,1.75a55.3,55.3,0,0,1-6.24,19.46c-.32.61-.68,1.2-1,1.8-.21.33-.41.66-.61,1s-.41.68-.61,1a16.46,16.46,0,0,1-1.23,1.89c-.4.52-.79,1-1.19,1.59a35.46,35.46,0,0,1-3.23,4,57.22,57.22,0,0,1-11.54,9.94l-3.43,2.08c-.77.46-1.58.84-2.36,1.21-.43.2-.86.4-1.29.62l-1.84.89-2,.74c-.47.16-.93.33-1.38.5-.83.31-1.68.63-2.56.88A63.72,63.72,0,0,1,89.85,204.81Z" transform="translate(-7.82 -64.89)" style="fill:#bd0000"/><path d="M89.84,209.05h-.11a65.78,65.78,0,0,1-15.39-2c-.36-.1-.74-.19-1.12-.28-.78-.2-1.59-.4-2.42-.69l-3.17-1.16A31,31,0,0,1,63.32,203c-.5-.25-1-.5-1.49-.72l-1.31-.63c-.41-.21-.71-.4-1-.58l-5-3.15-3.77-2.83,3.46-4.62L58.93,194l3.62,2.2c.18.11.36.23.56.33l1.17.56c.49.22,1,.49,1.6.77a26.26,26.26,0,0,0,3.61,1.57l3.27,1.19c.53.18,1.17.34,1.85.51l1.3.33a59.29,59.29,0,0,0,13.93,1.81,59.41,59.41,0,0,0,13.9-1.8c.46-.13.89-.23,1.32-.34.68-.17,1.33-.33,1.89-.52l3.11-1.14a26.64,26.64,0,0,0,3.74-1.61c.56-.28,1.11-.55,1.66-.8l1.2-.58c.1,0,.29-.17.47-.29l4.24-2.58,4.15-3.1,3.46,4.62-4.48,3.34-4.33,2.63c-.3.19-.6.37-.92.54l-1.35.65c-.54.25-1,.5-1.55.75a31.21,31.21,0,0,1-4.42,1.89l-3,1.11c-.85.3-1.67.5-2.45.7-.38.09-.76.18-1.14.29a65.91,65.91,0,0,1-15.37,2Z" transform="translate(-7.82 -64.89)" style="fill:#bd0000"/><path d="M146.21,147l-.25-5c0-.31,0-.63-.06-1l-.26-1.67a54.18,54.18,0,0,0-6.09-19c-.31-.58-.66-1.14-1-1.71-.21-.34-.42-.67-.62-1s-.41-.66-.61-1a15,15,0,0,0-1.12-1.72L135,113.33a32.49,32.49,0,0,0-3.1-3.79,55.65,55.65,0,0,0-11.32-9.78l-3.37-2c-.69-.41-1.44-.76-2.22-1.13L113.63,96l-1.82-.88L110,94.39l-1.39-.51c-.8-.3-1.62-.61-2.44-.84a62,62,0,0,0-16.31-2.41A61.9,61.9,0,0,0,73.55,93c-.82.23-1.65.54-2.44.84l-1.41.52-1.9.7L66,96l-1.32.63c-.78.37-1.52.72-2.22,1.13L59.1,99.78a55.41,55.41,0,0,0-11.26,9.71,32.31,32.31,0,0,0-3.13,3.84c-.41.55-.81,1.09-1.22,1.62a14.64,14.64,0,0,0-1.12,1.73c-.21.35-.41.7-.63,1l-.6,1c-.36.57-.71,1.13-1,1.71a54.29,54.29,0,0,0-6.09,19l-.27,1.76c0,.29,0,.61-.05.92l-.25,5L32,147l.26-5c0-.33,0-.68.06-1l.27-1.76a55.58,55.58,0,0,1,6.24-19.46c.32-.61.69-1.2,1.06-1.8l.6-1c.22-.35.41-.67.61-1a14.7,14.7,0,0,1,1.24-1.9c.39-.51.79-1,1.18-1.58a34.68,34.68,0,0,1,3.24-4,56.37,56.37,0,0,1,11.54-10l3.42-2.08a25,25,0,0,1,2.36-1.2c.43-.21.87-.41,1.29-.63l1.85-.89,2-.73c.47-.16.92-.34,1.38-.51.82-.31,1.67-.63,2.55-.88a64.14,64.14,0,0,1,16.67-2.47,63.89,63.89,0,0,1,16.71,2.48c.87.24,1.72.56,2.55.87.45.17.91.35,1.36.5l1.93.71,1.9.92,1.3.63c.78.36,1.59.74,2.36,1.19l3.4,2.07a57.26,57.26,0,0,1,11.61,10,34.6,34.6,0,0,1,3.19,3.92c.4.53.79,1.07,1.19,1.58a15.74,15.74,0,0,1,1.23,1.9c.2.33.39.65.6,1s.41.69.62,1c.37.6.73,1.19,1,1.8a55.58,55.58,0,0,1,6.25,19.49l.26,1.69c0,.4,0,.75.07,1.08l.25,5Z" transform="translate(-7.82 -64.89)" style="fill:#bd0000"/><path d="M125.52,103.48,120.74,100l-3.61-2.2c-.18-.12-.37-.23-.57-.34l-1.16-.56c-.49-.22-1-.49-1.6-.77a26.33,26.33,0,0,0-3.62-1.56l-3.26-1.19c-.53-.19-1.18-.35-1.85-.52-.44-.1-.87-.21-1.3-.33a59.89,59.89,0,0,0-13.93-1.81,60,60,0,0,0-13.91,1.8c-.46.13-.89.24-1.32.34-.68.17-1.32.33-1.89.53l-3.11,1.14a26.49,26.49,0,0,0-3.73,1.6c-.57.28-1.12.55-1.66.8l-1.2.58-.48.29-4.24,2.58-4.14,3.1L50.7,98.86l4.47-3.33,4.33-2.64c.3-.18.61-.37.93-.54l1.34-.65c.55-.25,1-.49,1.55-.74a30.57,30.57,0,0,1,4.42-1.89l3-1.11a22.65,22.65,0,0,1,2.46-.7L74.36,87a64.93,64.93,0,0,1,15.37-2h.21a65.29,65.29,0,0,1,15.4,2l1.11.29c.78.19,1.6.39,2.43.68l3.17,1.17a29.74,29.74,0,0,1,4.3,1.85c.51.25,1,.49,1.49.71l1.32.64c.4.21.7.39,1,.57l5,3.16L129,98.86Z" transform="translate(-7.82 -64.89)" style="fill:#bd0000"/><path d="M89.68,217.45a71.67,71.67,0,0,1-13.6-1.28A72.39,72.39,0,0,1,60.21,211c-.66-.33-1.28-.62-1.84-.89-1-.46-1.75-.84-2.35-1.16L54.59,208l.56-.92,1.41.85c.56.3,1.34.67,2.27,1.12l1.86.9a71.64,71.64,0,0,0,15.61,5.13,72.28,72.28,0,0,0,23.16.6,68.35,68.35,0,0,0,25.07-8.61,69.67,69.67,0,0,0,20-17.41,66.61,66.61,0,0,0,11-20.37,27,27,0,0,0,1.13-3.68l.26-1c.12-.54.27-1.08.41-1.61a27.08,27.08,0,0,0,.62-2.65l.59-3.86c.05-.39.11-.78.17-1.16a12,12,0,0,0,.23-2.05l.32-6.32,1.09.05-.33,6.29a12.73,12.73,0,0,1-.24,2.21c-.06.36-.12.74-.17,1.13l-.59,3.87c-.15.92-.39,1.82-.64,2.78-.14.51-.29,1-.41,1.58l-.26,1a25.25,25.25,0,0,1-1.17,3.79,67.09,67.09,0,0,1-11.17,20.66A70.88,70.88,0,0,1,125.07,208a69.46,69.46,0,0,1-25.47,8.74A73.44,73.44,0,0,1,89.68,217.45Z" transform="translate(-7.82 -64.89)" style="fill:#231f20"/><path d="M94.74,220.47l-.21-4.32.73,0,.59,0c.37,0,.82,0,1.34-.09s1.22-.2,2-.31c1.51-.22,3.21-.48,5.14-.84a72.33,72.33,0,0,0,20.16-7.79l3-1.84a16.31,16.31,0,0,0,1.84-1.22l4.71-3.54,5.14-4.73,2.12-2.34a42.46,42.46,0,0,0,3.87-4.68l1.9-2.55c.2-.25.29-.39.32-.43l3.7,2.24a7.4,7.4,0,0,1-.57.81l-1.87,2.5a46.07,46.07,0,0,1-4.2,5.08l-2.79,3-4.94,4.49L132,207.4a19,19,0,0,1-2.27,1.51l-3,1.86a77.45,77.45,0,0,1-21.51,8.32c-2.08.38-3.9.65-5.37.87-.76.11-1.45.21-2,.31-.75.09-1.31.12-1.76.13l-.49,0Z" transform="translate(-7.82 -64.89)" style="fill:#231f20"/><path d="M54.59,208l-4.17-2.53-5.35-4c-.35-.3-.67-.6-1-.9l-3.83-3.48c-.73-.73-1.42-1.5-2.13-2.29l-1.24-1.37a72.24,72.24,0,0,1-12.4-20,70.27,70.27,0,0,1,0-52.91,72.42,72.42,0,0,1,12.38-20c.44-.47.85-.93,1.26-1.38.71-.79,1.4-1.56,2.1-2.27l3.86-3.51,1-.87,5.66-4.19L54.59,86l.56.92L51,89.42l-5.26,3.93c-.28.25-.6.53-.92.83L41,97.67c-.67.68-1.35,1.43-2.05,2.21-.41.45-.82.92-1.25,1.38A70.85,70.85,0,0,0,25.48,121a69.05,69.05,0,0,0,0,52.09,71.07,71.07,0,0,0,12.19,19.71c.42.45.83.91,1.24,1.36.7.78,1.38,1.54,2.07,2.24l3.82,3.47,1,.84,5.51,4.09,3.89,2.36Z" transform="translate(-7.82 -64.89)" style="fill:#231f20"/><path d="M23.72,179.44l-1.42-2.95a10.9,10.9,0,0,1-.49-1.08l-2-5.59A79.39,79.39,0,0,1,16.12,147a79.27,79.27,0,0,1,3.61-22.73l2.07-5.65a10,10,0,0,1,.5-1.12l1.42-3,3.9,1.88L26.4,119c0,.12-.14.28-.22.46s-.23.45-.33.71l-2,5.53A75.23,75.23,0,0,0,20.45,147a75.44,75.44,0,0,0,3.41,21.43l2,5.46c.09.23.21.46.32.68s.17.35.24.51l1.2,2.48Z" transform="translate(-7.82 -64.89)" style="fill:#231f20"/><path d="M159.29,147l-.32-6.29a12,12,0,0,0-.23-2.08q-.09-.56-.18-1.17l-.58-3.85c-.14-.85-.37-1.72-.62-2.65-.14-.53-.29-1.07-.42-1.62l-.25-1a26.9,26.9,0,0,0-1.11-3.63,66.61,66.61,0,0,0-11-20.41,69.8,69.8,0,0,0-20-17.42,68.45,68.45,0,0,0-25.08-8.6,72.5,72.5,0,0,0-23.18.59A70.93,70.93,0,0,0,60.7,84l-1.87.89c-.93.45-1.71.82-2.3,1.13l-1.38.84L54.59,86l1.4-.85c.63-.34,1.42-.72,2.38-1.18L60.22,83a72.8,72.8,0,0,1,15.84-5.22,73.48,73.48,0,0,1,23.54-.61A69.58,69.58,0,0,1,125.08,86a70.78,70.78,0,0,1,20.32,17.68,67.47,67.47,0,0,1,11.19,20.71,25.46,25.46,0,0,1,1.15,3.74l.25,1c.13.56.28,1.09.42,1.61.25,1,.49,1.86.64,2.77l.58,3.86c.06.4.12.78.18,1.15a12.55,12.55,0,0,1,.24,2.23l.33,6.26Z" transform="translate(-7.82 -64.89)" style="fill:#231f20"/><path d="M149,109.29l-1.6-1a3.48,3.48,0,0,0-.29-.41l-1.92-2.58a42.85,42.85,0,0,0-3.83-4.64l-3.32-3.49-4-3.63-4.63-3.48a15.52,15.52,0,0,0-1.89-1.26l-3.08-1.87a72.5,72.5,0,0,0-20.18-7.79c-1.88-.35-3.58-.6-5.09-.83L97.08,78c-.41,0-.86-.06-1.23-.07l-.65,0-.67,0,.21-4.33.74,0,.55,0c.45,0,1,0,1.65.12l2.14.32c1.47.22,3.3.49,5.31.86a77,77,0,0,1,21.54,8.32l3.1,1.88a19.73,19.73,0,0,1,2.33,1.56l4.8,3.62,6,5.66,1.61,1.77a46.23,46.23,0,0,1,4.15,5l1.88,2.52c.31.4.48.67.52.73l-1.83,1.16Z" transform="translate(-7.82 -64.89)" style="fill:#231f20"/><path d="M89.72,200.44a55.44,55.44,0,0,1-10.32-1,54.86,54.86,0,0,1-12-4L66,194.84c-.73-.34-1.34-.63-1.79-.88l-1.08-.66.37-.61,1.07.65c.43.23,1,.51,1.75.85l1.39.68a51.76,51.76,0,0,0,29.47,4.35,51.88,51.88,0,0,0,19.06-6.54,53.09,53.09,0,0,0,15.21-13.23A50.57,50.57,0,0,0,139.79,164a20.27,20.27,0,0,0,.86-2.8c.07-.26.13-.52.2-.77s.2-.81.31-1.2a19.68,19.68,0,0,0,.47-2c.11-.76.22-1.48.33-2.17.2-1.22.37-2.28.43-3.23l.24-4.77.72,0-.24,4.78c-.06,1-.24,2.11-.43,3.3q-.18,1-.33,2.16c-.12.7-.3,1.39-.49,2.12-.11.39-.22.79-.31,1.2s-.13.51-.2.76a19.67,19.67,0,0,1-.88,2.88A51.2,51.2,0,0,1,132,179.89a53.73,53.73,0,0,1-15.42,13.42,52.86,52.86,0,0,1-19.32,6.63A56.48,56.48,0,0,1,89.72,200.44Z" transform="translate(-7.82 -64.89)" style="fill:#bd0000"/><path d="M138.47,171.73l-2.6-1.25,1.68-3.54,1.36-3.71a13.43,13.43,0,0,0,.6-2l.82-3.2a10.23,10.23,0,0,0,.27-1.31l.15-1,2.85.43-.15,1a11.75,11.75,0,0,1-.34,1.67L142.3,162a14.71,14.71,0,0,1-.71,2.31L140,168.66Z" transform="translate(-7.82 -64.89)" style="fill:#bd0000"/><path d="M121.35,191.53l-1.73-2.31,2-1.5a22.85,22.85,0,0,0,2.68-2.27c.46-.41.92-.84,1.39-1.25a15.36,15.36,0,0,0,1.5-1.52l2.16-2.37a8.94,8.94,0,0,0,.77-.94l.3-.41.38-.51,2.32,1.72-.42.56a3.69,3.69,0,0,0-.25.34,11.36,11.36,0,0,1-1,1.22l-2.11,2.32a17.42,17.42,0,0,1-1.77,1.78c-.43.37-.87.78-1.31,1.19a27.07,27.07,0,0,1-3,2.5Z" transform="translate(-7.82 -64.89)" style="fill:#bd0000"/><path d="M97,201.08l-.43-2.86,2.47-.38a21.27,21.27,0,0,0,3.28-.71c.64-.17,1.3-.35,2-.5a17.19,17.19,0,0,0,2.14-.68l2.89-1.06a9.14,9.14,0,0,0,1.31-.56l.84-.4,1.26,2.6-.83.4a13.52,13.52,0,0,1-1.63.69l-2.84,1a17.24,17.24,0,0,1-2.51.79l-1.85.48a24.49,24.49,0,0,1-3.68.79Z" transform="translate(-7.82 -64.89)" style="fill:#bd0000"/><path d="M87,201.45l-2.5-.13c-1.14-.14-2.38-.33-3.7-.54l-2-.32-2-.53c-1.23-.31-2.38-.6-3.31-.88l-2.44-.88,1-2.71,2.35.86c.82.23,1.93.51,3.12.82l2,.51,1.82.28c1.3.2,2.52.39,3.52.52l2.38.12Z" transform="translate(-7.82 -64.89)" style="fill:#bd0000"/><path d="M63.09,193.3l-3.16-1.92-4.06-3L52.21,185c-.56-.56-1.09-1.15-1.64-1.76l-.92-1a54.27,54.27,0,0,1-9.4-15.19,53.19,53.19,0,0,1,0-40.13,54.59,54.59,0,0,1,9.39-15.18l.93-1c.55-.61,1.08-1.2,1.62-1.75l4-3.6,3.64-2.72,3.23-2,.38.62-3.17,1.92-4,3-3.62,3.28c-.52.53-1,1.11-1.59,1.71l-.92,1a53.67,53.67,0,0,0-9.26,15,52.56,52.56,0,0,0,0,39.59,53.66,53.66,0,0,0,9.27,15l.91,1c.54.6,1.07,1.19,1.61,1.73L56.66,188l3.64,2.72,3.17,1.94Z" transform="translate(-7.82 -64.89)" style="fill:#bd0000"/><path d="M54.9,188.94l-2.46-2.24c-.41-.37-.86-.77-1.31-1.21l-2-2.24a31.31,31.31,0,0,1-2.82-3.45l-.7-.93-.46-.62c-.29-.38-.53-.7-.7-1l-.35-.58,2.46-1.5.36.59c.12.2.31.44.53.73l.47.63c.21.27.45.6.71,1a28.16,28.16,0,0,0,2.59,3.17l2,2.22c.36.35.78.73,1.17,1.08l2.47,2.24Z" transform="translate(-7.82 -64.89)" style="fill:#bd0000"/><path d="M39.38,167.84l-.86-2.35c-.09-.25-.18-.5-.28-.76-.2-.54-.41-1.11-.6-1.72l-.75-2.91a31.36,31.36,0,0,1-.92-4.55l-.42-2.79c-.06-.59-.06-.89-.06-.89l2.88,0s0,.22,0,.55l.27,1.72c0,.31.1.65.15,1a28.77,28.77,0,0,0,.84,4.19l.74,2.9c.16.49.35,1,.54,1.5.1.28.2.54.29.8l.85,2.33Z" transform="translate(-7.82 -64.89)" style="fill:#bd0000"/><path d="M38.37,142.15l-2.88,0s0-.31,0-.83l.43-2.86a32.32,32.32,0,0,1,.93-4.6l.72-2.79c.21-.68.42-1.26.62-1.79l.28-.74.86-2.37,2.71,1-.86,2.35c-.08.24-.18.5-.28.78-.18.49-.38,1-.56,1.57l-.71,2.78a29.44,29.44,0,0,0-.85,4.24c0,.36-.1.71-.16,1l-.27,1.78C38.38,141.92,38.37,142.12,38.37,142.15Z" transform="translate(-7.82 -64.89)" style="fill:#bd0000"/><path d="M46.52,118.8l-2.46-1.49.35-.59c.17-.27.41-.6.7-1l.44-.59c.24-.31.47-.63.72-1a31.31,31.31,0,0,1,2.86-3.49l1.94-2.13c.51-.5,1-.91,1.37-1.28l2.46-2.24,1.94,2.14-2.47,2.24c-.39.35-.81.73-1.23,1.14l-1.92,2.12a28.22,28.22,0,0,0-2.63,3.22l-.73,1-.46.61c-.21.28-.4.52-.52.72Z" transform="translate(-7.82 -64.89)" style="fill:#bd0000"/><path d="M142.63,147l-.24-4.77c-.06-1-.23-2-.43-3.23-.11-.68-.22-1.41-.33-2.17a19.52,19.52,0,0,0-.47-2c-.11-.4-.22-.8-.31-1.22-.07-.24-.13-.49-.2-.75a19.66,19.66,0,0,0-.85-2.78,50.57,50.57,0,0,0-8.38-15.51,53.13,53.13,0,0,0-15.21-13.24,51.88,51.88,0,0,0-19.06-6.54,55.13,55.13,0,0,0-17.61.45,54.39,54.39,0,0,0-11.85,3.9l-1.4.68q-1.1.51-1.77.87l-1,.64-.37-.62,1.06-.65c.47-.25,1.08-.54,1.81-.89l1.4-.67a54.69,54.69,0,0,1,12-4,55.7,55.7,0,0,1,17.86-.47,52.69,52.69,0,0,1,19.32,6.64A53.55,53.55,0,0,1,132,114.1a51.24,51.24,0,0,1,8.49,15.71,19.37,19.37,0,0,1,.87,2.85c.07.26.13.51.2.76.09.41.2.81.31,1.2.19.73.37,1.42.49,2.11s.21,1.49.33,2.17c.19,1.19.37,2.31.43,3.3l.24,4.78Z" transform="translate(-7.82 -64.89)" style="fill:#bd0000"/><path d="M71.93,98.54l-1-2.71L73.29,95c1-.31,2.17-.6,3.4-.91l2-.53.15,0,1.89-.29c1.32-.2,2.56-.4,3.58-.53L87,92.54l.14,2.88-2.5.13c-.88.12-2.1.31-3.4.51l-1.82.28-2,.52c-1.19.3-2.3.58-3.21.85Z" transform="translate(-7.82 -64.89)" style="fill:#bd0000"/><path d="M111.45,100.06l-.85-.4a8.5,8.5,0,0,0-1.26-.54l-2.94-1.07a15.22,15.22,0,0,0-2.11-.68c-.7-.16-1.36-.34-2-.51a21.32,21.32,0,0,0-3.19-.7l-2.56-.39L97,92.92l2.48.38a22.92,22.92,0,0,1,3.59.77c.61.17,1.24.34,1.88.49a17.3,17.3,0,0,1,2.49.78l2.88,1.06a12.21,12.21,0,0,1,1.58.66l.83.4Z" transform="translate(-7.82 -64.89)" style="fill:#bd0000"/><path d="M130.81,115.54l-.41-.54-.27-.37a7.81,7.81,0,0,0-.73-.9l-2.2-2.42a14.8,14.8,0,0,0-1.47-1.49c-.5-.44-1-.86-1.41-1.28a23.56,23.56,0,0,0-2.62-2.22l-2.08-1.55,1.73-2.31,2,1.5a26.17,26.17,0,0,1,2.92,2.46c.43.4.87.81,1.33,1.21a17.92,17.92,0,0,1,1.74,1.75l2.14,2.37a8.76,8.76,0,0,1,1,1.18l.23.3.44.59Z" transform="translate(-7.82 -64.89)" style="fill:#bd0000"/><path d="M140.75,138.24l-.15-1a8.86,8.86,0,0,0-.26-1.26l-.65-2.54c-.06-.22-.12-.47-.19-.72a13.18,13.18,0,0,0-.57-1.9l-1.5-4.08-1.56-3.22,2.6-1.26L140.6,127l1,2.77a15.54,15.54,0,0,1,.68,2.25l.82,3.19a11,11,0,0,1,.33,1.61l.15,1Z" transform="translate(-7.82 -64.89)" style="fill:#bd0000"/><rect x="152.08" y="147.97" width="2.61" height="0.66" transform="translate(-10.43 228.97) rotate(-87.05)" style="fill:#231f20"/><path d="M152.55,159.48l-.65-.11L152,159l.5-3.25.65.1-.5,3.24Zm.91-6.17-.65,0,.06-1.24.65,0Z" transform="translate(-7.82 -64.89)" style="fill:#231f20"/><path d="M93.64,210.75l0-.66.66,0,.71,0a15.42,15.42,0,0,0,1.85-.14l.44-.08.11.65-.44.07a15.67,15.67,0,0,1-1.94.16l-.69,0Zm6.19-.66-.1-.65,1.22-.19.1.65Zm3.68-.65-.14-.64c.89-.2,1.72-.41,2.54-.65s1.47-.4,2.22-.62l.19.63c-.76.23-1.51.43-2.24.62S104.41,209.24,103.51,209.44Zm6.6-1.85-.21-.62c1.15-.39,2.31-.82,3.47-1.29l.24.61C112.45,206.76,111.27,207.2,110.11,207.59Zm5.79-2.27-.26-.6,1.12-.51.28.59Zm3.37-1.62-.3-.58c1.47-.76,2.92-1.57,4.3-2.42l.34.56C122.22,202.11,120.76,202.94,119.27,203.7Zm5.92-3.45-.36-.55c1-.67,2-1.39,3-2.12l.4.52C127.26,198.84,126.23,199.57,125.19,200.25Zm5-3.69-.42-.51.84-.7.09-.09.45.48-.11.1Zm2.79-2.48-.44-.49a34.52,34.52,0,0,0,3.49-3.44l.5.42A34.72,34.72,0,0,1,133,194.08Zm4.79-4.88-.49-.44,1.33-1.46,1-1.38.52.4-1.31,1.7Zm3.89-4.85-.52-.4c.25-.33.49-.65.72-1l.54.38C142.19,183.68,141.94,184,141.68,184.35Zm2.1-3.11-.56-.34c.23-.37.44-.73.66-1.1l.72-1.17.84-1.39c.1-.18.19-.38.29-.58l.59.29c-.1.2-.2.41-.31.61l-.85,1.41c-.24.39-.48.78-.71,1.17Zm3.35-6-.6-.28.89-1.85a14.77,14.77,0,0,0,.7-1.49l.61.25a15.92,15.92,0,0,1-.72,1.54Zm2.47-5.71-.62-.22c.13-.36.26-.71.39-1l0-.13.61.23,0,.13C149.85,168.87,149.73,169.21,149.6,169.56Zm1.27-3.5-.62-.21c.16-.52.29-1,.37-1.34l.88-3.43.63.16-.87,3.42C151.17,165.05,151.05,165.51,150.87,166.06Z" transform="translate(-7.82 -64.89)" style="fill:#231f20"/><polygon points="82.03 146.05 81.99 145.4 84.6 145.26 84.63 145.92 82.03 146.05" style="fill:#231f20"/><polygon points="81.99 146.05 79.39 145.92 79.43 145.26 82.03 145.4 81.99 146.05" style="fill:#231f20"/><path d="M84.76,210.68l-1.24-.06,0-.65,1.25.06ZM81,210.26l-3.25-.49-.43-.06.1-.65.42.06,3.25.5Z" transform="translate(-7.82 -64.89)" style="fill:#231f20"/><path d="M75.59,209.29l-3.41-.88a11.65,11.65,0,0,1-1.4-.38l.2-.62a12.6,12.6,0,0,0,1.34.36l3.43.89Zm-7.16-2.1-.13-.05-1-.38.22-.62,1.05.39.12.05Zm-3.49-1.3c-.57-.23-1.07-.47-1.55-.72l-1.83-.88.29-.6,1.84.89a15,15,0,0,0,1.5.7Zm-5-2.41c-.21-.1-.42-.2-.62-.31l-1.41-.86-1.17-.7-1.1-.67.35-.56L57,201l1.18.71,1.39.85.57.29Zm-6.39-3.9c-.35-.23-.68-.48-1-.74l.4-.52q.49.38,1,.72Zm-3-2.24L48.82,196,47.63,195l.45-.49,1.46,1.33,1.37,1Zm-4.25-3.63a34.78,34.78,0,0,1-3.52-3.55l.49-.44a33.56,33.56,0,0,0,3.45,3.49Zm-5.18-5.38-.1-.11-.71-.85.5-.42.7.84.09.09Zm-2.36-2.92c-.74-1-1.46-2-2.15-3.06l.55-.36c.68,1,1.39,2,2.13,3Zm-3.15-4.64c-.86-1.39-1.68-2.85-2.45-4.34l.58-.3c.76,1.47,1.58,2.92,2.43,4.3ZM32,174.2c-.18-.38-.35-.76-.52-1.14l.6-.26.52,1.12Zm-1.49-3.43c-.47-1.16-.9-2.34-1.3-3.51l.63-.21c.39,1.16.82,2.32,1.28,3.48Zm-1.86-5.29c-.23-.76-.44-1.51-.63-2.24s-.46-1.67-.66-2.57l.65-.14c.19.89.4,1.72.65,2.54s.39,1.47.62,2.22Zm-1.75-7.26c-.07-.43-.13-.84-.19-1.23l.65-.1c.06.39.12.8.19,1.22Zm-.55-3.68c0-.15-.05-.3-.07-.44a18.1,18.1,0,0,1-.16-1.94c0-.26,0-.49,0-.69l0-.67.65,0,0,.65c0,.2,0,.44,0,.72A15.85,15.85,0,0,0,27,154c0,.14.05.29.07.44Z" transform="translate(-7.82 -64.89)" style="fill:#231f20"/><rect x="25.96" y="146.99" width="0.66" height="2.61" transform="translate(-15.35 -63.36) rotate(-2.92)" style="fill:#231f20"/><rect x="24.98" y="145.37" width="2.61" height="0.66" transform="translate(-128.38 99.68) rotate(-87.1)" style="fill:#231f20"/><path d="M26.81,142l-.66,0,.06-1.24.66,0Zm.41-3.65-.65-.1.49-3.25c0-.15,0-.3.07-.43l.64.1q0,.19-.06.42Z" transform="translate(-7.82 -64.89)" style="fill:#231f20"/><path d="M28.18,132.91l-.64-.16.88-3.41a13.89,13.89,0,0,1,.38-1.4l.63.2a12.93,12.93,0,0,0-.37,1.34Zm2.08-7.09-.62-.23.05-.13c.13-.33.26-.68.38-1l.62.22c-.13.36-.26.71-.39,1Zm1.29-3.47-.61-.26c.24-.56.47-1.07.73-1.54l.88-1.83.59.29-.89,1.84A16.25,16.25,0,0,0,31.55,122.35Zm2.4-5-.6-.28c.1-.21.2-.41.31-.62l.86-1.41c.24-.38.47-.77.71-1.17l.66-1.1.56.35-.66,1.09-.71,1.17-.85,1.4C34.14,116.94,34,117.13,34,117.33Zm3.84-6.3-.54-.37c.24-.35.48-.68.74-1l.52.4Q38.14,110.54,37.79,111Zm2.22-3-.52-.4L40.81,106l1.07-1.19.49.45L41,106.69Zm3.61-4.22-.5-.42a34.91,34.91,0,0,1,3.56-3.52l.44.49A32.73,32.73,0,0,0,43.62,103.85ZM49,98.73l-.45-.48.1-.1.86-.72.41.51-.83.7Zm2.86-2.31-.39-.53c1-.74,2-1.46,3.06-2.15l.36.55Q53.29,95.31,51.82,96.42Zm4.59-3.12-.35-.56q2.1-1.29,4.34-2.45l.3.58C59.23,91.63,57.78,92.45,56.41,93.3Zm6.5-3.51-.27-.6,1.13-.52.27.6Zm3.4-1.48-.25-.61c1.17-.47,2.35-.9,3.51-1.3l.21.63C68.63,87.41,67.46,87.85,66.31,88.31Zm5.23-1.84-.19-.63c.77-.23,1.51-.44,2.24-.63s1.67-.46,2.57-.66l.14.64c-.88.2-1.71.41-2.53.66S72.3,86.24,71.54,86.47Zm7.18-1.73-.1-.65,1.23-.19.09.65Zm3.68-.55-.1-.65.43-.07a15.81,15.81,0,0,1,2-.16c.25,0,.48,0,.68,0l.67,0,0,.66-.66,0-.71,0a15.83,15.83,0,0,0-1.86.15Z" transform="translate(-7.82 -64.89)" style="fill:#231f20"/><polygon points="79.43 18.95 79.39 18.3 81.99 18.16 82.03 18.82 79.43 18.95" style="fill:#231f20"/><polygon points="84.6 18.95 81.99 18.82 82.03 18.16 84.63 18.3 84.6 18.95" style="fill:#231f20"/><path d="M102.21,84.93l-.41-.06-3.26-.49.1-.65,3.24.49.44.06ZM96.12,84,94.88,84l0-.65,1.24.06Z" transform="translate(-7.82 -64.89)" style="fill:#231f20"/><path d="M152.94,143.22l0-.65c0-.2,0-.44,0-.71a15.83,15.83,0,0,0-.15-1.86c0-.13-.05-.28-.08-.44l.65-.11c0,.16.05.3.08.45a17.41,17.41,0,0,1,.15,1.93q0,.39,0,.69l0,.67Zm-.66-6.12c-.06-.39-.12-.8-.19-1.22l.65-.1c.07.42.13.83.19,1.23Zm-.64-3.64c-.19-.88-.41-1.71-.65-2.53s-.4-1.47-.62-2.23l.63-.19c.23.77.43,1.51.62,2.24s.46,1.67.66,2.57Zm-1.84-6.52c-.38-1.15-.81-2.32-1.27-3.47l.6-.25c.47,1.17.91,2.35,1.3,3.51Zm-2.24-5.74-.51-1.12.59-.28c.18.37.35.75.52,1.13Zm-1.6-3.34c-.76-1.47-1.58-2.92-2.42-4.29l.56-.35c.85,1.39,1.68,2.85,2.45,4.34ZM142.55,112c-.68-1-1.4-2.05-2.13-3l.52-.39c.75,1,1.47,2,2.15,3.06Zm-3.66-5c-.23-.28-.46-.56-.7-.83l-.09-.09.48-.45.1.1.72.86Zm-2.46-2.77a34.57,34.57,0,0,0-3.45-3.49l.43-.5a34.85,34.85,0,0,1,3.51,3.56Zm-4.83-4.74-1.46-1.33-1.37-1,.39-.52L130.85,98,132,99Zm-4.81-3.86-1-.72.38-.54c.34.24.68.48,1,.74Zm-3.05-2.06-1.1-.66-1.17-.71-1.39-.85-.58-.29.29-.59.61.31,1.41.86,1.17.71,1.1.66Zm-5.91-3.31L116,89.41a14.77,14.77,0,0,0-1.49-.7l.25-.61c.56.24,1.07.47,1.54.73l1.83.88Zm-5.65-2.45-1-.39-.13,0,.24-.62.12,0,1,.38Zm-3.49-1.26a11.7,11.7,0,0,0-1.34-.37l-3.43-.88.16-.64,3.42.88c.39.08.86.21,1.4.38Z" transform="translate(-7.82 -64.89)" style="fill:#231f20"/><rect x="153.06" y="144.39" width="0.66" height="2.61" transform="translate(-14.95 -57) rotate(-2.88)" style="fill:#231f20"/><path d="M91.8,223.86l0-.72,2.88-.14,0,.72Zm5.76-.29,0-.72h.18l2.64-.41.11.71Zm5.74-.86-.1-.71,1.25-.19a13,13,0,0,0,1.55-.32l.18.7a12.7,12.7,0,0,1-1.63.33Zm5.67-1.24-.18-.7,2.8-.73.18.7Zm5.57-1.64-.24-.67,2.69-1,.25.68Zm5.44-2-.3-.66c.35-.16.7-.32,1-.5l.82-.39.74-.35.31.65-.74.35-.81.39C120.69,217.49,120.33,217.66,120,217.82Zm5.21-2.51-.31-.65,1.33-.64,1.19-.69.37.62-1.22.71Zm5.05-2.87-.38-.61c.8-.5,1.6-1,2.4-1.57l.4.59C131.86,211.4,131.05,211.93,130.24,212.44Zm4.8-3.25-.43-.59c.77-.56,1.54-1.13,2.29-1.73l.45.57C136.58,208,135.81,208.62,135,209.19Zm4.56-3.57-.46-.55c.73-.62,1.46-1.24,2.17-1.88l.49.53C141.07,204.37,140.34,205,139.6,205.62Zm4.33-3.88-.51-.51.33-.33c.56-.56,1.11-1.15,1.65-1.74l.53.49c-.55.6-1.1,1.18-1.67,1.77Zm3.93-4.26-.56-.47c.63-.73,1.24-1.47,1.84-2.21l.56.45C149.1,196,148.48,196.75,147.86,197.48Zm3.61-4.53-.58-.43c.58-.77,1.13-1.55,1.68-2.33l.59.41C152.61,191.39,152.05,192.17,151.47,193Zm3.31-4.75-.61-.4c.53-.81,1-1.62,1.52-2.43l.62.37C155.82,186.56,155.3,187.38,154.78,188.2Zm3-5-.64-.32,1.25-2.6.65.32Zm2.51-5.2-.65-.32c.2-.41.4-.82.57-1.24l.51-1.39.68.25-.51,1.4C160.66,177.14,160.46,177.57,160.25,178Zm2.1-5.41-.67-.25,1-2.68.7.18-.16.46Zm1.72-5.54-.7-.19.35-1.36c.11-.48.24-1,.37-1.43l.7.19c-.13.46-.25.93-.37,1.41Zm1.34-5.65-.71-.11.43-2.85.71.1Zm.87-5.71-.71-.11.11-.76.11-2.08.72,0-.11,2.12Zm.38-5.79-.72,0,.14-2.88.72,0Z" transform="translate(-7.82 -64.89)" style="fill:url(#linear-gradient)"/><path d="M89.82,224l-2.88-.15,0-.72,2.89.15Zm-5.77-.29-2.11-.11-.8-.12.11-.71.76.11,2.08.11ZM78.29,223l-2.85-.43.11-.72,2.85.44ZM72.58,222c-.47-.13-.94-.26-1.42-.37l-1.37-.35.18-.7,1.36.35c.48.11,1,.24,1.44.37ZM67,220.51l-.46-.16-2.29-.84.24-.68,2.68,1Zm-5.46-2-1.4-.51c-.45-.19-.88-.39-1.3-.6l.31-.65c.42.2.83.4,1.25.57l1.39.51Zm-5.3-2.36-2.6-1.26.31-.65,2.6,1.26Zm-5.14-2.69q-1.23-.74-2.46-1.53l.39-.61c.81.53,1.62,1,2.44,1.52Zm-4.87-3.15c-.79-.55-1.57-1.11-2.35-1.69l.43-.58c.77.57,1.55,1.13,2.33,1.68Zm-4.64-3.46c-.76-.6-1.5-1.22-2.24-1.85l.47-.54q1.09.93,2.22,1.83Zm-4.41-3.77c-.59-.55-1.18-1.1-1.76-1.67l-.33-.33.51-.51.33.33q.85.84,1.74,1.65ZM33.11,199c-.65-.72-1.28-1.45-1.9-2.19l.56-.46c.61.73,1.24,1.46,1.88,2.17Zm-3.72-4.44c-.6-.77-1.18-1.54-1.75-2.32l.59-.42c.56.77,1.14,1.54,1.73,2.29ZM26,189.82c-.55-.8-1.08-1.61-1.59-2.42L25,187c.51.81,1,1.61,1.57,2.41Zm-3.1-4.9c-.24-.4-.48-.81-.7-1.22l-.66-1.35.65-.31.64,1.33c.22.38.45.79.69,1.19Zm-2.61-5.17-.36-.74-.39-.81c-.17-.35-.35-.71-.51-1.06l.66-.3c.16.35.33.7.5,1l.39.82.36.74ZM18,174.4l.34-.11-.35.11-1-2.7.68-.25,1,2.69Zm-1.9-5.47-.72-2.8.7-.18.72,2.8Zm-1.45-5.59c-.16-.66-.26-1.16-.33-1.64l-.19-1.24.72-.11L15,161.6a12.53,12.53,0,0,0,.31,1.56Zm-1-5.73-.42-2.89.72,0v.18l.4,2.64Zm-.57-5.77L13,149l.72,0,.15,2.88Z" transform="translate(-7.82 -64.89)" style="fill:url(#linear-gradient-2)"/><path d="M13.59,147l-.71,0L13,144.1l.72,0Zm.29-5.76-.71,0,.11-2.12.11-.79.72.11-.12.76Zm.66-5.69-.71-.11.44-2.85.71.11Zm1-5.63-.69-.19c.12-.47.25-.94.36-1.42L15.6,127l.7.18L16,128.49C15.84,129,15.71,129.45,15.58,129.93Zm1.45-5.6-.7-.17.15-.46.84-2.29.68.24Zm2-5.39-.68-.24.52-1.41c.18-.44.38-.87.59-1.3l.65.32c-.2.41-.4.83-.57,1.25Zm2.34-5.23-.65-.31,1.25-2.6.65.31ZM24,108.63l-.62-.37c.5-.83,1-1.65,1.54-2.46l.6.39C25,107,24.47,107.81,24,108.63Zm3.12-4.83-.59-.41c.55-.79,1.12-1.57,1.69-2.35l.58.43C28.21,102.24,27.65,103,27.1,103.8Zm3.44-4.6L30,98.75c.6-.76,1.22-1.5,1.85-2.24l.55.47Q31.42,98.07,30.54,99.2Zm3.73-4.37-.53-.49c.55-.59,1.11-1.18,1.67-1.76l.34-.33.51.51-.34.33Q35.1,93.95,34.27,94.83Zm4.09-4-.48-.54c.72-.65,1.45-1.28,2.19-1.9l.47.56C39.8,89.54,39.07,90.17,38.36,90.81Zm4.41-3.69-.44-.57q1.14-.9,2.31-1.74l.42.58C44.29,86,43.53,86.53,42.77,87.12Zm4.65-3.39L47,83.14c.8-.55,1.61-1.08,2.42-1.59l.39.61C49,82.67,48.21,83.19,47.42,83.73Zm4.85-3.07L51.91,80l1.22-.71,1.36-.65.31.65L53.46,80Zm5.13-2.58-.31-.65.74-.36.8-.39c.36-.17.71-.35,1.07-.51l.29.66-1,.5-.82.39Zm5.29-2.26-.25-.67,2.69-1,.25.67ZM68.09,74l-.18-.7,2.79-.72.18.7Zm5.58-1.45-.17-.7a14.25,14.25,0,0,1,1.63-.33l1.24-.19.11.72-1.25.19A13.28,13.28,0,0,0,73.67,72.5Zm5.66-.94-.11-.71,2.89-.42,0,.72H82ZM85,71l0-.72,2.88-.15,0,.72Z" transform="translate(-7.82 -64.89)" style="fill:url(#linear-gradient-3)"/><path d="M166,145.07l-.14-2.88.72,0,.14,2.89Zm-.29-5.76v-.18l-.41-2.64.71-.11.43,2.89Zm-.85-5.67-.19-1.25a13.16,13.16,0,0,0-.32-1.56l.7-.18a12.81,12.81,0,0,1,.33,1.64l.19,1.24Zm-1.23-5.6-.73-2.79.7-.18.72,2.79Zm-1.61-5.5-1-2.69.68-.26-.34.12.34-.12,1,2.7Zm-2-5.39c-.16-.35-.33-.69-.49-1s-.27-.54-.4-.82l-.35-.73.65-.31.35.73q.19.42.39.81c.18.36.35.71.51,1.07ZM157.5,112l-.64-1.34-.69-1.19.63-.36c.24.4.47.81.7,1.22l.65,1.36Zm-2.82-5c-.51-.81-1-1.61-1.58-2.41l.6-.4c.54.8,1.07,1.61,1.59,2.42Zm-3.24-4.76c-.56-.77-1.13-1.53-1.73-2.29l.57-.45c.6.77,1.18,1.54,1.75,2.32Zm-3.53-4.53c-.61-.73-1.24-1.45-1.88-2.17l.53-.48c.65.72,1.28,1.45,1.9,2.19Zm-3.84-4.27-.32-.34c-.57-.55-1.16-1.1-1.75-1.65l.49-.53c.6.55,1.18,1.1,1.77,1.67l.32.33Zm-4.22-3.89c-.73-.63-1.47-1.24-2.21-1.83l.45-.57c.75.6,1.5,1.22,2.23,1.85Zm-4.49-3.59c-.77-.57-1.55-1.13-2.33-1.68l.41-.59c.79.55,1.58,1.11,2.35,1.69Zm-4.72-3.28c-.81-.52-1.62-1-2.43-1.52l.37-.62c.82.5,1.64,1,2.46,1.54Zm-4.92-2.92-2.6-1.26.32-.65,2.6,1.26Zm-5.2-2.51c-.41-.2-.82-.4-1.24-.57l-1.39-.51.25-.68,1.4.52c.45.18.87.38,1.3.59Zm-5.34-2.07-2.68-1,.18-.7.46.15,2.29.84Zm-5.47-1.7-1.37-.35c-.48-.11-1-.24-1.43-.37l.19-.69c.46.12.93.25,1.41.36l1.37.35Zm-5.58-1.32-2.85-.44.1-.71,2.86.43Zm-5.7-.87-.77-.12-2.08-.1,0-.72,2.12.11.79.11ZM92.7,70.9l-2.88-.15,0-.72,2.88.15Z" transform="translate(-7.82 -64.89)" style="fill:url(#linear-gradient-4)"/><path d="M151.76,200.67a.57.57,0,0,1-.38-.13.63.63,0,0,1-.17-.37.6.6,0,0,1,.15-.4l.4-.44.22-.24.41-.47a.57.57,0,0,1,.77-.05.54.54,0,0,1,.06.75l-.47.52a1.68,1.68,0,0,0-.18.21l-.42.45A.5.5,0,0,1,151.76,200.67Zm7.56-10.4h0a.59.59,0,0,1-.29-.07.62.62,0,0,1-.24-.33.52.52,0,0,1,.07-.42.54.54,0,1,1,.92.56,0,0,0,0,1,0,0A.54.54,0,0,1,159.32,190.27Zm6.26-12.3a.62.62,0,0,1-.18,0,.57.57,0,0,1-.31-.28.64.64,0,0,1,0-.41c.06-.14.1-.29.16-.46L167,172a16.43,16.43,0,0,0,.68-2.22v-.09c.19-.75.39-1.48.58-2.2l0-.15c.14-.56.29-1.12.43-1.67.25-1,.49-1.86.67-2.73s.28-1.93.43-2.83l.22-1.47c.18-1.17.34-2.25.49-3.2.05-.64.08-1.24.1-1.76,0-.31,0-.59,0-.87.09-1.49.13-2.34.13-2.34a.51.51,0,0,1,.53-.5h0a.53.53,0,0,1,.51.56s0,.9-.12,2.34c0,.26,0,.53,0,.82,0,.55-.05,1.18-.1,1.88l0,0c-.1.7-.21,1.45-.34,2.26l-.8,5.27c-.19,1-.44,1.89-.7,2.89-.13.51-.28,1.05-.41,1.6l-.33,1.25-.3,1.19a16.7,16.7,0,0,1-.71,2.33l-1.26,3.44-.47,1.31c-.06.15-.1.31-.16.46A.53.53,0,0,1,165.58,178Z" transform="translate(-7.82 -64.89)" style="fill:url(#linear-gradient-5)"/><path d="M89.85,229.1a82.17,82.17,0,0,1-21.63-2.88.5.5,0,0,1-.32-.25.53.53,0,0,1,.61-.79A81.9,81.9,0,0,0,89.82,228h.12c1.7,0,3.43-.06,5.16-.17l.11,0,.51,0a.53.53,0,0,1,.58.51.49.49,0,0,1-.13.39.63.63,0,0,1-.37.19l-.59,0h0C93.43,229.05,91.64,229.1,89.85,229.1Zm8.43-.43a.55.55,0,0,1-.55-.49.55.55,0,0,1,.49-.59h0a.54.54,0,0,1,.57.47.55.55,0,0,1-.46.59A.12.12,0,0,1,98.28,228.67Zm11.13-1.95a.55.55,0,0,1-.53-.4.56.56,0,0,1,.06-.42.64.64,0,0,1,.33-.25.57.57,0,0,1,.67.41.55.55,0,0,1-.4.65h-.13Zm13.08-4.41A.54.54,0,0,1,122,222a.61.61,0,0,1,0-.4.57.57,0,0,1,.29-.3l1.18-.52a80.41,80.41,0,0,0,16.9-10.36l.75-.57h0c1.24-1.06,2.3-2,3.15-2.81.3-.29.59-.55.85-.78v0a.57.57,0,0,1,.75.06.54.54,0,0,1,0,.77l-.83.76c-.87.8-1.94,1.78-3.22,2.87l0,0-.81.6a80,80,0,0,1-17.05,10.44l-1.2.53A.54.54,0,0,1,122.49,222.31Zm-67.1-.81a.65.65,0,0,1-.23-.06.55.55,0,0,1-.28-.3.6.6,0,0,1,0-.42.56.56,0,0,1,.72-.26.53.53,0,0,1,.26.72A.53.53,0,0,1,55.39,221.5ZM45.5,216a.52.52,0,0,1-.3-.08.55.55,0,0,1-.16-.75.57.57,0,0,1,.75-.16.55.55,0,0,1,.16.75A.52.52,0,0,1,45.5,216Zm-2.09-1.4a.63.63,0,0,1-.32-.08,82.39,82.39,0,0,1-10.22-8.37,79.57,79.57,0,0,1-9.57-11,.5.5,0,0,1-.1-.41.49.49,0,0,1,.21-.34.57.57,0,0,1,.77.11,80.43,80.43,0,0,0,19.54,19.12.5.5,0,0,1,.21.35.51.51,0,0,1-.08.4A.53.53,0,0,1,43.41,214.61Zm103.93-9.13h0a.54.54,0,0,1-.36-.94.57.57,0,0,1,.77,0,.56.56,0,0,1,0,.75s0,0,0,0A.58.58,0,0,1,147.34,205.48ZM16.62,183.53a.52.52,0,0,1-.48-.3.54.54,0,0,1,.24-.72.56.56,0,0,1,.73.24.55.55,0,0,1-.25.72A.41.41,0,0,1,16.62,183.53Zm-4.31-10.45a.52.52,0,0,1-.5-.36.55.55,0,0,1,0-.42.52.52,0,0,1,.31-.27.56.56,0,0,1,.69.33h0a.58.58,0,0,1,0,.39.59.59,0,0,1-.31.29Zm-.74-2.39a.54.54,0,0,1-.52-.42c-.22-.82-.42-1.62-.63-2.38L10,166.23c-.06-.22-.1-.43-.16-.65a26.46,26.46,0,0,1-.75-3.49L8.2,156.3A10.2,10.2,0,0,1,8,154.7v-.23c0-.18,0-.26,0-.31H8a.64.64,0,0,1,.14-.39.55.55,0,0,1,.94.34s0,.18,0,.54a7.64,7.64,0,0,0,.16,1.46c.17,1.1.4,2.61.69,4.52l.2,1.31a23.94,23.94,0,0,0,.74,3.45l.36,1.4c.26,1,.54,2.08.82,3.2v0a.53.53,0,0,1-.38.65Z" transform="translate(-7.82 -64.89)" style="fill:url(#linear-gradient-6)"/><path d="M8.36,144h0a.52.52,0,0,1-.5-.56h0v-.22l.11-2.12c0-.26,0-.54,0-.82,0-.57,0-1.19.11-1.88v0c.16-1,.33-2.18.52-3.45.1-.68.22-1.38.33-2.12l.29-2c.19-1,.45-1.91.71-2.9.13-.52.27-1.06.4-1.59.2-.78.41-1.56.61-2.35l0-.1a15.23,15.23,0,0,1,.71-2.34l1.73-4.73a4.34,4.34,0,0,1,.16-.47.54.54,0,1,1,1,.36c-.06.15-.1.28-.16.44l-.09.26L12.7,122a15.79,15.79,0,0,0-.69,2.27v0c-.11.42-.21.84-.33,1.26l-.27,1.08c-.15.58-.29,1.12-.44,1.67-.24,1-.49,1.86-.66,2.75l-.65,4.28c-.17,1.17-.35,2.25-.49,3.22-.06.63-.09,1.24-.1,1.77,0,.31,0,.58,0,.86-.09,1.47-.12,2.3-.12,2.32A.56.56,0,0,1,8.36,144Zm12-39.22a.53.53,0,0,1-.27-.08.51.51,0,0,1-.25-.33.56.56,0,0,1,.06-.42.56.56,0,0,1,.75-.17.6.6,0,0,1,.25.33.49.49,0,0,1-.08.41A.52.52,0,0,1,20.35,104.8Zm6.53-9.24a.52.52,0,0,1-.36-.13.55.55,0,0,1-.06-.76l.43-.5a1.56,1.56,0,0,0,.22-.23l.41-.44a.57.57,0,0,1,.77,0,.55.55,0,0,1,0,.77l-.41.45a2.57,2.57,0,0,0-.21.24c-.13.13-.28.29-.42.46A.53.53,0,0,1,26.88,95.56Z" transform="translate(-7.82 -64.89)" style="fill:url(#linear-gradient-7)"/><path d="M171.14,140.4a.54.54,0,0,1-.55-.51s0-.2,0-.56a8.39,8.39,0,0,0-.16-1.46c-.2-1.34-.5-3.3-.89-5.81a25,25,0,0,0-.71-3.38c-.06-.2-.11-.42-.17-.64-.33-1.27-.68-2.62-1-4a.53.53,0,0,1,.06-.41.58.58,0,0,1,.33-.26.58.58,0,0,1,.66.39l.07.31c.34,1.33.67,2.58,1,3.75l.18.69a24,24,0,0,1,.73,3.45l.88,5.79a9.57,9.57,0,0,1,.17,1.6l0,.25c0,.15,0,.24,0,.27h0a.55.55,0,0,1-.52.57ZM167.36,122a.54.54,0,0,1-.17-1.06.53.53,0,0,1,.67.34.54.54,0,0,1-.31.69ZM163,111.55a.52.52,0,0,1-.47-.3.56.56,0,0,1,0-.42.47.47,0,0,1,.27-.31.54.54,0,0,1,.72.25.48.48,0,0,1,0,.42.5.5,0,0,1-.27.3A.66.66,0,0,1,163,111.55ZM156,99.7a.52.52,0,0,1-.44-.23,79.32,79.32,0,0,0-9.45-10.85A80.14,80.14,0,0,0,136,80.36a.55.55,0,0,1-.15-.75.57.57,0,0,1,.77-.14,82.11,82.11,0,0,1,19.8,19.38.53.53,0,0,1-.12.75A.52.52,0,0,1,156,99.7ZM32.33,89.59a.5.5,0,0,1-.4-.18.59.59,0,0,1-.15-.39.56.56,0,0,1,.19-.37v0a.56.56,0,0,1,.75.06.54.54,0,0,1,0,.77A.59.59,0,0,1,32.33,89.59Zm1.86-1.69a.54.54,0,0,1-.36-.94l.9-.82c.85-.78,1.9-1.75,3.15-2.82h0l.8-.59A80.09,80.09,0,0,1,55.77,72.25L57,71.73a.56.56,0,0,1,.71.28.54.54,0,0,1-.27.71c-.41.17-.8.34-1.19.53A79.28,79.28,0,0,0,39.33,83.6l-.75.56c-1.26,1.07-2.33,2-3.18,2.83l-.85.76v0A.59.59,0,0,1,34.19,87.9Zm100-8.85a.5.5,0,0,1-.29-.09.52.52,0,0,1-.16-.73.56.56,0,0,1,.75-.17.54.54,0,0,1-.3,1Zm-9.89-5.47a.59.59,0,0,1-.23,0,.61.61,0,0,1-.29-.32.51.51,0,0,1,0-.4.55.55,0,0,1,.73-.26h0a.59.59,0,0,1,.26.3.55.55,0,0,1,0,.4A.52.52,0,0,1,124.28,73.58Zm-13-4.75h-.14a80.63,80.63,0,0,0-26.6-2.67l-.62,0a.54.54,0,0,1-.09-1.08h.32l.32,0a82.21,82.21,0,0,1,27,2.7.54.54,0,0,1-.15,1.06Zm-41-.49a.53.53,0,0,1-.54-.4.54.54,0,0,1,.41-.65.52.52,0,0,1,.65.39.53.53,0,0,1-.39.65Zm11.14-1.93a.55.55,0,0,1-.55-.49.55.55,0,0,1,.49-.59.53.53,0,0,1,.59.49.55.55,0,0,1-.49.59Z" transform="translate(-7.82 -64.89)" style="fill:url(#linear-gradient-8)"/><circle cx="102.6" cy="159.8" r="82.5" transform="translate(-9.97 -63.49) rotate(-0.77)" style="mix-blend-mode:multiply;fill:url(#radial-gradient)"/><path d="M144.08,146.87A53.58,53.58,0,1,1,90.5,93.3,53.58,53.58,0,0,1,144.08,146.87Z" transform="translate(-7.82 -64.89)" style="fill-rule:evenodd;fill:url(#radial-gradient-2)"/><path d="M142.91,146.87A52.41,52.41,0,1,1,90.5,94.46,52.4,52.4,0,0,1,142.91,146.87Z" transform="translate(-7.82 -64.89)" style="fill-rule:evenodd;fill:url(#radial-gradient-3)"/></g></g></svg>