<svg data-name="Layer 1" xmlns="http://www.w3.org/2000/svg" viewBox="0 0 329 422">
  <path d="M327 129v66l-1 117-1 90a49 49 0 0 1 0 5c-1 12-1 12-12 11h-30c-14 0-29 0-43 2l-24 2a19 19 0 0 1-3 0c-2-2 0-3 2-3 1 0 2 2 4 0-8-1-16 1-24 1l-41 1H48l-42-1c-3 0-4-1-4-4V244c0-5-2-9-1-14l-1-11 1-6a1 1 0 0 0 0-2v-2a2 2 0 0 0 0-3v-2l-1-3c2-31 2-61 2-92V46c0-12-1-24 1-35a12 12 0 0 0 0-2c0-7 0-8 7-8l24 1c7-1 15 0 22-2l18 1 39 1h93l53 1c20 0 40 0 59 2 4 0 8 1 8 6 0 18 4 35 2 54-2 15 0 31-1 47v13a3 3 0 0 0 0 4zm-76 222l1-1v-1h-1l-1 1-1 2 2-1zm-208-2l1 1a15 15 0 0 0 4 5c1 5 5 8 10 10l-4-7v-1c2 0 3 2 4 1s-1-2-2-3a13 13 0 0 0-3-1c-1-3-6-1-8-5h-2l-1-1v-1h-1l1 1 1 1zm240-21v-1h-1l-1 1h2zM235 71c1 1 1 2 2 1v-2l-1-1-1-1h-2c-1 1 0 1 1 2zm23 256l-1 1a5 5 0 0 0-1 0v2c0-1-1-2-3-1l-10 3-1 1-9 3a3 3 0 0 0 3 1c-4 3-8 5-14 3-6 0-12 0-18-2v2l-14-7c-1 2 0 5-2 7-1 2-3 3-4 0a15 15 0 0 0 4-10h2a3 3 0 0 0-1-3c-1-2-2-4-4-4-9-1-17-3-26 0h-3l-3-2c-4-2-8-5-13-5-2 0-4-2-6-1-3 0-6 1-8-1a8 8 0 0 0-2 0c-2 0-5-1-5 2-1 2-3 5 1 7s4 0 6-1a20 20 0 0 0 2-2l3 1c-2 4-1 5 4 6l1 3c1 1 2-1 3-2l1-4 7 4-1 2-1-1c-1-1-3-1-3 1s-2 2-2 3c-1 1-3 1-2 3a2 2 0 0 0 3 0c3-2 4 0 5 2 0 2 0 3 1 1h3c1 2-1 2-3 3l-12 2c9 2 15-2 22-4 2 0 3-2 0-4l1-2 2-2c3 0 5 1 7-1h1c2 0 1 3 3 4l3-3c-1 4 1 6 4 4 2-2 5-1 7-2 0 3-3 3-3 6-2 3-6 3-9 2-7-1-13 0-20 3-2 0-5 0-5 3-1 2 2 1 3 2l5 1c17 2 34 1 51 0 7 0 14-3 20-7l16-5c-5 4-11 5-14 9 12-2 20-10 29-16 13-8 18-12 20-17l-7 4c-3 3-6 6-10 7v-2a3 3 0 0 0 2-2h1-1v1c-1-1-2 0-2 2a1 1 0 0 0-2 1l-1 1zm33-12l1-1c1-1 2-2 1-4l-2 3-1 1v2l1-1zM231 88h1v-1l-1-1v2zM74 318l1 1a2 2 0 0 0 1 0h-1l-1-1v-1zm-15-2l-1-1c-1-1-2-3-5-2l4 3 1 1h1v-1zM87 96h1c2 0 2-1 2-2l1-1h-1a2 2 0 0 0-2 3l-1 1s-1 0 0 0zm93 169l1-1 1-1 1-1h3a2 2 0 0 0 0 1l-4 7v2c2 6 5 2 8 1l-1 1c2 3 4 5 0 7v3h1c7-4 5 2 7 5v6l-1 3a3 3 0 0 0 1 2v6c-6-1-5-7-7-12 1 10 2 20 7 28l2-5v-1h-1c-2 2-2 2-2-3h1a2 2 0 0 0-1 1c-3-3-2-5 2-6l2 5 1 3v3c3 2 3 4 2 7v3c3-2 2-6 4-8 1 4 0 6-1 9 0 2 0 2 3 3s2-1 3-2l1-2c1 2 0 5 2 7l2-14h2v14h1l2-15v10c0 1-1 3 2 3s4 0 3-3c2 0 1 3 3 2 1-2 0-5 2-7a8 8 0 0 0 0 3c1 1-1 3 1 3s3-1 3-4 0-4 2-5c2 2-2 6 3 6s2-3 2-5c5-1 1-3 2-5 0-1-1-2 1-2l1 2 2 6v1l1-8 1-1c3 1 1-1 2-1 4-2 2 4 5 4a22 22 0 0 0-2-11 3 3 0 0 0-1 0c2-1 1-4 3-3 2 0 1 2 2 3 1 2 1 5 4 8a44 44 0 0 0-4-15 2 2 0 0 1 2-1c0 1 0 3 1 2v-3c0-2-3-5 2-3 2-1 3 2 4 2 1-3-1-5-2-7 3-8-1-17 1-26 3 11 1 22 4 32l2 7v2h1l1 1c-1 2-4 2-2 3s3-1 4-2l5-13 2-2v-1a50 50 0 0 0 9-19c2-6 3-11 1-16l-5 11c-6 7-11 14-11 24 0 4 0 10-4 14v-2c2-3 1-6 1-9 0-9 1-17 8-23l5-8c6-9 8-20 4-30a6 6 0 0 0-2-4c0-5 3-9 2-14l1-3c1-11 2-22-4-31a39 39 0 0 1-3-6c-2-6-5-13-9-18-1-2-5-1-4-4l-2-7c-1-8-2-15-8-20a41 41 0 0 1-5-5c0-1 0-2-2-2 1-2 0-4-2-5l1 5-19-5 2-3v-1h-1l-2 4h-3c0-2 2-3 1-4a3 3 0 0 0-3 0v3c-2 1-3-3-6-1a20 20 0 0 0 12 5c9 1 17 5 24 10 7 4 11 17 9 25l-2-10c-1-7-6-11-11-15a12 12 0 0 0-5-3c-15-7-30-6-45 3 17-7 33-7 49 2 4 4 8 7 10 13-1 1-1 3-3 0a30 30 0 0 0-16-15c-12-4-23-3-34 1-3 0-5 3-7 5l-1 1s3 0 2 2l-2 1v2c-1 1-3 2-1 3-1 2-5 1-2 5l-1 2c-2 0-4 0-4 2 0 3 4 1 5 3-2 1-5 0-7 2 1 1 3 0 3 2-1 2-3 0-3 2 3 0 6 0 4 4-1 1 0 2 1 2 1 2 0 3-4 3l7 4a3 3 0 0 0 0 5c5 3 8 7 12 11l2 1 2 2h1v-1a3 3 0 0 0-2-2l-2-1c-1-2-4-3-3-5 1-4-1-5-3-6v-1a17 17 0 0 0 6 2c2 1 3 0 3-1 1-2-1-3-3-2 3-2 5-7 4-9 0-1-3-2-1-3h6l-3-3c3-1 3-4 5-6s4 2 7 1c-2-3-3-4-6-4 1-2-2-3 0-5 3 6 9 1 13 4-3 1-1 5-4 5-4 0-4 3-4 6-1 2-3 6-1 8 4 5 1 9 0 14l-6 9a1085 1085 0 0 1 6 16l6 14c0-6-2-11-5-16-3-4-3-9-6-13 3-2 5-6 6-9 2 0 2-3 5-2-2 3-5 5-3 8 2 2 3-1 5-1l-2 4c-2 2-4 3-4 5h8l-2 3v2l2-1c3 0 5-3 6-5 2-1 2-4 4-4v2a55 55 0 0 1-4 6c-3 3 3 2 2 5v1c-4-1-4 3-6 5 5 2 6-2 6-5 2 0 3-2 4-1l-2 4c-1 1-3 2-1 4 1 1 3-1 4-2v1c-1 4-5 7-7 11s-6 7-2 12c1 1 0 1-1 2h-1l1 1 4 5c2 3 5 7 3 12-1-5-3-8-6-11-1-1-2-3-4-2v4l3 8c1 1 1 3-1 5l-2-6c-1-4-2-6-6 0v-23a60 60 0 0 0-9-26c-6-10-15-17-25-22-7-3-14-4-21 1-4 3-9 6-14 7a10 10 0 0 0-7 3c-8 10-19 17-31 23-7 3-15 7-20 14-7 9-13 18-21 25a46 46 0 0 1-13 1 15 15 0 0 0-7-5c-7-3-14-5-17-12l-3-4h-5l-2 4v4c-3 2-2 3 1 4 2 5 3 11 7 15s6 9 6 15c-1 9 2 12 8 13h16a26 26 0 0 0 8-5c8-7 17-13 28-12a32 32 0 0 0 23-3 57 57 0 0 0 14-9c8-7 13-14 13-24 0-2-1-3 1-5 3 3 0 8 5 11 0-17 11-22 24-26-2 3-6 3-7 6l-2 2-1 3-4 5h1c-4-1-3 3-4 4l-2 1h4a1 1 0 0 1 0 1v1l7 2-1 2-5 5c-1 1-3 4 1 4l1 1c-1 1 1 3-1 4l-1 1-1 1-1 1-1 1c-2 0-2-2-2-3 2-4-1-7 0-10-2 0-3 1-2 2 1 7 0 15 3 22a10 10 0 0 1 0 6c-3-2-2-5-3-8a106 106 0 0 1-3-20c0-2 0-3-2-3h-2c-1 2 1 1 2 2v1l3 19a35 35 0 0 0 7 16l1 3c-1 2 0 4 2 7v-4c4-4 0-6-2-8-1-2-3-3-3-5h2l2 1c1-1 0-1-1-2l-2-8c-1-2-3-5 1-7zM61 319l1 1a75 75 0 0 0 24 18c8 4 15 11 23 14 2 1 2 1 2 3 0 3 3 4 4 4l21 6c9 1 19 1 28 3h24c-24-4-49-2-71-12 26 5 52 11 79 7a126 126 0 0 0-18-1h-13l-23-4c-11-3-23-3-33-8l-10-7c-12-8-25-14-36-24l-1-1h-2l1 1zM252 92l1 1v3l-2-3c-1-1-3-3-2-4 2-3 0-3-3-3a3 3 0 0 1-2-1 205 205 0 0 0-16-17 172 172 0 0 0-27-19c-3-2-6-1-9 2 9 2 16 5 22 11 4 4 11 5 13 12h-2c-1 1 0 1 1 2l8 8c1 1 2 2 1 3-4 2 0 4-1 6l-7 10c-2 3-4 7-8 1 1 2 1 6 3 6 6 0 11-1 14-7 0-2 3-3-1-5v-4c3-3 6-2 9 0a14 14 0 0 0 4 6c1-4-2-5-3-7-2-4-7-6-9-11l4 2 10 10 11 16c0 2 3 3 2 6-4-4-6-11-13-14 6 9 12 18 19 25l-2-6 7 10 2 3 1 2 9 14a2 2 0 0 0 2 2l3 5 2 7 1 1c7 19 13 39 13 60 3-8-3-42-11-62l-1-3c0-1 0-3-2-3 0-3-2-6-3-8-1-4-2-7-6-8l-6-17c-5-11-13-19-21-28 0-2-2-3-3-4a4 4 0 0 0-1-1l-1-1c0-1-1-2-2-1s0 2 1 2zm-31 89h1v-1h-2l1 1zM99 138l-1 1h1l2-1a3 3 0 0 0 2-2l1-1h-2a3 3 0 0 0-2 2zm34 5c1-1 2 0 1-1h12v3c2-2 4-2 5 0 0 0 0 2 1 1s2-3 1-4c-4-7 4-6 6-9 1 6 1 11-3 14l-2 1a15 15 0 0 0 1 9l1-1 1 1 1 2-1 4v2l1-1h1c0 1 1 2 2 1 4 4 5 1 7-1 2 3-3 5-2 9 0 2-2 3-4 2a12 12 0 0 1-8-6l-2-11v-2l-1 1c-2 5 0 10 3 14 3 6 10 8 19 6 6-1 6-6 6-10 3-7 3-16 8-22a6 6 0 0 0 2-3c-2-2-7 2-5-4 2-3 4-6 2-9h2c2 0 3-1 3-2 2-5-2-10-9-12-2-1-3 0-4 1-4 1-4 5-6 7-5 0-3-4-4-7a2 2 0 0 0 2-2c13-6 26 3 25 16-1 3 1 3 2 3 3-2 6-3 6-6 1-3 2-4 5-3 2 0 3-1 2-3-2-2-1-5-1-7 1-2 2-4 1-6-1-1-2-1-1-2a2 2 0 0 1 3 1 4 4 0 0 1 0 4c-2 4 2 7 4 9 1 1 5 1 8-1l-6-1c4-10-5-14-10-21 0 4-2 7-1 11 0 2-1 4-3 5-2 3-6 3-7 7-4-7-11-9-19-10a11 11 0 0 1 6-5c3 0 4-2 6-4s5-6 10-4c-2 2 0 4-1 6h-1c-2-3-5 0-7 0 1 1-2 4 0 5 3 0 7 0 8-4v-2c4-1 10-10 8-14l-1-1c-3 0-4-2-4-5-3 3-2 6-6 8l3-8c1-2 2-4-2-3 0-1-1-4-2-1l-4 8-3 1 5-12c3-3 0-6-1-6-3-1-3 2-3 3-1 1 0 3-3 2 4-4-4-5-2-9l-3 4h-1v-7a2 2 0 0 0-2 2c-1 1-2 3-3 1-1-4-5-4-7-7-1-2-3-2-5-2l-20 7c-3 2-5 6-7 6l-7 5a36 36 0 0 0-10 8c-2 2-3 4 1 5-1 2-1 6-5 6 0-1 0-2-1-1-2 0-3 2-3 4-1 1 0 2 1 2a5 5 0 0 0 3-2c3 1 5-1 7-1v1h1c-2 3-6 1-8 4-3 0-7 0-7 5 0 10 0 19 5 28 3 10 11 16 20 19h3c0-2-1-1-2-2l-6-3c-7-3-9-11-14-15-1-7-4-15-4-22 0-4-1-8 5-7l1-1c3 0 5-3 8-2-3 4-8 5-11 9h5c0 2-2 3-1 5 1 0 3-3 4 0-2-1-3 0-3 2-1 1 1 0 1 1v1c-1 0-2 0-1 1h2c3-1 4 3 7 2v6c1 1-2 1-2 3-2 1-4 2-4 5 4-2 5-1 8 1l-1 1c-1 2 1 2 2 4s2 0 2-1v2zm-37-2h-1 2v-1h-1zm25 145h1a6 6 0 0 0-1 0 1 1 0 0 0-1-1 10 10 0 0 0 1 1zm5 7v-1 1l1 1v-1h-1zm165 10l-1 2c1 1 1 0 2-1v-1h-1zM73 118l-1 2a24 24 0 0 0-6 11c-3 2-3 6-5 8s-1 4 2 5c-1 1-2 2-1 3s2-1 3-2a4 4 0 0 0 0-1 3 3 0 0 0 1-3l10-17 9-13 35-39a75 75 0 0 0-11 9c-9 8-18 17-25 27-3 1-2 5-6 6v-3a2 2 0 0 0-2 2h2c1 2 0 3-2 4v-3l-2 2h2c2 3-2 4-2 6-1 2-2 5-5 7-1-4 3-5 3-8l1-1a2 2 0 0 0 1-3zM38 351l1 1h-1l-1-1zM226 93l1-2 1-2-2 1-1 2-1 1-1 2c-1 1-4 0-4 2 2 2 4 2 5-1l1-2zM99 198h-1v1a2 2 0 0 0 2 1h2c1-1-1-1-1-1zm144-97h1-1a2 2 0 0 0-1-3v-1c-1 0-1-2-2-1s0 2 1 2l1 1zm-19 84a1 1 0 0 0 1 0c-1 2-2 0-2 0l-2-1 1 2a18 18 0 0 0 1 3c2 1 2-1 3-1 1-2 0-2-1-2 0-1 0-2-1-1v-2a3 3 0 0 0-1 0l1 2zm43 132h1l-1 1s-1 0 0 0zm34 85a2 2 0 0 0-2 0 2 2 0 0 0 2 0l2-1c3-1 5-3 6-7l-6 6c-1 0-2 0-2 2zM112 152l1-2c-1-1-2 0-2 1l-1 1h2zm93-79c0 1 0 2 1 1v-2c-1-1-2-2-3-1s1 1 2 2zm35-3h1-1c0-2 0-2-2-2-1-4-4-6-7-8l-1-2a10 10 0 0 0-5-4 32 32 0 0 0-9-7 6 6 0 0 0-6-2l5 3c1 2 3 2 4 5-8-7-17-10-26-14h-2v1l15 9c9 4 16 10 23 17 1 0 3 3 3 0 1-3 2-1 3-1 1 1 2 3 3 2 0 2 1 3 2 3zM140 174a17 17 0 0 0-2 0l1 1c1 1 1 0 2-1 0 0 2 0 1-1h-2zm96 31a2 2 0 0 0 2-2l-2 2c0-1 0 0 0 0zM94 135l2-2 1-1c2-1 4-2 4-4l-4 4-1 1c-1-1-1 0-2 2zm126-47c1-1 2-1 1-2s-2 0-2 1l-1 2c-1 0-2 1-1 2l2-1zm-72 190l2-1-1-1-1 2h-1zm-7-130c2 1 3 1 3-2l-3 3zm-38-89a2 2 0 0 0-2 2 278 278 0 0 0-54 73c-6 6-9 16-13 24l-8 19c-2 2 1 6-4 6-1 0-2 0-2 2l3 1c3 1 4-1 6-4 2-4 1-9 3-13a179 179 0 0 1 10-21c2-4 4-10 8-13a5 5 0 0 1 0 3c-5 10-7 20-10 29a15 15 0 0 0-3 9 12 12 0 0 0 4-7c7-19 14-39 23-57a123 123 0 0 1 23-31c2 2 0 3-1 4l-14 19 3 1c-2 5-8 9-10 16l-6 8-14 37a31 31 0 0 0-4 12 37 37 0 0 0 5-12l3-5c5-13 10-27 18-39l11-16c1-2 1-3-2-2 3-6 8-11 12-16 7-9 16-15 25-21 1-1 2-2 2 0l-13 13 1 1 13-12 2-2c-1-6 4-7 7-9a84 84 0 0 1 12-8c10-6 21-10 33-9 7 1 15 1 21 4-5-4-11-6-17-7-13-2-26 2-38 9-16 9-31 21-45 33-1 0-2 3-4 1 2-5 6-6 8-9a11 11 0 0 0 5-4l9-8 2-1a91 91 0 0 1 30-19l11-4h-2c-11 2-21 8-32 10-3 1-5 2-4 6 0 1 0 2-2 2 0-1 1-2-1-2l-2 2-5 4zm125 23h-1v1c1 1 1 3 3 3a5 5 0 0 0-2-4zm-29-14c1 0 1 2 2 1s0-2-1-2l-2-2h3l17 10 1-1c-6-5-13-9-20-12a2 2 0 0 0-2 0l1 1v2h-2l3 3zm-89 219l-2-2c-2-3-2-3-6-2l6 3 1 2c1 1 1 3 3 3l-2-4zm6 38l1 1c1 3 0 5-3 5-6 0-11 1-17-2l-13-5c7 6 16 10 23 10l2 1 7 3h3c1-5 2 0 3 0a34 34 0 0 1 3 4c1 2 3 2 5 1a3 3 0 0 0 1-3l-4-11c-2-2-3-3-6-2a15 15 0 0 1 2 7c-3-2-2-7-5-9l-1-1-2-4c-1 2-1 4 1 5zm110 23l-6 2c-5 1-11 2-17 5l-10 1c-15 0-31 0-45-3-31-3-56-21-82-36 1 3 2 5 4 6l29 16c15 9 30 15 47 16l2 1a227 227 0 0 0 47 2c3 0 6 0 8-2 6-1 13-2 19-5a10 10 0 0 0 5-2l2-1c-1-2-2-1-3 0zm20-128l-2-1-1 2a10 10 0 0 0 1 2c-5 3-7 6-5 11 1 3 1 5 5 6-5-7-5-10 1-16l2-3c1 0 2-1 1-2s-2 0-2 1zm-146-76l-5 4c4 1 4-2 6-3l2-2 6-2c4 2 4 7 8 9a3 3 0 0 1 0 2l-2 2a27 27 0 0 0-9 8c4-1 7-4 9-7l3-2c3-1 3 4 6 4 5 0 4 3 1 5l-6 5c4 0 6-2 8-4v-1c2-1 4-4 6-2 3 3-1 4-2 5a50 50 0 0 0-8 9c3 0 3-1 4-2l10-9c2-3 2-3-1-4-6-3-12-6-16-10-17-17-17-37-12-58l-2 1c-4 7-5 15-4 23s1 17 6 24c-3 0-4 2-6 3l-2 2zm26 69h2c1-1 0-1-1-1a16 16 0 0 0-6-4l-4-2 3 3zm188 87a8 8 0 0 0 0-6l1-52 2-36h-2a346 346 0 0 0-1 36l-1 5v1c0 7-2 14-1 22l1 23v5c0 2-4 2-3 4 0 4-4 8 2 10v12c-2 7 1 13 1 20v-11c0-10 2-21 1-32zM144 165l-2-1c0 2 1 1 2 2a3 3 0 0 1 1 4 1 1 0 0 0-2 1h1a2 2 0 0 0 1-1c2-2 3 1 5 1-1-3-2-5-6-6zM62 340l1 1a3 3 0 0 0 2 3 9 9 0 0 0 5 3l1 2h-3v7a3 3 0 0 0 1 2l4 5v1c-3 2-4-2-7-3-1-3-3 1-4 0l-2-2v2c1 2 4 2 6 4l1 2c1 3 3 6 6 6l3 2a15 15 0 0 0 2 2c1 1 2 3 4 3 2-1-1-3 0-4a5 5 0 0 1 5 2c2 4 6 5 9 6a17 17 0 0 1 8 7c-9-2-14-8-22-10a64 64 0 0 1 8 8c-9-1-15-6-20-12-1-2-3-2-5-1l3 2 2 5 5 4-1 1c-1 0-2-2-3-1-1 2 2 2 2 4-3 1-4 0-6-1-1-1-1-2-3-1-2 3-4 3-7 1l-7-6c-2-2-2-2-5-2h-1c-2-2-5-2-8-3v-2a4 4 0 0 0 2-2c1-1 1-4 4-2a1 1 0 0 0 1-1 7 7 0 0 0-3-5c-1 0-2-2-3-1-2 2 0 3 0 5a15 15 0 0 1 0 2c-2 0-3-2-4-4v-2c5-2 2-6 0-7a6 6 0 0 1-2-5c3 1 4 4 8 5l-6-12-4-1a13 13 0 0 1-1-9l5 5c1 0 2 2 4 1s-2-2-1-4c2 1 3 0 1-2l-5-7 1-1 5 1a49 49 0 0 1 7 9c0 1 1 2 2 1v-2a43 43 0 0 0-5-7l-9-8c-2-2-2-6-6-8l2 8v3c-4 3 0 5 1 7 1 1 3 2 2 3s-2-1-3-1h-3c0 4-1 8 2 11v4l-1 2c2 7-2 16 3 24v3c0 3-2 7 3 9l1 1c2 4 5 4 9 2a42 42 0 0 0 7 2l58 2 11-2a506 506 0 0 0 60 0c15-1 30-2 45 0 13 1 25 2 37-2a10 10 0 0 1 5 0c7 1 14 0 21-1 10-1 16-9 13-19-5 11-5 11-9 13h-3l2-2 2-1c5-4 6-10 4-16l4-11v9c2-4 2-8 2-12l3-14c-3 1-2 4-5 5 4-14 8-27 6-42l-13 16c-4 5-6 12-11 16-10 10-19 20-32 25l-11 5c-8 2-17 6-26 5l-24 2c-12 2-24 0-37 1l-22-4c-18-4-34-12-49-21-2-1-4-2-7-1-2-7-11-15-16-16a24 24 0 0 0 7 10c-1 0-3-2-3 1zm49-173c2-1 5-3 6-6l-7 5a5 5 0 0 0-3 3c-2 2-5 0-7 0 3 3 12 6 16 5v-1c0-2-1-1-1-1-3 0-6 0-7-2zm61 119c1 2 1 3 3 2l-3-1c-2-3-4-3-7-2zm85 60c3-1 6-3 8-7-4 1-5 4-8 6-2 0-4 1-5 4 3 0 4-1 5-3zM139 183c3-3 6 0 8 0 3 2 7 2 8 5 1 1 2 3 4 3l1-2c1-2 0-3-1-4-3-4-7-4-12-3-2-1-5-4-8 1h-2a17 17 0 0 0-9 9v2c1 1 2 0 2-1l3-1v8c-5 0-3 3-2 5s2 5 4 3c3-1-1-3-1-5v-1c4 2 7 6 11 3 2 0 3-1 3-3l-4-3c-2-1-1 1-2 2l-4-4c-1-3 1-7-2-9-1-2 1-3 1-5a2 2 0 0 0 2 0zm-33 36h1v-1c-3-2-6-5-10-5 2 3 6 5 9 6zm-39 31c1 1 2 2 3 1l-2-2c-3-2-6-4-10-4 2 3 6 4 9 5zm16-22h-3l1 1 8 5h2l-1-2-7-4zm219-60l1 1a1 1 0 0 0 0-2l-6-15a48 48 0 0 0 5 16zm18-62V95l-2 10a30 30 0 0 0-2 14v35c-1 4-1 8 1 13-1 7-1 14-3 20v21c2-4-1-9 2-13v10c2-13 3-25 3-38v-5c1-6-1-12-2-18l1-25 2-13zm-26 80l1 1a11 11 0 0 0 0 2c1 1 0 3 2 3 2-1 1-2 1-3a12 12 0 0 0-3-7 229 229 0 0 0-21-48c0-1-1-2-2-1-2 1 0 2 1 2 2 8 4 16 9 24s7 18 12 27zm-189 21c-1-1-2-2-4-1l2 2c3 4 8 4 11 8a1 1 0 0 0 2-1l-1-1-10-7zm-1 17c1 2 3 3 6 2l-5-3c-4-3-9-7-14-7zm214 113a9 9 0 0 0 0 6l1-6 1-28c1-29 2-57 0-86a17 17 0 0 0-1 7v70a16 16 0 0 0 1 9c-2 1-2 3-2 4v24zM12 18c4-4 9-6 15-6-6-3-10-1-16 5v2c1 1 0-1 1-1zm76 98a49 49 0 0 0 4-5c3-3 7-6 8-11a2 2 0 0 0 1 0h-1c-5 4-9 10-13 15l-4 6c3-1 4-3 5-5zM10 339H9c-1 7-2 15 0 22 0 4 2 9 1 14-2 11-1 22 0 33 0 4 2 4 5 4l-3-7a275 275 0 0 1-2-35c0-3 1-7-1-9 2-8 1-15 1-22a61 61 0 0 0-1-20c-1 6-1 13 1 20zm267-17l-16 13 2 1a72 72 0 0 0 15-13c1 0 2-1 1-2s-1 0-2 1zM14 355v30c1 7 1 15 6 21-3-7-3-14-4-22l-2-29c1-9-1-18-1-27v20c0 2-1 5 1 7zM182 12a157 157 0 0 0-30 0 4 4 0 0 0 3 1l27-1h5zM12 225a152 152 0 0 0-1 20c0 16 0 32 2 48l1-33c0-5 1-11-1-16a68 68 0 0 1 0-8c1-3-2-7 0-10v-31c0 10-2 20-1 30zm299 58v-21h-2l-2 21-4 10c4-2 5-5 4-8h2c2 3 0 6 2 9v-11zM41 210a124 124 0 0 0-2 27 106 106 0 0 0 3-19c1-2 3-5 1-8l6-27c-5 8-6 18-8 27zM148 18a59 59 0 0 0-15 0 64 64 0 0 0 15 0l29 1a2 2 0 0 1-1 1c-2 1-4 0-4 2s2 2 4 3l18 6c11 4 21 10 30 17 3 2 6 6 11 5 3 8 10 12 18 17-2-3-5-5-1-7l1 2a1 1 0 0 0 2-2c8 12 19 22 24 36-1 1-2-2-3 0-1 1 0 2 1 3a22 22 0 0 0 2 4c1 1 1 3 4 3 3-1 3 2 2 3-1 4 0 6 4 6l1 2c-2 1-1 2-1 3 2 4 3 8 6 11s3 3 6 1l6 27c3-5 1-10 1-15q-4-29-5-59v-3l2-25a61 61 0 0 0-2-25c-2-7-5-11-11-11-11 0-22 0-33-2-1 0-3-1-4 1h4a8 8 0 0 1 4 2 45 45 0 0 1 14 12c3 5 8 4 12 7l1 2c-3 3-4-4-8-3l4 10v3l-1 1c-1-2 0-4-2-6-5-6-9-14-16-19-1-1-4-1-5-4-5-3-11-4-18-3l16 5 9 8s2 2 0 3-1-1-2-2c-4-3-7-7-13-8-6-2-12-2-19-3l-7-3c-2 0-3 0-3 3l-7-2c0-1 2-2 0-3-6-2-13-3-21-2a8 8 0 0 0 4 3l15 3c0 1 1 4-3 2a13 13 0 0 0-9-1c5 5 13 3 17 8 5 5 11 9 14 15l-4-2-14-11c-9-7-21-7-28-15 0 0 2 0 2-2l-2-1-10-1 5-1c26 1 52 0 78 2 12 0 24-1 35 3 7 2 11 7 12 14a163 163 0 0 1 0 25v47c1 7 0 14 2 21 1-8 2-16 1-24-2-19 0-38 1-57 1-7-2-14-2-20 0-2-1-2-2-3-6-4-13-7-20-7l-48-2c-18 0-36-2-55 1 0-2-1-1-2-1l-36 1zm-3 271c-1 0-2 1-1 2h2c2 0 4-1 6 1a4 4 0 0 0-1 0c-2 0-5 1-6 3-3 1-3 5-2 6 4 2 4 4 4 7v1h7c-1 2-3 1-3 3 2 2 5 2 7 5 1 2 4 2 5 0 3-3 0-3-1-3a1 1 0 0 1-1-1c4-5-2-2-2-3l5-1h1v-1l-2-2c3-4-1-5-3-6l4-1c1 0 4 1 4-1s-3-1-4-1v-3c-3-2 1-3 1-4-3-2-6-2-9-2a19 19 0 0 0-7-1l7-7c-5 1-9 3-11 9zm-68-38h1v-1a166 166 0 0 0-31-16c10 6 19 13 30 17zM25 34c0-3 2-5 5-6l12-3a24 24 0 0 0 4 0c27-4 53-4 80-6l-6-1c-12 1-24 3-35 2-14 0-29 3-43 4h-7c-9 0-12 2-11 10-3 9-2 17-1 26 2-8 1-17 2-26zm57 19c4-1 6-5 9-6 4-2 7-8 13-8-7 5-10 13-15 21 20-13 38-29 61-35-12-3-34-1-39 2h6c1 0 3-1 3 2 0 2-1 2-3 3l-7 1a2 2 0 0 0-2 2l-3 1c-4 1-9 1-12 4a51 51 0 0 0-11 13l-1 1c2 0 1-1 1-1zm219-38v-1 1a4 4 0 0 0 2 2c8 2 12 8 11 16a51 51 0 0 0 0 7c0 2-1 4 1 5 2-2 2-4 2-6l-2-10c1-9-5-14-14-14zM81 224c6 4 12 7 19 9a49 49 0 0 0-9-6c-3-2-6-4-10-3 0-2-1-2-2-2-9 1-13-3-12-12-6 0-10-6-17-7a31 31 0 0 0 9 6c4 2 8 3 7 8 0 2 2 3 3 4 3 5 8 2 12 3zm-30-43l12-24c-3 1-3 5-7 4 2-4 5-7 6-13-7 7-25 44-22 51l7-18h1c1 0 0 2 2 2l1-2zm9 118h6c14 2 24-6 33-15a52 52 0 0 0-12 7c-8 7-17 6-26 4-2 0-3-3-6-2l4 6 1 1zm25 102c-6-2-12-2-18-2-12-1-25 0-37-4 5 5 34 8 55 6l8 1a190 190 0 0 0 37 0l52-1c36 0 71-1 107-4 6 0 12-1 15-8a46 46 0 0 0 2-16l1-16 2-27-1 1-3 34a97 97 0 0 1-2 16c-1 8-5 12-10 13-14 3-28 3-42 3h-41c-18 2-36 0-54 1-8 0-17-1-26 2zm193-288c-4-7-9-14-15-20-3-4-5-9-9-11-1-1-2-2-3-1s0 2 1 2c9 11 16 22 26 32l5 7c0-4-2-6-5-9zm-78 291c-23-2-47-2-71 0h71a84 84 0 0 0 25 0h-25zm100-202a33 33 0 0 0 0-4c-1-2-2-6-3-5-2 1 0 3 0 5v1l-1 16c-1 10-1 19 1 28l2 7c4-3 1-5 0-7v-23l3 18a82 82 0 0 0-2-30v-4zM140 34l10-3c8-3 16-5 25-1l13 6 22 9c1-2 0-2-1-3-11-7-23-10-34-14-12-4-24-1-35 5-4 2-9 3-12 8zm150 258c-5 8-8 16-14 24 7-1 7-7 11-9 0 2-2 3-1 5 4-3 4-3 1-5a3 3 0 0 1 0-3c1-2 2-4 5-5l1 2 1-1h-2c-1-2 1-3 2-4 1 0-1 2 1 3 4-7 7-14 8-22l2-12 3-30v-8l-7 50a27 27 0 0 1-3 6c-2 2-4 5-4 9v-1c-3 1-2 4-3 5l-1-1v-2a1 1 0 0 0 1-2l-1 2zM220 70c1 2 2 3 5 4-1-3-3-4-4-5-9-7-19-13-30-15-15-4-30-6-45-1-10 3-16 10-25 16 5 0 5 0 9-3 16-13 34-17 54-12 13 3 24 9 36 16zm96 11c2-7 0-15 2-23 3 5 0 10 2 16 2-11 1-21 0-31l-1-22c0-5-2-8-5-10-4-2-7-2-10-2-8-2-16-3-24-2 1 2 3 2 4 2l25 3c4 0 7 3 7 7l2 11c0 6 2 12 0 17-4 6-3 12-3 18l1 17c-2 3 0 7 0 11 1-4 4-8 0-12zM40 311h-1v1c2 10 12 11 18 17v-3l-20-29a145 145 0 0 1-9-18c-1-2-3-4-5-4s-2 4-1 6c2 10 1 21 7 32 5 7 9 14 19 17-2-5-4-7-7-10-4-5-9-10-10-16h1l3 4c1-3 0-5-1-6a1 1 0 0 1 0-2 1 1 0 0 1 2 0l5 11h-1zm1-279c-1 1-2 2-3 1-3-2-5 0-6 2-2 5-2 10-5 15l2 1c2 1 2 3 1 4-5 13-4 27-5 40a11 11 0 0 0 2 6c3 4 2 8-1 11a9 9 0 0 0-1 10c6-5 7-12 9-18 2-3 3-6 7-7 2 2 3 4 0 5-2 0-3 2-3 3-4 5-3 11-7 16-7 9-7 20-6 31 0-6 4-9 4-14h2c-1 6-1 13-5 18-3 4-3 9-1 14l1-1a11 11 0 0 0 1-3c3-10 7-20 13-30 8-12 13-26 22-38 5-6 6-13 12-17a63 63 0 0 0 15-18v-1h-1l1 1c-3-2-5 3-8 2l6-7v-2a2 2 0 0 0-2 0c-5 5-11 9-14 15 0 1-5 2-1 4 2 0 1 1 0 2l-8 11-8 12a3 3 0 0 1 0-4l11-15v-3c-1-1-2 0-3 1L52 91c-2 1-3 4-6 2l5-5c6-8 13-14 18-22 8-14 18-25 31-33 2-1 4-1 3-2a4 4 0 0 0-4-3c1-4-3-3-4-3l-12 2c-7 1-13 0-19 2-8 0-15 2-23 3zm-8 174a56 56 0 0 0-2 15l1 2 1 1c-2 12 0 24 2 35 4 23 18 40 30 58a4 4 0 0 0-1-5l-14-23c-10-13-12-28-15-43-2-13 1-25 3-37 1-3 3-6 0-10l-4 19c-2-4 1-8-1-12zM16 77c0-12 2-24 1-36-1-6 1-11 3-16l4-3 26-3c1 0 2 1 3-1-2-1-3 1-5 1-9-3-17-1-25 0-6 0-7 3-8 9v14c-2 12 1 23 1 35zm236 332c0 2 2 2 3 2 17 1 33-1 50-1 8-1 11-5 12-13 2-12 1-24 1-36l-3 37c0 4-2 7-7 9-6 2-12 1-19 1l-22 1h-15zM16 80a502 502 0 0 0-3 110c0-37-1-73 3-110zm40-62c9 1 92-4 96-6l-48 2c-16 1-32 4-48 4zm-35 82a629 629 0 0 0-2 80h2zm26 199l-2-7-10-21a259 259 0 0 1-7-36c0-1 0-2-2-2s-1 2-1 3l3 15c3 18 9 34 19 48zm148-124c-4-2-6-1-8 0-3 1-4 0-3-2l1-12c3-8 7-16 14-22 2-2 4-3 4-7-11 6-22 25-22 40 0 4 0 7-3 11 5 0 3-6 7-6l10-2zm-33 233H91v1c23 1 47 0 71-1zm93-66c-5 0-6 3-9 4a229 229 0 0 1-42 14c-2 1-5-1-5 2 0 2 4 1 5 1 13-3 26-7 38-13 4-2 9-3 13-8zm-88 71h-67a388 388 0 0 0 67 0zM64 327c5 9 37 29 42 26-15-8-29-15-42-26zm-27 81c17 2 34 0 51 0-6-2-12-4-19-1l-7 1H37zm-19-87v-54c-1 18-4 36-1 54zm266 84v-2h-52l-2 1a2 2 0 0 0 2 2 10 10 0 0 0 3 0h34l15-1zM47 216a269 269 0 0 0 41 22c-13-9-27-17-41-22zm-26 21v-24l-2-5c0-1 0-2-1-1s-2 1-1 2c2 3 1 6 1 10l1 15c0 1 0 2 2 3zM254 72l17 20s0 2 2 1c1-1 0-2-1-3a64 64 0 0 0-13-17 5 5 0 0 0-5-1zM66 354c-3-6-10-8-14-12l-3 1c0 1-1 3 1 5 5 3 10 4 16 6zm25-109l-31-17h-3c-1 1 0 2 1 2l20 10c4 2 8 5 13 5zM137 9zM7 52c2 15 0 30 0 45a194 194 0 0 0 0-45zm305 133l-2 3-3-4a6 6 0 0 0-3-5l6 29c1-8-3-15 2-23zM148 50c11-3 23-3 35-3-12-1-24-4-35 3zM62 380c1-3-1-3-1-4-6-4-10-10-15-14-2-1-2-4-4-3s0 3 1 4c1 4 5 2 7 6 2 5 8 7 12 11zm92-185c0-2-6-7-7-8a2 2 0 0 0-3 3c-1 2 0 4 2 5s3 3 6 3c2-1 2-2 2-3zM17 185l-1 1 4 17c0 1 0 3 3 2 2 0 4-7 4-10-3 2-2 5-5 7zm7 72l1-1a79 79 0 0 0-2-12c-1-2-4-1-5-3a6 6 0 0 0-2 4v11c0 2 0 3 2 3v-12l1-2c2 0 2 1 2 2l3 10zm207 103c-10 0-20 4-29 6 10 0 19-3 29-6zM42 263c0 2 0 7 2 6 3-1 3 2 4 3 2 2 3 5 2 9-1 1-1 2 1 3s1-1 1-2c2-6-3-16-10-19zM20 380c1-11-2-21-2-31h-2l4 31zm26-153l-1 2c9 4 16 11 26 13v-1zM29 394l-5-32c1 11 1 22 5 32zm1-383h28-28zm44-1c9 1 27 0 31-1a217 217 0 0 0-31 1zm132-3v1h31V7zm73 322h-3l-11 9v2h2l11-8 1-3zm35-170v-28c0 9-2 18 0 28zm-28-31c5 7 7 15 10 23 0-9-4-17-10-23zM32 192h-2l-4 25h2l4-25zm129-13v2a21 21 0 0 0 14 1 2 2 0 0 0 1-2l-1-1h-14zM26 258l-2 1c1 7 4 13 6 19h2zM156 34c6 0 12 1 19-2-8-1-14 0-19 2zm33 277c-1 5 1 9 1 13 1 2 2 2 3 2l1-2-5-13zm-83 10l-3-5c-3-3-7-4-5-9 1-1 0-1-1-1h-1v5a29 29 0 0 0 10 10zM40 184c-2-1-3 1-3 1l-4 17a1 1 0 0 0 1 1 1 1 0 0 0 2 0l4-19zM266 13c-9-1-16-2-24 0h24zm56 129h-1v34h1zM55 381c-3-3-4-8-9-10 1 6 6 7 9 10zM316 96h-1v22l1-22zM59 214a22 22 0 0 0-11-6c3 3 6 6 11 6zM49 330l-2 1a43 43 0 0 0 8 9 2 2 0 0 0 3 0v-1l-9-9zm76-113c-2-4-9-9-13-10 2 5 8 6 13 10zM242 72c1 3 5 5 7 8a2 2 0 0 0 1 0l1-2c-3-3-4-7-9-6zm-12-50c4 2 9 1 13 3a1 1 0 0 0 1-1l-1-2h-13zm-51 390h23zm134-242c-3 6-3 6-8 4 1 3 3 4 5 4 4-1 3-4 3-8zM83 204zm4-4c4-1 5 3 9 3-2-6-5-6-9-3zM8 253v-23zm14 133c0 4 0 8 3 12l-3-12zM92 91c3-3 6-4 8-8-3 2-7 4-8 8zM72 316c-2-3-3-7-7-9 2 4 3 8 7 9zm109-16l-3 11c2-4 4-7 3-11zm-88-94c3 2 6 6 11 6-3-3-7-6-11-6zm13-29c5 0 8 1 13-1-5 0-8-1-13 1zm206 194c0 6-2 11-1 16 1-5 2-10 1-16zM23 358c2-5 1-9 0-13v13zm216-1c6 0 9-2 10-6zm71-44c0 5-2 10-1 15 2-5 1-10 1-15zm-10-13a18 18 0 0 0-7 11c4-4 6-7 7-11zM9 297v-20zm99 18c-1-3-2-6-7-7 2 4 5 5 7 7zm-21-95c2 3 6 4 10 6-3-3-6-5-10-6zm50 77zm-10-90a25 25 0 0 0-10-7c2 3 5 5 10 7zm-52 37l8 5h2c1-1 0-2-1-2-2-1-5-3-9-3zm-30 25c-1 6 0 9 4 12a33 33 0 0 0-4-12zm158 139h19-19zm-4-229c-5-1-8 0-10 1 2 0 5 1 10-1zM52 226c-4-4-4-4-8-4l8 4zM276 8a8 8 0 0 0-8 0zM164 257c-2 2-5 4-6 8a11 11 0 0 0 6-8zM17 341v-12c-2 5-1 9 0 12zm90-43c0-4-2-6-5-8zm34-133c-4 2-5 4-7 6 3-1 5-2 7-6zm-73 19c-4-1-7 0-10 1 4 1 7 1 10-1zm153-99c5-4 5-4 2-7 1 3-2 4-2 7zM96 226a12 12 0 0 0 6 4v-2c-1-1-2-3-6-2zm-19 94c3 1 4 3 7 3-2-1-4-3-7-3zm40-99c-3-2-4-5-8-4 2 2 4 4 8 4zm42 43c-4 1-5 3-7 5 3 0 5-2 7-5zm81-153c1-1 3-3 3-5-2 1-3 2-3 5zm-130 41a5 5 0 0 0-4 4 6 6 0 0 0 4-4zm-9 49c3 2 5 4 8 2l-8-2zm-18-79c-2 0-3 2-2 3a5 5 0 0 0 2-3zm200 1c1 1 1 3 4 4-1-2-2-4-4-4zm-173 94c-1-3-3-4-5-4 1 3 2 4 5 4zm16 74c-1-2-1-4-4-3l4 3zm-34-50c-1-3-2-4-4-3l4 3zm-8-139l-2 1v2c1 0 2-1 2-3zm226 290a1 1 0 0 0-2 2 4 4 0 0 0 1 1 7 7 0 0 0 1-1v-2zM85 101l1-2h-1v2zm163 3a18 18 0 0 0-2-1h-1l1 1a9 9 0 0 0 2 0zm-167 2a10 10 0 0 0-2 2l1 1a2 2 0 0 0 1-1v-2zm208 211a2 2 0 0 0-1 2l1 1a2 2 0 0 0 0-4zM99 204a2 2 0 0 0-2-2l-1 1a2 2 0 0 0 2 2l1-1zm-43 39l-1 1a1 1 0 0 0 1 1 2 2 0 0 0 2-1 1 1 0 0 0-2-1zm-3-17v1zm30-6v-1a6 6 0 0 0-1 1v1zM41 353l-1 1a6 6 0 0 0 1 0h1zm178-252l-1-2-1 2 1 1zm74 185v1a2 2 0 0 0 1-1h-1zm9-109l2 2 1-1a1 1 0 0 0-2-1h-1zm-41 159v-1a6 6 0 0 0-2 1l1 1a5 5 0 0 0 1-1zm52-173v-1 1c0 1 0 0 0 0zM61 302v-1h-1a4 4 0 0 0 1 1zm18-192s-1 0 0 0a3 3 0 0 0 0 1v-1zm22 178zM62 148h-1 1zM43 356zm249-67h-1zm-192-84v1zm119-102a1 1 0 0 0-1 0h1zm2 80h-1a2 2 0 0 0 1 1v-1zM70 386zm132-49h-1l1 1v-1zM46 233zm92 63zm128 24h-1 1z" fill="#bd0000"/>
  <path d="M192 198l-2 5-1 2 3 1c3-1 7 1 9-3h1a1 1 0 0 1 0 2 8 8 0 0 1-2 2c-7 4-15 8-23 7a11 11 0 0 1-3-1c-3-1-6-4-9-1l-3-1c3-2 7-4 8-8 3 1 6 0 8-1 0 1-1 2 1 2s1 2 2 3l1-2 2-4c3 1 0 2 1 4 5-2 3-7 6-9zm-52 30c3-4 7-1 11-3-2 3-4 7-9 6l-2 2c-1 0-3 0-2 3l-6 4c0-2-2-5-1-8l4-2c1 4 3 2 5 2 2-1 0-2 0-4zm-30 25c1 2 0 3-1 4l2 1c2-1 3-3 4-1s-2 1-3 2v2c1 1 2 1 1 2a3 3 0 0 1-4 0 8 8 0 0 1-2-10c1-3 2 0 3 0zm-29 26c-4 4-8 6-12 4l-1-3c5 0 7-5 11-5 2 1-2 3 2 4zm44-44l4 6c2 3-1 3-2 3h-2c1-3-1-5-1-8zm90-64c-5 0-9 1-12-3 4 1 8-2 12 3zm-47 50a2 2 0 0 1 2 3c-1 2 3 5 0 5s-1-3-1-5c-1-1-5-2-1-3zm-33 45c2-3 1-7 6-7-1 3-4 5-6 7zm53-70c-2-1-5-1-7 1h-6a75 75 0 0 1 9-3c1-1 4-2 4 2z" fill="#bd0000"/>
  <path d="M116 247l1 3c-2 1-4 4-7 3 2-1 3-5 6-6zm5-9v3a2 2 0 0 0-1-1s-1-2 1-2zm134-24l1-1c1 1 0 1-1 2zm-131 30h1l1 1-2 1zm133-123l-1 1a3 3 0 0 1 0-1zM120 248c1-1 1 0 1 1h-1v-1zm80-80v-1a1 1 0 0 0 1 1zm96 185c0 4-1 7-3 11-1 2 0 2 2 2 0 2-2 2-4 3l-4 4-5 1v-2c3-2 6-3 8-6 1-5 5-10 2-15 1-2 2-4 0-4-2-1-2 1-3 2-4 2 1 4 1 6-2 7-8 11-12 16 0 1-2 2 0 3v-1c-2-2-5-1-6 0l-17 7v-2l2-2c-8 0-17 1-26-2 4-6 10-5 14-7 3-2 6-2 7-6l2-1c6 0 10-4 15-6l1 2a33 33 0 0 0-11 8 2 2 0 0 1-2 1c-6 0-10 4-15 6-1 0-2 1-1 2l2 1c4-2 7 1 11 0l16-4c9-2 10-10 15-17l-5 2 1-5c-5 0-7 5-12 5 3-3 7-5 9-9 1-3 3-4 6-4a1 1 0 0 0 0 1l-2 5-1 1c1 1 2 0 3-1s3-3 3-6c2-1 2-2 0-3l4-3a17 17 0 0 0 0 5c0 1-2 4 0 5 3 1 3-2 5-3v10zm-55 32c-2 3-6 4-9 4l-20-4c-8-2-18-2-26 2-9 5-18 4-27 4-7 0-14-1-21 1-7 1-14-1-21-4 4-2 6 1 9 1 9 0 17-3 26-2h13c11 1 20-3 29-5a30 30 0 0 1 12-2l19 1a8 8 0 0 1 4 2c3 2 8 1 12 2z" fill="#bd0000"/>
  <path d="M98 376c4 4 9 7 14 9l4 1a1 1 0 0 1 0 2h-1c-5-2-11-1-14-7-3-4-10-5-14-9a33 33 0 0 1 7-4c6-2 8 3 13 2l-4 1c4 5 9 6 13 9 1-3-2-2-1-5 9 7 19 6 30 7a11 11 0 0 1-9 1l-7-1-6 2c-4 2-8-1-12-3s-7-7-13-5zm55-3c7 2 14 2 21 1h15a49 49 0 0 1 7 0c3 0 2 1 0 2-9-1-18 1-27 2-4 1-2 3-2 5a41 41 0 0 1-19-4l-21-4c-2 0-4 0-6-2a7 7 0 0 1 6 0h26zm133 5a2 2 0 0 0-2 1c-1 1-2 1-1 2l-1 2c-4-1-8 2-13 2a23 23 0 0 1-5 1c-1-1 0 2-2 2h-2l-1-2c3-4 7-3 11-4 7 0 13-3 17-8 2-1 3 0 3 1a4 4 0 0 1-4 3z" fill="#bd0000"/>
  <path d="M171 383c-2-1-1-2 1-2 5 0 11-2 16-1 0 2-2 2-3 2l-14 1zm-62-18c3-1 2 2 4 3a8 8 0 0 1-1 3c-3 0-4-3-6-4 1-2 3-1 3-2zm106 9l9-4 2 2-1 1c-3 0-6 2-10 1zM75 387l10 5c-4 0-8-1-11-4l1-1zm224-59c2 6 2 6-5 8l5-8zM35 389v-1c3-1 5 0 6 3-2-1-4 0-6-2zm74-24l-1-1a1 1 0 0 1 1 0v1zm79-239c-1 1-2 1-2 3-3 0-2 3-3 5-3-1-4-4-5-6 2-2 3-4 0-5l1-1h5-1v-4 1c4 1 6 3 5 7zm-10 34l-4 4c-1 3-2 5-5 6l6-12c1-2 2-2 4-1-2 1 0 2-1 3zm-58-73c1-1 0-4 3-2a4 4 0 0 1-3 2zm59 70v-2 2zm51-127c2-2 4-1 5-1l7 6c0 2 1 4 4 4 2 0 4 0 4-2l-2-2c-1-2 0-2 2-2 4 0 6 2 8 5l1 2c-2 0-4-3-7-2 3 5 8 7 13 10v-3c1-2 2 0 2 0a24 24 0 0 0 6 7c-2-1 0 2-2 2a49 49 0 0 0-16-8c-11-3-16-12-25-16zm30 30c-3-3-5-8-12-7-2 0-3-2-5-4l-7-7v-1c3 0 4 3 6 4 3 1 5 5 9 3l1 1c4 5 10 7 14 11-2-1-4 2-6 0zm16 22l1-3 2 2c2 4 5 9 5 14l-7-9c2-2 0-3-1-4zm14-11l-8-6v-2l3-1c1 3 4 3 6 6 1 2-1 2-1 3zm5-35h-3c-1-2-1-5-4-7 6 0 7 1 7 7zm-22 30c5 2 8 5 11 8v2h-2l-9-10zm10-34l-6-3c7-2 9-1 9 4zm-51 7l-9-4-1-2a2 2 0 0 1 3 0 29 29 0 0 1 7 5zm59 34c2 1 2-4 4-1 1 2 2 3 0 4-3 1-2-2-4-3zm5-17l-2-3c-1-1-2-1-2-3l1-1c2 0 2 2 3 3 2 1 0 2 0 4z" fill="#bd0000"/>
  <path d="M271 54c3-1 3 0 2 2l-2-2zm-35-12l-2-1h2zm37 14c1-1 1 0 2 1l-2-1zm-8-11v-1 1zM47 40c3 0 3-5 6-3l-3 5v2h2a12 12 0 0 0 5-7h-4c4-3 8-5 13-4 1 1 2 1 2-1-1 1 0 3-2 5-2 1-1 2 1 1l2-1h1c4 2 7-3 10-1a64 64 0 0 0-18 22l7-4 1 1c-3 4-4 9-8 13s-6 8-11 11c-1-1 2-2 1-4-2 1-1 3-1 4l-2 2v-1c-1-2-2-2-3-1v-2c2-3 5-6 9-6 5-1 5-6 7-10-3 5-4-1-6-1 3-2 4-6 7-9 0 0 2-3-1-3l-1-1c4-1 0-5 2-7L48 50c5 1 8 0 12-2v1c-7 10-13 22-21 32-2 2-2 4-6 4l11-16c1-3 1-6 4-8a1 1 0 0 0 0-2h-3c-2 2-3 4-6 5h-3l2-3a82 82 0 0 0 9-8 17 17 0 0 1-6 0c0-5 8-4 9-10l-11 3c-1 1-3 2-4 1s2-3 3-3l9-4z" fill="#bd0000"/>
  <path d="M82 39c2-3 5-4 9-4-9 5-15 13-21 20l-1-1c2-1 2-5 3-7 3-4 7-5 10-8zm17-12c-1 4-3 5-6 5h-5c2-4 2-4 11-4zm-56 83c-1 4-2 8-7 8a11 11 0 0 1 7-8zm28-78c4-1 7-3 12-1-5 1-8 4-13 4zM41 97c-2-3 0-6 1-10a1 1 0 0 1 2 0v1l-3 9zm12 2c1 3 0 4-2 6a1 1 0 0 1-2-1c0-3 2-4 4-5zm22-28c1-1 1-2 2-1 0 1 0 2-2 1zm2-1c-1-2 0-2 1-2 2 1 1 1-1 2z" fill="#bd0000"/>
  <path d="M78 68c1-1 1-2 2-1 0 0 0 2-2 1zm2-1c-1-2 0-2 1-2 2 1 1 1-1 2zm-6 5l1-1c1 1 1 1-1 1zM62 48l-2 1v-1l1-1zm12 25v-1 1zm132 268c4 0 8-1 12 2-5 2-8 0-12-2zm30-4l3-1a3 3 0 0 1-3 1zm21-9h1v1c-1 0-2 2-2 0l1-1zm-69 0v2c-2 0-2-3-4-4 2-1 3 1 4 2zM103 60l1-1 2-1 1 2-4 1zm-27 44l-1 1 1-1zm154-27l-3-3c2 0 4 0 3 3zm6 6c-1-1-3-1-2-3 2 0 3 1 2 3zm-4-4a2 2 0 0 1-2-2c2-1 3 0 2 2zm2 1c-1 1-1-1-2-1 2-1 2 0 2 1zm60 212c4 0 2 1 1 3l-1-3zm-3 4l-1 1v-2zM229 59l1 2c0 1 1 2-1 1-3-1-5-5-8-7h3zm3 4h-1 1zM34 340c-1-1-2-1-2-3 2 0 3 1 2 3z" fill="#bd0000"/>
  <path d="M36 341l-2-2c2 0 2 1 2 2zm-4-10l-1-1h3zm140-157a26 26 0 0 0 3-2c1-1-2-4 1-4l1 3c-1 2-1 4-5 3zm106-39l-1-2-2-4a188 188 0 0 0-13-20c1-2-3-2-1-4 6 5 10 11 13 18 2 4 5 8 5 13zm-25-39c2-1 2 1 3 1 0 2 4 3 3 6zm32 196l-1 1-1 1c-1-10 3-17 8-24l2-3v6zM110 57l-4 2 4-4h1l-1 2zm1-2l1-1-1 1zm155 65a2 2 0 0 1 1 2l-1-2zm-84 136h2c1 1-1 1-1 1l-1-1zm-1-20a2 2 0 0 1 1 0l-1-1zm-36 53h2-2zm113 39v-1l1-1h2c0 1-1 2-3 2zm-79-211h3a2 2 0 0 1 1 2v-1l-4 3-1-1 1-3zm-1 6c0 1-1 2-2 1s0-1 1-2z" fill="#bd0000"/>
  <path d="M177 122l1-2 1 1v1l-1 1zM65 139c-3-1 0-2 0-3v3zm2-8c1-2 0-3 2-2 1 1 0 2-2 3zm-2 5a2 2 0 0 1 1-2c1 1 1 2-1 2zm1-2l1-2c1 1 1 1-1 2zM54 358l-1-1h1zm105-194v-1h1l-1 1zm-36 79l1 1-1-1zm-1-1c1-1 1 0 1 1l-1-1zm-1-1c1-1 1 0 1 1l-1-1zm-2 4zm1 3v-1 1zm152 116c2-3 4-6 8-8a14 14 0 0 1-8 8z" fill="#bd0000"/>
</svg>
