<?xml version="1.0" encoding="UTF-8" standalone="no"?>
<!DOCTYPE svg PUBLIC "-//W3C//DTD SVG 1.1//EN" "http://www.w3.org/Graphics/SVG/1.1/DTD/svg11.dtd">
<svg width="100%" height="100%" viewBox="0 0 1090 369" version="1.1" xmlns="http://www.w3.org/2000/svg" xmlns:xlink="http://www.w3.org/1999/xlink" xml:space="preserve" xmlns:serif="http://www.serif.com/" style="fill-rule:evenodd;clip-rule:evenodd;stroke-linejoin:round;stroke-miterlimit:1.41421;">
    <g transform="matrix(1,0,0,1,-61.5,-284.832)">
        <g>
            <g>
                <g opacity="0.703808">
                    <g transform="matrix(1,0,0,1,0.5,-405.922)">
                        <path d="M241,833.283L241,816L210,816L210,771.001L274,771.001L274,816L259.825,816L241,833.283Z" style="fill:rgb(17,17,17);fill-opacity:0.298992;fill-rule:nonzero;"/>
                    </g>
                    <g transform="matrix(1,0,0,1,0.5,-405.922)">
                        <path d="M1105,933.783L1105,917L1074,917L1074,872.001L1138,872.001L1138,917L1123.82,917L1105,933.783Z" style="fill:rgb(17,17,17);fill-opacity:0.298992;fill-rule:nonzero;"/>
                    </g>
                    <g transform="matrix(1,0,0,1,0.5,-405.922)">
                        <path d="M354,1020.78L354,1004L322,1004L322,959L387,959L387,1004L372.325,1004L354,1020.78Z" style="fill:rgb(17,17,17);fill-opacity:0.298992;fill-rule:nonzero;"/>
                    </g>
                    <g transform="matrix(1,0,0,1,0.5,-405.922)">
                        <path d="M1026,782.283L1007.67,765L993,765L993,720L1057,720L1057,765L1026,765L1026,782.283Z" style="fill:rgb(17,17,17);fill-opacity:0.298992;fill-rule:nonzero;"/>
                    </g>
                    <g transform="matrix(1,0,0,1,0.5,-405.922)">
                        <path d="M108,939.783L89.674,923L75,923L75,878.001L139,878.001L139,923L108,923L108,939.783Z" style="fill:rgb(17,17,17);fill-opacity:0.298992;fill-rule:nonzero;"/>
                    </g>
                    <g transform="matrix(1,0,0,1,0.5,-405.922)">
                        <path d="M580,782.283L562.175,765L547,765L547,720L612,720L612,765L580,765L580,782.283Z" style="fill:rgb(17,17,17);fill-opacity:0.298992;fill-rule:nonzero;"/>
                    </g>
                    <g transform="matrix(1,0,0,1,-81.5356,-458.717)">
                        <path d="M610,1028.28L592.175,1011L577,1011L577,966L642,966L642,1011L610,1011L610,1028.28Z" style="fill:rgb(17,17,17);fill-opacity:0.298992;fill-rule:nonzero;"/>
                    </g>
                    <g transform="matrix(1,0,0,1,0.5,-405.922)">
                        <path d="M220,1026.78L202.175,1010L187,1010L187,965L252,965L252,1010L220,1010L220,1026.78Z" style="fill:rgb(17,17,17);fill-opacity:0.298992;fill-rule:nonzero;"/>
                    </g>
                    <g transform="matrix(1,0,0,1,0.5,-405.922)">
                        <path d="M370,770.283L352.175,753L337,753L337,708.001L402,708.001L402,753L370,753L370,770.283Z" style="fill:rgb(17,17,17);fill-opacity:0.298992;fill-rule:nonzero;"/>
                    </g>
                </g>
            </g>
            <g transform="matrix(1,0,0,1,23,0)">
                <g opacity="0.703808">
                    <g transform="matrix(1,0,0,1,0.5,-405.922)">
                        <path d="M1036,779L1034,779L1034,842C1034,842.527 1034.21,843.042 1034.59,843.415C1034.96,843.787 1035.47,844 1036,844L1079,844L1079,864.751C1079,865.547 1079.47,866.264 1080.2,866.583C1080.93,866.902 1081.77,866.76 1082.36,866.22L1106.41,844L1126,844C1126.53,844 1127.04,843.787 1127.41,843.415C1127.79,843.042 1128,842.527 1128,842L1128,779C1128,778.474 1127.79,777.959 1127.41,777.586C1127.04,777.214 1126.53,777 1126,777L1036,777C1035.47,777 1034.96,777.214 1034.59,777.586C1034.21,777.959 1034,778.474 1034,779L1036,779L1036,781L1124,781L1124,840L1105.63,840C1105.13,840 1104.64,840.19 1104.27,840.531L1083,860.181L1083,842C1083,841.474 1082.79,840.959 1082.41,840.586C1082.04,840.214 1081.53,840 1081,840L1038,840L1038,779L1036,779L1036,781L1036,779Z" style="fill:rgb(35,31,32);fill-rule:nonzero;"/>
                    </g>
                    <g transform="matrix(1,0,0,1,0.5,-405.922)">
                        <rect x="1044" y="788" width="73" height="46" style="fill:rgb(189,0,0);fill-rule:nonzero;"/>
                    </g>
                    <g transform="matrix(1,0,0,1,0.5,-405.922)">
                        <path d="M1056,798L1062,798L1062,794L1056,794" style="fill:rgb(35,31,32);fill-rule:nonzero;"/>
                    </g>
                    <g transform="matrix(1,0,0,1,0.5,-405.922)">
                        <path d="M1065,798L1072,798L1072,794L1065,794" style="fill:rgb(35,31,32);fill-rule:nonzero;"/>
                    </g>
                    <g transform="matrix(1,0,0,1,0.5,-405.922)">
                        <path d="M1056,808L1104,808L1104,804L1056,804" style="fill:rgb(35,31,32);fill-rule:nonzero;"/>
                    </g>
                    <g transform="matrix(1,0,0,1,0.5,-405.922)">
                        <path d="M1056,819L1104,819L1104,815L1056,815" style="fill:rgb(35,31,32);fill-rule:nonzero;"/>
                    </g>
                    <g transform="matrix(1,0,0,1,0.5,-405.922)">
                        <path d="M1056,828L1092,828L1092,824L1056,824" style="fill:rgb(35,31,32);fill-rule:nonzero;"/>
                    </g>
                </g>
            </g>
            <g transform="matrix(1,0,0,1,-29.75,-9.56402)">
                <g transform="matrix(1,0,0,1,145.478,324.672)">
                    <path d="M108.576,140.544C108.576,173.376 98.496,188.352 83.232,188.352C77.76,188.352 73.44,186.912 69.696,184.32L69.696,99.36C73.728,96.768 78.336,95.04 83.232,95.04C98.496,95.04 108.576,107.712 108.576,140.544ZM14.976,209.088C14.976,222.624 14.688,238.176 14.4,257.472L1.44,260.352L1.44,275.328L84.672,275.328L84.672,260.352L69.408,256.032C69.12,237.6 68.832,222.336 68.832,209.088L68.832,202.176C77.76,211.104 88.992,216 104.256,216C136.224,216 166.752,187.776 166.752,140.544C166.752,91.296 141.408,66.528 109.728,66.528C93.024,66.528 79.488,72.576 67.68,84.384L66.528,69.12L61.632,66.528L-1.44,86.4L-1.44,98.208L14.112,100.8C14.688,112.32 14.976,117.216 14.976,133.056L14.976,209.088Z" style="fill-rule:nonzero;"/>
                    <path d="M181.152,211.392L261.504,211.392L261.504,196.704L249.408,194.112C249.12,180.288 249.12,163.008 249.12,150.912L249.12,112.608L249.984,69.696L244.8,66.528L177.984,86.4L177.984,98.208L193.536,100.8C194.112,112.32 194.4,121.248 194.4,137.088L194.4,150.912C194.4,162.72 194.4,179.712 194.112,193.824L181.152,196.704L181.152,211.392ZM205.632,42.336L218.016,52.416C223.776,48.672 229.536,44.64 248.544,31.392C261.216,22.464 270.144,14.112 270.144,3.744C270.144,-7.488 261.216,-14.4 252.576,-14.4C241.344,-14.4 235.584,-8.064 226.944,6.336C213.408,28.8 209.376,35.424 205.632,42.336Z" style="fill-rule:nonzero;"/>
                    <path d="M325.728,216C367.776,216 394.56,199.296 394.56,165.312C394.56,142.56 383.616,127.008 356.832,119.808L340.704,115.488C320.832,110.016 317.664,104.256 317.664,98.208C317.664,88.416 326.016,83.52 336.96,83.52C343.008,83.52 347.328,84.096 351.072,84.96L357.408,110.592L383.904,110.592L386.208,78.048C370.368,70.56 355.968,66.528 338.4,66.528C296.928,66.528 274.176,87.552 274.176,116.352C274.176,138.816 286.272,154.944 309.024,160.992L325.44,165.312C344.736,170.496 348.768,176.256 348.768,184.032C348.768,194.976 340.128,199.008 325.728,199.008C318.24,199.008 311.616,197.568 304.992,194.976L300.384,165.024L274.176,165.024L272.736,201.888C288.288,211.392 305.856,216 325.728,216Z" style="fill-rule:nonzero;"/>
                    <path d="M516.096,216C536.544,216 547.776,209.088 554.688,191.52L546.336,186.912C542.88,192.096 540.864,193.248 538.56,193.248C535.392,193.248 533.664,191.232 533.664,188.352L533.664,122.4C533.664,82.944 518.976,66.528 479.232,66.528C432.864,66.528 408.96,83.808 408.96,108.576C411.84,118.944 419.616,124.128 430.848,124.128C443.232,124.128 454.464,115.2 454.464,91.872L454.464,82.08C455.904,82.08 457.344,82.08 458.784,82.08C476.928,82.08 480.672,89.856 480.672,114.336L480.672,124.704C474.048,126.432 467.712,128.16 463.104,129.312C416.448,141.696 404.064,156.672 404.064,178.848C404.064,202.464 418.752,216 441.504,216C462.24,216 471.168,207.936 482.4,195.552C487.296,208.8 497.952,216 516.096,216ZM453.6,169.92C453.6,154.368 464.256,145.152 472.32,141.408C474.624,140.256 477.504,139.104 480.672,138.24L480.672,186.048C476.352,189.216 472.32,190.944 468.576,190.944C460.224,190.944 453.6,184.032 453.6,169.92Z" style="fill-rule:nonzero;"/>
                    <path d="M670.176,66.528C653.76,66.528 641.952,71.136 626.4,89.28L624.96,69.696L619.776,66.528L556.128,86.4L556.128,98.208L571.68,100.8C572.256,112.32 572.544,117.216 572.544,133.056L572.544,150.912C572.544,162.72 572.544,179.712 572.256,193.536L559.008,196.704L559.008,211.392L638.496,211.392L638.496,196.704L627.552,194.4C627.264,180.288 627.264,163.008 627.264,150.912L627.264,104.832C634.176,100.224 641.088,97.344 645.984,97.344C655.2,97.344 658.944,103.104 658.944,118.368L658.944,150.912C658.944,163.008 658.944,180 658.656,193.824L646.272,196.704L646.272,211.392L726.048,211.392L726.048,196.704L713.952,194.112C713.664,180.288 713.664,163.296 713.664,150.912L713.664,114.624C713.664,83.232 695.232,66.528 670.176,66.528Z" style="fill-rule:nonzero;"/>
                    <path d="M779.04,49.536C793.728,49.536 805.536,39.168 805.536,24.768C805.536,10.368 793.728,0 779.04,0C764.352,0 752.544,10.368 752.544,24.768C752.544,39.168 764.352,49.536 779.04,49.536ZM819.36,196.704L807.264,194.112C806.976,180.288 806.976,163.008 806.976,150.912L806.976,112.608L807.84,69.696L802.656,66.528L735.84,86.4L735.84,98.208L751.392,100.8C751.968,112.32 752.256,121.248 752.256,137.088L752.256,150.912C752.256,162.72 752.256,179.712 751.968,193.824L739.008,196.704L739.008,211.392L819.36,211.392L819.36,196.704Z" style="fill-rule:nonzero;"/>
                    <path d="M904.608,82.08C912.096,82.08 919.296,89.28 919.296,109.152C919.296,123.84 915.552,128.448 901.728,128.448L888.192,128.448C889.056,92.736 895.68,82.08 904.608,82.08ZM908.064,66.528C870.336,66.528 830.592,91.296 830.592,140.832C830.592,188.352 862.272,216 905.472,216C933.984,216 955.584,205.632 967.968,182.304L956.736,171.36C948.672,179.136 938.304,184.896 923.904,184.896C906.912,184.896 891.36,173.088 888.48,144.864L968.544,144.864C969.696,139.68 969.984,135.648 969.984,129.6C969.984,94.752 949.248,66.528 908.064,66.528Z" style="fill-rule:nonzero;"/>
                </g>
                <g transform="matrix(1,0,0,1,500.348,549.386)">
                    <path d="M36.722,29.291L37.152,29.291L37.368,33.814C37.798,43.291 42.106,46.091 46.629,46.091C50.936,46.091 53.413,44.152 54.813,39.845C54.275,31.014 46.306,23.476 34.245,23.476C16.907,23.476 3.446,33.706 3.446,51.583C3.446,70.32 16.692,79.366 31.337,79.366C41.568,79.366 49.644,75.489 54.275,66.767L50.075,62.675C47.06,65.582 43.829,67.736 39.091,67.736C30.476,67.736 24.984,61.167 24.984,49.214C24.984,34.353 31.768,29.291 36.722,29.291Z" style="fill-rule:nonzero;"/>
                    <path d="M87.12,79.366C105.534,79.366 115.549,67.413 115.549,51.044C115.549,34.676 103.704,23.476 87.12,23.476C70.536,23.476 58.69,34.999 58.69,51.044C58.69,67.09 68.597,79.366 87.12,79.366ZM87.12,73.443C82.381,73.443 80.228,67.09 80.228,51.367C80.228,35.753 82.381,29.399 87.12,29.399C91.858,29.399 94.012,35.753 94.012,51.367C94.012,67.09 91.858,73.443 87.12,73.443Z" style="fill-rule:nonzero;"/>
                    <path d="M159.809,51.152C159.809,63.428 156.04,69.028 150.332,69.028C148.286,69.028 146.671,68.49 145.271,67.521L145.271,35.753C146.779,34.783 148.502,34.137 150.332,34.137C156.04,34.137 159.809,38.876 159.809,51.152ZM124.81,76.782C124.81,81.843 124.703,87.658 124.595,94.873L119.749,95.95L119.749,101.55L150.871,101.55L150.871,95.95L145.163,94.335C145.056,87.443 144.948,81.735 144.948,76.782L144.948,74.197C148.286,77.536 152.486,79.366 158.194,79.366C170.147,79.366 181.562,68.813 181.562,51.152C181.562,32.737 172.085,23.476 160.24,23.476C153.994,23.476 148.933,25.738 144.517,30.153L144.087,24.445L142.256,23.476L118.672,30.907L118.672,35.322L124.487,36.291C124.703,40.599 124.81,42.429 124.81,48.352L124.81,76.782Z" style="fill-rule:nonzero;"/>
                    <path d="M194.592,102.627C205.038,102.627 209.453,95.627 213.976,83.997L234.329,31.337L240.79,30.26L240.79,25.199L220.76,25.199L220.76,30.26L227.006,31.553L217.853,57.506L208.592,31.553L214.945,30.153L214.945,25.199L182.316,25.199L182.316,30.26L187.054,31.122L209.345,82.274C207.946,86.258 205.576,89.92 203.1,92.827L202.346,91.643C199.438,86.904 195.454,86.258 192.546,86.258C187.916,86.258 183.931,88.735 182.962,94.119C183.5,98.858 188.669,102.627 194.592,102.627Z" style="fill-rule:nonzero;"/>
                    <path d="M307.342,30.26L312.726,31.014L304.649,55.459L297.219,31.014L302.173,30.26L302.173,25.199L274.82,25.199L274.82,30.26L280.42,31.014L272.128,56.321L264.805,31.014L270.189,30.26L270.189,25.199L240.252,25.199L240.252,30.26L244.452,30.907L261.359,77.643L271.051,77.643L282.573,44.475L294.311,77.643L304.003,77.643L320.695,31.014L326.941,30.26L326.941,25.199L307.342,25.199L307.342,30.26Z" style="fill-rule:nonzero;"/>
                    <path d="M329.741,77.643L363.985,77.643L363.985,72.151L355.586,70.32C355.478,65.259 355.478,59.229 355.478,55.029L355.478,48.244C356.34,43.398 359.247,38.445 361.832,35.537L362.37,36.291C365.17,40.383 367.862,42.214 371.416,42.214C375.723,42.214 379.277,38.876 379.6,33.06C378.846,26.491 374.862,23.476 369.585,23.476C364.416,23.476 358.278,27.891 355.478,37.045L354.617,24.661L352.678,23.476L328.879,30.907L328.879,35.322L334.694,36.291C334.91,40.599 335.017,42.322 335.017,48.244L335.017,55.029C335.017,59.444 335.017,65.798 334.91,70.967L329.741,72.151L329.741,77.643Z" style="fill-rule:nonzero;"/>
                    <path d="M397.476,17.123C402.968,17.123 407.384,13.246 407.384,7.861C407.384,2.477 402.968,-1.4 397.476,-1.4C391.984,-1.4 387.569,2.477 387.569,7.861C387.569,13.246 391.984,17.123 397.476,17.123ZM412.553,72.151L408.03,71.182C407.922,66.013 407.922,59.552 407.922,55.029L407.922,40.706L408.245,24.661L406.307,23.476L381.323,30.907L381.323,35.322L387.138,36.291C387.354,40.599 387.461,43.937 387.461,49.86L387.461,55.029C387.461,59.444 387.461,65.798 387.354,71.074L382.508,72.151L382.508,77.643L412.553,77.643L412.553,72.151Z" style="fill-rule:nonzero;"/>
                    <path d="M442.275,62.136L442.275,33.276L452.182,33.276L452.182,25.199L442.275,25.199L442.275,9.907L429.46,9.907L422.998,25.199L415.676,26.168L415.676,33.276L421.814,33.276L421.814,51.798C421.814,55.998 421.706,59.121 421.706,63.321C421.706,74.843 427.844,79.366 438.506,79.366C447.336,79.366 452.613,75.812 455.52,69.567L452.828,67.09C450.997,68.49 449.382,69.244 447.551,69.244C444.536,69.244 442.275,66.982 442.275,62.136Z" style="fill-rule:nonzero;"/>
                    <path d="M472.427,17.123C477.919,17.123 482.335,13.246 482.335,7.861C482.335,2.477 477.919,-1.4 472.427,-1.4C466.935,-1.4 462.52,2.477 462.52,7.861C462.52,13.246 466.935,17.123 472.427,17.123ZM487.504,72.151L482.981,71.182C482.873,66.013 482.873,59.552 482.873,55.029L482.873,40.706L483.196,24.661L481.258,23.476L456.274,30.907L456.274,35.322L462.089,36.291C462.305,40.599 462.412,43.937 462.412,49.86L462.412,55.029C462.412,59.444 462.412,65.798 462.305,71.074L457.459,72.151L457.459,77.643L487.504,77.643L487.504,72.151Z" style="fill-rule:nonzero;"/>
                    <path d="M533.379,23.476C527.24,23.476 522.825,25.199 517.01,31.983L516.472,24.661L514.533,23.476L490.734,30.907L490.734,35.322L496.549,36.291C496.765,40.599 496.872,42.429 496.872,48.352L496.872,55.029C496.872,59.444 496.872,65.798 496.765,70.967L491.811,72.151L491.811,77.643L521.533,77.643L521.533,72.151L517.441,71.29C517.333,66.013 517.333,59.552 517.333,55.029L517.333,37.799C519.918,36.076 522.502,34.999 524.333,34.999C527.779,34.999 529.179,37.153 529.179,42.86L529.179,55.029C529.179,59.552 529.179,65.905 529.071,71.074L524.441,72.151L524.441,77.643L554.27,77.643L554.27,72.151L549.747,71.182C549.64,66.013 549.64,59.659 549.64,55.029L549.64,41.46C549.64,29.722 542.748,23.476 533.379,23.476Z" style="fill-rule:nonzero;"/>
                    <path d="M582.915,28.861C586.9,28.861 588.946,33.06 588.946,40.599C588.946,48.137 587.223,52.444 582.915,52.444C578.608,52.444 577.1,48.137 577.1,40.599C577.1,33.06 578.931,28.861 582.915,28.861ZM582.484,94.55C572.146,94.55 567.947,91.858 567.947,85.72C567.947,83.566 568.162,82.381 568.808,80.874C571.931,81.843 575.915,82.166 580.546,82.166L591.315,82.166C596.376,82.166 598.099,84.966 598.099,87.443C598.099,91.535 592.93,94.55 582.484,94.55ZM559.116,40.814C559.116,46.521 561.808,51.798 567.947,54.921C562.67,59.229 559.116,64.075 559.116,69.674C559.116,73.12 560.731,76.459 565.147,78.505C559.87,80.874 556.855,84.643 556.855,89.166C556.855,95.304 561.485,101.55 580.223,101.55C602.191,101.55 613.929,92.504 613.929,80.874C613.929,71.29 608.114,64.398 589.807,64.398L577.854,64.398C573.439,64.398 571.608,62.998 571.608,60.628C571.608,58.905 571.823,57.721 572.362,56.536C575.269,57.398 578.823,57.829 582.915,57.829C599.93,57.829 606.714,49.86 606.714,40.814C606.714,38.014 606.176,35.429 604.991,33.168L615.114,33.168L615.114,24.23L613.391,23.153L601.33,28.645C597.561,25.522 591.53,23.476 582.915,23.476C565.9,23.476 559.116,31.337 559.116,40.814Z" style="fill-rule:nonzero;"/>
                </g>
            </g>
            <g transform="matrix(1,0,0,1,-31.212,-38.9959)">
                <g opacity="0.703808">
                    <g transform="matrix(1,0,0,1,0.5,-405.922)">
                        <path d="M190,757L188,757L188,818L145,818C144.473,818 143.958,818.214 143.586,818.586C143.213,818.959 143,819.474 143,820L143,837.809L121.193,818.503C120.828,818.18 120.354,818 119.867,818L102,818L102,759L190,759L190,757L188,757L190,757L190,755L100,755C99.473,755 98.958,755.214 98.585,755.586C98.213,755.959 98,756.474 98,757L98,820C98,820.527 98.213,821.042 98.585,821.415C98.958,821.787 99.473,822 100,822L119.109,822L143.674,843.748C144.261,844.268 145.106,844.396 145.821,844.074C146.536,843.752 147,843.035 147,842.251L147,822L190,822C190.527,822 191.042,821.787 191.414,821.415C191.787,821.042 192,820.527 192,820L192,757C192,756.474 191.787,755.959 191.414,755.586C191.042,755.214 190.527,755 190,755L190,757Z" style="fill:rgb(35,31,32);fill-rule:nonzero;"/>
                    </g>
                    <g transform="matrix(1,0,0,1,0.5,-405.922)">
                        <rect x="108" y="765" width="73" height="47" style="fill:rgb(189,0,0);fill-rule:nonzero;"/>
                    </g>
                    <g transform="matrix(1,0,0,1,0.5,-405.922)">
                        <path d="M169,771L163,771L163,775L169,775" style="fill:rgb(35,31,32);fill-rule:nonzero;"/>
                    </g>
                    <g transform="matrix(1,0,0,1,0.5,-405.922)">
                        <path d="M160,771L153,771L153,775L160,775" style="fill:rgb(35,31,32);fill-rule:nonzero;"/>
                    </g>
                    <g transform="matrix(1,0,0,1,0.5,-405.922)">
                        <path d="M169,782L121,782L121,786L169,786" style="fill:rgb(35,31,32);fill-rule:nonzero;"/>
                    </g>
                    <g transform="matrix(1,0,0,1,0.5,-405.922)">
                        <path d="M169,792L121,792L121,796L169,796" style="fill:rgb(35,31,32);fill-rule:nonzero;"/>
                    </g>
                    <g transform="matrix(1,0,0,1,0.5,-405.922)">
                        <path d="M169,801L133,801L133,805L169,805" style="fill:rgb(35,31,32);fill-rule:nonzero;"/>
                    </g>
                </g>
            </g>
            <g transform="matrix(1,0,0,1,12.3646,-485.251)">
                <path d="M191.728,847.365L189.478,847.365C189.477,848.576 188.993,849.653 188.199,850.45C187.402,851.243 186.325,851.727 185.114,851.728C183.903,851.727 182.826,851.243 182.029,850.45C181.235,849.653 180.751,848.576 180.75,847.365C180.751,846.153 181.235,845.076 182.029,844.279C182.826,843.486 183.903,843.002 185.114,843.001C186.325,843.002 187.402,843.486 188.199,844.279C188.993,845.076 189.477,846.153 189.478,847.365L193.978,847.365C193.976,842.469 190.01,838.503 185.114,838.501C180.218,838.503 176.252,842.469 176.25,847.365C176.252,852.26 180.218,856.226 185.114,856.228C190.01,856.226 193.976,852.26 193.978,847.365L191.728,847.365Z" style="fill:rgb(35,31,32);fill-opacity:0.703808;fill-rule:nonzero;"/>
            </g>
            <g transform="matrix(1,0,0,1,12.3646,-485.251)">
                <path d="M214.401,847.365L212.151,847.365C212.149,848.576 211.666,849.653 210.873,850.45C210.076,851.243 209,851.727 207.788,851.728C206.576,851.727 205.499,851.243 204.702,850.45C203.909,849.653 203.426,848.576 203.424,847.365C203.426,846.153 203.909,845.076 204.702,844.279C205.499,843.486 206.576,843.002 207.788,843.001C209,843.002 210.076,843.486 210.873,844.279C211.666,845.076 212.149,846.153 212.151,847.365L216.651,847.365C216.649,842.469 212.684,838.502 207.788,838.501C202.891,838.502 198.926,842.469 198.924,847.365C198.926,852.26 202.891,856.227 207.788,856.228C212.684,856.227 216.649,852.26 216.651,847.365L214.401,847.365Z" style="fill:rgb(35,31,32);fill-opacity:0.703808;fill-rule:nonzero;"/>
            </g>
            <g transform="matrix(1,0,0,1,12.3646,-485.251)">
                <path d="M237.076,847.365L234.826,847.365C234.825,848.576 234.341,849.653 233.548,850.45C232.751,851.243 231.674,851.727 230.463,851.728C229.251,851.727 228.174,851.243 227.377,850.45C226.584,849.653 226.1,848.576 226.099,847.365C226.1,846.153 226.584,845.076 227.377,844.279C228.174,843.486 229.251,843.002 230.463,843.001C231.674,843.002 232.751,843.486 233.548,844.279C234.341,845.076 234.825,846.153 234.826,847.365L239.326,847.365C239.325,842.469 235.358,838.503 230.463,838.501C225.567,838.503 221.601,842.469 221.599,847.365C221.601,852.26 225.567,856.226 230.463,856.228C235.358,856.226 239.325,852.26 239.326,847.365L237.076,847.365Z" style="fill:rgb(35,31,32);fill-opacity:0.703808;fill-rule:nonzero;"/>
            </g>
            <g transform="matrix(1,0,0,1,0.5,-405.922)">
                <path d="M943.227,826.365L940.977,826.365C940.976,827.576 940.492,828.653 939.699,829.45C938.902,830.243 937.825,830.727 936.614,830.728C935.402,830.727 934.325,830.243 933.528,829.45C932.735,828.653 932.251,827.576 932.25,826.365C932.251,825.153 932.735,824.076 933.528,823.279C934.325,822.486 935.402,822.002 936.614,822.001C937.825,822.002 938.902,822.486 939.699,823.279C940.492,824.076 940.976,825.153 940.977,826.365L945.477,826.365C945.476,821.469 941.509,817.503 936.614,817.501C931.718,817.503 927.752,821.469 927.75,826.365C927.752,831.26 931.718,835.226 936.614,835.228C941.509,835.226 945.476,831.26 945.477,826.365L943.227,826.365Z" style="fill:rgb(35,31,32);fill-opacity:0.703808;fill-rule:nonzero;"/>
            </g>
            <g transform="matrix(1,0,0,1,0.5,-405.922)">
                <path d="M965.9,826.365L963.65,826.365C963.649,827.576 963.165,828.653 962.372,829.45C961.576,830.243 960.499,830.727 959.288,830.728C958.075,830.727 956.999,830.243 956.202,829.45C955.409,828.653 954.925,827.576 954.924,826.365C954.925,825.153 955.409,824.076 956.202,823.279C956.999,822.486 958.075,822.002 959.288,822.001C960.499,822.002 961.576,822.486 962.372,823.279C963.165,824.076 963.649,825.153 963.65,826.365L968.15,826.365C968.149,821.469 964.184,817.502 959.288,817.501C954.391,817.502 950.426,821.469 950.424,826.365C950.426,831.26 954.391,835.227 959.288,835.228C964.184,835.227 968.149,831.26 968.15,826.365L965.9,826.365Z" style="fill:rgb(35,31,32);fill-opacity:0.703808;fill-rule:nonzero;"/>
            </g>
            <g transform="matrix(1,0,0,1,0.5,-405.922)">
                <path d="M988.576,826.365L986.326,826.365C986.325,827.576 985.841,828.653 985.048,829.45C984.25,830.243 983.174,830.727 981.962,830.728C980.751,830.727 979.674,830.243 978.877,829.45C978.083,828.653 977.599,827.576 977.598,826.365C977.599,825.153 978.083,824.076 978.877,823.279C979.674,822.486 980.751,822.002 981.962,822.001C983.174,822.002 984.25,822.486 985.048,823.279C985.841,824.076 986.325,825.153 986.326,826.365L990.826,826.365C990.824,821.469 986.858,817.503 981.962,817.501C977.066,817.503 973.1,821.469 973.098,826.365C973.1,831.26 977.066,835.226 981.962,835.228C986.858,835.226 990.824,831.26 990.826,826.365L988.576,826.365Z" style="fill:rgb(35,31,32);fill-opacity:0.703808;fill-rule:nonzero;"/>
            </g>
            <g transform="matrix(1,0,0,1,580.446,-521.586)">
                <path d="M466.228,851.865L463.978,851.865C463.977,853.076 463.493,854.153 462.699,854.95C461.902,855.743 460.825,856.227 459.614,856.228C458.402,856.227 457.326,855.743 456.528,854.95C455.735,854.153 455.251,853.076 455.25,851.865C455.251,850.653 455.735,849.576 456.528,848.779C457.326,847.986 458.402,847.502 459.614,847.501C460.825,847.502 461.902,847.986 462.699,848.779C463.493,849.576 463.977,850.653 463.978,851.865L468.478,851.865C468.476,846.969 464.51,843.003 459.614,843.001C454.718,843.003 450.752,846.969 450.75,851.865C450.752,856.76 454.718,860.726 459.614,860.728C464.51,860.726 468.476,856.76 468.478,851.865L466.228,851.865Z" style="fill:rgb(35,31,32);fill-opacity:0.703808;fill-rule:nonzero;"/>
            </g>
            <g transform="matrix(1,0,0,1,580.446,-521.586)">
                <path d="M488.9,851.865L486.65,851.865C486.649,853.076 486.166,854.153 485.373,854.95C484.576,855.743 483.5,856.227 482.288,856.228C481.076,856.227 479.999,855.743 479.202,854.95C478.409,854.153 477.925,853.076 477.924,851.865C477.925,850.653 478.409,849.576 479.202,848.779C479.999,847.986 481.076,847.502 482.288,847.501C483.5,847.502 484.576,847.986 485.372,848.779C486.166,849.576 486.649,850.653 486.65,851.865L491.15,851.865C491.149,846.969 487.184,843.002 482.288,843.001C477.391,843.002 473.426,846.969 473.424,851.865C473.426,856.76 477.391,860.727 482.288,860.728C487.184,860.727 491.149,856.76 491.15,851.865L488.9,851.865Z" style="fill:rgb(35,31,32);fill-opacity:0.703808;fill-rule:nonzero;"/>
            </g>
            <g transform="matrix(1,0,0,1,580.446,-521.586)">
                <path d="M511.576,851.865L509.326,851.865C509.325,853.076 508.841,854.153 508.048,854.95C507.251,855.743 506.174,856.227 504.962,856.228C503.751,856.227 502.674,855.743 501.877,854.95C501.084,854.153 500.6,853.076 500.599,851.865C500.6,850.653 501.084,849.576 501.877,848.779C502.674,847.986 503.751,847.502 504.962,847.501C506.174,847.502 507.251,847.986 508.048,848.779C508.841,849.576 509.325,850.653 509.326,851.865L513.826,851.865C513.823,846.969 509.858,843.003 504.962,843.001C500.067,843.003 496.1,846.969 496.099,851.865C496.1,856.76 500.067,860.726 504.962,860.728C509.858,860.726 513.823,856.76 513.826,851.865L511.576,851.865Z" style="fill:rgb(35,31,32);fill-opacity:0.703808;fill-rule:nonzero;"/>
            </g>
            <g transform="matrix(1,0,0,1,61.938,-410.056)">
                <path d="M1011,763L1018,763L1018,759L1011,759" style="fill:rgb(35,31,32);fill-opacity:0.703808;fill-rule:nonzero;"/>
            </g>
            <g transform="matrix(1,0,0,1,61.938,-410.056)">
                <path d="M1023,763L1045,763L1045,759L1023,759" style="fill:rgb(35,31,32);fill-opacity:0.703808;fill-rule:nonzero;"/>
            </g>
            <g transform="matrix(1,0,0,1,61.938,-410.056)">
                <path d="M1051,763L1056,763L1056,759L1051,759" style="fill:rgb(35,31,32);fill-opacity:0.703808;fill-rule:nonzero;"/>
            </g>
            <g transform="matrix(1,0,0,1,0.5,-405.922)">
                <path d="M163,735L171,735L171,731L163,731" style="fill:rgb(35,31,32);fill-opacity:0.703808;fill-rule:nonzero;"/>
            </g>
            <g transform="matrix(1,0,0,1,0.5,-405.922)">
                <path d="M175,735L198,735L198,731L175,731" style="fill:rgb(35,31,32);fill-opacity:0.703808;fill-rule:nonzero;"/>
            </g>
            <g transform="matrix(1,0,0,1,0.5,-405.922)">
                <path d="M204,735L208,735L208,731L204,731" style="fill:rgb(35,31,32);fill-opacity:0.703808;fill-rule:nonzero;"/>
            </g>
            <g transform="matrix(1,0,0,1,-10.9317,-486.004)">
                <path d="M761,854L761,852L733,852L733,841L759,841L759,854L761,854L761,852L761,854L763,854L763,839C763,838.474 762.787,837.959 762.414,837.586C762.042,837.214 761.527,837 761,837L731,837C730.473,837 729.958,837.214 729.586,837.586C729.213,837.959 729,838.474 729,839L729,854C729,854.527 729.213,855.042 729.586,855.415C729.958,855.787 730.473,856 731,856L761,856C761.527,856 762.042,855.787 762.414,855.415C762.787,855.042 763,854.527 763,854L761,854Z" style="fill:rgb(35,31,32);fill-opacity:0.703808;fill-rule:nonzero;"/>
            </g>
            <g transform="matrix(1,0,0,1,-10.9317,-486.004)">
                <path d="M823,854L823,852L795,852L795,841L821,841L821,854L823,854L823,852L823,854L825,854L825,839C825,838.474 824.787,837.959 824.414,837.586C824.042,837.214 823.527,837 823,837L793,837C792.473,837 791.958,837.214 791.586,837.586C791.213,837.959 791,838.474 791,839L791,854C791,854.527 791.213,855.042 791.586,855.415C791.958,855.787 792.473,856 793,856L823,856C823.527,856 824.042,855.787 824.414,855.415C824.787,855.042 825,854.527 825,854L823,854Z" style="fill:rgb(35,31,32);fill-opacity:0.703808;fill-rule:nonzero;"/>
            </g>
            <g transform="matrix(1,0,0,1,-10.9317,-486.004)">
                <path d="M791,823L791,821L763,821L763,810L789,810L789,823L791,823L791,821L791,823L793,823L793,808C793,807.474 792.787,806.959 792.414,806.586C792.042,806.214 791.527,806 791,806L761,806C760.473,806 759.958,806.214 759.586,806.586C759.213,806.959 759,807.474 759,808L759,823C759,823.527 759.213,824.042 759.586,824.415C759.958,824.787 760.473,825 761,825L791,825C791.527,825 792.042,824.787 792.414,824.415C792.787,824.042 793,823.527 793,823L791,823Z" style="fill:rgb(35,31,32);fill-opacity:0.703808;fill-rule:nonzero;"/>
            </g>
            <g transform="matrix(1,0,0,0.78824,-10.9317,-311.514)">
                <path d="M774,824L774,879L778,879L778,824" style="fill:rgb(35,31,32);fill-opacity:0.703808;fill-rule:nonzero;"/>
            </g>
            <g transform="matrix(1,0,0,1,-10.9317,-486.004)">
                <path d="M760,849L792,849L792,845L760,845" style="fill:rgb(35,31,32);fill-opacity:0.703808;fill-rule:nonzero;"/>
            </g>
            <g transform="matrix(1,0,0,1,-324.065,128.421)">
                <g opacity="0.703808">
                    <g transform="matrix(1,0,0,1,0.5,-405.922)">
                        <path d="M588.057,889.93L582.592,879L593.522,879L588.057,889.93Z" style="fill:rgb(189,0,0);fill-rule:nonzero;"/>
                    </g>
                    <g transform="matrix(1,0,0,1,0.5,-405.922)">
                        <path d="M610,897L610,887.588C610.001,885.814 609.644,884.162 608.972,882.707C607.968,880.519 606.265,878.807 604.204,877.687C602.14,876.562 599.722,876.001 597.166,876L578.949,876C575.544,876.002 572.349,876.997 569.935,878.991C568.732,879.986 567.735,881.236 567.052,882.693C566.366,884.15 565.999,885.808 566,887.588L566,897L570,897L570,887.588C570.001,886.35 570.248,885.3 570.672,884.394C571.311,883.039 572.363,881.972 573.782,881.203C575.197,880.438 576.979,880 578.949,880L597.166,880C599.797,880 602.038,880.778 603.559,882.062C604.324,882.706 604.92,883.473 605.339,884.38C605.756,885.288 605.999,886.343 606,887.588L606,897L610,897Z" style="fill:rgb(35,31,32);fill-rule:nonzero;"/>
                    </g>
                    <g transform="matrix(1,0,0,1,0.5,-405.922)">
                        <path d="M596,860.287L598,860.287C597.999,855.157 593.843,851.002 588.714,851L585.286,851C580.157,851.002 576.001,855.157 576,860.287L576,865.714C576.001,870.844 580.157,874.999 585.286,875L588.714,875C593.843,874.999 597.999,870.844 598,865.714L598,860.287L596,860.287L594,860.287L594,865.714C593.999,867.18 593.411,868.489 592.452,869.452C591.489,870.412 590.18,870.999 588.714,871L585.286,871C583.82,870.999 582.511,870.412 581.548,869.452C580.589,868.489 580.001,867.18 580,865.714L580,860.287C580.001,858.82 580.589,857.512 581.548,856.549C582.511,855.589 583.82,855.001 585.286,855L588.714,855C590.18,855.001 591.489,855.589 592.452,856.549C593.411,857.512 593.999,858.82 594,860.287L596,860.287Z" style="fill:rgb(35,31,32);fill-rule:nonzero;"/>
                    </g>
                    <g transform="matrix(1,0,0,1,0.5,-405.922)">
                        <path d="M579,900L579,894L575,894L575,900" style="fill:rgb(35,31,32);fill-rule:nonzero;"/>
                    </g>
                    <g transform="matrix(1,0,0,1,0.5,-405.922)">
                        <path d="M600,900L600,894L596,894L596,900" style="fill:rgb(35,31,32);fill-rule:nonzero;"/>
                    </g>
                    <g transform="matrix(1,0,0,1,0.5,-405.922)">
                        <path d="M627,877.501L624.75,877.501C624.749,887.863 620.556,897.224 613.767,904.017C606.973,910.807 597.613,915 587.25,915.001C576.887,915 567.527,910.807 560.733,904.017C553.944,897.224 549.751,887.863 549.75,877.501C549.751,867.138 553.944,857.777 560.733,850.984C567.527,844.194 576.887,840.002 587.25,840.001C597.613,840.002 606.973,844.194 613.767,850.984C620.556,857.777 624.749,867.138 624.75,877.501L629.25,877.501C629.249,854.304 610.447,835.502 587.25,835.501C564.053,835.502 545.251,854.304 545.25,877.501C545.251,900.698 564.053,919.499 587.25,919.501C610.447,919.499 629.249,900.698 629.25,877.501L627,877.501Z" style="fill:rgb(35,31,32);fill-rule:nonzero;"/>
                    </g>
                </g>
            </g>
            <g transform="matrix(1,0,0,1,-1.324,-446.292)">
                <path d="M825.375,789L864.75,789L825.501,750L825.375,789Z" style="fill:rgb(189,0,0);fill-opacity:0.703808;fill-rule:nonzero;"/>
            </g>
            <g transform="matrix(1,0,0,1,-1.324,-446.292)">
                <path d="M867,843.288L867,788.5C867,787.973 866.787,787.458 866.414,787.086L826.915,747.586C826.543,747.214 826.028,747 825.501,747L700,747C699.473,747 698.958,747.214 698.586,747.586C698.213,747.959 698,748.474 698,749L698,816.288L702,816.288L702,751L824.672,751L863,789.328L863,843.288L867,843.288Z" style="fill:rgb(35,31,32);fill-opacity:0.703808;fill-rule:nonzero;"/>
            </g>
            <g transform="matrix(1,0,0,1,-3.71343,39.9734)">
                <g opacity="0.703808">
                    <g transform="matrix(1,0,0,1,0.5,-405.922)">
                        <path d="M359.408,920.359L366.847,927.796C367.726,928.675 369.15,928.675 370.029,927.796L388.295,909.53L385.113,906.348L368.437,923.023L362.59,917.177L359.408,920.359Z" style="fill:rgb(35,31,32);fill-rule:nonzero;"/>
                    </g>
                    <g transform="matrix(1,0,0,1,0.5,-405.922)">
                        <path d="M397,910L415,910L415,906L397,906" style="fill:rgb(35,31,32);fill-rule:nonzero;"/>
                    </g>
                    <g transform="matrix(1,0,0,1,0.5,-405.922)">
                        <path d="M397,919L468,919L468,915L397,915" style="fill:rgb(35,31,32);fill-rule:nonzero;"/>
                    </g>
                    <g transform="matrix(1,0,0,1,0.5,-405.922)">
                        <path d="M397,928L468,928L468,924L397,924" style="fill:rgb(35,31,32);fill-rule:nonzero;"/>
                    </g>
                    <g transform="matrix(1,0,0,1,0.5,-405.922)">
                        <path d="M357.908,953.359L365.347,960.796C366.226,961.675 367.65,961.675 368.529,960.796L386.795,942.53L383.613,939.348L366.937,956.023L361.09,950.177L357.908,953.359Z" style="fill:rgb(35,31,32);fill-rule:nonzero;"/>
                    </g>
                    <g transform="matrix(1,0,0,1,0.5,-405.922)">
                        <path d="M396,943L414,943L414,939L396,939" style="fill:rgb(35,31,32);fill-rule:nonzero;"/>
                    </g>
                    <g transform="matrix(1,0,0,1,0.5,-405.922)">
                        <path d="M396,952L466,952L466,948L396,948" style="fill:rgb(35,31,32);fill-rule:nonzero;"/>
                    </g>
                    <g transform="matrix(1,0,0,1,0.5,-405.922)">
                        <path d="M396,961L466,961L466,957L396,957" style="fill:rgb(35,31,32);fill-rule:nonzero;"/>
                    </g>
                </g>
            </g>
            <g transform="matrix(1,0,0,1,37.7153,-43.1006)">
                <g opacity="0.703808">
                    <g transform="matrix(1,0,0,1,0.5,-405.922)">
                        <path d="M525.908,756.859L533.347,764.296C534.225,765.175 535.65,765.175 536.528,764.296L554.795,746.03L551.613,742.848L534.937,759.523L529.09,753.677L525.908,756.859Z" style="fill:rgb(35,31,32);fill-rule:nonzero;"/>
                    </g>
                    <g transform="matrix(1,0,0,1,0.5,-405.922)">
                        <path d="M564,747L582,747L582,743L564,743" style="fill:rgb(35,31,32);fill-rule:nonzero;"/>
                    </g>
                    <g transform="matrix(1,0,0,1,0.5,-405.922)">
                        <path d="M564,756L634,756L634,752L564,752" style="fill:rgb(35,31,32);fill-rule:nonzero;"/>
                    </g>
                    <g transform="matrix(1,0,0,1,0.5,-405.922)">
                        <path d="M564,765L634,765L634,761L564,761" style="fill:rgb(35,31,32);fill-rule:nonzero;"/>
                    </g>
                    <g transform="matrix(1,0,0,1,0.5,-405.922)">
                        <path d="M524.408,789.859L531.847,797.296C532.725,798.175 534.15,798.175 535.028,797.296L553.295,779.03L550.113,775.848L533.437,792.523L527.59,786.677L524.408,789.859Z" style="fill:rgb(35,31,32);fill-rule:nonzero;"/>
                    </g>
                    <g transform="matrix(1,0,0,1,0.5,-405.922)">
                        <path d="M562,780L580,780L580,776L562,776" style="fill:rgb(35,31,32);fill-rule:nonzero;"/>
                    </g>
                    <g transform="matrix(1,0,0,1,0.5,-405.922)">
                        <path d="M562,789L633,789L633,785L562,785" style="fill:rgb(35,31,32);fill-rule:nonzero;"/>
                    </g>
                    <g transform="matrix(1,0,0,1,0.5,-405.922)">
                        <path d="M562,798L633,798L633,794L562,794" style="fill:rgb(35,31,32);fill-rule:nonzero;"/>
                    </g>
                </g>
            </g>
            <g transform="matrix(1,0,0,1,101.906,97.1958)">
                <g opacity="0.703808">
                    <g transform="matrix(1,0,0,1,1.28964,-418.67)">
                        <path d="M716.408,966.859L723.847,974.296C724.725,975.175 726.15,975.175 727.028,974.296L745.295,956.03L742.113,952.848L725.437,969.523L719.59,963.677L716.408,966.859Z" style="fill:rgb(35,31,32);fill-rule:nonzero;"/>
                    </g>
                    <g transform="matrix(1,0,0,1,1.28964,-418.67)">
                        <path d="M754,957L772,957L772,953L754,953" style="fill:rgb(35,31,32);fill-rule:nonzero;"/>
                    </g>
                    <g transform="matrix(1,0,0,1,1.28964,-418.67)">
                        <path d="M754,966L825,966L825,962L754,962" style="fill:rgb(35,31,32);fill-rule:nonzero;"/>
                    </g>
                    <g transform="matrix(1,0,0,1,1.28964,-418.67)">
                        <path d="M754,975L825,975L825,971L754,971" style="fill:rgb(35,31,32);fill-rule:nonzero;"/>
                    </g>
                </g>
            </g>
            <g transform="matrix(1,0,0,1,91.8626,-476.669)">
                <path d="M429,852L429,796.926C429,787.165 424.813,778.299 418.244,771.897C411.675,765.492 402.691,761.503 393.015,761.501C383.147,761.501 374.137,765.685 367.613,772.3C361.086,778.914 357.001,787.995 357,797.847L357,832C357,832.527 357.213,833.042 357.586,833.415C357.958,833.787 358.473,834 359,834L390,834L390,852L394,852L394,832C394,831.474 393.787,830.959 393.414,830.586C393.042,830.214 392.527,830 392,830L373.573,830L361,830L361,806.406L361,797.847C360.999,789.115 364.627,781.022 370.46,775.109C376.296,769.197 384.293,765.5 393.015,765.501C401.578,765.499 409.587,769.042 415.451,774.76C421.315,780.481 425,788.327 425,796.926L425,852L429,852Z" style="fill:rgb(35,31,32);fill-opacity:0.703808;fill-rule:nonzero;"/>
            </g>
            <g transform="matrix(1,0,0,1,91.8626,-476.669)">
                <path d="M371,804L371,815C371,815.527 371.213,816.042 371.586,816.415C371.958,816.787 372.473,817 373,817L378,817L378,813.001L375,813L375,804L371,804Z" style="fill:rgb(35,31,32);fill-opacity:0.703808;fill-rule:nonzero;"/>
            </g>
            <g transform="matrix(1,0,0,1,-9.02815,-415.094)">
                <path d="M340,792L292,792L292,796L340,796" style="fill:rgb(35,31,32);fill-opacity:0.703808;fill-rule:nonzero;"/>
            </g>
            <g transform="matrix(1,0,0,1,-9.02815,-415.094)">
                <path d="M300.841,799.432L295.682,794.273L300.702,789.253L297.52,786.071L290.909,792.682C290.03,793.56 290.03,794.985 290.909,795.864L297.659,802.614L300.841,799.432Z" style="fill:rgb(35,31,32);fill-opacity:0.703808;fill-rule:nonzero;"/>
            </g>
            <g transform="matrix(1,0,0,1,17.7376,-436.635)">
                <path d="M420,753L468,753L468,749L420,749" style="fill:rgb(35,31,32);fill-opacity:0.703808;fill-rule:nonzero;"/>
            </g>
            <g transform="matrix(1,0,0,1,17.7376,-436.635)">
                <path d="M459.659,745.753L464.818,750.912L459.798,755.932L462.98,759.114L469.591,752.503C470.01,752.084 470.25,751.504 470.25,750.912C470.25,750.319 470.01,749.74 469.591,749.321L462.841,742.571L459.659,745.753Z" style="fill:rgb(35,31,32);fill-opacity:0.703808;fill-rule:nonzero;"/>
            </g>
            <g transform="matrix(1,0,0,1,0.5,-405.922)">
                <path d="M410.438,790.678C410.438,800.199 402.719,807.918 393.198,807.918C383.676,807.918 375.958,800.199 375.958,790.678C375.958,781.156 383.676,773.438 393.198,773.438C402.719,773.438 410.438,781.156 410.438,790.678Z" style="fill:rgb(189,0,0);fill-opacity:0.703808;fill-rule:nonzero;"/>
            </g>
            <g transform="matrix(1,0,0,1,91.8626,-476.669)">
                <path d="M401.38,799.622C400.24,800.763 398.879,801.682 397.37,802.309L399.097,806.465C401.159,805.607 403.012,804.355 404.563,802.802L401.38,799.622ZM392.638,803.251L392.625,803.251C390.947,803.25 389.357,802.919 387.904,802.319L386.185,806.478C388.171,807.298 390.351,807.751 392.625,807.751L392.642,807.751L392.638,803.251ZM383.888,799.639C382.746,798.501 381.825,797.141 381.197,795.632L377.043,797.363C377.902,799.425 379.156,801.277 380.711,802.826L383.888,799.639ZM380.25,790.901L380.25,790.876C380.25,789.202 380.58,787.617 381.177,786.166L377.016,784.452C376.2,786.433 375.75,788.608 375.75,790.876L375.75,790.91L380.25,790.901ZM383.852,782.148C384.99,781.004 386.349,780.082 387.857,779.452L386.121,775.3C384.061,776.161 382.211,777.418 380.662,778.974L383.852,782.148ZM392.587,778.501L392.625,778.501C394.294,778.501 395.876,778.829 397.323,779.423L399.033,775.26C397.056,774.448 394.887,774 392.625,774.001L392.573,774.001L392.587,778.501ZM401.344,782.094C402.489,783.231 403.412,784.589 404.044,786.096L408.194,784.356C407.331,782.297 406.073,780.447 404.515,778.901L401.344,782.094ZM405,790.825L405,790.876C405,792.559 404.667,794.152 404.063,795.609L408.22,797.331C409.045,795.342 409.5,793.156 409.5,790.876L409.5,790.806L405,790.825Z" style="fill:rgb(35,31,32);fill-opacity:0.703808;fill-rule:nonzero;"/>
            </g>
            <g transform="matrix(1,0,0,1,6.20559,11.076)">
                <g opacity="0.703808">
                    <g transform="matrix(1,0,0,1,199.074,-350.552)">
                        <rect x="513.261" y="978.751" width="73.5" height="12" style="fill:rgb(189,0,0);fill-rule:nonzero;"/>
                    </g>
                    <g transform="matrix(1,0,0,1,199.074,-350.552)">
                        <path d="M513.261,978.751L511.011,978.751L511.011,990.751C511.011,991.343 511.251,991.923 511.67,992.342C512.089,992.761 512.668,993.001 513.261,993.001L586.761,993.001C587.353,993.001 587.933,992.761 588.352,992.342C588.771,991.923 589.011,991.343 589.011,990.751L589.011,978.751C589.011,978.158 588.771,977.579 588.352,977.16C587.933,976.741 587.353,976.501 586.761,976.501L513.261,976.501C512.668,976.501 512.089,976.741 511.67,977.16C511.251,977.579 511.011,978.158 511.011,978.751L513.261,978.751L513.261,981.001L584.511,981.001L584.511,988.501L515.511,988.501L515.511,978.751L513.261,978.751L513.261,981.001L513.261,978.751Z" style="fill:rgb(35,31,32);fill-rule:nonzero;"/>
                    </g>
                    <g transform="matrix(1,0,0,1,199.074,-350.552)">
                        <path d="M494,979L492,979L492,991C492,991.527 492.213,992.042 492.586,992.415C492.958,992.787 493.473,993 494,993L514,993C514.526,993 515.042,992.787 515.414,992.415C515.787,992.042 516,991.527 516,991L516,979C516,978.474 515.787,977.959 515.414,977.586C515.042,977.214 514.526,977 514,977L494,977C493.473,977 492.958,977.214 492.586,977.586C492.213,977.959 492,978.474 492,979L494,979L494,981L512,981L512,989L496,989L496,979L494,979L494,981L494,979Z" style="fill:rgb(35,31,32);fill-rule:nonzero;"/>
                    </g>
                    <g transform="matrix(1,0,0,1,199.074,-350.552)">
                        <path d="M603.989,984.03L603.254,982.17L589,987.809L589,981.466L603.396,985.94L603.989,984.03L603.254,982.17L603.989,984.03L604.583,982.12L587.593,976.841C586.987,976.652 586.325,976.764 585.814,977.14C585.303,977.517 585,978.116 585,978.751L585,990.751C585,991.413 585.328,992.032 585.876,992.405C586.423,992.777 587.12,992.854 587.736,992.61L604.725,985.89C605.511,985.579 606.02,984.799 605.988,983.955C605.956,983.11 605.39,982.371 604.583,982.12L603.989,984.03Z" style="fill:rgb(35,31,32);fill-rule:nonzero;"/>
                    </g>
                    <g transform="matrix(1,0,0,1,199.074,-350.552)">
                        <path d="M505,978L505,973L561,973L561,969.001L503,969C502.473,969 501.958,969.214 501.586,969.586C501.213,969.959 501,970.474 501,971L501,978L505,978Z" style="fill:rgb(35,31,32);fill-rule:nonzero;"/>
                    </g>
                </g>
            </g>
            <g transform="matrix(1,0,0,1,61.938,-410.056)">
                <rect x="904.761" y="755.251" width="73.499" height="12" style="fill:rgb(189,0,0);fill-opacity:0.703808;fill-rule:nonzero;"/>
            </g>
            <g transform="matrix(1,0,0,1,61.938,-410.056)">
                <path d="M904.761,755.251L902.511,755.251L902.511,767.251C902.511,767.843 902.751,768.423 903.17,768.842C903.589,769.261 904.168,769.501 904.761,769.501L978.26,769.501C978.853,769.501 979.432,769.261 979.851,768.842C980.27,768.423 980.51,767.843 980.51,767.251L980.51,755.251C980.51,754.658 980.27,754.079 979.851,753.66C979.432,753.241 978.853,753.001 978.26,753.001L904.761,753.001C904.168,753.001 903.589,753.241 903.17,753.66C902.751,754.079 902.511,754.658 902.511,755.251L904.761,755.251L904.761,757.501L976.01,757.501L976.01,765.001L907.011,765.001L907.011,755.251L904.761,755.251L904.761,757.501L904.761,755.251Z" style="fill:rgb(35,31,32);fill-opacity:0.703808;fill-rule:nonzero;"/>
            </g>
            <g transform="matrix(1,0,0,1,61.938,-410.056)">
                <path d="M886,755L884,755L884,767C884,767.527 884.213,768.042 884.586,768.415C884.958,768.787 885.473,769 886,769L905,769C905.527,769 906.042,768.787 906.414,768.415C906.787,768.042 907,767.527 907,767L907,755C907,754.474 906.787,753.959 906.414,753.586C906.042,753.214 905.527,753 905,753L886,753C885.473,753 884.958,753.214 884.586,753.586C884.213,753.959 884,754.474 884,755L886,755L886,757L903,757L903,765L888,765L888,755L886,755L886,757L886,755Z" style="fill:rgb(35,31,32);fill-opacity:0.703808;fill-rule:nonzero;"/>
            </g>
            <g transform="matrix(1,0,0,1,61.938,-410.056)">
                <path d="M995.989,760.53L995.254,758.67L981,764.309L981,757.966L995.396,762.44L995.989,760.53L995.254,758.67L995.989,760.53L996.583,758.62L979.593,753.341C978.987,753.152 978.325,753.264 977.814,753.64C977.303,754.017 977,754.616 977,755.251L977,767.251C977,767.913 977.328,768.532 977.876,768.905C978.423,769.277 979.12,769.354 979.736,769.11L996.725,762.39C997.511,762.079 998.02,761.299 997.988,760.455C997.956,759.61 997.39,758.871 996.583,758.62L995.989,760.53Z" style="fill:rgb(35,31,32);fill-opacity:0.703808;fill-rule:nonzero;"/>
            </g>
            <g transform="matrix(1,0,0,1,61.938,-410.056)">
                <path d="M897,755L897,750L952,750L952,746.001L895,746C894.473,746 893.958,746.214 893.586,746.586C893.213,746.959 893,747.474 893,748L893,755L897,755Z" style="fill:rgb(35,31,32);fill-opacity:0.703808;fill-rule:nonzero;"/>
            </g>
            <g transform="matrix(1,0,0,1,0.5,-405.922)">
                <rect x="237.229" y="728.251" width="73.5" height="12" style="fill:rgb(189,0,0);fill-opacity:0.703808;fill-rule:nonzero;"/>
            </g>
            <g transform="matrix(1,0,0,1,0.5,-405.922)">
                <path d="M310.729,728.251L308.479,728.251L308.479,738.001L239.479,738.001L239.479,730.501L310.729,730.501L310.729,728.251L308.479,728.251L310.729,728.251L310.729,726.001L237.229,726.001C236.636,726.001 236.057,726.241 235.638,726.66C235.219,727.079 234.979,727.658 234.979,728.251L234.979,740.251C234.979,740.843 235.219,741.423 235.638,741.842C236.057,742.261 236.636,742.501 237.229,742.501L310.729,742.501C311.321,742.501 311.901,742.261 312.32,741.842C312.739,741.423 312.979,740.843 312.979,740.251L312.979,728.251C312.979,727.658 312.739,727.079 312.32,726.66C311.901,726.241 311.321,726.001 310.729,726.001L310.729,728.251Z" style="fill:rgb(35,31,32);fill-opacity:0.703808;fill-rule:nonzero;"/>
            </g>
            <g transform="matrix(1,0,0,1,0.5,-405.922)">
                <path d="M329,728L327,728L327,738L312,738L312,730L329,730L329,728L327,728L329,728L329,726L310,726C309.473,726 308.958,726.214 308.586,726.586C308.213,726.959 308,727.474 308,728L308,740C308,740.527 308.213,741.042 308.586,741.415C308.958,741.787 309.473,742 310,742L329,742C329.527,742 330.042,741.787 330.414,741.415C330.787,741.042 331,740.527 331,740L331,728C331,727.474 330.787,726.959 330.414,726.586C330.042,726.214 329.527,726 329,726L329,728Z" style="fill:rgb(35,31,32);fill-opacity:0.703808;fill-rule:nonzero;"/>
            </g>
            <g transform="matrix(1,0,0,1,0.5,-405.922)">
                <path d="M219.011,733.53L218.275,735.39L235.264,742.11C235.88,742.354 236.577,742.277 237.124,741.905C237.672,741.532 238,740.913 238,740.251L238,728.251C238,727.616 237.697,727.017 237.186,726.64C236.675,726.264 236.013,726.152 235.407,726.341L218.417,731.62C217.61,731.871 217.044,732.61 217.012,733.455C216.98,734.299 217.489,735.079 218.275,735.39L219.011,733.53L219.604,735.44L234,730.966L234,737.309L219.746,731.67L219.011,733.53L219.604,735.44L219.011,733.53Z" style="fill:rgb(35,31,32);fill-opacity:0.703808;fill-rule:nonzero;"/>
            </g>
            <g transform="matrix(1,0,0,1,0.5,-405.922)">
                <path d="M322,728L322,721C322,720.474 321.787,719.959 321.414,719.586C321.042,719.214 320.527,719 320,719L262,719L262,723L318,723L318,728L322,728Z" style="fill:rgb(35,31,32);fill-opacity:0.703808;fill-rule:nonzero;"/>
            </g>
            <g transform="matrix(1,0,0,1,0.5,-405.922)">
                <path d="M1082,914L1080,914L1080,947C1080,947.527 1080.21,948.042 1080.59,948.415C1080.96,948.787 1081.47,949 1082,949L1103,949L1103,959.138C1103,959.934 1103.47,960.649 1104.2,960.969C1104.93,961.289 1105.77,961.149 1106.35,960.61L1118.97,949L1129,949C1129.53,949 1130.04,948.787 1130.41,948.415C1130.79,948.042 1131,947.527 1131,947L1131,914C1131,913.474 1130.79,912.959 1130.41,912.586C1130.04,912.214 1129.53,912 1129,912L1082,912C1081.47,912 1080.96,912.214 1080.59,912.586C1080.21,912.959 1080,913.474 1080,914L1082,914L1082,916L1127,916L1127,945L1118.19,945C1117.68,945 1117.2,945.188 1116.83,945.529L1107,954.579L1107,947C1107,946.474 1106.79,945.959 1106.41,945.586C1106.04,945.214 1105.53,945 1105,945L1084,945L1084,914L1082,914L1082,916L1082,914Z" style="fill:rgb(35,31,32);fill-opacity:0.703808;fill-rule:nonzero;"/>
            </g>
            <g transform="matrix(1,0,0,1,0.5,-405.922)">
                <path d="M72,849L72,858L76,858L76,849" style="fill:rgb(35,31,32);fill-opacity:0.703808;fill-rule:nonzero;"/>
            </g>
            <g transform="matrix(1,0,0,1,0.5,-405.922)">
                <path d="M72,866L72,873L76,873L76,866" style="fill:rgb(35,31,32);fill-opacity:0.703808;fill-rule:nonzero;"/>
            </g>
            <g transform="matrix(1,0,0,1,0.5,-405.922)">
                <path d="M61,864L69,864L69,860L61,860" style="fill:rgb(35,31,32);fill-opacity:0.703808;fill-rule:nonzero;"/>
            </g>
            <g transform="matrix(1,0,0,1,0.5,-405.922)">
                <path d="M79,864L87,864L87,860L79,860" style="fill:rgb(35,31,32);fill-opacity:0.703808;fill-rule:nonzero;"/>
            </g>
            <g transform="matrix(1,0,0,1,0.5,-405.922)">
                <path d="M309,963L309,972L313,972L313,963" style="fill:rgb(35,31,32);fill-opacity:0.703808;fill-rule:nonzero;"/>
            </g>
            <g transform="matrix(1,0,0,1,0.5,-405.922)">
                <path d="M309,980L309,987L313,987L313,980" style="fill:rgb(35,31,32);fill-opacity:0.703808;fill-rule:nonzero;"/>
            </g>
            <g transform="matrix(1,0,0,1,0.5,-405.922)">
                <path d="M298,978L306,978L306,974L298,974" style="fill:rgb(35,31,32);fill-opacity:0.703808;fill-rule:nonzero;"/>
            </g>
            <g transform="matrix(1,0,0,1,0.5,-405.922)">
                <path d="M316,978L324,978L324,974L316,974" style="fill:rgb(35,31,32);fill-opacity:0.703808;fill-rule:nonzero;"/>
            </g>
            <g transform="matrix(1,0,0,1,0.5,-405.922)">
                <path d="M465,783L465,792L469,792L469,783" style="fill:rgb(35,31,32);fill-opacity:0.703808;fill-rule:nonzero;"/>
            </g>
            <g transform="matrix(1,0,0,1,0.5,-405.922)">
                <path d="M465,800L465,807L469,807L469,800" style="fill:rgb(35,31,32);fill-opacity:0.703808;fill-rule:nonzero;"/>
            </g>
            <g transform="matrix(1,0,0,1,0.5,-405.922)">
                <path d="M454,798L462,798L462,794L454,794" style="fill:rgb(35,31,32);fill-opacity:0.703808;fill-rule:nonzero;"/>
            </g>
            <g transform="matrix(1,0,0,1,0.5,-405.922)">
                <path d="M472,798L480,798L480,794L472,794" style="fill:rgb(35,31,32);fill-opacity:0.703808;fill-rule:nonzero;"/>
            </g>
        </g>
    </g>
</svg>
