<?xml version="1.0" encoding="UTF-8" standalone="no"?>
<!DOCTYPE svg PUBLIC "-//W3C//DTD SVG 1.1//EN" "http://www.w3.org/Graphics/SVG/1.1/DTD/svg11.dtd">
<svg width="100%" height="100%" viewBox="0 0 1095 318" version="1.1" xmlns="http://www.w3.org/2000/svg" xmlns:xlink="http://www.w3.org/1999/xlink" xml:space="preserve" xmlns:serif="http://www.serif.com/" style="fill-rule:evenodd;clip-rule:evenodd;stroke-linejoin:round;stroke-miterlimit:1.41421;">
    <g>
        <g opacity="0.698373">
            <path d="M1091.35,91.042C1091.35,135.312 1055.46,171.201 1011.19,171.201C966.919,171.201 931.033,135.312 931.033,91.042C931.033,46.771 966.919,10.883 1011.19,10.883C1055.46,10.883 1091.35,46.771 1091.35,91.042Z" style="fill:#bd0000;fill-rule:nonzero;"/>
            <path d="M1059.51,90.105C1059.51,116.271 1038.29,137.483 1012.13,137.483C985.959,137.483 964.749,116.271 964.749,90.105C964.749,63.94 985.959,42.728 1012.13,42.728C1038.29,42.728 1059.51,63.94 1059.51,90.105Z" style="fill:#fff;fill-rule:nonzero;"/>
            <path d="M160.318,233.159C160.318,277.429 124.429,313.318 80.16,313.318C35.889,313.318 0,277.429 0,233.159C0,188.888 35.889,153 80.16,153C124.429,153 160.318,188.888 160.318,233.159Z" style="fill:#bd0000;fill-rule:nonzero;"/>
            <path d="M128.473,232.222C128.473,258.388 107.261,279.6 81.096,279.6C54.931,279.6 33.718,258.388 33.718,232.222C33.718,206.057 54.931,184.845 81.096,184.845C107.261,184.845 128.473,206.057 128.473,232.222Z" style="fill:#fff;fill-rule:nonzero;"/>
            <path d="M141.313,14.065L164.04,121.468L190.159,95.347L236.343,141.529L272.256,105.608L226.074,59.433L248.7,36.799L141.313,14.065Z" style="fill:#111;fill-opacity:0.25;fill-rule:nonzero;"/>
            <path d="M888.271,158.194L780.62,181.17L806.551,207.101L760.865,252.787L796.881,288.795L843.104,242.66L865.638,265.434L888.271,158.194Z" style="fill:#111;fill-opacity:0.25;fill-rule:nonzero;"/>
            <path d="M429.351,101.888L368.935,114.933L383.41,129.408L358.233,154.586L378.398,174.747L404.264,148.944L416.779,161.784L429.351,101.888Z" style="fill:#111;fill-opacity:0.25;fill-rule:nonzero;"/>
            <path d="M835.443,44.865L848.488,105.281L862.963,90.805L888.141,115.983L908.302,95.818L882.498,69.952L895.339,57.436L835.443,44.865Z" style="fill:#111;fill-opacity:0.25;fill-rule:nonzero;"/>
            <path d="M643.534,167.999L671.876,167.999L671.876,118.999L643.534,118.999C643.295,118.999 638.166,107.144 637.789,106.427L658.642,86.211L622.479,50.368L600.676,71.384C599.967,71.006 588.876,66.038 585.876,65.801L585.876,38L534.876,38L534.876,65.801C534.876,66.038 522.602,71.166 521.896,71.543L501.478,50.683L465.534,86.853L486.497,106.427C486.123,107.144 481.104,118.999 480.86,118.999L450.876,118.999L450.876,167.999L480.86,167.999C481.104,175.999 486.23,183.506 486.605,184.207L465.755,206.235L501.916,242.991L521.896,222.428C522.602,222.803 534.876,228.224 534.876,228.465L534.876,257.999L585.876,257.999L585.876,228.465C588.876,228.224 599.967,223.095 600.676,222.722L622.002,243.577L658.407,207.414L637.668,184.207C638.045,183.506 643.295,175.999 643.534,167.999Z" style="fill:#bd0000;fill-rule:nonzero;"/>
            <path d="M587.769,147.132C587.769,161.261 576.324,172.711 562.199,172.711C548.069,172.711 536.621,161.261 536.621,147.132C536.621,133.008 548.069,121.561 562.199,121.561C576.324,121.561 587.769,133.008 587.769,147.132Z" style="fill:#fff;fill-rule:nonzero;"/>
            <rect x="131.491" y="107.999" width="76.385" height="97" style="fill:#bd0000;fill-rule:nonzero;"/>
            <path d="M68.876,197.999L80.876,197.999L80.876,193.999L68.876,193.999" style="fill:#000111;fill-rule:nonzero;"/>
            <path d="M206.876,57L206.876,98.999L210.876,98.999L210.876,57" style="fill:#000111;fill-rule:nonzero;"/>
            <path d="M68.876,48L198.876,48L198.876,44L68.876,44" style="fill:#000111;fill-rule:nonzero;"/>
            <path d="M60.876,185.999L60.876,56L56.876,56L56.876,185.999" style="fill:#000111;fill-rule:nonzero;"/>
            <path d="M69.876,55L69.876,53L51.876,53L51.876,37L67.876,37L67.876,55L69.876,55L69.876,53L69.876,55L71.876,55L71.876,35C71.876,34.473 71.663,33.958 71.29,33.585C70.918,33.213 70.403,33 69.876,33L49.876,33C49.349,33 48.834,33.213 48.461,33.585C48.089,33.958 47.876,34.473 47.876,35L47.876,55C47.876,55.526 48.089,56.041 48.461,56.414C48.834,56.786 49.349,57 49.876,57L69.876,57C70.403,57 70.918,56.786 71.29,56.414C71.663,56.041 71.876,55.526 71.876,55L69.876,55Z" style="fill:#000111;fill-rule:nonzero;"/>
            <path d="M219.876,56L219.876,54L201.876,54L201.876,38.999L217.876,38.999L217.876,56L219.876,56L219.876,54L219.876,56L221.876,56L221.876,37C221.876,36.473 221.663,35.958 221.29,35.585C220.918,35.213 220.403,35 219.876,35L199.876,35C199.349,35 198.834,35.213 198.462,35.585C198.089,35.958 197.876,36.473 197.876,37L197.876,56C197.876,56.526 198.089,57.041 198.462,57.414C198.834,57.786 199.349,58 199.876,58L219.876,58C220.403,58 220.918,57.786 221.29,57.414C221.663,57.041 221.876,56.526 221.876,56L219.876,56Z" style="fill:#000111;fill-rule:nonzero;"/>
            <path d="M69.876,204.999L69.876,202.999L51.876,202.999L51.876,186.999L67.876,186.999L67.876,204.999L69.876,204.999L69.876,202.999L69.876,204.999L71.876,204.999L71.876,184.999C71.876,184.473 71.663,183.958 71.29,183.585C70.918,183.213 70.403,182.999 69.876,182.999L49.876,182.999C49.349,182.999 48.834,183.213 48.461,183.585C48.089,183.958 47.876,184.473 47.876,184.999L47.876,204.999C47.876,205.526 48.089,206.041 48.461,206.414C48.834,206.786 49.349,206.999 49.876,206.999L69.876,206.999C70.403,206.999 70.918,206.786 71.29,206.414C71.663,206.041 71.876,205.526 71.876,204.999L69.876,204.999Z" style="fill:#000111;fill-rule:nonzero;"/>
            <rect x="56.126" y="41.25" width="7.5" height="7.5" style="fill:#111;fill-rule:nonzero;"/>
            <rect x="56.126" y="191.25" width="7.5" height="7.5" style="fill:#111;fill-rule:nonzero;"/>
            <path d="M1043.88,110.999L1031.88,110.999L1031.88,114.999L1043.88,114.999" style="fill:#000111;fill-rule:nonzero;"/>
            <path d="M905.876,251.999L905.876,239.999L901.876,239.999L901.876,251.999" style="fill:#000111;fill-rule:nonzero;"/>
            <path d="M1043.88,260.999L912.876,260.999L912.876,264.999L1043.88,264.999" style="fill:#000111;fill-rule:nonzero;"/>
            <path d="M1051.88,122.999L1051.88,253.999L1055.88,253.999L1055.88,122.999" style="fill:#000111;fill-rule:nonzero;"/>
            <path d="M1042.88,253.999L1042.88,255.999L1060.88,255.999L1060.88,271.999L1044.88,271.999L1044.88,253.999L1042.88,253.999L1042.88,255.999L1042.88,253.999L1040.88,253.999L1040.88,273.999C1040.88,274.526 1041.09,275.041 1041.47,275.414C1041.84,275.786 1042.35,275.999 1042.88,275.999L1062.88,275.999C1063.41,275.999 1063.92,275.786 1064.29,275.414C1064.67,275.041 1064.88,274.526 1064.88,273.999L1064.88,253.999C1064.88,253.473 1064.67,252.958 1064.29,252.585C1063.92,252.213 1063.41,251.999 1062.88,251.999L1042.88,251.999C1042.35,251.999 1041.84,252.213 1041.47,252.585C1041.09,252.958 1040.88,253.473 1040.88,253.999L1042.88,253.999Z" style="fill:#000111;fill-rule:nonzero;"/>
            <path d="M892.876,252.999L892.876,254.999L910.876,254.999L910.876,269.999L894.876,269.999L894.876,252.999L892.876,252.999L892.876,254.999L892.876,252.999L890.876,252.999L890.876,271.999C890.876,272.526 891.089,273.041 891.462,273.414C891.834,273.786 892.349,273.999 892.876,273.999L912.876,273.999C913.403,273.999 913.918,273.786 914.29,273.414C914.663,273.041 914.876,272.526 914.876,271.999L914.876,252.999C914.876,252.473 914.663,251.958 914.29,251.585C913.918,251.213 913.403,250.999 912.876,250.999L892.876,250.999C892.349,250.999 891.834,251.213 891.462,251.585C891.089,251.958 890.876,252.473 890.876,252.999L892.876,252.999Z" style="fill:#000111;fill-rule:nonzero;"/>
            <path d="M1042.88,103.999L1042.88,105.999L1060.88,105.999L1060.88,121.999L1044.88,121.999L1044.88,103.999L1042.88,103.999L1042.88,105.999L1042.88,103.999L1040.88,103.999L1040.88,123.999C1040.88,124.526 1041.09,125.041 1041.47,125.414C1041.84,125.786 1042.35,125.999 1042.88,125.999L1062.88,125.999C1063.41,125.999 1063.92,125.786 1064.29,125.414C1064.67,125.041 1064.88,124.526 1064.88,123.999L1064.88,103.999C1064.88,103.473 1064.67,102.958 1064.29,102.585C1063.92,102.213 1063.41,101.999 1062.88,101.999L1042.88,101.999C1042.35,101.999 1041.84,102.213 1041.47,102.585C1041.09,102.958 1040.88,103.473 1040.88,103.999L1042.88,103.999Z" style="fill:#000111;fill-rule:nonzero;"/>
            <rect x="1049.13" y="260.25" width="7.5" height="7.5" style="fill:#111;fill-rule:nonzero;"/>
            <rect x="1049.13" y="110.25" width="7.5" height="7.5" style="fill:#111;fill-rule:nonzero;"/>
            <rect x="899.126" y="259.125" width="7.5" height="7.5" style="fill:#111;fill-rule:nonzero;"/>
            <path d="M437.179,120.996C437.18,113.131 438.738,106.022 441.664,99.718C446.055,90.268 453.534,82.579 463.709,76.985C473.88,71.397 486.75,67.943 501.753,67.103L501.501,62.61C480.784,63.773 463.63,69.747 451.564,79.811C445.536,84.84 440.797,90.896 437.582,97.823C434.366,104.749 432.677,112.536 432.679,120.996L437.179,120.996Z" style="fill:#000111;fill-rule:nonzero;"/>
            <path d="M516.625,66.901L583.376,66.901L583.376,62.401L516.625,62.401" style="fill:#000111;fill-rule:nonzero;"/>
            <path d="M431.876,66.901L501.622,66.901L501.622,62.401L431.876,62.401" style="fill:#000111;fill-rule:nonzero;"/>
            <path d="M432.876,72.999L432.876,70.999L419.876,70.999L419.876,60L430.876,60L430.876,72.999L432.876,72.999L432.876,70.999L432.876,72.999L434.876,72.999L434.876,58C434.876,57.473 434.663,56.958 434.29,56.585C433.918,56.213 433.403,56 432.876,56L417.876,56C417.349,56 416.834,56.213 416.462,56.585C416.089,56.958 415.876,57.473 415.876,58L415.876,72.999C415.876,73.526 416.089,74.041 416.462,74.414C416.834,74.786 417.349,74.999 417.876,74.999L432.876,74.999C433.403,74.999 433.918,74.786 434.29,74.414C434.663,74.041 434.876,73.526 434.876,72.999L432.876,72.999Z" style="fill:#000111;fill-rule:nonzero;"/>
            <path d="M597.876,72.999L597.876,70.999L584.876,70.999L584.876,60L595.876,60L595.876,72.999L597.876,72.999L597.876,70.999L597.876,72.999L599.876,72.999L599.876,58C599.876,57.473 599.663,56.958 599.29,56.585C598.918,56.213 598.403,56 597.876,56L582.876,56C582.349,56 581.834,56.213 581.462,56.585C581.089,56.958 580.876,57.473 580.876,58L580.876,72.999C580.876,73.526 581.089,74.041 581.462,74.414C581.834,74.786 582.349,74.999 582.876,74.999L597.876,74.999C598.403,74.999 598.918,74.786 599.29,74.414C599.663,74.041 599.876,73.526 599.876,72.999L597.876,72.999Z" style="fill:#000111;fill-rule:nonzero;"/>
            <path d="M516.876,72.999L516.876,70.999L503.876,70.999L503.876,60L514.876,60L514.876,72.999L516.876,72.999L516.876,70.999L516.876,72.999L518.876,72.999L518.876,58C518.876,57.473 518.663,56.958 518.29,56.585C517.918,56.213 517.403,56 516.876,56L501.876,56C501.349,56 500.834,56.213 500.462,56.585C500.089,56.958 499.876,57.473 499.876,58L499.876,72.999C499.876,73.526 500.089,74.041 500.462,74.414C500.834,74.786 501.349,74.999 501.876,74.999L516.876,74.999C517.403,74.999 517.918,74.786 518.29,74.414C518.663,74.041 518.876,73.526 518.876,72.999L516.876,72.999Z" style="fill:#000111;fill-rule:nonzero;"/>
            <path d="M441.876,135.999L441.876,133.999L428.876,133.999L428.876,122.999L439.876,122.999L439.876,135.999L441.876,135.999L441.876,133.999L441.876,135.999L443.876,135.999L443.876,120.999C443.876,120.473 443.663,119.958 443.29,119.585C442.918,119.213 442.403,118.999 441.876,118.999L426.876,118.999C426.349,118.999 425.834,119.213 425.462,119.585C425.089,119.958 424.876,120.473 424.876,120.999L424.876,135.999C424.876,136.526 425.089,137.041 425.462,137.414C425.834,137.786 426.349,137.999 426.876,137.999L441.876,137.999C442.403,137.999 442.918,137.786 443.29,137.414C443.663,137.041 443.876,136.526 443.876,135.999L441.876,135.999Z" style="fill:#000111;fill-rule:nonzero;"/>
            <path d="M621.876,231.432L623.387,230.121L609.876,214.55L609.876,162.999L619.876,162.999L619.876,231.432L621.876,231.432L623.387,230.121L621.876,231.432L623.876,231.432L623.876,160.999C623.876,160.473 623.663,159.958 623.29,159.585C622.918,159.213 622.403,158.999 621.876,158.999L607.876,158.999C607.349,158.999 606.834,159.213 606.462,159.585C606.089,159.958 605.876,160.473 605.876,160.999L605.876,215.297C605.876,215.776 606.051,216.246 606.365,216.607L620.365,232.743C620.911,233.372 621.795,233.597 622.575,233.306C623.356,233.014 623.876,232.265 623.876,231.432L621.876,231.432Z" style="fill:#000111;fill-rule:nonzero;"/>
            <path d="M631.876,231.432L633.341,232.794L648.341,216.658C648.683,216.29 648.876,215.8 648.876,215.297L648.876,160.999C648.876,160.473 648.663,159.958 648.29,159.585C647.918,159.213 647.403,158.999 646.876,158.999L631.876,158.999C631.349,158.999 630.834,159.213 630.462,159.585C630.089,159.958 629.876,160.473 629.876,160.999L629.876,231.432C629.876,232.253 630.38,232.993 631.144,233.293C631.909,233.594 632.782,233.395 633.341,232.794L631.876,231.432L633.876,231.432L633.876,162.999L644.876,162.999L644.876,214.511L630.411,230.07L631.876,231.432L633.876,231.432L631.876,231.432Z" style="fill:#000111;fill-rule:nonzero;"/>
            <path d="M619.876,230.999L619.876,239.999L623.876,239.999L623.876,230.999" style="fill:#000111;fill-rule:nonzero;"/>
            <path d="M629.876,230.999L629.876,239.999L633.876,239.999L633.876,230.999" style="fill:#000111;fill-rule:nonzero;"/>
            <path d="M637.876,144.999L639.876,144.999L639.876,121.999C639.876,121.473 639.663,120.958 639.29,120.585C638.918,120.213 638.403,119.999 637.876,119.999L615.876,119.999C615.349,119.999 614.834,120.213 614.462,120.585C614.089,120.958 613.876,121.473 613.876,121.999L613.876,142.999L607.876,142.999C607.349,142.999 606.834,143.213 606.462,143.585C606.089,143.958 605.876,144.473 605.876,144.999L605.876,160.999C605.876,161.526 606.089,162.041 606.462,162.414C606.834,162.786 607.349,162.999 607.876,162.999L646.876,162.999C647.403,162.999 647.918,162.786 648.29,162.414C648.662,162.041 648.876,161.526 648.876,160.999L648.876,144.999C648.876,144.473 648.663,143.958 648.29,143.585C647.918,143.213 647.403,142.999 646.876,142.999L637.876,142.999L637.876,144.999L639.876,144.999L637.876,144.999L637.876,146.999L644.876,146.999L644.876,158.999L609.876,158.999L609.876,146.999L615.876,146.999C616.403,146.999 616.918,146.786 617.29,146.414C617.663,146.041 617.876,145.526 617.876,144.999L617.876,123.999L635.876,123.999L635.876,144.999C635.876,145.526 636.089,146.041 636.462,146.414C636.834,146.786 637.349,146.999 637.876,146.999L637.876,144.999Z" style="fill:#000111;fill-rule:nonzero;"/>
            <path d="M615.876,146.999L627.876,146.999L627.876,142.999L615.876,142.999" style="fill:#000111;fill-rule:nonzero;"/>
            <path d="M624.876,134.999L630.876,134.999L630.876,130.999L624.876,130.999" style="fill:#000111;fill-rule:nonzero;"/>
            <path d="M572.876,242.999L686.876,242.999L686.876,238.999L572.876,238.999" style="fill:#000111;fill-rule:nonzero;"/>
            <path d="M947.626,177.75C947.626,194.94 961.686,208.875 978.876,208.875C996.065,208.875 1010.07,194.94 1010.07,177.75C1010.07,164.39 1001.88,153.032 989.876,148.617L989.876,139.999L966.876,139.999L966.876,148.891C955.876,153.499 947.626,164.673 947.626,177.75Z" style="fill:#bd0000;fill-rule:nonzero;"/>
            <path d="M990.876,138.999L990.876,136.999L969.876,136.999L969.876,126.999L988.876,126.999L988.876,138.999L990.876,138.999L990.876,136.999L990.876,138.999L992.876,138.999L992.876,124.999C992.876,124.473 992.666,123.958 992.286,123.585C991.916,123.213 991.406,122.999 990.876,122.999L967.876,122.999C967.346,122.999 966.836,123.213 966.466,123.585C966.086,123.958 965.876,124.473 965.876,124.999L965.876,138.999C965.876,139.526 966.086,140.041 966.466,140.414C966.836,140.786 967.346,140.999 967.876,140.999L990.876,140.999C991.406,140.999 991.916,140.786 992.286,140.414C992.666,140.041 992.876,139.526 992.876,138.999L990.876,138.999Z" style="fill:#000111;fill-rule:nonzero;"/>
            <path d="M976.876,137.999L976.876,178.999L980.876,178.999L980.876,137.999" style="fill:#000111;fill-rule:nonzero;"/>
            <path d="M972.996,183.061L975.246,183.061C975.256,182.209 975.585,181.458 976.146,180.897C976.705,180.339 977.455,180.001 978.315,180C979.166,180.001 979.916,180.339 980.476,180.897C981.036,181.458 981.376,182.209 981.376,183.061C981.376,183.915 981.036,184.666 980.476,185.227C979.916,185.785 979.166,186.123 978.315,186.124C977.455,186.123 976.705,185.785 976.146,185.227C975.585,184.666 975.256,183.915 975.246,183.061L972.996,183.061L970.746,183.061C970.756,187.24 974.136,190.623 978.315,190.624C982.486,190.623 985.876,187.24 985.876,183.061C985.876,178.883 982.486,175.501 978.315,175.5C974.136,175.501 970.756,178.883 970.746,183.061L972.996,183.061Z" style="fill:#000111;fill-rule:nonzero;"/>
            <path d="M989.876,115.999L966.876,115.999L966.876,119.999L989.876,119.999" style="fill:#000111;fill-rule:nonzero;"/>
            <path d="M989.876,107.999L966.876,107.999L966.876,111.999L989.876,111.999" style="fill:#000111;fill-rule:nonzero;"/>
            <path d="M980.876,109.999L980.876,68L976.876,68L976.876,109.999" style="fill:#000111;fill-rule:nonzero;"/>
            <path d="M674.536,152.97C674.546,127.999 684.511,106.54 701.383,91.218C718.258,75.908 742.095,66.752 769.899,66.75C783.078,66.748 796.932,69.296 809.736,73.848C822.54,78.397 834.291,84.954 843.291,92.878L846.264,89.5C836.73,81.114 824.51,74.326 811.243,69.608C797.975,64.894 783.656,62.251 769.899,62.25C741.112,62.247 716.142,71.75 698.359,87.886C680.571,104.011 670.026,126.788 670.036,152.97L674.536,152.97Z" style="fill:#000111;fill-rule:nonzero;"/>
            <path d="M400.876,79.999L400.876,77.999L264.876,77.999L264.876,66.999L398.876,66.999L398.876,79.999L400.876,79.999L400.876,77.999L400.876,79.999L402.876,79.999L402.876,65C402.876,64.473 402.663,63.958 402.29,63.585C401.918,63.213 401.403,63 400.876,63L262.876,63C262.349,63 261.834,63.213 261.462,63.585C261.089,63.958 260.876,64.473 260.876,65L260.876,79.999C260.876,80.526 261.089,81.041 261.462,81.414C261.834,81.786 262.349,81.999 262.876,81.999L400.876,81.999C401.403,81.999 401.918,81.786 402.29,81.414C402.663,81.041 402.876,80.526 402.876,79.999L400.876,79.999Z" style="fill:#000111;fill-rule:nonzero;"/>
            <path d="M270.876,74.999L275.876,74.999L275.876,70.999L270.876,70.999" style="fill:#000111;fill-rule:nonzero;"/>
            <path d="M279.876,74.999L284.876,74.999L284.876,70.999L279.876,70.999" style="fill:#000111;fill-rule:nonzero;"/>
            <path d="M368.876,74.999L393.876,74.999L393.876,70.999L368.876,70.999" style="fill:#000111;fill-rule:nonzero;"/>
            <path d="M216.876,202.999L216.876,200.999L108.876,200.999L108.876,92.999L214.876,92.999L214.876,202.999L216.876,202.999L216.876,200.999L216.876,202.999L218.876,202.999L218.876,90.999C218.876,90.473 218.663,89.958 218.29,89.585C217.918,89.213 217.403,88.999 216.876,88.999L106.876,88.999C106.349,88.999 105.834,89.213 105.462,89.585C105.089,89.958 104.876,90.473 104.876,90.999L104.876,202.999C104.876,203.526 105.089,204.041 105.462,204.414C105.834,204.786 106.349,204.999 106.876,204.999L216.876,204.999C217.403,204.999 217.918,204.786 218.29,204.414C218.663,204.041 218.876,203.526 218.876,202.999L216.876,202.999Z" style="fill:#000111;fill-rule:nonzero;"/>
            <path d="M107.876,102.999L216.876,102.999L216.876,98.999L107.876,98.999" style="fill:#000111;fill-rule:nonzero;"/>
            <path d="M186.113,146.999L186.113,165.999L190.113,165.999L190.113,146.999" style="fill:#000111;fill-rule:nonzero;"/>
            <path d="M178.613,158.499L197.613,158.499L197.613,154.499L178.613,154.499" style="fill:#000111;fill-rule:nonzero;"/>
            <path d="M882.876,162.999L882.876,160.999L864.876,160.999L864.876,68.999L880.876,68.999L880.876,162.999L882.876,162.999L882.876,160.999L882.876,162.999L884.876,162.999L884.876,67C884.876,66.473 884.663,65.958 884.29,65.585C883.918,65.213 883.403,65 882.876,65L862.876,65C862.349,65 861.834,65.213 861.462,65.585C861.089,65.958 860.876,66.473 860.876,67L860.876,162.999C860.876,163.526 861.089,164.041 861.462,164.414C861.834,164.786 862.349,164.999 862.876,164.999L882.876,164.999C883.403,164.999 883.918,164.786 884.29,164.414C884.663,164.041 884.876,163.526 884.876,162.999L882.876,162.999Z" style="fill:#000111;fill-rule:nonzero;"/>
            <path d="M863.876,80.999L882.876,80.999L882.876,76.999L863.876,76.999" style="fill:#000111;fill-rule:nonzero;"/>
            <path d="M863.876,92.999L882.876,92.999L882.876,88.999L863.876,88.999" style="fill:#000111;fill-rule:nonzero;"/>
            <path d="M863.876,104.999L882.876,104.999L882.876,100.999L863.876,100.999" style="fill:#000111;fill-rule:nonzero;"/>
            <path d="M863.876,116.999L882.876,116.999L882.876,112.999L863.876,112.999" style="fill:#000111;fill-rule:nonzero;"/>
            <path d="M863.876,128.999L882.876,128.999L882.876,124.999L863.876,124.999" style="fill:#000111;fill-rule:nonzero;"/>
            <path d="M863.876,140.999L882.876,140.999L882.876,136.999L863.876,136.999" style="fill:#000111;fill-rule:nonzero;"/>
            <path d="M863.876,152.999L882.876,152.999L882.876,148.999L863.876,148.999" style="fill:#000111;fill-rule:nonzero;"/>
            <path d="M869.876,77.999L869.876,163.999L873.876,163.999L873.876,77.999" style="fill:#000111;fill-rule:nonzero;"/>
            <rect x="128.408" y="286.125" width="73.5" height="12" style="fill:#bd0000;fill-rule:nonzero;"/>
            <path d="M128.408,286.125L126.158,286.125L126.158,298.125C126.158,298.717 126.398,299.297 126.817,299.716C127.236,300.135 127.816,300.375 128.408,300.375L201.908,300.375C202.501,300.375 203.08,300.135 203.499,299.716C203.918,299.297 204.158,298.717 204.158,298.125L204.158,286.125C204.158,285.532 203.918,284.953 203.499,284.534C203.08,284.115 202.501,283.875 201.908,283.875L128.408,283.875C127.816,283.875 127.236,284.115 126.817,284.534C126.398,284.953 126.158,285.532 126.158,286.125L128.408,286.125L128.408,288.375L199.658,288.375L199.658,295.875L130.658,295.875L130.658,286.125L128.408,286.125L128.408,288.375L128.408,286.125Z" style="fill:#000111;fill-rule:nonzero;"/>
            <path d="M110.408,286.125L108.158,286.125L108.158,298.125C108.158,298.717 108.398,299.297 108.817,299.716C109.236,300.135 109.816,300.375 110.408,300.375L128.408,300.375C129.001,300.375 129.58,300.135 129.999,299.716C130.418,299.297 130.658,298.717 130.658,298.125L130.658,286.125C130.658,285.532 130.418,284.953 129.999,284.534C129.58,284.115 129.001,283.875 128.408,283.875L110.408,283.875C109.816,283.875 109.236,284.115 108.817,284.534C108.398,284.953 108.158,285.532 108.158,286.125L110.408,286.125L110.408,288.375L126.158,288.375L126.158,295.875L112.658,295.875L112.658,286.125L110.408,286.125L110.408,288.375L110.408,286.125Z" style="fill:#000111;fill-rule:nonzero;"/>
            <path d="M219.876,291.404L219.088,289.297L204.158,294.881L204.158,289.131L219.242,293.563L219.876,291.404L219.088,289.297L219.876,291.404L220.51,289.245L202.542,283.966C201.864,283.767 201.126,283.9 200.56,284.323C199.994,284.747 199.658,285.418 199.658,286.125L199.658,298.125C199.658,298.862 200.02,299.553 200.626,299.974C201.232,300.394 202.006,300.49 202.696,300.232L220.664,293.511C221.574,293.171 222.16,292.294 222.124,291.323C222.089,290.352 221.442,289.519 220.51,289.245L219.876,291.404Z" style="fill:#000111;fill-rule:nonzero;"/>
            <path d="M121.658,285.375L121.658,280.875L177.158,280.875L177.158,276.375L119.408,276.375C118.816,276.375 118.236,276.615 117.817,277.034C117.398,277.453 117.158,278.032 117.158,278.625L117.158,285.375L121.658,285.375Z" style="fill:#000111;fill-rule:nonzero;"/>
            <path d="M203.876,312L209.876,312L209.876,307.5L203.876,307.5" style="fill:#000111;fill-rule:nonzero;"/>
            <path d="M218.876,312L224.876,312L224.876,307.5L218.876,307.5" style="fill:#000111;fill-rule:nonzero;"/>
            <path d="M233.876,312L239.876,312L239.876,307.5L233.876,307.5" style="fill:#000111;fill-rule:nonzero;"/>
            <path d="M203.876,276L209.876,276L209.876,271.5L203.876,271.5" style="fill:#000111;fill-rule:nonzero;"/>
            <path d="M218.876,276L224.876,276L224.876,271.5L218.876,271.5" style="fill:#000111;fill-rule:nonzero;"/>
            <path d="M233.876,276L239.876,276L239.876,271.5L233.876,271.5" style="fill:#000111;fill-rule:nonzero;"/>
            <path d="M225.876,293.999L240.876,293.999L240.876,289.999L225.876,289.999" style="fill:#000111;fill-rule:nonzero;"/>
            <path d="M238.876,284.999L238.876,298.999L242.876,298.999L242.876,284.999" style="fill:#000111;fill-rule:nonzero;"/>
            <rect x="708.876" y="3" width="39" height="35" style="fill:#fff;fill-rule:nonzero;"/>
            <path d="M746.876,0L740.876,0L740.876,4.5L746.876,4.5" style="fill:#000111;fill-rule:nonzero;"/>
            <path d="M731.876,0L725.876,0L725.876,4.5L731.876,4.5" style="fill:#000111;fill-rule:nonzero;"/>
            <path d="M716.876,0L710.876,0L710.876,4.5L716.876,4.5" style="fill:#000111;fill-rule:nonzero;"/>
            <path d="M746.876,35.25L740.876,35.25L740.876,39.75L746.876,39.75" style="fill:#000111;fill-rule:nonzero;"/>
            <path d="M731.876,35.25L725.876,35.25L725.876,39.75L731.876,39.75" style="fill:#000111;fill-rule:nonzero;"/>
            <path d="M716.876,35.25L710.876,35.25L710.876,39.75L716.876,39.75" style="fill:#000111;fill-rule:nonzero;"/>
            <path d="M723.876,18L708.876,18L708.876,22L723.876,22" style="fill:#000111;fill-rule:nonzero;"/>
            <path d="M711.876,27L711.876,14L707.876,14L707.876,27" style="fill:#000111;fill-rule:nonzero;"/>
            <rect x="749.126" y="14.25" width="73.5" height="12" style="fill:#000111;fill-rule:nonzero;"/>
            <path d="M822.626,14.25L820.376,14.25L820.376,24L751.376,24L751.376,16.5L822.626,16.5L822.626,14.25L820.376,14.25L822.626,14.25L822.626,12L749.126,12C748.533,12 747.954,12.24 747.535,12.659C747.116,13.078 746.876,13.657 746.876,14.25L746.876,26.25C746.876,26.842 747.116,27.422 747.535,27.841C747.954,28.26 748.533,28.5 749.126,28.5L822.626,28.5C823.218,28.5 823.798,28.26 824.217,27.841C824.636,27.422 824.876,26.842 824.876,26.25L824.876,14.25C824.876,13.657 824.636,13.078 824.217,12.659C823.798,12.24 823.218,12 822.626,12L822.626,14.25Z" style="fill:#000111;fill-rule:nonzero;"/>
            <path d="M840.626,14.25L838.376,14.25L838.376,24L824.876,24L824.876,16.5L840.626,16.5L840.626,14.25L838.376,14.25L840.626,14.25L840.626,12L822.626,12C822.033,12 821.454,12.24 821.035,12.659C820.616,13.078 820.376,13.657 820.376,14.25L820.376,26.25C820.376,26.842 820.616,27.422 821.035,27.841C821.454,28.26 822.033,28.5 822.626,28.5L840.626,28.5C841.218,28.5 841.798,28.26 842.217,27.841C842.636,27.422 842.876,26.842 842.876,26.25L842.876,14.25C842.876,13.657 842.636,13.078 842.217,12.659C841.798,12.24 841.218,12 840.626,12L840.626,14.25Z" style="fill:#000111;fill-rule:nonzero;"/>
            <path d="M731.158,19.529L730.37,21.636L748.338,28.357C749.028,28.615 749.802,28.519 750.408,28.099C751.014,27.678 751.376,26.987 751.376,26.25L751.376,14.25C751.376,13.543 751.04,12.872 750.474,12.448C749.908,12.025 749.17,11.892 748.492,12.091L730.524,17.37C729.591,17.644 728.945,18.477 728.91,19.448C728.875,20.419 729.46,21.296 730.37,21.636L731.158,19.529L731.792,21.688L746.876,17.256L746.876,23.006L731.946,17.422L731.158,19.529L731.792,21.688L731.158,19.529Z" style="fill:#000111;fill-rule:nonzero;"/>
            <path d="M833.876,13.5L833.876,6.75C833.876,6.157 833.636,5.578 833.217,5.159C832.798,4.74 832.218,4.5 831.626,4.5L773.876,4.5L773.876,9L829.376,9L829.376,13.5L833.876,13.5Z" style="fill:#000111;fill-rule:nonzero;"/>
            <path d="M493.385,283.492L471.183,288.19L476.583,293.589L467.037,303.135L474.462,310.56L484.007,301.013L488.686,305.691L493.385,283.492Z" style="fill:#111;fill-opacity:0.25;fill-rule:nonzero;"/>
            <path d="M1067.89,175.492L1045.69,180.19L1051.09,185.589L1041.54,195.135L1048.97,202.56L1058.51,193.013L1063.19,197.691L1067.89,175.492Z" style="fill:#111;fill-opacity:0.25;fill-rule:nonzero;"/>
            <path d="M893.389,7.49L898.087,29.691L903.487,24.291L913.033,33.838L920.457,26.412L910.91,16.867L915.588,12.189L893.389,7.49Z" style="fill:#111;fill-opacity:0.25;fill-rule:nonzero;"/>
            <path d="M321.89,7.49L326.587,29.691L331.987,24.291L341.533,33.838L348.957,26.412L339.411,16.867L344.088,12.189L321.89,7.49Z" style="fill:#111;fill-opacity:0.25;fill-rule:nonzero;"/>
            <path d="M44.389,113.99L49.088,136.191L54.487,130.791L64.033,140.338L71.457,132.912L61.911,123.367L66.588,118.689L44.389,113.99Z" style="fill:#111;fill-opacity:0.25;fill-rule:nonzero;"/>
            <path d="M1031.88,66L942.876,66L942.876,70L1031.88,70" style="fill:#000111;fill-rule:nonzero;"/>
            <path d="M350.876,215.227L429.876,215.227L429.876,273.227L350.876,273.227" style="fill:#bd0000;fill-rule:nonzero;"/>
            <path d="M441.876,207.436L443.876,207.436C443.875,204.006 441.097,201.229 437.667,201.227L324.085,201.227C320.655,201.229 317.877,204.006 317.876,207.436L317.876,279.019C317.877,282.449 320.655,285.226 324.085,285.227L437.667,285.227C441.097,285.226 443.875,282.449 443.876,279.019L443.876,207.436L441.876,207.436L439.876,207.436L439.876,279.019C439.875,279.635 439.632,280.175 439.229,280.581C438.823,280.983 438.284,281.226 437.667,281.227L324.085,281.227C323.468,281.226 322.929,280.983 322.523,280.581C322.12,280.175 321.877,279.635 321.876,279.019L321.876,207.436C321.877,206.82 322.12,206.28 322.523,205.874C322.929,205.472 323.468,205.228 324.085,205.227L437.667,205.227C438.284,205.228 438.823,205.472 439.229,205.874C439.632,206.28 439.875,206.82 439.876,207.436L441.876,207.436Z" style="fill:#000111;fill-rule:nonzero;"/>
            <path d="M347.876,203.227L347.876,282.227L351.876,282.227L351.876,203.227" style="fill:#000111;fill-rule:nonzero;"/>
            <path d="M339.815,242.246C339.815,244.57 337.93,246.455 335.606,246.455C333.282,246.455 331.397,244.57 331.397,242.246C331.397,239.922 333.282,238.038 335.606,238.038C337.93,238.038 339.815,239.922 339.815,242.246Z" style="fill:#bd0000;fill-rule:nonzero;"/>
            <path d="M330.876,262.227L339.876,262.227L339.876,258.227L330.876,258.227" style="fill:#000111;fill-rule:nonzero;"/>
            <path d="M330.876,273.227L339.876,273.227L339.876,269.227L330.876,269.227" style="fill:#000111;fill-rule:nonzero;"/>
            <path d="M330.876,217.227L339.876,217.227L339.876,213.227L330.876,213.227" style="fill:#000111;fill-rule:nonzero;"/>
            <path d="M330.876,228.227L339.876,228.227L339.876,224.227L330.876,224.227" style="fill:#000111;fill-rule:nonzero;"/>
            <path d="M359.876,228.227L359.876,223.227L363.876,223.227L363.876,219.227L357.876,219.227C357.349,219.227 356.834,219.441 356.462,219.813C356.089,220.186 355.876,220.701 355.876,221.227L355.876,228.227L359.876,228.227Z" style="fill:#000111;fill-rule:nonzero;"/>
            <path d="M355.876,257.227L355.876,263.227C355.876,263.754 356.089,264.269 356.462,264.642C356.834,265.014 357.349,265.227 357.876,265.227L363.876,265.227L363.876,261.227L359.876,261.227L359.876,257.227L355.876,257.227Z" style="fill:#000111;fill-rule:nonzero;"/>
            <path d="M421.876,257.227L421.876,261.227L417.876,261.227L417.876,265.227L423.876,265.227C424.403,265.227 424.918,265.014 425.29,264.642C425.663,264.269 425.876,263.754 425.876,263.227L425.876,257.227L421.876,257.227Z" style="fill:#000111;fill-rule:nonzero;"/>
            <path d="M425.876,228.227L425.876,221.227C425.876,220.701 425.663,220.186 425.29,219.813C424.918,219.441 424.403,219.227 423.876,219.227L417.876,219.227L417.876,223.227L421.876,223.227L421.876,228.227L425.876,228.227Z" style="fill:#000111;fill-rule:nonzero;"/>
            <path d="M843.876,259.999L843.876,189.999C843.876,189.473 843.663,188.958 843.29,188.585C842.918,188.213 842.403,187.999 841.876,187.999L783.876,187.999L783.876,162.999C783.876,162.473 783.663,161.958 783.29,161.585C782.918,161.213 782.403,160.999 781.876,160.999L732.876,160.999C732.349,160.999 731.834,161.213 731.462,161.585C731.089,161.958 730.876,162.473 730.876,162.999L730.876,259.999L734.876,259.999L734.876,188.431L734.876,164.999L779.876,164.999L779.876,189.999C779.876,190.526 780.089,191.041 780.462,191.414C780.834,191.786 781.349,191.999 781.876,191.999L839.876,191.999L839.876,259.999L843.876,259.999Z" style="fill:#000111;fill-rule:nonzero;"/>
            <path d="M782.876,187.999L744.876,187.999L744.876,191.999L782.876,191.999" style="fill:#000111;fill-rule:nonzero;"/>
            <path d="M834.876,189.999L834.876,187.999L783.876,187.999L783.876,180.999L832.876,180.999L832.876,189.999L834.876,189.999L834.876,187.999L834.876,189.999L836.876,189.999L836.876,178.999C836.876,178.473 836.663,177.958 836.29,177.585C835.918,177.213 835.403,176.999 834.876,176.999L781.876,176.999C781.349,176.999 780.834,177.213 780.462,177.585C780.089,177.958 779.876,178.473 779.876,178.999L779.876,189.999C779.876,190.526 780.089,191.041 780.462,191.414C780.834,191.786 781.349,191.999 781.876,191.999L834.876,191.999C835.403,191.999 835.918,191.786 836.29,191.414C836.663,191.041 836.876,190.526 836.876,189.999L834.876,189.999Z" style="fill:#000111;fill-rule:nonzero;"/>
            <path d="M744.876,259.999L744.876,208.999L825.876,208.999L825.876,259.999" style="fill:#bd0000;fill-rule:nonzero;"/>
            <path d="M749.221,247.582L780.278,231.943L823.137,247.233L824.649,242.995L780.882,227.381C780.3,227.173 779.666,227.212 779.114,227.49L747.197,243.563L749.221,247.582Z" style="fill:#000111;fill-rule:nonzero;"/>
            <path d="M801.301,238.519L811.517,231.999L822.567,236.109L824.135,231.891L812.036,227.391C811.373,227.145 810.636,227.223 810.041,227.603L798.88,234.726L801.301,238.519Z" style="fill:#000111;fill-rule:nonzero;"/>
            <path d="M767.952,220.788C767.952,223.985 765.359,226.577 762.163,226.577C758.967,226.577 756.375,223.985 756.375,220.788C756.375,217.591 758.967,215 762.163,215C765.359,215 767.952,217.591 767.952,220.788Z" style="fill:#fff;fill-rule:nonzero;"/>
            <path d="M582.433,187.198C582.43,196.508 580.398,204.407 576.802,211.082C571.408,221.085 562.436,228.422 551.116,233.307C539.805,238.186 526.179,240.554 511.782,240.552C496.109,240.554 479.42,237.76 463.855,232.571L462.433,236.84C478.453,242.178 495.577,245.05 511.782,245.052C531.626,245.044 550.267,240.744 564.14,231.317C571.07,226.603 576.794,220.584 580.763,213.218C584.735,205.854 586.935,197.163 586.933,187.198L582.433,187.198Z" style="fill:#000111;fill-rule:nonzero;"/>
            <path d="M344.876,30L351.876,30L351.876,26L344.876,26" style="fill:#000111;fill-rule:nonzero;"/>
            <path d="M359.876,30L366.876,30L366.876,26L359.876,26" style="fill:#000111;fill-rule:nonzero;"/>
            <path d="M374.876,30L381.876,30L381.876,26L374.876,26" style="fill:#000111;fill-rule:nonzero;"/>
            <path d="M389.876,30L396.876,30L396.876,26L389.876,26" style="fill:#000111;fill-rule:nonzero;"/>
            <path d="M859.376,290.99L854.678,313.191L849.279,307.791L839.732,317.338L832.308,309.912L841.855,300.367L837.178,295.689L859.376,290.99Z" style="fill:#111;fill-opacity:0.25;fill-rule:nonzero;"/>
            <path d="M836.876,308.999L828.876,308.999L828.876,312.999L836.876,312.999" style="fill:#000111;fill-rule:nonzero;"/>
            <path d="M821.876,308.999L813.876,308.999L813.876,312.999L821.876,312.999" style="fill:#000111;fill-rule:nonzero;"/>
            <path d="M806.876,308.999L798.876,308.999L798.876,312.999L806.876,312.999" style="fill:#000111;fill-rule:nonzero;"/>
            <path d="M791.876,308.999L783.876,308.999L783.876,312.999L791.876,312.999" style="fill:#000111;fill-rule:nonzero;"/>
            <rect x="258.187" y="43.174" width="24" height="158" style="fill:#bd0000;fill-rule:nonzero;"/>
            <path d="M260.187,124.174L270.187,124.174L270.187,120.174L260.187,120.174" style="fill:#111;fill-rule:nonzero;"/>
            <path d="M260.187,109.174L270.187,109.174L270.187,105.174L260.187,105.174" style="fill:#111;fill-rule:nonzero;"/>
            <path d="M260.187,94.174L270.187,94.174L270.187,90.174L260.187,90.174" style="fill:#111;fill-rule:nonzero;"/>
            <path d="M260.187,79.174L270.187,79.174L270.187,75.174L260.187,75.174" style="fill:#111;fill-rule:nonzero;"/>
            <path d="M260.187,64.174L270.187,64.174L270.187,60.174L260.187,60.174" style="fill:#111;fill-rule:nonzero;"/>
            <path d="M260.187,184.174L270.187,184.174L270.187,180.174L260.187,180.174" style="fill:#111;fill-rule:nonzero;"/>
            <path d="M260.187,169.174L270.187,169.174L270.187,165.174L260.187,165.174" style="fill:#111;fill-rule:nonzero;"/>
            <path d="M260.187,154.174L270.187,154.174L270.187,150.174L260.187,150.174" style="fill:#111;fill-rule:nonzero;"/>
            <path d="M260.187,139.174L270.187,139.174L270.187,135.174L260.187,135.174" style="fill:#111;fill-rule:nonzero;"/>
            <path d="M512.876,137.999L512.876,154.999L516.876,154.999L516.876,137.999" style="fill:#111;fill-rule:nonzero;"/>
            <path d="M506.876,147.999L522.876,147.999L522.876,143.999L506.876,143.999" style="fill:#111;fill-rule:nonzero;"/>
            <path d="M497.876,155.999L497.876,131.999L509.876,131.999L509.876,127.999L495.876,127.999C495.349,127.999 494.834,128.213 494.462,128.585C494.089,128.958 493.876,129.473 493.876,129.999L493.876,155.999L497.876,155.999Z" style="fill:#111;fill-rule:nonzero;"/>
            <path d="M533.876,137.999L533.876,161.999L521.876,161.999L521.876,165.999L535.876,165.999C536.403,165.999 536.918,165.786 537.29,165.414C537.663,165.041 537.876,164.526 537.876,163.999L537.876,137.999L533.876,137.999Z" style="fill:#111;fill-rule:nonzero;"/>
            <path d="M73.876,236.999L73.876,253.999L77.876,253.999L77.876,236.999" style="fill:#111;fill-rule:nonzero;"/>
            <path d="M66.876,246.999L83.876,246.999L83.876,242.999L66.876,242.999" style="fill:#111;fill-rule:nonzero;"/>
            <path d="M57.876,254.999L57.876,230.999L69.876,230.999L69.876,226.999L55.876,226.999C55.349,226.999 54.834,227.213 54.462,227.585C54.089,227.958 53.876,228.473 53.876,228.999L53.876,254.999L57.876,254.999Z" style="fill:#111;fill-rule:nonzero;"/>
            <path d="M94.876,239.999L94.876,260.999L81.876,260.999L81.876,264.999L96.876,264.999C97.403,264.999 97.918,264.786 98.29,264.414C98.663,264.041 98.876,263.526 98.876,262.999L98.876,239.999L94.876,239.999Z" style="fill:#111;fill-rule:nonzero;"/>
            <path d="M910.876,188.999L910.876,205.999L914.876,205.999L914.876,188.999" style="fill:#111;fill-rule:nonzero;"/>
            <path d="M903.876,198.999L920.876,198.999L920.876,194.999L903.876,194.999" style="fill:#111;fill-rule:nonzero;"/>
            <path d="M894.876,206.999L894.876,182.999L906.876,182.999L906.876,178.999L892.876,178.999C892.349,178.999 891.834,179.213 891.462,179.585C891.089,179.958 890.876,180.473 890.876,180.999L890.876,206.999L894.876,206.999Z" style="fill:#111;fill-rule:nonzero;"/>
            <path d="M931.876,188.999L931.876,212.999L918.876,212.999L918.876,216.999L933.876,216.999C934.403,216.999 934.918,216.786 935.29,216.414C935.663,216.041 935.876,215.526 935.876,214.999L935.876,188.999L931.876,188.999Z" style="fill:#111;fill-rule:nonzero;"/>
            <path d="M630.876,68.999L653.876,68.999L653.876,112.999L657.876,112.999L657.876,67C657.876,66.473 657.663,65.958 657.29,65.585C656.918,65.213 656.403,65 655.876,65L630.876,65L630.876,69L630.876,68.999Z" style="fill:#111;fill-rule:nonzero;"/>
            <path d="M1031.88,238.999L963.876,238.999L963.876,242.999L1031.88,242.999" style="fill:#111;fill-rule:nonzero;"/>
            <path d="M332.604,298.364L330.354,298.364C330.353,299.575 329.869,300.652 329.075,301.449C328.278,302.242 327.201,302.726 325.99,302.727C324.778,302.726 323.702,302.242 322.905,301.449C322.111,300.652 321.627,299.575 321.626,298.364C321.627,297.152 322.111,296.075 322.905,295.278C323.702,294.485 324.778,294.001 325.99,294C327.201,294.001 328.278,294.485 329.075,295.278C329.869,296.075 330.353,297.152 330.354,298.364L334.854,298.364C334.852,293.468 330.886,289.502 325.99,289.5C321.094,289.502 317.128,293.468 317.126,298.364C317.128,303.259 321.094,307.226 325.99,307.227C330.886,307.226 334.852,303.259 334.854,298.364L332.604,298.364Z" style="fill:#111;fill-rule:nonzero;"/>
            <path d="M355.276,298.364L353.026,298.364C353.025,299.575 352.542,300.652 351.749,301.449C350.952,302.242 349.876,302.726 348.664,302.727C347.452,302.726 346.375,302.242 345.578,301.449C344.785,300.652 344.301,299.575 344.3,298.364C344.301,297.152 344.785,296.075 345.578,295.278C346.375,294.485 347.452,294.001 348.664,294C349.876,294.001 350.952,294.485 351.749,295.278C352.542,296.075 353.025,297.152 353.026,298.364L357.526,298.364C357.525,293.468 353.56,289.501 348.664,289.5C343.767,289.501 339.802,293.468 339.8,298.364C339.802,303.259 343.767,307.226 348.664,307.227C353.56,307.226 357.525,303.259 357.526,298.364L355.276,298.364Z" style="fill:#111;fill-rule:nonzero;"/>
            <path d="M377.952,298.364L375.702,298.364C375.701,299.575 375.217,300.652 374.424,301.449C373.627,302.242 372.55,302.726 371.338,302.727C370.127,302.726 369.05,302.242 368.253,301.449C367.46,300.652 366.976,299.575 366.975,298.364C366.976,297.152 367.46,296.075 368.253,295.278C369.05,294.485 370.127,294.001 371.338,294C372.55,294.001 373.627,294.485 374.424,295.278C375.217,296.075 375.701,297.152 375.702,298.364L380.202,298.364C380.2,293.468 376.234,289.502 371.338,289.5C366.443,289.502 362.476,293.468 362.475,298.364C362.476,303.259 366.443,307.226 371.338,307.227C376.234,307.226 380.2,303.259 380.202,298.364L377.952,298.364Z" style="fill:#111;fill-rule:nonzero;"/>
            <path d="M563.604,11.864L561.354,11.864C561.353,13.075 560.869,14.152 560.075,14.949C559.278,15.742 558.201,16.226 556.99,16.227C555.778,16.226 554.701,15.742 553.904,14.949C553.111,14.152 552.627,13.075 552.626,11.864C552.627,10.652 553.111,9.575 553.904,8.778C554.701,7.985 555.778,7.501 556.99,7.5C558.201,7.501 559.278,7.985 560.075,8.778C560.869,9.575 561.353,10.652 561.354,11.864L565.854,11.864C565.852,6.968 561.886,3.002 556.99,3C552.094,3.002 548.128,6.968 548.126,11.864C548.128,16.759 552.094,20.726 556.99,20.727C561.886,20.726 565.852,16.759 565.854,11.864L563.604,11.864Z" style="fill:#111;fill-rule:nonzero;"/>
            <path d="M586.276,11.864L584.026,11.864C584.025,13.075 583.542,14.152 582.748,14.949C581.952,15.742 580.876,16.226 579.664,16.227C578.452,16.226 577.375,15.742 576.578,14.949C575.785,14.152 575.301,13.075 575.3,11.864C575.301,10.652 575.785,9.575 576.578,8.778C577.375,7.985 578.452,7.501 579.664,7.5C580.876,7.501 581.952,7.985 582.748,8.778C583.542,9.575 584.025,10.652 584.026,11.864L588.526,11.864C588.525,6.968 584.56,3.001 579.664,3C574.767,3.001 570.802,6.968 570.8,11.864C570.802,16.759 574.767,20.726 579.664,20.727C584.56,20.726 588.525,16.759 588.526,11.864L586.276,11.864Z" style="fill:#111;fill-rule:nonzero;"/>
            <path d="M608.952,11.864L606.702,11.864C606.701,13.075 606.217,14.152 605.424,14.949C604.627,15.742 603.55,16.226 602.338,16.227C601.127,16.226 600.05,15.742 599.253,14.949C598.459,14.152 597.976,13.075 597.975,11.864C597.976,10.652 598.459,9.575 599.253,8.778C600.05,7.985 601.127,7.501 602.338,7.5C603.55,7.501 604.627,7.985 605.424,8.778C606.217,9.575 606.701,10.652 606.702,11.864L611.202,11.864C611.2,6.968 607.234,3.002 602.338,3C597.442,3.002 593.476,6.968 593.475,11.864C593.476,16.759 597.442,20.726 602.338,20.727C607.234,20.726 611.2,16.759 611.202,11.864L608.952,11.864Z" style="fill:#111;fill-rule:nonzero;"/>
            <path d="M650.604,304.364L648.354,304.364C648.352,305.575 647.869,306.652 647.075,307.449C646.278,308.242 645.201,308.726 643.99,308.727C642.778,308.726 641.701,308.242 640.904,307.449C640.111,306.652 639.627,305.575 639.626,304.364C639.627,303.152 640.111,302.075 640.904,301.278C641.701,300.485 642.778,300.001 643.99,300C645.201,300.001 646.278,300.485 647.075,301.278C647.869,302.075 648.352,303.152 648.354,304.364L652.853,304.364C652.852,299.468 648.886,295.502 643.99,295.5C639.094,295.502 635.128,299.468 635.126,304.364C635.128,309.259 639.094,313.226 643.99,313.227C648.886,313.226 652.852,309.259 652.853,304.364L650.604,304.364Z" style="fill:#111;fill-rule:nonzero;"/>
            <path d="M673.276,304.364L671.026,304.364C671.025,305.575 670.541,306.652 669.748,307.449C668.952,308.242 667.875,308.726 666.664,308.727C665.452,308.726 664.375,308.242 663.578,307.449C662.785,306.652 662.301,305.575 662.3,304.364C662.301,303.152 662.785,302.075 663.578,301.278C664.375,300.485 665.452,300.001 666.664,300C667.875,300.001 668.952,300.485 669.748,301.278C670.541,302.075 671.025,303.152 671.026,304.364L675.526,304.364C675.525,299.468 671.56,295.501 666.664,295.5C661.767,295.501 657.802,299.468 657.8,304.364C657.802,309.259 661.767,313.226 666.664,313.227C671.56,313.226 675.525,309.259 675.526,304.364L673.276,304.364Z" style="fill:#111;fill-rule:nonzero;"/>
            <path d="M695.952,304.364L693.702,304.364C693.701,305.575 693.217,306.652 692.424,307.449C691.627,308.242 690.55,308.726 689.338,308.727C688.127,308.726 687.05,308.242 686.253,307.449C685.459,306.652 684.976,305.575 684.974,304.364C684.976,303.152 685.459,302.075 686.253,301.278C687.05,300.485 688.127,300.001 689.338,300C690.55,300.001 691.627,300.485 692.424,301.278C693.217,302.075 693.701,303.152 693.702,304.364L698.202,304.364C698.2,299.468 694.234,295.502 689.338,295.5C684.442,295.502 680.476,299.468 680.475,304.364C680.476,309.259 684.442,313.226 689.338,313.227C694.234,313.226 698.2,309.259 698.202,304.364L695.952,304.364Z" style="fill:#111;fill-rule:nonzero;"/>
            <path d="M980.876,17L980.876,26L984.876,26L984.876,17" style="fill:#111;fill-rule:nonzero;"/>
            <path d="M980.876,33L980.876,41L984.876,41L984.876,33" style="fill:#111;fill-rule:nonzero;"/>
            <path d="M969.876,31L977.876,31L977.876,27L969.876,27" style="fill:#111;fill-rule:nonzero;"/>
            <path d="M987.876,31L995.876,31L995.876,27L987.876,27" style="fill:#111;fill-rule:nonzero;"/>
            <path d="M533.876,266.999L533.876,275.999L537.876,275.999L537.876,266.999" style="fill:#111;fill-rule:nonzero;"/>
            <path d="M533.876,283.999L533.876,290.999L537.876,290.999L537.876,283.999" style="fill:#111;fill-rule:nonzero;"/>
            <path d="M522.876,281.999L530.876,281.999L530.876,277.999L522.876,277.999" style="fill:#111;fill-rule:nonzero;"/>
            <path d="M540.876,281.999L548.876,281.999L548.876,277.999L540.876,277.999" style="fill:#111;fill-rule:nonzero;"/>
            <path d="M262.876,0L262.876,9L266.876,9L266.876,0" style="fill:#111;fill-rule:nonzero;"/>
            <path d="M262.876,17L262.876,24L266.876,24L266.876,17" style="fill:#111;fill-rule:nonzero;"/>
            <path d="M251.876,15L258.876,15L258.876,11L251.876,11" style="fill:#111;fill-rule:nonzero;"/>
            <path d="M269.876,15L276.876,15L276.876,11L269.876,11" style="fill:#111;fill-rule:nonzero;"/>
            <path d="M19.876,155.999L19.876,164.999L23.876,164.999L23.876,155.999" style="fill:#111;fill-rule:nonzero;"/>
            <path d="M19.876,172.999L19.876,179.999L23.876,179.999L23.876,172.999" style="fill:#111;fill-rule:nonzero;"/>
            <path d="M8.876,170.999L15.876,170.999L15.876,166.999L8.876,166.999" style="fill:#111;fill-rule:nonzero;"/>
            <path d="M26.876,170.999L33.876,170.999L33.876,166.999L26.876,166.999" style="fill:#111;fill-rule:nonzero;"/>
            <path d="M1079.88,134.999L1079.88,143.999L1083.88,143.999L1083.88,134.999" style="fill:#111;fill-rule:nonzero;"/>
            <path d="M1079.88,151.999L1079.88,158.999L1083.88,158.999L1083.88,151.999" style="fill:#111;fill-rule:nonzero;"/>
            <path d="M1068.88,149.999L1076.88,149.999L1076.88,145.999L1068.88,145.999" style="fill:#111;fill-rule:nonzero;"/>
            <path d="M1086.88,149.999L1094.88,149.999L1094.88,145.999L1086.88,145.999" style="fill:#111;fill-rule:nonzero;"/>
        </g>
    </g>
    <path d="M168.284,158.82C168.284,126.852 179.516,111.012 195.356,111.012C199.388,111.012 202.844,111.876 206.012,113.604L206.012,201.156C202.556,203.172 198.524,204.324 194.204,204.324C178.652,204.324 168.284,187.908 168.284,158.82ZM271.1,228.228L271.1,213.54L260.732,210.948L260.732,63.78L261.884,23.748L256.988,20.58L189.596,33.54L189.596,46.5L208.028,49.38L208.028,96.612C199.676,88.26 189.596,83.364 174.332,83.364C142.94,83.364 110.108,111.3 110.108,159.396C110.108,208.356 135.452,232.836 167.132,232.836C182.972,232.836 196.22,227.652 207.452,216.132L210.044,231.684L271.1,228.228Z" style="fill-rule:nonzero;"/>
    <path d="M358.364,98.916C365.852,98.916 373.052,106.116 373.052,125.988C373.052,140.676 369.308,145.284 355.484,145.284L341.948,145.284C342.812,109.572 349.436,98.916 358.364,98.916ZM361.82,83.364C324.092,83.364 284.348,108.132 284.348,157.668C284.348,205.188 316.028,232.836 359.228,232.836C387.74,232.836 409.34,222.468 421.724,199.14L410.492,188.196C402.428,195.972 392.06,201.732 377.66,201.732C360.668,201.732 345.116,189.924 342.236,161.7L422.3,161.7C423.452,156.516 423.74,152.484 423.74,146.436C423.74,111.588 403.004,83.364 361.82,83.364Z" style="fill-rule:nonzero;"/>
    <path d="M488.828,232.836C530.876,232.836 557.66,216.132 557.66,182.148C557.66,159.396 546.716,143.844 519.932,136.644L503.804,132.324C483.932,126.852 480.764,121.092 480.764,115.044C480.764,105.252 489.116,100.356 500.06,100.356C506.108,100.356 510.428,100.932 514.172,101.796L520.508,127.428L547.004,127.428L549.308,94.884C533.468,87.396 519.068,83.364 501.5,83.364C460.028,83.364 437.276,104.388 437.276,133.188C437.276,155.652 449.372,171.78 472.124,177.828L488.54,182.148C507.836,187.332 511.868,193.092 511.868,200.868C511.868,211.812 503.228,215.844 488.828,215.844C481.34,215.844 474.716,214.404 468.092,211.812L463.484,181.86L437.276,181.86L435.836,218.724C451.388,228.228 468.956,232.836 488.828,232.836Z" style="fill-rule:nonzero;"/>
    <path d="M609.5,66.372C624.188,66.372 635.996,56.004 635.996,41.604C635.996,27.204 624.188,16.836 609.5,16.836C594.812,16.836 583.004,27.204 583.004,41.604C583.004,56.004 594.812,66.372 609.5,66.372ZM649.82,213.54L637.724,210.948C637.436,197.124 637.436,179.844 637.436,167.748L637.436,129.444L638.3,86.532L633.116,83.364L566.3,103.236L566.3,115.044L581.852,117.636C582.428,129.156 582.716,138.084 582.716,153.924L582.716,167.748C582.716,179.556 582.716,196.548 582.428,210.66L569.468,213.54L569.468,228.228L649.82,228.228L649.82,213.54Z" style="fill-rule:nonzero;"/>
    <path d="M726.428,97.764C737.084,97.764 742.556,108.996 742.556,129.156C742.556,149.316 737.948,160.836 726.428,160.836C714.908,160.836 710.876,149.316 710.876,129.156C710.876,108.996 715.772,97.764 726.428,97.764ZM725.276,273.444C697.628,273.444 686.396,266.244 686.396,249.828C686.396,244.068 686.972,240.9 688.7,236.868C697.052,239.46 707.708,240.324 720.092,240.324L748.892,240.324C762.428,240.324 767.036,247.812 767.036,254.436C767.036,265.38 753.212,273.444 725.276,273.444ZM662.78,129.732C662.78,144.996 669.98,159.108 686.396,167.46C672.284,178.98 662.78,191.94 662.78,206.916C662.78,216.132 667.1,225.06 678.908,230.532C664.796,236.868 656.732,246.948 656.732,259.044C656.732,275.46 669.116,292.164 719.228,292.164C777.98,292.164 809.372,267.972 809.372,236.868C809.372,211.236 793.82,192.804 744.86,192.804L712.892,192.804C701.084,192.804 696.188,189.06 696.188,182.724C696.188,178.116 696.764,174.948 698.204,171.78C705.98,174.084 715.484,175.236 726.428,175.236C771.932,175.236 790.076,153.924 790.076,129.732C790.076,122.244 788.636,115.332 785.468,109.284L812.54,109.284L812.54,85.38L807.932,82.5L775.676,97.188C765.596,88.836 749.468,83.364 726.428,83.364C680.924,83.364 662.78,104.388 662.78,129.732Z" style="fill-rule:nonzero;"/>
    <path d="M931.772,83.364C915.356,83.364 903.548,87.972 887.996,106.116L886.556,86.532L881.372,83.364L817.724,103.236L817.724,115.044L833.276,117.636C833.852,129.156 834.14,134.052 834.14,149.892L834.14,167.748C834.14,179.556 834.14,196.548 833.852,210.372L820.604,213.54L820.604,228.228L900.092,228.228L900.092,213.54L889.148,211.236C888.86,197.124 888.86,179.844 888.86,167.748L888.86,121.668C895.772,117.06 902.684,114.18 907.58,114.18C916.796,114.18 920.54,119.94 920.54,135.204L920.54,167.748C920.54,179.844 920.54,196.836 920.252,210.66L907.868,213.54L907.868,228.228L987.644,228.228L987.644,213.54L975.548,210.948C975.26,197.124 975.26,180.132 975.26,167.748L975.26,131.46C975.26,100.068 956.828,83.364 931.772,83.364Z" style="fill-rule:nonzero;"/>
</svg>
