<?xml version="1.0" encoding="UTF-8" standalone="no"?>
<!DOCTYPE svg PUBLIC "-//W3C//DTD SVG 1.1//EN" "http://www.w3.org/Graphics/SVG/1.1/DTD/svg11.dtd">
<svg width="100%" height="100%" viewBox="0 0 1091 366" version="1.1" xmlns="http://www.w3.org/2000/svg" xmlns:xlink="http://www.w3.org/1999/xlink" xml:space="preserve" xmlns:serif="http://www.serif.com/" style="fill-rule:evenodd;clip-rule:evenodd;stroke-linejoin:round;stroke-miterlimit:1.41421;">
    <g transform="matrix(1,0,0,1,-1495.15,-164.082)">
        <g transform="matrix(1,0,0,1,1442.17,18.0809)">
            <path d="M679.658,378.001L708,378.001L708,329.001L679.658,329.001C679.419,329.001 674.289,317.145 673.913,316.428L694.766,296.212L658.602,260.369L636.8,281.384C636.091,281.007 625,276.039 622,275.802L622,248L571,248L571,275.802C571,276.039 558.725,281.167 558.019,281.544L537.602,260.684L501.658,296.854L522.62,316.428C522.247,317.145 517.228,329.001 516.984,329.001L487,329.001L487,378.001L516.984,378.001C517.228,386 522.354,393.507 522.729,394.208L501.879,416.236L538.04,452.992L558.019,432.428C558.725,432.804 571,438.225 571,438.467L571,468.001L622,468.001L622,438.467C625,438.225 636.091,433.097 636.8,432.723L658.126,453.578L694.531,417.415L673.792,394.208C674.169,393.507 679.419,386 679.658,378.001Z" style="fill:rgb(189,0,0);fill-opacity:0.699431;fill-rule:nonzero;"/>
            <path d="M623.893,357.133C623.893,371.262 612.448,382.712 598.323,382.712C584.193,382.712 572.745,371.262 572.745,357.133C572.745,343.009 584.193,331.562 598.323,331.562C612.448,331.562 623.893,343.009 623.893,357.133Z" style="fill:white;fill-opacity:0.699431;fill-rule:nonzero;"/>
            <path d="M532,465.751L532,446.852L538.04,452.992L558.019,432.428C558.716,432.799 570.69,438.088 570.994,438.455L532,465.751ZM528.21,443L366,443L366,407L510.62,407L501.879,416.236L528.21,443Z" style="fill:rgb(17,17,17);fill-opacity:0.296333;fill-rule:nonzero;"/>
            <path d="M783,276.751L783,254.001L622,254.001L622,248L616,248L616,218.001L783,218.001L783,192.751L843,234.751L783,276.751Z" style="fill:rgb(17,17,17);fill-opacity:0.296333;fill-rule:nonzero;"/>
            <path d="M903,501.751L843,459.751L903,417.751L903,441.001L1069,441.001L1069,477L903,477L903,501.751Z" style="fill:rgb(17,17,17);fill-opacity:0.296333;fill-rule:nonzero;"/>
            <g transform="matrix(0.649071,0,0,0.649071,77.5467,20.8205)">
                <g opacity="0.699431">
                    <path d="M561,213.001L547,213.001L547,248.001L666,248.001L666,213.001L655,213.001" style="fill:rgb(17,17,17);fill-opacity:0.300027;fill-rule:nonzero;"/>
                    <path d="M662,248.001L662,323L552,323L552,248.001L548,248.001L548,325C548,325.527 548.213,326.042 548.586,326.415C548.958,326.787 549.473,327 550,327L664,327C664.527,327 665.042,326.787 665.414,326.415C665.787,326.042 666,325.527 666,325L666,248.001L662,248.001Z" style="fill:rgb(17,17,17);fill-rule:nonzero;"/>
                    <path d="M613,231.056L611,231.056C610.999,231.599 610.786,232.073 610.43,232.431C610.072,232.786 609.599,233 609.055,233.001L605.945,233.001C605.401,233 604.928,232.786 604.569,232.431C604.214,232.073 604.001,231.599 604,231.056L604,214.945C604.001,214.402 604.214,213.928 604.569,213.57C604.928,213.215 605.401,213.001 605.945,213L609.055,213C609.599,213.001 610.072,213.215 610.43,213.57C610.786,213.928 610.999,214.402 611,214.945L611,231.056L615,231.056L615,214.945C614.999,211.661 612.339,209.002 609.055,209.001L605.945,209.001C602.661,209.002 600.001,211.661 600,214.945L600,231.056C600.001,234.34 602.661,236.999 605.945,237L609.055,237C612.339,236.999 614.999,234.34 615,231.056L613,231.056Z" style="fill:rgb(17,17,17);fill-rule:nonzero;"/>
                    <path d="M648,231.056L646,231.056C645.999,231.6 645.785,232.073 645.431,232.431C645.073,232.786 644.599,232.999 644.057,233.001L640.943,233.001C640.4,232.999 639.927,232.786 639.569,232.431C639.214,232.073 639.001,231.6 639,231.056L639,214.945C639.001,214.401 639.214,213.928 639.569,213.57C639.927,213.215 640.4,213.001 640.943,213L644.057,213C644.599,213.001 645.073,213.215 645.431,213.57C645.785,213.928 645.999,214.401 646,214.945L646,231.056L650,231.056L650,214.945C649.999,211.661 647.34,209.002 644.057,209.001L640.943,209.001C637.66,209.002 635.001,211.661 635,214.945L635,231.056C635.001,234.34 637.66,236.999 640.943,237L644.057,237C647.34,236.999 649.999,234.34 650,231.056L648,231.056Z" style="fill:rgb(17,17,17);fill-rule:nonzero;"/>
                    <path d="M579,231.056L577,231.056C576.999,231.599 576.786,232.073 576.43,232.431C576.072,232.786 575.599,233 575.055,233.001L571.945,233.001C571.401,233 570.928,232.786 570.569,232.431C570.214,232.073 570.001,231.599 570,231.056L570,214.945C570.001,214.402 570.214,213.928 570.569,213.57C570.928,213.215 571.401,213.001 571.945,213L575.055,213C575.599,213.001 576.072,213.215 576.43,213.57C576.786,213.928 576.999,214.402 577,214.945L577,231.056L581,231.056L581,214.945C580.999,211.661 578.339,209.002 575.055,209.001L571.945,209.001C568.661,209.002 566.001,211.661 566,214.945L566,231.056C566.001,234.34 568.661,236.999 571.945,237L575.055,237C578.339,236.999 580.999,234.34 581,231.056L579,231.056Z" style="fill:rgb(17,17,17);fill-rule:nonzero;"/>
                    <path d="M575,269L575,267L564,267L564,261L573,261L573,269L575,269L575,267L575,269L577,269L577,259C577,258.474 576.787,257.959 576.414,257.586C576.042,257.214 575.527,257 575,257L562,257C561.473,257 560.958,257.214 560.586,257.586C560.213,257.959 560,258.474 560,259L560,269C560,269.527 560.213,270.042 560.586,270.415C560.958,270.787 561.473,271 562,271L575,271C575.527,271 576.042,270.787 576.414,270.415C576.787,270.042 577,269.527 577,269L575,269Z" style="fill:rgb(17,17,17);fill-rule:nonzero;"/>
                    <path d="M601,269L601,267L589,267L589,261L599,261L599,269L601,269L601,267L601,269L603,269L603,259C603,258.474 602.787,257.959 602.414,257.586C602.042,257.214 601.527,257 601,257L587,257C586.473,257 585.958,257.214 585.586,257.586C585.213,257.959 585,258.474 585,259L585,269C585,269.527 585.213,270.042 585.586,270.415C585.958,270.787 586.473,271 587,271L601,271C601.527,271 602.042,270.787 602.414,270.415C602.787,270.042 603,269.527 603,269L601,269Z" style="fill:rgb(17,17,17);fill-rule:nonzero;"/>
                    <path d="M652,269L652,267L640,267L640,261L650,261L650,269L652,269L652,267L652,269L654,269L654,259C654,258.474 653.787,257.959 653.414,257.586C653.042,257.214 652.527,257 652,257L638,257C637.473,257 636.958,257.214 636.586,257.586C636.213,257.959 636,258.474 636,259L636,269C636,269.527 636.213,270.042 636.586,270.415C636.958,270.787 637.473,271 638,271L652,271C652.527,271 653.042,270.787 653.414,270.415C653.787,270.042 654,269.527 654,269L652,269Z" style="fill:rgb(17,17,17);fill-rule:nonzero;"/>
                    <path d="M601,292L601,290L589,290L589,282L599,282L599,292L601,292L601,290L601,292L603,292L603,280C603,279.474 602.787,278.959 602.414,278.586C602.042,278.214 601.527,278 601,278L587,278C586.473,278 585.958,278.214 585.586,278.586C585.213,278.959 585,279.474 585,280L585,292C585,292.527 585.213,293.042 585.586,293.415C585.958,293.787 586.473,294 587,294L601,294C601.527,294 602.042,293.787 602.414,293.415C602.787,293.042 603,292.527 603,292L601,292Z" style="fill:rgb(17,17,17);fill-rule:nonzero;"/>
                    <path d="M626,292L626,290L615,290L615,282L624,282L624,292L626,292L626,290L626,292L628,292L628,280C628,279.474 627.787,278.959 627.414,278.586C627.042,278.214 626.527,278 626,278L613,278C612.473,278 611.958,278.214 611.586,278.586C611.213,278.959 611,279.474 611,280L611,292C611,292.527 611.213,293.042 611.586,293.415C611.958,293.787 612.473,294 613,294L626,294C626.527,294 627.042,293.787 627.414,293.415C627.787,293.042 628,292.527 628,292L626,292Z" style="fill:rgb(17,17,17);fill-rule:nonzero;"/>
                    <path d="M652,292L652,290L640,290L640,282L650,282L650,292L652,292L652,290L652,292L654,292L654,280C654,279.474 653.787,278.959 653.414,278.586C653.042,278.214 652.527,278 652,278L638,278C637.473,278 636.958,278.214 636.586,278.586C636.213,278.959 636,279.474 636,280L636,292C636,292.527 636.213,293.042 636.586,293.415C636.958,293.787 637.473,294 638,294L652,294C652.527,294 653.042,293.787 653.414,293.415C653.787,293.042 654,292.527 654,292L652,292Z" style="fill:rgb(17,17,17);fill-rule:nonzero;"/>
                    <path d="M575,313L575,311L564,311L564,303L573,303L573,313L575,313L575,311L575,313L577,313L577,301C577,300.474 576.787,299.959 576.414,299.586C576.042,299.214 575.527,299 575,299L562,299C561.473,299 560.958,299.214 560.586,299.586C560.213,299.959 560,300.474 560,301L560,313C560,313.527 560.213,314.042 560.586,314.415C560.958,314.787 561.473,315 562,315L575,315C575.527,315 576.042,314.787 576.414,314.415C576.787,314.042 577,313.527 577,313L575,313Z" style="fill:rgb(17,17,17);fill-rule:nonzero;"/>
                    <rect x="612" y="260" width="13" height="12" style="fill:rgb(17,17,17);fill-opacity:0.3;fill-rule:nonzero;"/>
                    <rect x="561" y="281" width="13" height="12" style="fill:rgb(17,17,17);fill-opacity:0.3;fill-rule:nonzero;"/>
                    <rect x="586" y="302" width="14" height="12" style="fill:rgb(17,17,17);fill-opacity:0.3;fill-rule:nonzero;"/>
                </g>
            </g>
            <path d="M403.468,318C402.412,260 352.162,208.222 292.2,208.222C232.729,208.222 186,257.62 181,317.473L181,318L403.468,318ZM151,318.124C157,242.26 216.561,180.001 291.94,180.001C368.756,180.001 433,245.131 433,321.932L433,462L375.059,462L298,462L298,495L151,495L151,318.124Z" style="fill:rgb(189,0,0);fill-opacity:0.699431;fill-rule:nonzero;"/>
            <path d="M292.2,208.222C352.162,208.222 402.412,260 403.468,318L181,318L181,317.473C186,257.62 232.729,208.222 292.2,208.222Z" style="fill:white;fill-opacity:0.699431;fill-rule:nonzero;"/>
            <path d="M795.032,320C796.088,261 846.088,209.972 906.05,209.972C965.521,209.972 1012,259.12 1017,318.973L1017,320L795.032,320ZM1047,319.624C1041,243.76 981.439,181.501 906.06,181.501C829.244,181.501 765,246.631 765,323.432L765,464L900,464L900,497L1047,497L1047,319.624Z" style="fill:rgb(189,0,0);fill-opacity:0.699431;fill-rule:nonzero;"/>
            <path d="M906.05,209.972C846.088,209.972 796.088,261 795.032,320L1017,320L1017,318.973C1012,259.12 965.521,209.972 906.05,209.972Z" style="fill:white;fill-opacity:0.699431;fill-rule:nonzero;"/>
            <path d="M1008.44,273.096C999.272,253.531 985.248,236.852 967.861,225.053C950.477,213.254 929.717,206.345 907.175,206.347C884.132,206.346 862.593,213.869 844.658,226.403C826.721,238.939 812.365,256.484 803.626,276.611L807.754,278.403C816.153,259.051 829.99,242.141 847.236,230.091C864.485,218.04 885.119,210.847 907.175,210.847C928.793,210.849 948.645,217.455 965.334,228.776C982.02,240.098 995.528,256.145 1004.36,275.005L1008.44,273.096Z" style="fill:rgb(17,17,17);fill-opacity:0.699431;fill-rule:nonzero;"/>
            <g transform="matrix(1,0,0,1,-8.5,-138.831)">
                <g transform="matrix(1,0,0,1,61.132,298.308)">
                    <path d="M0.864,31.104L0.864,44.064L16.416,46.944L16.416,165.312C16.416,175.392 16.416,193.824 16.128,207.936L2.88,211.104L2.88,225.792L83.808,225.792L83.808,211.104L71.424,208.512C71.136,194.976 71.136,177.12 71.136,164.736L78.624,158.112L105.984,225.792L172.8,225.792L172.8,211.104L154.656,206.208L116.64,123.264L139.68,102.528L165.024,99.072L165.024,85.536L97.632,85.536L97.632,99.072L116.64,101.952L71.136,145.152L71.136,61.344L72.288,21.312L67.392,18.144L0.864,31.104Z" style="fill-rule:nonzero;"/>
                    <path d="M249.984,230.4C299.232,230.4 326.016,198.432 326.016,154.656C326.016,110.88 294.336,80.928 249.984,80.928C205.632,80.928 173.952,111.744 173.952,154.656C173.952,197.568 200.448,230.4 249.984,230.4ZM249.984,214.56C237.312,214.56 231.552,197.568 231.552,155.52C231.552,113.76 237.312,96.768 249.984,96.768C262.656,96.768 268.416,113.76 268.416,155.52C268.416,197.568 262.656,214.56 249.984,214.56Z" style="fill-rule:nonzero;"/>
                    <path d="M506.016,226.08L506.016,211.392L492.768,208.512L492.768,126.432L493.632,85.536L488.448,82.368L424.8,93.888L424.8,105.408L438.624,108.576L437.472,189.504C431.424,195.264 424.8,199.584 419.04,199.584C411.552,199.584 406.368,194.976 406.368,180L406.368,126.432L407.808,85.536L402.624,82.368L337.248,92.448L337.248,105.408L352.224,108.864L351.072,178.56C350.496,216.576 367.776,230.4 393.12,230.4C411.552,230.4 426.528,221.472 438.048,206.496L439.2,229.248L506.016,226.08Z" style="fill-rule:nonzero;"/>
                    <path d="M605.376,96.48L606.528,96.48L607.104,108.576C608.256,133.92 619.776,141.408 631.872,141.408C643.392,141.408 650.016,136.224 653.76,124.704C652.32,101.088 631.008,80.928 598.752,80.928C552.384,80.928 516.384,108.288 516.384,156.096C516.384,206.208 551.808,230.4 590.976,230.4C618.336,230.4 639.936,220.032 652.32,196.704L641.088,185.76C633.024,193.536 624.384,199.296 611.712,199.296C588.672,199.296 573.984,181.728 573.984,149.76C573.984,110.016 592.128,96.48 605.376,96.48ZM560.16,1.44L547.488,12.096L583.776,63.648L609.696,63.648L645.984,12.096L633.312,1.44L596.736,31.104L560.16,1.44Z" style="fill-rule:nonzero;"/>
                    <path d="M708.768,63.936C723.456,63.936 735.264,53.568 735.264,39.168C735.264,24.768 723.456,14.4 708.768,14.4C694.08,14.4 682.272,24.768 682.272,39.168C682.272,53.568 694.08,63.936 708.768,63.936ZM749.088,211.104L736.992,208.512C736.704,194.688 736.704,177.408 736.704,165.312L736.704,127.008L737.568,84.096L732.384,80.928L665.568,100.8L665.568,112.608L681.12,115.2C681.696,126.72 681.984,135.648 681.984,151.488L681.984,165.312C681.984,177.12 681.984,194.112 681.696,208.224L668.736,211.104L668.736,225.792L749.088,225.792L749.088,211.104Z" style="fill-rule:nonzero;"/>
                    <path d="M871.776,80.928C855.36,80.928 843.552,85.536 828,103.68L826.56,84.096L821.376,80.928L757.728,100.8L757.728,112.608L773.28,115.2C773.856,126.72 774.144,131.616 774.144,147.456L774.144,165.312C774.144,177.12 774.144,194.112 773.856,207.936L760.608,211.104L760.608,225.792L840.096,225.792L840.096,211.104L829.152,208.8C828.864,194.688 828.864,177.408 828.864,165.312L828.864,119.232C835.776,114.624 842.688,111.744 847.584,111.744C856.8,111.744 860.544,117.504 860.544,132.768L860.544,165.312C860.544,177.408 860.544,194.4 860.256,208.224L847.872,211.104L847.872,225.792L927.648,225.792L927.648,211.104L915.552,208.512C915.264,194.688 915.264,177.696 915.264,165.312L915.264,129.024C915.264,97.632 896.832,80.928 871.776,80.928Z" style="fill-rule:nonzero;"/>
                    <path d="M1004.26,95.328C1014.91,95.328 1020.38,106.56 1020.38,126.72C1020.38,146.88 1015.78,158.4 1004.26,158.4C992.736,158.4 988.704,146.88 988.704,126.72C988.704,106.56 993.6,95.328 1004.26,95.328ZM1003.1,271.008C975.456,271.008 964.224,263.808 964.224,247.392C964.224,241.632 964.8,238.464 966.528,234.432C974.88,237.024 985.536,237.888 997.92,237.888L1026.72,237.888C1040.26,237.888 1044.86,245.376 1044.86,252C1044.86,262.944 1031.04,271.008 1003.1,271.008ZM940.608,127.296C940.608,142.56 947.808,156.672 964.224,165.024C950.112,176.544 940.608,189.504 940.608,204.48C940.608,213.696 944.928,222.624 956.736,228.096C942.624,234.432 934.56,244.512 934.56,256.608C934.56,273.024 946.944,289.728 997.056,289.728C1055.81,289.728 1087.2,265.536 1087.2,234.432C1087.2,208.8 1071.65,190.368 1022.69,190.368L990.72,190.368C978.912,190.368 974.016,186.624 974.016,180.288C974.016,175.68 974.592,172.512 976.032,169.344C983.808,171.648 993.312,172.8 1004.26,172.8C1049.76,172.8 1067.9,151.488 1067.9,127.296C1067.9,119.808 1066.46,112.896 1063.3,106.848L1090.37,106.848L1090.37,82.944L1085.76,80.064L1053.5,94.752C1043.42,86.4 1027.3,80.928 1004.26,80.928C958.752,80.928 940.608,101.952 940.608,127.296Z" style="fill-rule:nonzero;"/>
                </g>
                <g transform="matrix(1,0,0,1,-66.6756,298.308)">
                    <path d="M387.863,267.544C385.278,263.452 384.417,260.221 384.417,257.421C384.417,253.114 386.786,249.991 390.663,249.991C394.755,249.991 396.908,252.791 396.908,257.098C396.908,260.867 395.832,266.359 391.524,272.282C389.586,269.913 388.617,268.729 387.863,267.544ZM431.907,316.757L432.984,308.035L422.431,305.558C419.738,302.65 417.477,300.281 415.108,297.697C420.061,291.02 423.077,285.42 425.984,277.236L433.199,276.051L433.199,270.99L408.646,270.99L408.646,276.051L416.831,277.451C415.539,283.805 414.139,288.328 411.231,293.712C408.754,291.02 405.847,288.005 402.293,284.128C398.955,280.467 396.478,277.774 394.539,275.621C405.524,271.313 410.477,266.467 410.477,259.252C410.477,250.745 403.37,245.253 390.878,245.253C377.74,245.253 369.448,252.145 369.448,263.129C369.448,268.298 370.956,273.575 375.586,279.928C375.802,280.143 375.909,280.359 376.125,280.574C364.064,285.636 359.756,292.097 359.756,299.85C359.756,309.758 366.648,318.48 381.509,318.48C391.847,318.48 397.878,315.034 401.647,311.158C402.185,311.588 402.724,312.127 403.262,312.558C408.754,317.08 413.816,318.48 420.384,318.48C423.723,318.48 426.2,318.05 431.907,316.757ZM388.832,296.512C391.416,299.635 394.324,303.619 397.662,307.173C395.724,308.142 393.462,308.573 390.663,308.573C383.232,308.573 376.555,303.619 376.555,294.574C376.555,290.697 377.525,287.574 379.355,284.666C381.509,287.359 384.524,291.128 388.832,296.512Z" style="fill-rule:nonzero;"/>
                    <path d="M459.368,243.96L459.368,248.806L465.183,249.883L465.183,294.143C465.183,297.912 465.183,304.804 465.075,310.081L460.121,311.265L460.121,316.757L490.382,316.757L490.382,311.265L485.751,310.296C485.643,305.235 485.643,298.558 485.643,293.928L488.443,291.451L498.674,316.757L523.657,316.757L523.657,311.265L516.873,309.435L502.658,278.42L511.273,270.667L520.75,269.375L520.75,264.313L495.551,264.313L495.551,269.375L502.658,270.452L485.643,286.605L485.643,255.268L486.074,240.299L484.243,239.114L459.368,243.96Z" style="fill-rule:nonzero;"/>
                    <path d="M552.518,318.48C570.932,318.48 580.947,306.527 580.947,290.158C580.947,273.79 569.102,262.59 552.518,262.59C535.934,262.59 524.088,274.113 524.088,290.158C524.088,306.204 533.995,318.48 552.518,318.48ZM552.518,312.558C547.779,312.558 545.626,306.204 545.626,290.482C545.626,274.867 547.779,268.513 552.518,268.513C557.256,268.513 559.41,274.867 559.41,290.482C559.41,306.204 557.256,312.558 552.518,312.558Z" style="fill-rule:nonzero;"/>
                    <path d="M627.361,262.59C621.223,262.59 616.807,264.313 610.992,271.098L610.454,263.775L608.515,262.59L584.716,270.021L584.716,274.436L590.532,275.405C590.747,279.713 590.855,281.543 590.855,287.466L590.855,294.143C590.855,298.558 590.855,304.912 590.747,310.081L585.793,311.265L585.793,316.757L615.515,316.757L615.515,311.265L611.423,310.404C611.315,305.127 611.315,298.666 611.315,294.143L611.315,276.913C613.9,275.19 616.484,274.113 618.315,274.113C621.761,274.113 623.161,276.267 623.161,281.974L623.161,294.143C623.161,298.666 623.161,305.019 623.053,310.188L618.423,311.265L618.423,316.757L648.252,316.757L648.252,311.265L643.729,310.296C643.622,305.127 643.622,298.774 643.622,294.143L643.622,280.574C643.622,268.836 636.73,262.59 627.361,262.59Z" style="fill-rule:nonzero;"/>
                    <path d="M653.098,264.313L652.237,280.897L662.144,281.328L665.052,269.375L676.897,269.375L651.591,312.342L651.591,316.757L698.327,316.757L699.404,298.558L689.389,298.558L686.266,311.588L674.42,311.588L698.543,268.621L698.543,264.313L653.098,264.313Z" style="fill-rule:nonzero;"/>
                    <path d="M765.417,316.865L765.417,311.373L760.463,310.296L760.463,279.605L760.786,264.313L758.848,263.129L735.049,267.436L735.049,271.744L740.218,272.928L739.787,303.189C737.526,305.342 735.049,306.958 732.895,306.958C730.095,306.958 728.157,305.235 728.157,299.635L728.157,279.605L728.695,264.313L726.757,263.129L702.312,266.898L702.312,271.744L707.911,273.036L707.481,299.097C707.265,313.311 713.727,318.48 723.203,318.48C730.095,318.48 735.695,315.142 740.002,309.542L740.433,318.05L765.417,316.865Z" style="fill-rule:nonzero;"/>
                    <path d="M769.078,243.96L769.078,248.806L774.893,249.883L774.893,294.143C774.893,299.527 774.786,304.804 774.678,310.188L769.832,311.265L769.832,316.757L800.415,316.757L800.415,311.265L795.569,310.296C795.462,304.912 795.354,299.527 795.354,294.143L795.354,255.268L795.785,240.299L793.954,239.114L769.078,243.96Z" style="fill-rule:nonzero;"/>
                    <path d="M830.783,301.25L830.783,272.39L840.691,272.39L840.691,264.313L830.783,264.313L830.783,249.022L817.969,249.022L811.507,264.313L804.185,265.283L804.185,272.39L810.323,272.39L810.323,290.912C810.323,295.112 810.215,298.235 810.215,302.435C810.215,313.958 816.353,318.48 827.014,318.48C835.845,318.48 841.121,314.927 844.029,308.681L841.337,306.204C839.506,307.604 837.891,308.358 836.06,308.358C833.045,308.358 830.783,306.096 830.783,301.25Z" style="fill-rule:nonzero;"/>
                    <path d="M887.535,318.48C895.181,318.48 899.381,315.896 901.965,309.327L898.842,307.604C897.55,309.542 896.796,309.973 895.935,309.973C894.75,309.973 894.104,309.219 894.104,308.142L894.104,283.482C894.104,268.729 888.612,262.59 873.751,262.59C856.413,262.59 847.475,269.052 847.475,278.313C848.552,282.19 851.46,284.128 855.659,284.128C860.29,284.128 864.49,280.79 864.49,272.067L864.49,268.405C865.028,268.405 865.567,268.405 866.105,268.405C872.889,268.405 874.289,271.313 874.289,280.467L874.289,284.343C871.813,284.989 869.443,285.636 867.72,286.066C850.275,290.697 845.644,296.297 845.644,304.589C845.644,313.419 851.136,318.48 859.644,318.48C867.397,318.48 870.736,315.465 874.936,310.835C876.766,315.788 880.751,318.48 887.535,318.48ZM864.597,253.545L869.228,257.314C871.382,255.914 873.536,254.406 880.643,249.452C885.381,246.114 888.72,242.991 888.72,239.114C888.72,234.915 885.381,232.33 882.151,232.33C877.951,232.33 875.797,234.699 872.566,240.084C867.505,248.483 865.997,250.96 864.597,253.545ZM864.167,301.25C864.167,295.435 868.151,291.989 871.166,290.589C872.028,290.158 873.105,289.728 874.289,289.405L874.289,307.281C872.674,308.465 871.166,309.112 869.767,309.112C866.644,309.112 864.167,306.527 864.167,301.25Z" style="fill-rule:nonzero;"/>
                    <path d="M936.748,268.405L937.179,268.405L937.395,272.928C937.825,282.405 942.133,285.205 946.656,285.205C950.963,285.205 953.44,283.266 954.84,278.959C954.302,270.128 946.333,262.59 934.272,262.59C916.934,262.59 903.473,272.821 903.473,290.697C903.473,309.435 916.718,318.48 931.364,318.48C941.594,318.48 949.671,314.604 954.302,305.881L950.102,301.789C947.086,304.696 943.856,306.85 939.118,306.85C930.503,306.85 925.01,300.281 925.01,288.328C925.01,273.467 931.795,268.405 936.748,268.405Z" style="fill-rule:nonzero;"/>
                    <path d="M975.408,256.237C980.901,256.237 985.316,252.36 985.316,246.976C985.316,241.591 980.901,237.714 975.408,237.714C969.916,237.714 965.501,241.591 965.501,246.976C965.501,252.36 969.916,256.237 975.408,256.237ZM990.485,311.265L985.962,310.296C985.854,305.127 985.854,298.666 985.854,294.143L985.854,279.82L986.177,263.775L984.239,262.59L959.255,270.021L959.255,274.436L965.07,275.405C965.286,279.713 965.393,283.051 965.393,288.974L965.393,294.143C965.393,298.558 965.393,304.912 965.286,310.188L960.44,311.265L960.44,316.757L990.485,316.757L990.485,311.265Z" style="fill-rule:nonzero;"/>
                    <path d="M1022.36,268.405C1025.16,268.405 1027.85,271.098 1027.85,278.528C1027.85,284.02 1026.45,285.743 1021.28,285.743L1016.22,285.743C1016.55,272.39 1019.02,268.405 1022.36,268.405ZM1023.65,262.59C1009.55,262.59 994.685,271.852 994.685,290.374C994.685,308.142 1006.53,318.48 1022.68,318.48C1033.35,318.48 1041.42,314.604 1046.05,305.881L1041.85,301.789C1038.84,304.696 1034.96,306.85 1029.58,306.85C1023.22,306.85 1017.41,302.435 1016.33,291.881L1046.27,291.881C1046.7,289.943 1046.81,288.435 1046.81,286.174C1046.81,273.144 1039.05,262.59 1023.65,262.59Z" style="fill-rule:nonzero;"/>
                </g>
            </g>
            <g transform="matrix(0.74359,0,0,0.74359,546.123,-85.9333)">
                <g opacity="0.699431">
                    <path d="M697,429L697,412L786,412L786,429L790,429L790,410C790,409.474 789.787,408.959 789.414,408.586C789.042,408.214 788.527,408 788,408L695,408C694.473,408 693.958,408.214 693.586,408.586C693.213,408.959 693,409.474 693,410L693,429L697,429Z" style="fill:rgb(17,17,17);fill-rule:nonzero;"/>
                    <path d="M782,410L782,408L690,408L690,390L780,390L780,410L782,410L782,408L782,410L784,410L784,388C784,387.474 783.787,386.959 783.414,386.586C783.042,386.214 782.527,386 782,386L688,386C687.473,386 686.958,386.214 686.586,386.586C686.213,386.959 686,387.474 686,388L686,410C686,410.527 686.213,411.042 686.586,411.415C686.958,411.787 687.473,412 688,412L782,412C782.527,412 783.042,411.787 783.414,411.415C783.787,411.042 784,410.527 784,410L782,410Z" style="fill:rgb(17,17,17);fill-rule:nonzero;"/>
                    <path d="M788,388L788,386L697,386L697,370L786,370L786,388L788,388L788,386L788,388L790,388L790,368C790,367.474 789.787,366.959 789.414,366.586C789.042,366.214 788.527,366 788,366L695,366C694.473,366 693.958,366.214 693.586,366.586C693.213,366.959 693,367.474 693,368L693,388C693,388.527 693.213,389.042 693.586,389.415C693.958,389.787 694.473,390 695,390L788,390C788.527,390 789.042,389.787 789.414,389.415C789.787,389.042 790,388.527 790,388L788,388Z" style="fill:rgb(17,17,17);fill-rule:nonzero;"/>
                    <path d="M728,368L728,389L732,389L732,368" style="fill:rgb(17,17,17);fill-rule:nonzero;"/>
                    <path d="M762,368L762,389L766,389L766,368" style="fill:rgb(17,17,17);fill-rule:nonzero;"/>
                    <path d="M707,389L707,410L711,410L711,389" style="fill:rgb(17,17,17);fill-rule:nonzero;"/>
                    <path d="M765,410L765,429L769,429L769,410" style="fill:rgb(17,17,17);fill-rule:nonzero;"/>
                    <path d="M718,397L732,397L732,393L718,393" style="fill:rgb(17,17,17);fill-rule:nonzero;"/>
                    <path d="M718,405L759,405L759,401L718,401" style="fill:rgb(17,17,17);fill-rule:nonzero;"/>
                    <path d="M705,420L715,420L715,416L705,416" style="fill:rgb(17,17,17);fill-rule:nonzero;"/>
                    <path d="M721,420L759,420L759,416L721,416" style="fill:rgb(17,17,17);fill-rule:nonzero;"/>
                    <path d="M695,328L695,330L786,330L786,345L697,345L697,328L695,328L695,330L695,328L693,328L693,347C693,347.527 693.213,348.042 693.586,348.415C693.958,348.787 694.473,349 695,349L788,349C788.527,349 789.042,348.787 789.414,348.415C789.787,348.042 790,347.527 790,347L790,328C790,327.474 789.787,326.959 789.414,326.586C789.042,326.214 788.527,326 788,326L695,326C694.473,326 693.958,326.214 693.586,326.586C693.213,326.959 693,327.474 693,328L695,328Z" style="fill:rgb(17,17,17);fill-rule:nonzero;"/>
                    <path d="M688,347L688,349L780,349L780,366L690,366L690,347L688,347L688,349L688,347L686,347L686,368C686,368.527 686.213,369.042 686.586,369.415C686.958,369.787 687.473,370 688,370L782,370C782.527,370 783.042,369.787 783.414,369.415C783.787,369.042 784,368.527 784,368L784,347C784,346.474 783.787,345.959 783.414,345.586C783.042,345.214 782.527,345 782,345L688,345C687.473,345 686.958,345.214 686.586,345.586C686.213,345.959 686,346.474 686,347L688,347Z" style="fill:rgb(17,17,17);fill-rule:nonzero;"/>
                    <path d="M763,368L763,347L759,347L759,368" style="fill:rgb(17,17,17);fill-rule:nonzero;"/>
                    <path d="M717,347L717,327L713,327L713,347" style="fill:rgb(17,17,17);fill-rule:nonzero;"/>
                    <path d="M751,359L738,359L738,363L751,363" style="fill:rgb(17,17,17);fill-rule:nonzero;"/>
                    <path d="M751,353L711,353L711,357L751,357" style="fill:rgb(17,17,17);fill-rule:nonzero;"/>
                    <path d="M781,336L771,336L771,340L781,340" style="fill:rgb(17,17,17);fill-rule:nonzero;"/>
                    <path d="M763,336L724,336L724,340L763,340" style="fill:rgb(17,17,17);fill-rule:nonzero;"/>
                    <path d="M702,374L702,381L706,381L706,374" style="fill:rgb(17,17,17);fill-rule:nonzero;"/>
                    <path d="M708,374L708,381L712,381L712,374" style="fill:rgb(17,17,17);fill-rule:nonzero;"/>
                </g>
            </g>
            <g>
                <g opacity="0.699431">
                    <path d="M919,314L919,312L898,312L898,303L917,303L917,314L919,314L919,312L919,314L921,314L921,301C921,300.474 920.787,299.959 920.414,299.586C920.042,299.214 919.527,299 919,299L896,299C895.473,299 894.958,299.214 894.586,299.586C894.213,299.959 894,300.474 894,301L894,314C894,314.527 894.213,315.042 894.586,315.415C894.958,315.787 895.473,316 896,316L919,316C919.527,316 920.042,315.787 920.414,315.415C920.787,315.042 921,314.527 921,314L919,314Z" style="fill:rgb(17,17,17);fill-rule:nonzero;"/>
                    <path d="M905,314L905,354L909,354L909,314" style="fill:rgb(17,17,17);fill-rule:nonzero;"/>
                    <path d="M901.125,358.562L903.375,358.562C903.376,357.71 903.714,356.959 904.272,356.398C904.833,355.84 905.585,355.502 906.438,355.501C907.291,355.502 908.043,355.84 908.604,356.398C909.162,356.959 909.5,357.71 909.501,358.562C909.5,359.416 909.161,360.167 908.604,360.728C908.042,361.286 907.291,361.624 906.438,361.625C905.585,361.624 904.833,361.286 904.272,360.728C903.714,360.167 903.376,359.416 903.375,358.562L901.125,358.562L898.875,358.562C898.876,362.741 902.261,366.124 906.438,366.125C910.615,366.124 914,362.741 914.001,358.562C913.999,354.384 910.615,351.002 906.438,351.001C902.261,351.002 898.876,354.384 898.875,358.562L901.125,358.562Z" style="fill:rgb(17,17,17);fill-rule:nonzero;"/>
                    <path d="M918,291L895,291L895,295L918,295" style="fill:rgb(17,17,17);fill-rule:nonzero;"/>
                    <path d="M918,284L895,284L895,288L918,288" style="fill:rgb(17,17,17);fill-rule:nonzero;"/>
                    <path d="M909,285L909,210.001L905,210.001L905,285" style="fill:rgb(17,17,17);fill-rule:nonzero;"/>
                    <path d="M876.542,308.752L859.453,325.707C859.063,326.094 858.848,326.631 858.863,327.18C858.878,327.729 859.121,328.254 859.531,328.62L869.141,337.187L870.472,335.694L868.71,334.746C868.665,334.831 868.614,334.931 868.525,335.106C868.223,335.697 867.593,336.938 867.029,338.028C866.747,338.572 866.481,339.078 866.289,339.432C866.194,339.608 866.115,339.748 866.076,339.813L866.077,339.815L867.453,340.773L866.207,339.651C866.117,339.754 866.096,339.79 866.077,339.815L867.453,340.773L866.207,339.651L867.647,340.947L866.471,339.409C866.317,339.528 866.257,339.599 866.207,339.651L867.647,340.947L866.471,339.409L867.674,340.983L866.831,339.19C866.654,339.274 866.55,339.349 866.471,339.409L867.674,340.983L866.831,339.19L867.68,340.994L867.68,339C867.268,339.005 867.007,339.11 866.831,339.19L867.68,340.994L867.68,339L857,339C856.473,339 855.958,339.214 855.586,339.586C855.213,339.959 855,340.474 855,341L855,365C855,365.527 855.213,366.042 855.586,366.415C855.958,366.787 856.473,367 857,367L867.68,367L867.68,365L865.68,365.045C865.74,367.858 866.459,369.995 867.217,371.458C867.594,372.189 867.979,372.756 868.278,373.156C868.426,373.354 868.554,373.513 868.634,373.613L868.703,373.701L869.793,372.879L868.587,373.513C868.685,373.69 868.704,373.698 868.703,373.701L869.793,372.879L868.587,373.513L870.357,372.582L868.904,371.208L859.181,381.49C858.443,382.271 858.455,383.501 859.208,384.267L876.068,401.407C876.826,402.177 878.056,402.207 878.85,401.474L889.235,391.893L887.879,390.423L886.947,392.193L887.376,391.379L886.912,392.174L886.947,392.193L887.376,391.379L886.912,392.174C886.933,392.186 887.059,392.263 887.217,392.359C887.79,392.707 888.91,393.375 890.264,393.983C891.627,394.586 893.21,395.164 894.925,395.24L895,393.241L893,393.241L893,406C893,406.527 893.213,407.042 893.586,407.415C893.958,407.787 894.473,408 895,408L919,408C919.527,408 920.042,407.787 920.414,407.415C920.787,407.042 921,406.527 921,406L921,393.241L919.006,393.241L920.743,394.221C920.841,394.037 920.992,393.745 921,393.241L919.006,393.241L920.743,394.221L919.031,393.255L920.332,394.729C920.411,394.648 920.53,394.575 920.743,394.221L919.031,393.255L920.332,394.729L919.191,393.437L920.108,394.898C920.14,394.875 920.179,394.86 920.332,394.729L919.191,393.437L920.108,394.898L919.604,394.094L920.083,394.913L920.108,394.898L919.604,394.094L920.083,394.913L920.031,394.824L920.082,394.914L920.083,394.913L920.031,394.824L920.082,394.914C920.105,394.901 920.246,394.827 920.426,394.74C921.073,394.425 922.301,393.864 923.381,393.374C923.922,393.128 924.43,392.898 924.822,392.72C925.019,392.63 925.186,392.554 925.317,392.493L925.49,392.412L925.653,392.331L924.718,390.563L923.277,391.95L932.629,401.672C933.004,402.062 933.514,402.281 934.056,402.285C934.598,402.289 935.111,402.077 935.492,401.692L952.166,384.832C952.913,384.077 952.94,382.871 952.227,382.084L942.414,371.24L940.931,372.582L942.707,373.501L941.523,372.888L942.602,373.677C942.6,373.676 942.617,373.669 942.707,373.501L941.523,372.888L942.602,373.677C942.61,373.665 942.693,373.559 942.797,373.422C943.176,372.926 943.855,371.969 944.422,370.579C944.994,369.186 945.464,367.342 945.514,365.045L943.515,365L943.515,367L959,367C959.527,367 960.042,366.787 960.414,366.415C960.787,366.042 961,365.527 961,365L961,341C961,340.474 960.787,339.959 960.414,339.586C960.042,339.214 959.527,339 959,339L943.515,339L943.515,340.994L944.436,339.226C944.256,339.137 943.98,339.007 943.515,339L943.515,340.994L944.436,339.226L943.527,340.969L944.948,339.609C944.864,339.533 944.782,339.418 944.436,339.226L943.527,340.969L944.948,339.609L943.689,340.815L945.129,339.831C945.104,339.799 945.085,339.757 944.948,339.609L943.689,340.815L945.129,339.831L945.121,339.836L945.131,339.831L945.129,339.831L945.121,339.836L945.131,339.831C945.047,339.685 944.832,339.276 944.589,338.795C944.219,338.067 943.758,337.135 943.376,336.36C943.185,335.973 943.014,335.624 942.882,335.357C942.816,335.223 942.76,335.11 942.715,335.02C942.668,334.927 942.642,334.873 942.603,334.799L940.838,335.741L942.207,337.199L951.927,328.077C952.323,327.706 952.553,327.184 952.559,326.642C952.565,326.1 952.347,325.572 951.96,325.192L935.101,308.633L932.299,311.487L947.671,326.586L939.47,334.282C938.809,334.902 938.647,335.883 939.074,336.683L939.346,336.537L939.072,336.679L939.074,336.683L939.346,336.537L939.072,336.679C939.085,336.704 939.15,336.834 939.234,337.004C939.533,337.609 940.133,338.835 940.673,339.913C940.943,340.453 941.198,340.955 941.4,341.34C941.502,341.535 941.589,341.696 941.673,341.842C941.717,341.917 941.756,341.984 941.826,342.087C941.864,342.142 941.903,342.201 942.009,342.322C942.066,342.384 942.134,342.462 942.297,342.589C942.38,342.651 942.489,342.729 942.669,342.814C942.848,342.894 943.113,342.997 943.515,343L957,343L957,363L943.515,363C942.428,363 941.539,363.87 941.515,364.956C941.463,367.156 940.947,368.653 940.455,369.651C940.207,370.15 939.964,370.52 939.769,370.791C939.67,370.928 939.585,371.038 939.504,371.143L939.374,371.315C939.323,371.389 939.268,371.453 939.155,371.662C938.772,372.402 938.889,373.306 939.448,373.924L947.991,383.365L934.09,397.421L926.159,389.177C925.54,388.532 924.573,388.377 923.783,388.795L924.282,389.739L923.805,388.784L923.783,388.795L924.282,389.739L923.805,388.784C923.804,388.785 923.662,388.852 923.483,388.934C922.837,389.23 921.502,389.831 920.329,390.369C919.741,390.639 919.194,390.893 918.777,391.095C918.566,391.196 918.392,391.282 918.237,391.364C918.157,391.407 918.088,391.444 917.982,391.51C917.926,391.546 917.866,391.581 917.742,391.682C917.677,391.737 917.596,391.801 917.461,391.962C917.393,392.045 917.309,392.153 917.214,392.34C917.124,392.525 917.004,392.807 917,393.241L917,404L897,404L897,393.241C897,392.167 896.148,391.283 895.075,391.242C894.589,391.226 893.951,391.095 893.29,390.877C892.294,390.553 891.25,390.047 890.444,389.606C890.041,389.386 889.695,389.182 889.433,389.025C889.302,388.946 889.192,388.878 889.1,388.822L888.971,388.744L888.811,388.653C888.062,388.26 887.144,388.38 886.523,388.953L877.561,397.221L863.412,382.837L871.81,373.956C872.4,373.333 872.527,372.409 872.127,371.65C872.008,371.431 871.949,371.367 871.896,371.292C871.801,371.166 871.731,371.083 871.645,370.973C871.358,370.607 870.912,370.009 870.497,369.039C870.088,368.072 869.72,366.751 869.679,364.956C869.655,363.87 868.766,363 867.68,363L859,363L859,343L867.68,343C868.152,342.994 868.426,342.862 868.606,342.774C868.952,342.583 869.037,342.467 869.126,342.385C869.274,342.229 869.311,342.166 869.357,342.105C869.433,341.994 869.474,341.924 869.524,341.841C869.697,341.546 869.918,341.133 870.189,340.618C870.591,339.854 871.077,338.906 871.478,338.119C871.679,337.726 871.858,337.374 871.994,337.107C872.062,336.974 872.119,336.863 872.162,336.78L872.213,336.679L872.229,336.649L872.233,336.642C872.671,335.828 872.492,334.816 871.803,334.201L863.78,327.049L879.36,311.592L876.542,308.752Z" style="fill:rgb(17,17,17);fill-rule:nonzero;"/>
                </g>
            </g>
            <g transform="matrix(1,0,0,1,-333.369,24.0155)">
                <g opacity="0.699431">
                    <path d="M559,458L513,458L513,388L606,388L606,458L592,458L592,462L608,462C608.527,462 609.042,461.787 609.414,461.415C609.787,461.042 610,460.527 610,460L610,386C610,385.474 609.787,384.959 609.414,384.586C609.042,384.214 608.527,384 608,384L511,384C510.473,384 509.958,384.214 509.586,384.586C509.213,384.959 509,385.474 509,386L509,460C509,460.527 509.213,461.042 509.586,461.415C509.958,461.787 510.473,462 511,462L559,462L559,458.001L559,458Z" style="fill:rgb(17,17,17);fill-rule:nonzero;"/>
                    <path d="M526,393L520,393C519.473,393 518.958,393.214 518.586,393.586C518.213,393.959 518,394.474 518,395L518,401L522,401L522,397L526,397L526,393Z" style="fill:rgb(17,17,17);fill-rule:nonzero;"/>
                    <path d="M526,450L522,450L522,444L518,444L518,452C518,452.527 518.213,453.042 518.586,453.415C518.958,453.787 519.473,454 520,454L526,454L526,450.001L526,450Z" style="fill:rgb(17,17,17);fill-rule:nonzero;"/>
                    <path d="M601,401L601,395C601,394.474 600.787,393.959 600.414,393.586C600.042,393.214 599.527,393 599,393L594,393L594,397L597,397L597,401L601,401Z" style="fill:rgb(17,17,17);fill-rule:nonzero;"/>
                    <path d="M597,444L597,450L594,450L594,454L599,454C599.527,454 600.042,453.787 600.414,453.415C600.787,453.042 601,452.527 601,452L601,444L597,444Z" style="fill:rgb(17,17,17);fill-rule:nonzero;"/>
                    <path d="M525,418L595,418L595,414L525,414" style="fill:rgb(17,17,17);fill-rule:nonzero;"/>
                    <path d="M525,427L595,427L595,423L525,423" style="fill:rgb(17,17,17);fill-rule:nonzero;"/>
                    <path d="M525,435L595,435L595,431L525,431" style="fill:rgb(17,17,17);fill-rule:nonzero;"/>
                    <path d="M534,445L540,445L540,441L534,441" style="fill:rgb(17,17,17);fill-rule:nonzero;"/>
                    <path d="M543,445L550,445L550,441L543,441" style="fill:rgb(17,17,17);fill-rule:nonzero;"/>
                    <path d="M553,445L559,445L559,441L553,441" style="fill:rgb(17,17,17);fill-rule:nonzero;"/>
                    <path d="M534,454L540,454L540,450L534,450" style="fill:rgb(17,17,17);fill-rule:nonzero;"/>
                    <path d="M543,454L550,454L550,450L543,450" style="fill:rgb(17,17,17);fill-rule:nonzero;"/>
                    <path d="M553,454L559,454L559,450L553,450" style="fill:rgb(17,17,17);fill-rule:nonzero;"/>
                    <path d="M567,405.653L565,405.653C564.999,406.396 564.396,406.999 563.651,407L556.349,407C555.604,406.999 555.001,406.396 555,405.653L555,398.348C555.001,397.605 555.604,397.002 556.349,397L563.651,397C564.396,397.002 564.999,397.605 565,398.348L565,405.653L569,405.653L569,398.348C568.999,395.394 566.606,393.002 563.651,393L556.349,393C553.394,393.002 551.001,395.394 551,398.348L551,405.653C551.001,408.607 553.394,410.999 556.349,411L563.651,411C566.606,410.999 568.999,408.607 569,405.653L567,405.653Z" style="fill:rgb(17,17,17);fill-rule:nonzero;"/>
                    <path d="M564,459L564,479.251C564,479.952 564.366,480.601 564.967,480.963C565.567,481.326 566.312,481.347 566.932,481.02L575,476.769L583.068,481.02C583.688,481.347 584.433,481.326 585.033,480.963C585.634,480.601 586,479.952 586,479.251L586,459L582,459L582,475.936L575.932,472.739C575.347,472.43 574.653,472.43 574.068,472.739L568,475.936L568,459L564,459Z" style="fill:rgb(17,17,17);fill-rule:nonzero;"/>
                    <path d="M571,454L580,454L580,450L571,450" style="fill:rgb(17,17,17);fill-rule:nonzero;"/>
                </g>
            </g>
            <g transform="matrix(0.857831,0,0,0.857831,28.17,-35.8601)">
                <g opacity="0.699431">
                    <path d="M195,241L221,241L221,261L225,261L225,239.001C225,238.474 224.787,237.959 224.414,237.586C224.042,237.214 223.527,237.001 223,237.001L195,237.001L195,241.001L195,241Z" style="fill:rgb(17,17,17);fill-rule:nonzero;"/>
                    <path d="M211,294L211,271L264,271L264,267L209,267C208.473,267 207.958,267.214 207.586,267.586C207.213,267.959 207,268.474 207,269L207,294L211,294Z" style="fill:rgb(17,17,17);fill-rule:nonzero;"/>
                    <path d="M237,270L237,283C237,283.527 237.213,284.042 237.586,284.415C237.958,284.787 238.473,285 239,285L267,285L267,281L241,281L241,270L237,270Z" style="fill:rgb(17,17,17);fill-rule:nonzero;"/>
                    <path d="M234,225.001L234,251.001C234,251.527 234.213,252.042 234.586,252.415C234.958,252.787 235.473,253 236,253L267,253L267,249.001L238,249.001L238,225.001L234,225.001Z" style="fill:rgb(17,17,17);fill-rule:nonzero;"/>
                    <path d="M213,231.001L213,225.001L209,225.001L209,231.001" style="fill:rgb(17,17,17);fill-rule:nonzero;"/>
                    <path d="M237,237L259,237C259.527,237 260.042,236.787 260.414,236.415C260.786,236.042 261,235.527 261,235.001L261,230.001L257,230.001L257,233L237,233.001L237,237.001L237,237Z" style="fill:rgb(17,17,17);fill-rule:nonzero;"/>
                    <path d="M250,270L250,259C250,258.474 249.787,257.959 249.414,257.586C249.042,257.214 248.527,257 248,257L232,257C231.473,257 230.958,257.214 230.586,257.586C230.213,257.959 230,258.474 230,259L230,264L234,264L234,261L246,261L246,270L250,270Z" style="fill:rgb(17,17,17);fill-rule:nonzero;"/>
                    <path d="M195,255L209,255C209.527,255 210.042,254.787 210.414,254.415C210.787,254.042 211,253.527 211,253.001L211,245.001L207,245.001L207,251.001L195,251.001L195,255.001L195,255Z" style="fill:rgb(17,17,17);fill-rule:nonzero;"/>
                    <path d="M210,278L201,278L201,282L210,282" style="fill:rgb(17,17,17);fill-rule:nonzero;"/>
                    <path d="M221,270L221,282L225,282L225,270" style="fill:rgb(17,17,17);fill-rule:nonzero;"/>
                    <path d="M276,258L258,258L258,262L276,262" style="fill:rgb(17,17,17);fill-rule:nonzero;"/>
                    <path d="M181,214.001L179,214.001L179,305C179,305.527 179.213,306.042 179.586,306.415C179.958,306.787 180.473,307 181,307L243,307L243,321.001C243,321.803 243.481,322.53 244.221,322.843C244.96,323.155 245.816,322.995 246.393,322.436L262.305,307L289,307C289.527,307 290.042,306.787 290.414,306.415C290.787,306.042 291,305.527 291,305L291,214.001C291,213.474 290.787,212.959 290.414,212.586C290.042,212.214 289.527,212.001 289,212.001L181,212.001C180.473,212.001 179.958,212.214 179.586,212.586C179.213,212.959 179,213.474 179,214.001L181,214.001L181,216L287,216L287,303L261.495,303C260.976,303 260.474,303.204 260.101,303.565L247,316.274L247,305C247,304.474 246.787,303.959 246.414,303.586C246.042,303.214 245.527,303 245,303L183,303L183,214.001L181,214.001L181,216L181,214.001Z" style="fill:rgb(17,17,17);fill-rule:nonzero;"/>
                </g>
            </g>
            <g transform="matrix(1,0,0,1,122.637,38.1227)">
                <g opacity="0.699431">
                    <g>
                        <path d="M314.005,456.483L311.755,456.483L311.755,468.483C311.755,469.075 311.996,469.655 312.414,470.074C312.833,470.493 313.413,470.733 314.005,470.733L387.505,470.733C388.098,470.733 388.677,470.493 389.096,470.074C389.515,469.655 389.755,469.075 389.755,468.483L389.755,456.483C389.755,455.89 389.515,455.311 389.096,454.892C388.677,454.473 388.098,454.233 387.505,454.233L314.005,454.233C313.413,454.233 312.833,454.473 312.414,454.892C311.996,455.311 311.755,455.89 311.755,456.483L314.005,456.483L314.005,458.733L385.255,458.733L385.255,466.233L316.255,466.233L316.255,456.483L314.005,456.483L314.005,458.733L314.005,456.483Z" style="fill:rgb(17,17,17);fill-rule:nonzero;"/>
                        <path d="M294.505,456.483L292.255,456.483L292.255,468.483C292.255,469.075 292.495,469.655 292.914,470.074C293.333,470.493 293.912,470.733 294.505,470.733L314.005,470.733C314.598,470.733 315.177,470.493 315.596,470.074C316.015,469.655 316.255,469.075 316.255,468.483L316.255,456.483C316.255,455.89 316.015,455.311 315.596,454.892C315.177,454.473 314.598,454.233 314.005,454.233L294.505,454.233C293.912,454.233 293.333,454.473 292.914,454.892C292.495,455.311 292.255,455.89 292.255,456.483L294.505,456.483L294.505,458.733L311.755,458.733L311.755,466.233L296.755,466.233L296.755,456.483L294.505,456.483L294.505,458.733L294.505,456.483Z" style="fill:rgb(17,17,17);fill-rule:nonzero;"/>
                        <path d="M404.495,461.774L403.664,459.682L389.755,465.205L389.755,459.532L403.824,463.922L404.495,461.774L403.664,459.682L404.495,461.774L405.165,459.626L388.176,454.325C387.494,454.112 386.748,454.237 386.172,454.66C385.597,455.083 385.255,455.758 385.255,456.472L385.255,468.519C385.255,469.264 385.625,469.962 386.242,470.381C386.858,470.799 387.643,470.885 388.336,470.61L405.325,463.865C406.209,463.514 406.779,462.639 406.743,461.689C406.707,460.738 406.073,459.909 405.165,459.626L404.495,461.774Z" style="fill:rgb(17,17,17);fill-rule:nonzero;"/>
                        <path d="M305.755,455.733L305.755,451.233L361.255,451.233L361.255,446.733L303.505,446.733C302.912,446.733 302.333,446.973 301.914,447.392C301.495,447.811 301.255,448.39 301.255,448.983L301.255,455.733L305.755,455.733Z" style="fill:rgb(17,17,17);fill-rule:nonzero;"/>
                    </g>
                    <path d="M460,459L453.889,459L453.881,459L453.881,458.999C453.863,458.991 453.764,458.931 453.616,458.753C453.354,458.447 453.003,457.809 452.669,457.028C452.151,455.85 451.658,454.387 450.912,453.042C450.531,452.369 450.08,451.703 449.407,451.129C449.07,450.845 448.672,450.589 448.215,450.407C447.759,450.225 447.248,450.124 446.735,450.126C445.86,450.118 445.013,450.433 444.391,450.885C443.84,451.279 443.428,451.75 443.086,452.233C442.492,453.082 442.087,453.994 441.713,454.892C441.165,456.232 440.683,457.566 440.209,458.386C439.979,458.796 439.757,459.055 439.647,459.141L439.573,459.192L439.596,459.25L439.584,459.189L439.573,459.192L439.596,459.25L439.584,459.189L439.585,459.193L439.585,459.188L439.584,459.189L439.585,459.193L439.585,459.188L439.584,459.188L439.573,459.257L439.595,459.191L439.584,459.188L439.573,459.257L439.595,459.191L439.593,459.19C439.578,459.184 439.476,459.122 439.326,458.937C439.058,458.62 438.703,457.961 438.366,457.158C437.843,455.947 437.348,454.448 436.603,453.077C436.223,452.391 435.776,451.714 435.104,451.128C434.768,450.837 434.369,450.574 433.909,450.386C433.45,450.198 432.931,450.093 432.412,450.094C431.544,450.087 430.705,450.393 430.082,450.835C429.53,451.22 429.114,451.685 428.768,452.161C428.168,452.997 427.757,453.896 427.377,454.779C426.821,456.098 426.333,457.408 425.856,458.209C425.624,458.61 425.403,458.862 425.291,458.948L425.21,459.001L425.219,459.024L425.214,459L425.21,459.001L425.219,459.024L425.214,459L425.208,459L418,459L418,463L425.208,463C426.075,463.008 426.915,462.702 427.537,462.26C428.089,461.874 428.505,461.41 428.851,460.934C429.451,460.098 429.862,459.199 430.242,458.316C430.798,456.997 431.286,455.687 431.764,454.886C431.995,454.485 432.216,454.232 432.328,454.147L432.409,454.093L432.4,454.071L432.405,454.094L432.409,454.093L432.4,454.071L432.405,454.094L432.412,454.094L432.424,454.025L432.402,454.091L432.412,454.094L432.424,454.025L432.402,454.091L432.403,454.092C432.418,454.098 432.52,454.16 432.67,454.346C432.937,454.662 433.292,455.321 433.63,456.124C434.152,457.336 434.648,458.834 435.393,460.205C435.773,460.892 436.22,461.569 436.892,462.155C437.228,462.446 437.627,462.709 438.088,462.896C438.547,463.085 439.065,463.19 439.585,463.188C440.46,463.196 441.307,462.881 441.928,462.429C442.48,462.035 442.892,461.563 443.233,461.08C443.827,460.231 444.232,459.32 444.606,458.422C445.154,457.082 445.635,455.747 446.11,454.928C446.34,454.518 446.562,454.259 446.672,454.173L446.746,454.122L446.724,454.065L446.735,454.125L446.746,454.122L446.724,454.065L446.735,454.125L446.735,454.123L446.735,454.126L446.735,454.125L446.735,454.123L446.735,454.126L446.743,454.126L446.743,454.127C446.761,454.135 446.86,454.195 447.008,454.374C447.27,454.679 447.621,455.317 447.955,456.098C448.474,457.276 448.966,458.739 449.712,460.084C450.093,460.757 450.544,461.423 451.217,461.997C451.554,462.281 451.952,462.537 452.409,462.719C452.865,462.901 453.376,463.002 453.889,463L460,463L460,459.001L460,459Z" style="fill:rgb(17,17,17);fill-rule:nonzero;"/>
                </g>
            </g>
            <g transform="matrix(1,0,0,1,-751.019,-77.6778)">
                <g opacity="0.699431">
                    <path d="M804.019,414L835,414L835,410L804.019,410" style="fill:rgb(17,17,17);fill-rule:nonzero;"/>
                    <path d="M808,407L808,309L824,309L824,407L828,407L828,307C828,306.474 827.787,305.959 827.414,305.586C827.042,305.214 826.527,305 826,305L806,305C805.473,305 804.958,305.214 804.586,305.586C804.213,305.959 804,306.474 804,307L804,407L808,407Z" style="fill:rgb(17,17,17);fill-rule:nonzero;"/>
                    <path d="M807,321L817,321L817,317L807,317" style="fill:rgb(17,17,17);fill-rule:nonzero;"/>
                    <path d="M807,333L817,333L817,329L807,329" style="fill:rgb(17,17,17);fill-rule:nonzero;"/>
                    <path d="M807,345L817,345L817,341L807,341" style="fill:rgb(17,17,17);fill-rule:nonzero;"/>
                    <path d="M807,357L817,357L817,353L807,353" style="fill:rgb(17,17,17);fill-rule:nonzero;"/>
                    <path d="M807,369L817,369L817,365L807,365" style="fill:rgb(17,17,17);fill-rule:nonzero;"/>
                    <path d="M807,381L817,381L817,377L807,377" style="fill:rgb(17,17,17);fill-rule:nonzero;"/>
                    <path d="M807,394L817,394L817,390L807,390" style="fill:rgb(17,17,17);fill-rule:nonzero;"/>
                </g>
            </g>
            <path d="M358,197.001L349,197.001L349,201.001L358,201.001" style="fill:rgb(17,17,17);fill-opacity:0.699431;fill-rule:nonzero;"/>
            <path d="M358,182.001L313,182.001L313,186.001L358,186.001" style="fill:rgb(17,17,17);fill-opacity:0.699431;fill-rule:nonzero;"/>
            <path d="M358,167.001L313,167.001L313,171.001L358,171.001" style="fill:rgb(17,17,17);fill-opacity:0.699431;fill-rule:nonzero;"/>
            <path d="M343,197.001L334,197.001L334,201.001L343,201.001" style="fill:rgb(17,17,17);fill-opacity:0.699431;fill-rule:nonzero;"/>
            <path d="M916,488L907,488L907,492L916,492" style="fill:rgb(17,17,17);fill-opacity:0.699431;fill-rule:nonzero;"/>
            <path d="M901,488L892,488L892,492L901,492" style="fill:rgb(17,17,17);fill-opacity:0.699431;fill-rule:nonzero;"/>
            <g transform="matrix(1,0,0,1,-31.6186,-72.084)">
                <path d="M1021,237.001L1030,237.001L1030,233.001L1021,233.001" style="fill:rgb(17,17,17);fill-opacity:0.699431;fill-rule:nonzero;"/>
            </g>
            <g transform="matrix(1,0,0,1,-31.6186,-72.084)">
                <path d="M1021,252.001L1066,252.001L1066,248.001L1021,248.001" style="fill:rgb(17,17,17);fill-opacity:0.699431;fill-rule:nonzero;"/>
            </g>
            <g transform="matrix(1,0,0,1,-31.6186,-72.084)">
                <path d="M1021,267L1066,267L1066,263L1021,263" style="fill:rgb(17,17,17);fill-opacity:0.699431;fill-rule:nonzero;"/>
            </g>
            <g transform="matrix(1,0,0,1,-31.6186,-72.084)">
                <path d="M1036,237.001L1045,237.001L1045,233.001L1036,233.001" style="fill:rgb(17,17,17);fill-opacity:0.699431;fill-rule:nonzero;"/>
            </g>
            <g transform="matrix(1,0,0,1,0,-16.7534)">
                <path d="M1128,341L1128,350L1132,350L1132,341" style="fill:rgb(17,17,17);fill-opacity:0.699431;fill-rule:nonzero;"/>
                <path d="M1128,357L1128,365L1132,365L1132,357" style="fill:rgb(17,17,17);fill-opacity:0.699431;fill-rule:nonzero;"/>
                <path d="M1117,355L1125,355L1125,351L1117,351" style="fill:rgb(17,17,17);fill-opacity:0.699431;fill-rule:nonzero;"/>
                <path d="M1135,355L1143,355L1143,351L1135,351" style="fill:rgb(17,17,17);fill-opacity:0.699431;fill-rule:nonzero;"/>
            </g>
            <g transform="matrix(1,0,0,1,12.2142,-17.1178)">
                <path d="M87,440L87,449L91,449L91,440" style="fill:rgb(17,17,17);fill-opacity:0.699431;fill-rule:nonzero;"/>
            </g>
            <g transform="matrix(1,0,0,1,12.2142,-17.1178)">
                <path d="M87,456L87,464L91,464L91,456" style="fill:rgb(17,17,17);fill-opacity:0.699431;fill-rule:nonzero;"/>
            </g>
            <g transform="matrix(1,0,0,1,12.2142,-17.1178)">
                <path d="M76,454L84,454L84,450L76,450" style="fill:rgb(17,17,17);fill-opacity:0.699431;fill-rule:nonzero;"/>
            </g>
            <g transform="matrix(1,0,0,1,12.2142,-17.1178)">
                <path d="M94,454L102,454L102,450L94,450" style="fill:rgb(17,17,17);fill-opacity:0.699431;fill-rule:nonzero;"/>
            </g>
            <path d="M833,158.001L833,167.001L837,167.001L837,158.001" style="fill:rgb(17,17,17);fill-opacity:0.699431;fill-rule:nonzero;"/>
            <path d="M833,174.001L833,182.001L837,182.001L837,174.001" style="fill:rgb(17,17,17);fill-opacity:0.699431;fill-rule:nonzero;"/>
            <path d="M822,172.001L829,172.001L829,168.001L822,168.001" style="fill:rgb(17,17,17);fill-opacity:0.699431;fill-rule:nonzero;"/>
            <path d="M840,172.001L847,172.001L847,168.001L840,168.001" style="fill:rgb(17,17,17);fill-opacity:0.699431;fill-rule:nonzero;"/>
            <path d="M1001,480L1001,489L1005,489L1005,480" style="fill:rgb(17,17,17);fill-opacity:0.699431;fill-rule:nonzero;"/>
            <path d="M1001,497L1001,504L1005,504L1005,497" style="fill:rgb(17,17,17);fill-opacity:0.699431;fill-rule:nonzero;"/>
            <path d="M990,495L997,495L997,491L990,491" style="fill:rgb(17,17,17);fill-opacity:0.699431;fill-rule:nonzero;"/>
            <path d="M1008,495L1015,495L1015,491L1008,491" style="fill:rgb(17,17,17);fill-opacity:0.699431;fill-rule:nonzero;"/>
            <g transform="matrix(1,0,0,1,-42.326,32.4497)">
                <path d="M586.228,166.365L583.978,166.365C583.977,167.576 583.493,168.653 582.699,169.45C581.902,170.243 580.825,170.727 579.614,170.728C578.402,170.727 577.325,170.243 576.528,169.45C575.735,168.653 575.251,167.576 575.25,166.365C575.251,165.153 575.735,164.076 576.528,163.279C577.325,162.486 578.402,162.002 579.614,162.001C580.825,162.002 581.902,162.486 582.699,163.279C583.493,164.076 583.977,165.153 583.978,166.365L588.478,166.365C588.476,161.469 584.51,157.503 579.614,157.501C574.718,157.503 570.752,161.469 570.75,166.365C570.752,171.26 574.718,175.227 579.614,175.228C584.51,175.227 588.476,171.26 588.478,166.365L586.228,166.365Z" style="fill:rgb(17,17,17);fill-opacity:0.699431;fill-rule:nonzero;"/>
                <path d="M608.9,166.365L606.65,166.365C606.649,167.576 606.166,168.653 605.372,169.45C604.576,170.243 603.5,170.727 602.288,170.728C601.076,170.727 599.999,170.243 599.202,169.45C598.409,168.653 597.925,167.576 597.924,166.365C597.925,165.153 598.409,164.076 599.202,163.279C599.999,162.486 601.076,162.002 602.288,162.001C603.5,162.002 604.576,162.486 605.372,163.279C606.166,164.076 606.649,165.153 606.65,166.365L611.15,166.365C611.149,161.469 607.184,157.502 602.288,157.501C597.391,157.502 593.426,161.469 593.424,166.365C593.426,171.26 597.391,175.227 602.288,175.228C607.184,175.227 611.149,171.26 611.15,166.365L608.9,166.365Z" style="fill:rgb(17,17,17);fill-opacity:0.699431;fill-rule:nonzero;"/>
                <path d="M631.576,166.365L629.326,166.365C629.325,167.576 628.841,168.653 628.048,169.45C627.251,170.243 626.174,170.727 624.962,170.728C623.751,170.727 622.674,170.243 621.877,169.45C621.083,168.653 620.6,167.576 620.599,166.365C620.6,165.153 621.083,164.076 621.877,163.279C622.674,162.486 623.751,162.002 624.962,162.001C626.174,162.002 627.251,162.486 628.048,163.279C628.841,164.076 629.325,165.153 629.326,166.365L633.826,166.365C633.824,161.469 629.858,157.503 624.962,157.501C620.066,157.503 616.1,161.469 616.099,166.365C616.1,171.26 620.066,175.227 624.962,175.228C629.858,175.227 633.824,171.26 633.826,166.365L631.576,166.365Z" style="fill:rgb(17,17,17);fill-opacity:0.699431;fill-rule:nonzero;"/>
            </g>
            <path d="M742.228,502.365L739.978,502.365C739.976,503.576 739.493,504.653 738.699,505.45C737.902,506.243 736.825,506.727 735.614,506.728C734.402,506.727 733.325,506.243 732.528,505.45C731.735,504.653 731.251,503.576 731.25,502.365C731.251,501.153 731.735,500.076 732.528,499.279C733.325,498.486 734.402,498.002 735.614,498.001C736.825,498.002 737.902,498.486 738.699,499.279C739.493,500.076 739.976,501.153 739.978,502.365L744.477,502.365C744.476,497.469 740.51,493.503 735.614,493.501C730.718,493.503 726.752,497.469 726.75,502.365C726.752,507.26 730.718,511.227 735.614,511.228C740.51,511.227 744.476,507.26 744.477,502.365L742.228,502.365Z" style="fill:rgb(17,17,17);fill-opacity:0.699431;fill-rule:nonzero;"/>
            <path d="M764.9,502.365L762.65,502.365C762.649,503.576 762.165,504.653 761.372,505.45C760.576,506.243 759.499,506.727 758.288,506.728C757.076,506.727 755.999,506.243 755.202,505.45C754.409,504.653 753.925,503.576 753.924,502.365C753.925,501.153 754.409,500.076 755.202,499.279C755.999,498.486 757.076,498.002 758.288,498.001C759.499,498.002 760.576,498.486 761.372,499.279C762.165,500.076 762.649,501.153 762.65,502.365L767.15,502.365C767.149,497.469 763.184,493.502 758.288,493.501C753.391,493.502 749.426,497.469 749.424,502.365C749.426,507.26 753.391,511.227 758.288,511.228C763.184,511.227 767.149,507.26 767.15,502.365L764.9,502.365Z" style="fill:rgb(17,17,17);fill-opacity:0.699431;fill-rule:nonzero;"/>
            <path d="M787.576,502.365L785.326,502.365C785.325,503.576 784.841,504.653 784.048,505.45C783.251,506.243 782.174,506.727 780.962,506.728C779.751,506.727 778.674,506.243 777.877,505.45C777.083,504.653 776.6,503.576 776.598,502.365C776.6,501.153 777.083,500.076 777.877,499.279C778.674,498.486 779.751,498.002 780.962,498.001C782.174,498.002 783.251,498.486 784.048,499.279C784.841,500.076 785.325,501.153 785.326,502.365L789.826,502.365C789.824,497.469 785.858,493.503 780.962,493.501C776.066,493.503 772.1,497.469 772.099,502.365C772.1,507.26 776.066,511.227 780.962,511.228C785.858,511.227 789.824,507.26 789.826,502.365L787.576,502.365Z" style="fill:rgb(17,17,17);fill-opacity:0.699431;fill-rule:nonzero;"/>
            <g transform="matrix(1,0,0,1,-30.6817,0)">
                <path d="M121.228,487.365L118.978,487.365C118.977,488.576 118.493,489.653 117.699,490.45C116.902,491.243 115.825,491.727 114.614,491.728C113.403,491.727 112.326,491.243 111.529,490.45C110.735,489.653 110.251,488.576 110.25,487.365C110.251,486.153 110.735,485.076 111.529,484.279C112.326,483.486 113.403,483.002 114.614,483.001C115.825,483.002 116.902,483.486 117.699,484.279C118.493,485.076 118.977,486.153 118.978,487.365L123.478,487.365C123.476,482.469 119.51,478.503 114.614,478.501C109.718,478.503 105.752,482.469 105.75,487.365C105.752,492.26 109.718,496.227 114.614,496.228C119.51,496.227 123.476,492.26 123.478,487.365L121.228,487.365Z" style="fill:rgb(17,17,17);fill-opacity:0.699431;fill-rule:nonzero;"/>
            </g>
            <g transform="matrix(1,0,0,1,-30.6817,0)">
                <path d="M143.901,487.365L141.651,487.365C141.65,488.576 141.166,489.653 140.373,490.45C139.576,491.243 138.5,491.727 137.288,491.728C136.076,491.727 134.999,491.243 134.203,490.45C133.409,489.653 132.926,488.576 132.925,487.365C132.926,486.153 133.409,485.076 134.203,484.279C134.999,483.486 136.076,483.002 137.288,483.001C138.5,483.002 139.576,483.486 140.373,484.279C141.166,485.076 141.65,486.153 141.651,487.365L146.151,487.365C146.149,482.469 142.184,478.502 137.288,478.501C132.391,478.502 128.425,482.469 128.425,487.365C128.425,492.26 132.391,496.227 137.288,496.228C142.184,496.227 146.149,492.26 146.151,487.365L143.901,487.365Z" style="fill:rgb(17,17,17);fill-opacity:0.699431;fill-rule:nonzero;"/>
            </g>
            <g transform="matrix(1,0,0,1,-30.6817,0)">
                <path d="M166.576,487.365L164.326,487.365C164.325,488.576 163.841,489.653 163.048,490.45C162.251,491.243 161.174,491.727 159.963,491.728C158.751,491.727 157.674,491.243 156.877,490.45C156.084,489.653 155.6,488.576 155.599,487.365C155.6,486.153 156.084,485.076 156.877,484.279C157.674,483.486 158.751,483.002 159.963,483.001C161.174,483.002 162.251,483.486 163.048,484.279C163.841,485.076 164.325,486.153 164.326,487.365L168.826,487.365C168.825,482.469 164.859,478.503 159.963,478.501C155.067,478.503 151.101,482.469 151.099,487.365C151.101,492.26 155.067,496.227 159.963,496.228C164.858,496.227 168.825,492.26 168.826,487.365L166.576,487.365Z" style="fill:rgb(17,17,17);fill-opacity:0.699431;fill-rule:nonzero;"/>
            </g>
            <g transform="matrix(1,0,0,1,34.0929,34.0929)">
                <path d="M1042.23,443.865L1039.98,443.865C1039.98,445.076 1039.49,446.153 1038.7,446.95C1037.9,447.743 1036.82,448.227 1035.61,448.228C1034.4,448.227 1033.33,447.743 1032.53,446.95C1031.73,446.153 1031.25,445.076 1031.25,443.865C1031.25,442.653 1031.73,441.576 1032.53,440.779C1033.33,439.986 1034.4,439.502 1035.61,439.501C1036.82,439.502 1037.9,439.986 1038.7,440.779C1039.49,441.576 1039.98,442.653 1039.98,443.865L1044.48,443.865C1044.48,438.969 1040.51,435.003 1035.61,435.001C1030.72,435.003 1026.75,438.969 1026.75,443.865C1026.75,448.76 1030.72,452.727 1035.61,452.728C1040.51,452.727 1044.48,448.76 1044.48,443.865L1042.23,443.865Z" style="fill:rgb(17,17,17);fill-opacity:0.699431;fill-rule:nonzero;"/>
                <path d="M1064.9,443.865L1062.65,443.865C1062.65,445.076 1062.17,446.153 1061.37,446.95C1060.58,447.743 1059.5,448.227 1058.29,448.228C1057.08,448.227 1056,447.743 1055.2,446.95C1054.41,446.153 1053.93,445.076 1053.92,443.865C1053.93,442.653 1054.41,441.576 1055.2,440.779C1056,439.986 1057.08,439.502 1058.29,439.501C1059.5,439.502 1060.58,439.986 1061.37,440.779C1062.17,441.576 1062.65,442.653 1062.65,443.865L1067.15,443.865C1067.15,438.969 1063.18,435.002 1058.29,435.001C1053.39,435.002 1049.43,438.969 1049.42,443.865C1049.43,448.76 1053.39,452.727 1058.29,452.728C1063.18,452.727 1067.15,448.76 1067.15,443.865L1064.9,443.865Z" style="fill:rgb(17,17,17);fill-opacity:0.699431;fill-rule:nonzero;"/>
                <path d="M1087.58,443.865L1085.33,443.865C1085.32,445.076 1084.84,446.153 1084.05,446.95C1083.25,447.743 1082.17,448.227 1080.96,448.228C1079.75,448.227 1078.67,447.743 1077.88,446.95C1077.08,446.153 1076.6,445.076 1076.6,443.865C1076.6,442.653 1077.08,441.576 1077.88,440.779C1078.67,439.986 1079.75,439.502 1080.96,439.501C1082.17,439.502 1083.25,439.986 1084.05,440.779C1084.84,441.576 1085.32,442.653 1085.33,443.865L1089.83,443.865C1089.82,438.969 1085.86,435.003 1080.96,435.001C1076.07,435.003 1072.1,438.969 1072.1,443.865C1072.1,448.76 1076.07,452.727 1080.96,452.728C1085.86,452.727 1089.82,448.76 1089.83,443.865L1087.58,443.865Z" style="fill:rgb(17,17,17);fill-opacity:0.699431;fill-rule:nonzero;"/>
            </g>
        </g>
    </g>
</svg>
