<?xml version="1.0" encoding="UTF-8" standalone="no"?>
<!DOCTYPE svg PUBLIC "-//W3C//DTD SVG 1.1//EN" "http://www.w3.org/Graphics/SVG/1.1/DTD/svg11.dtd">
<svg width="100%" height="100%" viewBox="0 0 1120 325" version="1.1" xmlns="http://www.w3.org/2000/svg" xmlns:xlink="http://www.w3.org/1999/xlink" xml:space="preserve" xmlns:serif="http://www.serif.com/" style="fill-rule:evenodd;clip-rule:evenodd;stroke-linejoin:round;stroke-miterlimit:1.41421;">
    <g transform="matrix(1,0,0,1,-38.207,-181.96)">
        <g>
            <g>
                <path d="M817,296.251L817,273L651,273L651,237L817,237L817,212.251L877,254.251L817,296.251Z" style="fill:rgb(17,17,17);fill-opacity:0.704537;fill-rule:nonzero;"/>
                <path d="M219,296.251L159,254.251L219,212.251L219,236L385,236L385,272L219,272L219,296.251Z" style="fill:rgb(17,17,17);fill-opacity:0.704537;fill-rule:nonzero;"/>
                <path d="M1026.14,304.502C1064.25,304.502 1095.15,335.401 1095.15,373.516C1095.15,411.63 1064.25,442.531 1026.14,442.531C988.024,442.531 957.123,411.63 957.123,373.516C957.123,335.401 988.024,304.502 1026.14,304.502Z" style="fill:rgb(189,0,0);fill-opacity:0.704537;fill-rule:nonzero;"/>
                <path d="M1026.94,333.534C1049.47,333.534 1067.74,351.795 1067.74,374.323C1067.74,396.852 1049.47,415.113 1026.94,415.113C1004.42,415.113 986.155,396.852 986.155,374.323C986.155,351.795 1004.42,333.534 1026.94,333.534Z" style="fill:white;fill-rule:nonzero;"/>
                <path d="M672.138,225.002C710.251,225.002 741.154,255.901 741.154,294.016C741.154,332.13 710.251,363.031 672.138,363.031C634.024,363.031 603.123,332.13 603.123,294.016C603.123,255.901 634.024,225.002 672.138,225.002Z" style="fill:rgb(189,0,0);fill-opacity:0.704537;fill-rule:nonzero;"/>
                <path d="M672.945,254.034C695.473,254.034 713.736,272.295 713.736,294.823C713.736,317.352 695.473,335.613 672.945,335.613C650.416,335.613 632.155,317.352 632.155,294.823C632.155,272.295 650.416,254.034 672.945,254.034Z" style="fill:white;fill-rule:nonzero;"/>
                <g transform="matrix(0.328861,0,0,0.328861,56.5258,132.59)">
                    <path d="M162.945,297.534C185.473,297.534 203.736,315.795 203.736,338.323C203.736,360.852 185.473,379.113 162.945,379.113C140.416,379.113 122.155,360.852 122.155,338.323C122.155,315.795 140.416,297.534 162.945,297.534Z" style="fill:white;fill-opacity:0.704537;fill-rule:nonzero;"/>
                </g>
                <path d="M387.138,361.502C425.252,361.502 456.154,392.401 456.154,430.516C456.154,468.63 425.252,499.531 387.138,499.531C349.024,499.531 318.123,468.63 318.123,430.516C318.123,392.401 349.024,361.502 387.138,361.502Z" style="fill:rgb(189,0,0);fill-opacity:0.704537;fill-rule:nonzero;"/>
                <path d="M387.945,390.534C410.473,390.534 428.736,408.795 428.736,431.323C428.736,453.852 410.473,472.113 387.945,472.113C365.416,472.113 347.155,453.852 347.155,431.323C347.155,408.795 365.416,390.534 387.945,390.534Z" style="fill:white;fill-rule:nonzero;"/>
                <path d="M835,332L745,332L745,435.001L835,345.001L835,332Z" style="fill:rgb(189,0,0);fill-opacity:0.704537;fill-rule:nonzero;"/>
                <path d="M745.5,435L835,435L835,345.001L745.5,435Z" style="fill:rgb(189,0,0);fill-opacity:0.704537;fill-rule:nonzero;"/>
                <g>
                    <g opacity="0.704537">
                        <path d="M891,482L891,494.803L860.108,473.18L891,451.555L891,464L931.554,464L931.554,482L891,482Z" style="fill:rgb(189,0,0);fill-rule:nonzero;"/>
                        <path d="M891.75,495.553C891.296,495.553 890.845,495.416 890.459,495.147L859.567,473.523C858.967,473.101 858.608,472.413 858.608,471.679C858.608,470.945 858.967,470.257 859.567,469.835L890.459,448.21C891.148,447.729 892.046,447.672 892.789,448.058C893.533,448.445 894,449.215 894,450.054L894,461L927.914,461L927.914,465L891.75,465C890.508,465 889,463.994 889,462.751L889,454.375L864.281,471.679L889,488.982L889,480.751C889,479.508 890.508,479 891.75,479L950.591,479L950.591,483L894,483L894,493.303C894,494.142 893.533,494.911 892.789,495.299C892.462,495.469 892.106,495.553 891.75,495.553Z" style="fill:rgb(17,17,17);fill-rule:nonzero;"/>
                    </g>
                </g>
                <g transform="matrix(1,0,0,1,0.75,13.6365)">
                    <g transform="matrix(1,0,0,1,67.4231,-183.987)">
                        <path d="M27.539,596.187C69.587,596.187 96.371,579.483 96.371,545.499C96.371,522.747 85.427,507.195 58.643,499.995L42.515,495.675C22.643,490.203 19.475,484.443 19.475,478.395C19.475,468.603 27.827,463.707 38.771,463.707C44.819,463.707 49.139,464.283 52.883,465.147L59.219,490.779L85.715,490.779L88.019,458.235C72.179,450.747 57.779,446.715 40.211,446.715C-1.261,446.715 -24.013,467.739 -24.013,496.539C-24.013,519.003 -11.917,535.131 10.835,541.179L27.251,545.499C46.547,550.683 50.579,556.443 50.579,564.219C50.579,575.163 41.939,579.195 27.539,579.195C20.051,579.195 13.427,577.755 6.803,575.163L2.195,545.211L-24.013,545.211L-25.453,582.075C-9.901,591.579 7.667,596.187 27.539,596.187Z" style="fill-rule:nonzero;"/>
                        <path d="M183.923,596.187C233.171,596.187 259.955,564.219 259.955,520.443C259.955,476.667 228.275,446.715 183.923,446.715C139.571,446.715 107.891,477.531 107.891,520.443C107.891,563.355 134.387,596.187 183.923,596.187ZM183.923,580.347C171.251,580.347 165.491,563.355 165.491,521.307C165.491,479.547 171.251,462.555 183.923,462.555C196.595,462.555 202.355,479.547 202.355,521.307C202.355,563.355 196.595,580.347 183.923,580.347Z" style="fill-rule:nonzero;"/>
                        <path d="M364.499,462.267L365.651,462.267L366.227,474.363C367.379,499.707 378.899,507.195 390.995,507.195C402.515,507.195 409.139,502.011 412.883,490.491C411.443,466.875 390.131,446.715 357.875,446.715C311.507,446.715 275.507,474.075 275.507,521.883C275.507,571.995 310.931,596.187 350.099,596.187C377.459,596.187 399.059,585.819 411.443,562.491L400.211,551.547C392.147,559.323 383.507,565.083 370.835,565.083C347.795,565.083 333.107,547.515 333.107,515.547C333.107,475.803 351.251,462.267 364.499,462.267Z" style="fill-rule:nonzero;"/>
                        <path d="M467.891,429.723C482.579,429.723 494.387,419.355 494.387,404.955C494.387,390.555 482.579,380.187 467.891,380.187C453.203,380.187 441.395,390.555 441.395,404.955C441.395,419.355 453.203,429.723 467.891,429.723ZM508.211,576.891L496.115,574.299C495.827,560.475 495.827,543.195 495.827,531.099L495.827,492.795L496.691,449.883L491.507,446.715L424.691,466.587L424.691,478.395L440.243,480.987C440.819,492.507 441.107,501.435 441.107,517.275L441.107,531.099C441.107,542.907 441.107,559.899 440.819,574.011L427.859,576.891L427.859,591.579L508.211,591.579L508.211,576.891Z" style="fill-rule:nonzero;"/>
                        <path d="M632.339,596.187C652.787,596.187 664.019,589.275 670.931,571.707L662.579,567.099C659.123,572.283 657.107,573.435 654.803,573.435C651.635,573.435 649.907,571.419 649.907,568.539L649.907,502.587C649.907,463.131 635.219,446.715 595.475,446.715C549.107,446.715 525.203,463.995 525.203,488.763C528.083,499.131 535.859,504.315 547.091,504.315C559.475,504.315 570.707,495.387 570.707,472.059L570.707,462.267C572.147,462.267 573.587,462.267 575.027,462.267C593.171,462.267 596.915,470.043 596.915,494.523L596.915,504.891C590.291,506.619 583.955,508.347 579.347,509.499C532.691,521.883 520.307,536.859 520.307,559.035C520.307,582.651 534.995,596.187 557.747,596.187C578.483,596.187 587.411,588.123 598.643,575.739C603.539,588.987 614.195,596.187 632.339,596.187ZM570.995,422.523L583.379,432.603C589.139,428.859 594.899,424.827 613.907,411.579C626.579,402.651 635.507,394.299 635.507,383.931C635.507,372.699 626.579,365.787 617.939,365.787C606.707,365.787 600.947,372.123 592.307,386.523C578.771,408.987 574.739,415.611 570.995,422.523ZM569.843,550.107C569.843,534.555 580.499,525.339 588.563,521.595C590.867,520.443 593.747,519.291 596.915,518.427L596.915,566.235C592.595,569.403 588.563,571.131 584.819,571.131C576.467,571.131 569.843,564.219 569.843,550.107Z" style="fill-rule:nonzero;"/>
                        <path d="M674.387,396.891L674.387,409.851L689.939,412.731L689.939,531.099C689.939,545.499 689.651,559.611 689.363,574.011L676.403,576.891L676.403,591.579L758.195,591.579L758.195,576.891L745.235,574.299C744.947,559.899 744.659,545.499 744.659,531.099L744.659,427.131L745.811,387.099L740.915,383.931L674.387,396.891Z" style="fill-rule:nonzero;"/>
                        <path d="M882.611,446.715C866.195,446.715 854.387,451.323 838.835,469.467L837.395,449.883L832.211,446.715L768.563,466.587L768.563,478.395L784.115,480.987C784.691,492.507 784.979,497.403 784.979,513.243L784.979,531.099C784.979,542.907 784.979,559.899 784.691,573.723L771.443,576.891L771.443,591.579L850.931,591.579L850.931,576.891L839.987,574.587C839.699,560.475 839.699,543.195 839.699,531.099L839.699,485.019C846.611,480.411 853.523,477.531 858.419,477.531C867.635,477.531 871.379,483.291 871.379,498.555L871.379,531.099C871.379,543.195 871.379,560.187 871.091,574.011L858.707,576.891L858.707,591.579L938.483,591.579L938.483,576.891L926.387,574.299C926.099,560.475 926.099,543.483 926.099,531.099L926.099,494.811C926.099,463.419 907.667,446.715 882.611,446.715Z" style="fill-rule:nonzero;"/>
                        <path d="M1023.73,462.267C1031.22,462.267 1038.42,469.467 1038.42,489.339C1038.42,504.027 1034.67,508.635 1020.85,508.635L1007.32,508.635C1008.18,472.923 1014.8,462.267 1023.73,462.267ZM1027.19,446.715C989.459,446.715 949.715,471.483 949.715,521.019C949.715,568.539 981.395,596.187 1024.6,596.187C1053.11,596.187 1074.71,585.819 1087.09,562.491L1075.86,551.547C1067.8,559.323 1057.43,565.083 1043.03,565.083C1026.04,565.083 1010.48,553.275 1007.6,525.051L1087.67,525.051C1088.82,519.867 1089.11,515.835 1089.11,509.787C1089.11,474.939 1068.37,446.715 1027.19,446.715Z" style="fill-rule:nonzero;"/>
                    </g>
                    <g transform="matrix(0.373917,0,0,0.373917,889.073,270.042)">
                        <path d="M146.483,596.187C188.531,596.187 215.315,579.483 215.315,545.499C215.315,522.747 204.371,507.195 177.587,499.995L161.459,495.675C141.587,490.203 138.419,484.443 138.419,478.395C138.419,468.603 146.771,463.707 157.715,463.707C163.763,463.707 168.083,464.283 171.827,465.147L178.163,490.779L204.659,490.779L206.963,458.235C191.123,450.747 176.723,446.715 159.155,446.715C117.683,446.715 94.931,467.739 94.931,496.539C94.931,519.003 107.027,535.131 129.779,541.179L146.195,545.499C165.491,550.683 169.523,556.443 169.523,564.219C169.523,575.163 160.883,579.195 146.483,579.195C138.995,579.195 132.371,577.755 125.747,575.163L121.139,545.211L94.931,545.211L93.491,582.075C109.043,591.579 126.611,596.187 146.483,596.187Z" style="fill-rule:nonzero;"/>
                        <path d="M267.155,429.723C281.843,429.723 293.651,419.355 293.651,404.955C293.651,390.555 281.843,380.187 267.155,380.187C252.467,380.187 240.659,390.555 240.659,404.955C240.659,419.355 252.467,429.723 267.155,429.723ZM307.475,576.891L295.379,574.299C295.091,560.475 295.091,543.195 295.091,531.099L295.091,492.795L295.955,449.883L290.771,446.715L223.955,466.587L223.955,478.395L239.507,480.987C240.083,492.507 240.371,501.435 240.371,517.275L240.371,531.099C240.371,542.907 240.371,559.899 240.083,574.011L227.123,576.891L227.123,591.579L307.475,591.579L307.475,576.891Z" style="fill-rule:nonzero;"/>
                        <path d="M392.723,462.267C400.211,462.267 407.411,469.467 407.411,489.339C407.411,504.027 403.667,508.635 389.843,508.635L376.307,508.635C377.171,472.923 383.795,462.267 392.723,462.267ZM396.179,446.715C358.451,446.715 318.707,471.483 318.707,521.019C318.707,568.539 350.387,596.187 393.587,596.187C422.099,596.187 443.699,585.819 456.083,562.491L444.851,551.547C436.787,559.323 426.419,565.083 412.019,565.083C395.027,565.083 379.475,553.275 376.595,525.051L456.659,525.051C457.811,519.867 458.099,515.835 458.099,509.787C458.099,474.939 437.363,446.715 396.179,446.715Z" style="fill-rule:nonzero;"/>
                        <path d="M538.451,550.107L538.451,472.923L564.947,472.923L564.947,451.323L538.451,451.323L538.451,410.427L504.179,410.427L486.899,451.323L467.315,453.915L467.315,472.923L483.731,472.923L483.731,522.459C483.731,533.691 483.443,542.043 483.443,553.275C483.443,584.091 499.859,596.187 528.371,596.187C551.987,596.187 566.099,586.683 573.875,569.979L566.675,563.355C561.779,567.099 557.459,569.115 552.563,569.115C544.499,569.115 538.451,563.067 538.451,550.107Z" style="fill-rule:nonzero;"/>
                        <path d="M649.907,462.267C657.395,462.267 664.595,469.467 664.595,489.339C664.595,504.027 660.851,508.635 647.027,508.635L633.491,508.635C634.355,472.923 640.979,462.267 649.907,462.267ZM653.363,446.715C615.635,446.715 575.891,471.483 575.891,521.019C575.891,568.539 607.571,596.187 650.771,596.187C679.283,596.187 700.883,585.819 713.267,562.491L702.035,551.547C693.971,559.323 683.603,565.083 669.203,565.083C652.211,565.083 636.659,553.275 633.779,525.051L713.843,525.051C714.995,519.867 715.283,515.835 715.283,509.787C715.283,474.939 694.547,446.715 653.363,446.715Z" style="fill-rule:nonzero;"/>
                    </g>
                </g>
                <g transform="matrix(1,0,0,1,495.441,-125.541)">
                    <g opacity="0.704537">
                        <path d="M622,369L618,369L618,359.588C618,354.357 613.241,353 609.166,353L590.949,353C586.494,353 582,354.692 582,359.588L582,369L577,369L577,359.588C577,352.765 583.031,348 590.949,348L609.166,348C617.017,348 622,352.765 622,359.588L622,369Z" style="fill:rgb(17,17,17);fill-rule:nonzero;"/>
                        <path d="M606,332.037C606,329.255 603.745,327 600.964,327L597.036,327C594.255,327 592,329.255 592,332.037L592,336.964C592,339.746 594.255,342 597.036,342L600.964,342C603.745,342 606,339.746 606,336.964L606,332.037ZM611,337.464C611,342.731 606.731,347 601.464,347L597.536,347C592.269,347 588,342.731 588,337.464L588,332.537C588,327.27 592.269,323 597.536,323L601.464,323C606.731,323 611,327.27 611,332.537L611,337.464Z" style="fill:rgb(17,17,17);fill-rule:nonzero;"/>
                        <rect x="586" y="366" width="5" height="6" style="fill:rgb(17,17,17);fill-rule:nonzero;"/>
                        <rect x="607" y="366" width="5" height="6" style="fill:rgb(17,17,17);fill-rule:nonzero;"/>
                        <path d="M599.25,312.001C578.572,312.001 561.75,328.823 561.75,349.501C561.75,370.179 578.572,387.001 599.25,387.001C619.928,387.001 636.75,370.179 636.75,349.501C636.75,328.823 619.928,312.001 599.25,312.001ZM599.25,391.501C576.091,391.501 557.25,372.66 557.25,349.501C557.25,326.341 576.091,307.501 599.25,307.501C622.409,307.501 641.25,326.341 641.25,349.501C641.25,372.66 622.409,391.501 599.25,391.501Z" style="fill:rgb(17,17,17);fill-rule:nonzero;"/>
                    </g>
                </g>
                <path d="M412,284L455.25,284C456.493,284 457,284.508 457,285.751L457,303.538L478.358,284.345C478.773,283.963 479.567,284 480.132,284L498,284L498,225L412,225L412,284ZM455.249,310.92C454.945,310.92 454.637,310.857 454.346,310.73C453.528,310.372 453,309.563 453,308.67L453,288L410.25,288C409.007,288 408,286.994 408,285.751L408,222.751C408,221.508 409.007,221 410.25,221L500.25,221C501.493,221 502,221.508 502,222.751L502,285.751C502,286.994 501.493,288 500.25,288L481.01,288L456.774,310.325C456.351,310.715 455.804,310.92 455.249,310.92Z" style="fill:rgb(17,17,17);fill-opacity:0.704537;fill-rule:nonzero;"/>
                <rect x="418" y="231" width="74" height="47" style="fill:rgb(189,0,0);fill-opacity:0.704537;fill-rule:nonzero;"/>
                <rect x="430" y="237" width="6" height="5" style="fill:rgb(17,17,17);fill-opacity:0.704537;fill-rule:nonzero;"/>
                <rect x="439" y="237" width="8" height="5" style="fill:rgb(17,17,17);fill-opacity:0.704537;fill-rule:nonzero;"/>
                <rect x="430" y="248" width="48" height="4" style="fill:rgb(17,17,17);fill-opacity:0.704537;fill-rule:nonzero;"/>
                <rect x="430" y="258" width="48" height="5" style="fill:rgb(17,17,17);fill-opacity:0.704537;fill-rule:nonzero;"/>
                <path d="M537,500.251L537,477L370,477L370,441.001L537,441.001L537,416.251L597,458.251L537,500.251Z" style="fill:rgb(17,17,17);fill-opacity:0.704537;fill-rule:nonzero;"/>
                <rect x="384" y="468" width="7" height="5" style="fill:rgb(17,17,17);fill-opacity:0.704537;fill-rule:nonzero;"/>
                <rect x="396" y="468" width="7" height="5" style="fill:rgb(17,17,17);fill-opacity:0.704537;fill-rule:nonzero;"/>
                <rect x="408" y="468" width="22" height="5" style="fill:rgb(17,17,17);fill-opacity:0.704537;fill-rule:nonzero;"/>
                <rect x="436" y="468" width="5" height="5" style="fill:rgb(17,17,17);fill-opacity:0.704537;fill-rule:nonzero;"/>
                <rect x="430" y="267" width="36" height="5" style="fill:rgb(17,17,17);fill-opacity:0.704537;fill-rule:nonzero;"/>
                <g transform="matrix(0.816904,0,0,0.816904,-661.451,-30.0289)">
                    <g opacity="0.704537">
                        <path d="M867,339L909.75,339C910.992,339 912,340.008 912,341.251L912,359.038L933.107,339.595C933.523,339.213 934.066,339 934.632,339L952,339L952,281L867,281L867,339ZM909.75,366.42C909.444,366.42 908.888,366.357 908.596,366.23C907.779,365.872 907,365.063 907,364.17L907,344L864.75,344C863.508,344 862,342.494 862,341.251L862,278.251C862,277.008 863.508,276 864.75,276L954.75,276C955.992,276 957,277.008 957,278.251L957,341.251C957,342.494 955.992,344 954.75,344L935.51,344L911.275,366.075C910.85,366.465 910.303,366.42 909.75,366.42Z" style="fill:rgb(17,17,17);fill-rule:nonzero;"/>
                        <rect x="873" y="287" width="73" height="46" style="fill:rgb(189,0,0);fill-rule:nonzero;"/>
                        <rect x="885" y="293" width="6" height="4" style="fill:rgb(17,17,17);fill-rule:nonzero;"/>
                        <rect x="894" y="293" width="7" height="4" style="fill:rgb(17,17,17);fill-rule:nonzero;"/>
                        <rect x="885" y="303" width="48" height="5" style="fill:rgb(17,17,17);fill-rule:nonzero;"/>
                        <rect x="885" y="314" width="48" height="4" style="fill:rgb(17,17,17);fill-rule:nonzero;"/>
                        <rect x="885" y="323" width="36" height="4" style="fill:rgb(17,17,17);fill-rule:nonzero;"/>
                    </g>
                </g>
                <g transform="matrix(1,0,0,1,-49.1805,65.9357)">
                    <g opacity="0.704537">
                        <path d="M835,435L831,435L831,415.158C831,410.142 827.141,407 821.826,407L802.386,407C797.391,407 792,409.81 792,415.158L792,435L787,435L787,415.158C787,407.031 795.227,402 802.386,402L821.826,402C829.622,402 835,407.657 835,415.158L835,435Z" style="fill:rgb(17,17,17);fill-rule:nonzero;"/>
                        <path d="M819,383.526C819,380.474 816.526,378 813.475,378L809.525,378C806.474,378 804,380.474 804,383.526L804,389.475C804,392.527 806.474,395 809.525,395L813.475,395C816.526,395 819,392.527 819,389.475L819,383.526ZM823,389.975C823,395.512 818.511,400 812.975,400L809.025,400C803.489,400 799,395.512 799,389.975L799,384.026C799,378.489 803.489,374 809.025,374L812.975,374C818.511,374 823,378.489 823,384.026L823,389.975Z" style="fill:rgb(17,17,17);fill-rule:nonzero;"/>
                        <rect x="796" y="422" width="5" height="13" style="fill:rgb(17,17,17);fill-rule:nonzero;"/>
                        <rect x="820" y="422" width="5" height="13" style="fill:rgb(17,17,17);fill-rule:nonzero;"/>
                        <path d="M870,435L865,435L865,415.158C865,409.98 862.011,407 856.816,407L837,407L837,402L856.816,402C864.455,402 870,407.534 870,415.158L870,435Z" style="fill:rgb(17,17,17);fill-rule:nonzero;"/>
                        <path d="M853,383.526C853,380.474 850.526,378 847.475,378L843.525,378C840.474,378 838,380.474 838,383.526L838,389.475C838,392.527 840.474,395 843.525,395L847.475,395C850.526,395 853,392.527 853,389.475L853,383.526ZM858,389.975C858,395.512 853.511,400 847.975,400L844.025,400C838.489,400 834,395.512 834,389.975L834,384.026C834,378.489 838.489,374 844.025,374L847.975,374C853.511,374 858,378.489 858,384.026L858,389.975Z" style="fill:rgb(17,17,17);fill-rule:nonzero;"/>
                        <rect x="855" y="422" width="4" height="13" style="fill:rgb(17,17,17);fill-rule:nonzero;"/>
                        <path d="M904,435L900,435L900,415.158C900,409.818 896.861,407 891.808,407L873,407L873,402L891.808,402C899.399,402 904,407.288 904,415.158L904,435Z" style="fill:rgb(17,17,17);fill-rule:nonzero;"/>
                        <path d="M888,383.526C888,380.474 885.526,378 882.475,378L878.525,378C875.474,378 873,380.474 873,383.526L873,389.475C873,392.527 875.474,395 878.525,395L882.475,395C885.526,395 888,392.527 888,389.475L888,383.526ZM892,389.975C892,395.512 887.511,400 881.975,400L878.025,400C872.489,400 868,395.512 868,389.975L868,384.026C868,378.489 872.489,374 878.025,374L881.975,374C887.511,374 892,378.489 892,384.026L892,389.975Z" style="fill:rgb(17,17,17);fill-rule:nonzero;"/>
                        <rect x="891" y="422" width="4" height="13" style="fill:rgb(17,17,17);fill-rule:nonzero;"/>
                        <rect x="768" y="434" width="157" height="4" style="fill:rgb(17,17,17);fill-rule:nonzero;"/>
                    </g>
                </g>
                <path d="M738,435L733,435L733,308.251C733,302.047 738.546,297 744.75,297L836.25,297C842.453,297 847,302.047 847,308.251L847,360L843,360L843,308.251C843,304.529 839.972,302 836.25,302L744.75,302C741.028,302 738,304.529 738,308.251L738,435Z" style="fill:rgb(17,17,17);fill-opacity:0.704537;fill-rule:nonzero;"/>
                <rect x="736" y="320" width="110" height="4" style="fill:rgb(17,17,17);fill-opacity:0.704537;fill-rule:nonzero;"/>
                <rect x="772" y="308" width="17" height="4" style="fill:rgb(17,17,17);fill-opacity:0.704537;fill-rule:nonzero;"/>
                <rect x="793" y="308" width="14" height="4" style="fill:rgb(17,17,17);fill-opacity:0.704537;fill-rule:nonzero;"/>
                <g transform="matrix(1,0,0,1,37.4322,10.318)">
                    <g opacity="0.704537">
                        <path d="M826.501,184.501C813.266,184.501 802.5,195.267 802.5,208.501C802.5,221.734 813.266,232.501 826.501,232.501C839.735,232.501 850.5,221.734 850.5,208.501C850.5,195.267 839.735,184.501 826.501,184.501ZM826.501,237.001C810.785,237.001 798,224.216 798,208.501C798,192.786 810.785,180.001 826.501,180.001C842.216,180.001 855,192.786 855,208.501C855,224.216 842.216,237.001 826.501,237.001Z" style="fill:rgb(17,17,17);fill-rule:nonzero;"/>
                        <path d="M826.626,225.626C817.459,225.626 810,218 810,209.001L814.5,209.001C814.5,215 819.939,221.126 826.626,221.126C833.311,221.126 838.75,215 838.75,209.001L843.25,209.001C843.25,218 835.793,225.626 826.626,225.626Z" style="fill:rgb(17,17,17);fill-rule:nonzero;"/>
                        <rect x="817" y="195.001" width="5" height="8" style="fill:rgb(17,17,17);fill-rule:nonzero;"/>
                        <rect x="829" y="195.001" width="5" height="8" style="fill:rgb(17,17,17);fill-rule:nonzero;"/>
                    </g>
                </g>
                <path d="M309.002,436.501C295.767,436.501 285,447.267 285,460.501C285,473.734 295.767,484.501 309.002,484.501C322.234,484.501 333,473.734 333,460.501C333,447.267 322.234,436.501 309.002,436.501ZM309.002,489.001C293.286,489.001 280.5,476.216 280.5,460.501C280.5,444.786 293.286,432.001 309.002,432.001C324.716,432.001 337.5,444.786 337.5,460.501C337.5,476.216 324.716,489.001 309.002,489.001Z" style="fill:rgb(17,17,17);fill-opacity:0.704537;fill-rule:nonzero;"/>
                <path d="M309.126,477.626C299.958,477.626 292.5,470 292.5,461L297,461C297,467 302.44,473.126 309.126,473.126C315.812,473.126 321.251,467 321.251,461L325.751,461C325.751,470 318.293,477.626 309.126,477.626Z" style="fill:rgb(17,17,17);fill-opacity:0.704537;fill-rule:nonzero;"/>
                <rect x="300" y="447" width="4" height="8" style="fill:rgb(17,17,17);fill-opacity:0.704537;fill-rule:nonzero;"/>
                <rect x="312" y="447" width="4" height="8" style="fill:rgb(17,17,17);fill-opacity:0.704537;fill-rule:nonzero;"/>
                <path d="M342,221L342,207.054L372.579,228.218L342,249.385L342,239L153,239L153,221L342,221Z" style="fill:rgb(189,0,0);fill-opacity:0.704537;fill-rule:nonzero;"/>
                <path d="M341.25,253.105C340.893,253.105 340.534,253.02 340.206,252.848C339.464,252.46 339,251.692 339,250.855L339,242L153,242L153,237L341.25,237C342.493,237 343,238.008 343,239.251L343,246.561L367.374,229.688L343,212.816L343,221.251C343,222.494 342.493,224 341.25,224L267,224L267,219L339,219L339,208.522C339,207.685 339.464,206.917 340.206,206.529C340.946,206.139 341.843,206.196 342.53,206.672L373.108,227.837C373.715,228.258 374.077,228.949 374.077,229.688C374.077,230.426 373.715,231.117 373.108,231.538L342.531,252.705C342.147,252.97 341.7,253.105 341.25,253.105Z" style="fill:rgb(17,17,17);fill-opacity:0.704537;fill-rule:nonzero;"/>
                <rect x="474" y="315" width="46" height="5" style="fill:rgb(17,17,17);fill-opacity:0.704537;fill-rule:nonzero;"/>
                <path d="M515.925,325.614L512.744,322.432L517.763,317.412L512.604,312.253L515.786,309.071L522.536,315.821C523.414,316.699 523.414,318.125 522.536,319.003L515.925,325.614Z" style="fill:rgb(17,17,17);fill-opacity:0.704537;fill-rule:nonzero;"/>
                <rect x="474" y="375" width="46" height="5" style="fill:rgb(17,17,17);fill-opacity:0.704537;fill-rule:nonzero;"/>
                <path d="M479.159,385.614L472.409,378.864C471.53,377.985 471.53,376.56 472.409,375.682L479.02,369.071L482.202,372.253L477.182,377.273L482.341,382.432L479.159,385.614Z" style="fill:rgb(17,17,17);fill-opacity:0.704537;fill-rule:nonzero;"/>
                <path d="M484.228,349.365C484.228,353.016 481.266,355.978 477.614,355.978C473.962,355.978 471,353.016 471,349.365C471,345.713 473.962,342.751 477.614,342.751C481.266,342.751 484.228,345.713 484.228,349.365Z" style="fill:rgb(189,0,0);fill-opacity:0.704537;fill-rule:nonzero;"/>
                <path d="M506.9,349.365C506.9,353.016 503.94,355.978 500.288,355.978C496.635,355.978 493.674,353.016 493.674,349.365C493.674,345.713 496.635,342.751 500.288,342.751C503.94,342.751 506.9,345.713 506.9,349.365Z" style="fill:rgb(189,0,0);fill-opacity:0.704537;fill-rule:nonzero;"/>
                <path d="M529.576,349.365C529.576,353.016 526.614,355.978 522.961,355.978C519.31,355.978 516.349,353.016 516.349,349.365C516.349,345.713 519.31,342.751 522.961,342.751C526.614,342.751 529.576,345.713 529.576,349.365Z" style="fill:rgb(189,0,0);fill-opacity:0.704537;fill-rule:nonzero;"/>
                <g transform="matrix(1,0,0,1,-124.966,76.5235)">
                    <g opacity="0.704537">
                        <path d="M208.972,380.06L193.127,364.215L196.308,361.034L212.153,376.879L208.972,380.06Z" style="fill:rgb(17,17,17);fill-rule:nonzero;"/>
                        <path d="M222.28,379.871L219.098,376.69L223.878,371.91L227.06,375.091L222.28,379.871Z" style="fill:rgb(17,17,17);fill-rule:nonzero;"/>
                        <path d="M250.222,390.56L235.222,375.56L238.403,372.379L253.403,387.379L250.222,390.56Z" style="fill:rgb(17,17,17);fill-rule:nonzero;"/>
                        <path d="M230.906,364.313C228.632,364.313 226.781,366.163 226.781,368.438C226.781,370.713 228.632,372.563 230.906,372.563C233.181,372.563 235.031,370.713 235.031,368.438C235.031,366.163 233.181,364.313 230.906,364.313ZM230.906,377.063C226.151,377.063 222.281,373.194 222.281,368.438C222.281,363.683 226.151,359.813 230.906,359.813C235.662,359.813 239.531,363.683 239.531,368.438C239.531,373.194 235.662,377.063 230.906,377.063Z" style="fill:rgb(17,17,17);fill-rule:nonzero;"/>
                        <path d="M215.906,379.313C213.632,379.313 211.781,381.163 211.781,383.438C211.781,385.713 213.632,387.563 215.906,387.563C218.181,387.563 220.031,385.713 220.031,383.438C220.031,381.163 218.181,379.313 215.906,379.313ZM215.906,392.063C211.151,392.063 207.281,388.194 207.281,383.438C207.281,378.683 211.151,374.813 215.906,374.813C220.662,374.813 224.531,378.683 224.531,383.438C224.531,388.194 220.662,392.063 215.906,392.063Z" style="fill:rgb(17,17,17);fill-rule:nonzero;"/>
                        <path d="M190.406,353.813C188.132,353.813 186.281,355.663 186.281,357.938C186.281,360.213 188.132,362.063 190.406,362.063C192.681,362.063 194.531,360.213 194.531,357.938C194.531,355.663 192.681,353.813 190.406,353.813ZM190.406,366.563C185.651,366.563 181.781,362.694 181.781,357.938C181.781,353.183 185.651,349.313 190.406,349.313C195.162,349.313 199.031,353.183 199.031,357.938C199.031,362.694 195.162,366.563 190.406,366.563Z" style="fill:rgb(17,17,17);fill-rule:nonzero;"/>
                    </g>
                </g>
                <path d="M1008.47,383.06L992.626,367.215L995.808,364.034L1011.65,379.879L1008.47,383.06Z" style="fill:rgb(17,17,17);fill-opacity:0.704537;fill-rule:nonzero;"/>
                <path d="M1021.78,382.871L1018.6,379.69L1023.38,374.91L1026.56,378.091L1021.78,382.871Z" style="fill:rgb(17,17,17);fill-opacity:0.704537;fill-rule:nonzero;"/>
                <path d="M1049.72,393.56L1034.72,378.56L1037.9,375.379L1052.9,390.379L1049.72,393.56Z" style="fill:rgb(17,17,17);fill-opacity:0.704537;fill-rule:nonzero;"/>
                <path d="M1030.41,367.313C1028.13,367.313 1026.28,369.163 1026.28,371.438C1026.28,373.713 1028.13,375.563 1030.41,375.563C1032.68,375.563 1034.53,373.713 1034.53,371.438C1034.53,369.163 1032.68,367.313 1030.41,367.313ZM1030.41,380.063C1025.65,380.063 1021.78,376.194 1021.78,371.438C1021.78,366.683 1025.65,362.813 1030.41,362.813C1035.16,362.813 1039.03,366.683 1039.03,371.438C1039.03,376.194 1035.16,380.063 1030.41,380.063Z" style="fill:rgb(17,17,17);fill-opacity:0.704537;fill-rule:nonzero;"/>
                <path d="M1015.41,382.313C1013.13,382.313 1011.28,384.163 1011.28,386.438C1011.28,388.713 1013.13,390.563 1015.41,390.563C1017.68,390.563 1019.53,388.713 1019.53,386.438C1019.53,384.163 1017.68,382.313 1015.41,382.313ZM1015.41,395.063C1010.65,395.063 1006.78,391.194 1006.78,386.438C1006.78,381.683 1010.65,377.813 1015.41,377.813C1020.16,377.813 1024.03,381.683 1024.03,386.438C1024.03,391.194 1020.16,395.063 1015.41,395.063Z" style="fill:rgb(17,17,17);fill-opacity:0.704537;fill-rule:nonzero;"/>
                <path d="M989.906,356.813C987.631,356.813 985.781,358.663 985.781,360.938C985.781,363.213 987.631,365.063 989.906,365.063C992.181,365.063 994.031,363.213 994.031,360.938C994.031,358.663 992.181,356.813 989.906,356.813ZM989.906,369.563C985.15,369.563 981.281,365.694 981.281,360.938C981.281,356.183 985.15,352.313 989.906,352.313C994.662,352.313 998.531,356.183 998.531,360.938C998.531,365.694 994.662,369.563 989.906,369.563Z" style="fill:rgb(17,17,17);fill-opacity:0.704537;fill-rule:nonzero;"/>
                <g transform="matrix(1,0,0,1,-43.781,77.1119)">
                    <g opacity="0.704537">
                        <path d="M688.213,374.06L685.031,370.879L700.876,355.034L704.058,358.215L688.213,374.06Z" style="fill:rgb(17,17,17);fill-rule:nonzero;"/>
                        <path d="M674.905,373.871L670.125,369.091L673.307,365.91L678.086,370.69L674.905,373.871Z" style="fill:rgb(17,17,17);fill-rule:nonzero;"/>
                        <path d="M646.963,384.56L643.781,381.379L658.781,366.379L661.963,369.56L646.963,384.56Z" style="fill:rgb(17,17,17);fill-rule:nonzero;"/>
                        <path d="M666.278,358.313C664.003,358.313 662.153,360.163 662.153,362.438C662.153,364.713 664.003,366.563 666.278,366.563C668.553,366.563 670.403,364.713 670.403,362.438C670.403,360.163 668.553,358.313 666.278,358.313ZM666.278,371.063C661.522,371.063 657.653,367.194 657.653,362.438C657.653,357.683 661.522,353.813 666.278,353.813C671.035,353.813 674.903,357.683 674.903,362.438C674.903,367.194 671.035,371.063 666.278,371.063Z" style="fill:rgb(17,17,17);fill-rule:nonzero;"/>
                        <path d="M681.278,373.313C679.003,373.313 677.153,375.163 677.153,377.438C677.153,379.713 679.003,381.563 681.278,381.563C683.553,381.563 685.403,379.713 685.403,377.438C685.403,375.163 683.553,373.313 681.278,373.313ZM681.278,386.063C676.522,386.063 672.653,382.194 672.653,377.438C672.653,372.683 676.522,368.813 681.278,368.813C686.035,368.813 689.903,372.683 689.903,377.438C689.903,382.194 686.035,386.063 681.278,386.063Z" style="fill:rgb(17,17,17);fill-rule:nonzero;"/>
                        <path d="M706.778,347.813C704.503,347.813 702.653,349.663 702.653,351.938C702.653,354.213 704.503,356.063 706.778,356.063C709.053,356.063 710.903,354.213 710.903,351.938C710.903,349.663 709.053,347.813 706.778,347.813ZM706.778,360.563C702.022,360.563 698.153,356.694 698.153,351.938C698.153,347.183 702.022,343.313 706.778,343.313C711.535,343.313 715.403,347.183 715.403,351.938C715.403,356.694 711.535,360.563 706.778,360.563Z" style="fill:rgb(17,17,17);fill-rule:nonzero;"/>
                    </g>
                </g>
                <g transform="matrix(1,0,0,1,17.714,11.3892)">
                    <path d="M634,219L634,210.359L646,205.313L634,200.268L634,191.001L537,191.001L537,219L634,219Z" style="fill:rgb(17,17,17);fill-opacity:0.704537;fill-rule:nonzero;"/>
                </g>
                <g transform="matrix(1,0,0,1,17.714,11.3892)">
                    <rect x="546" y="197.001" width="22" height="4" style="fill:rgb(17,17,17);fill-opacity:0.704537;fill-rule:nonzero;"/>
                </g>
                <g transform="matrix(1,0,0,1,17.714,11.3892)">
                    <rect x="576" y="197.001" width="49" height="4" style="fill:rgb(17,17,17);fill-opacity:0.704537;fill-rule:nonzero;"/>
                </g>
                <g transform="matrix(1,0,0,1,17.714,11.3892)">
                    <rect x="546" y="207.001" width="75" height="5" style="fill:rgb(17,17,17);fill-opacity:0.704537;fill-rule:nonzero;"/>
                </g>
                <g transform="matrix(1,0,0,1,23.339,17.493)">
                    <path d="M228,455L228,445.859L240,440.813L228,435.768L228,426L130,426L130,455L228,455Z" style="fill:rgb(189,0,0);fill-opacity:0.704537;fill-rule:nonzero;"/>
                </g>
                <g transform="matrix(1,0,0,1,23.339,17.493)">
                    <rect x="139" y="432" width="23" height="5" style="fill:rgb(17,17,17);fill-opacity:0.704537;fill-rule:nonzero;"/>
                </g>
                <g transform="matrix(1,0,0,1,23.339,17.493)">
                    <rect x="169" y="432" width="50" height="5" style="fill:rgb(17,17,17);fill-opacity:0.704537;fill-rule:nonzero;"/>
                </g>
                <g transform="matrix(1,0,0,1,23.339,17.493)">
                    <rect x="139" y="443" width="75" height="4" style="fill:rgb(17,17,17);fill-opacity:0.704537;fill-rule:nonzero;"/>
                </g>
                <path d="M639,464L639,472.143L627,477.188L639,482.234L639,492L736,492L736,464L639,464Z" style="fill:rgb(189,0,0);fill-opacity:0.704537;fill-rule:nonzero;"/>
                <rect x="705" y="482" width="22" height="4" style="fill:rgb(17,17,17);fill-opacity:0.704537;fill-rule:nonzero;"/>
                <rect x="648" y="482" width="49" height="4" style="fill:rgb(17,17,17);fill-opacity:0.704537;fill-rule:nonzero;"/>
                <rect x="652" y="471" width="75" height="5" style="fill:rgb(17,17,17);fill-opacity:0.704537;fill-rule:nonzero;"/>
                <path d="M912,206.001L912,214.143L900,219.188L912,224.234L912,234L1009,234L1009,206.001L912,206.001Z" style="fill:rgb(189,0,0);fill-opacity:0.704537;fill-rule:nonzero;"/>
                <rect x="978" y="224" width="22" height="4" style="fill:rgb(17,17,17);fill-opacity:0.704537;fill-rule:nonzero;"/>
                <rect x="921" y="224" width="49" height="4" style="fill:rgb(17,17,17);fill-opacity:0.704537;fill-rule:nonzero;"/>
                <rect x="925" y="213" width="75" height="5" style="fill:rgb(17,17,17);fill-opacity:0.704537;fill-rule:nonzero;"/>
                <g transform="matrix(1,0,0,1,0,2.38923)">
                    <g opacity="0.704537">
                        <rect x="709" y="228" width="8" height="5" style="fill:rgb(17,17,17);fill-rule:nonzero;"/>
                        <rect x="721" y="228" width="8" height="5" style="fill:rgb(17,17,17);fill-rule:nonzero;"/>
                        <rect x="733" y="228" width="23" height="5" style="fill:rgb(17,17,17);fill-rule:nonzero;"/>
                        <rect x="762" y="228" width="4" height="5" style="fill:rgb(17,17,17);fill-rule:nonzero;"/>
                    </g>
                </g>
                <rect x="130" y="309" width="8" height="5" style="fill:rgb(17,17,17);fill-opacity:0.704537;fill-rule:nonzero;"/>
                <rect x="142" y="309" width="8" height="5" style="fill:rgb(17,17,17);fill-opacity:0.704537;fill-rule:nonzero;"/>
                <rect x="154" y="309" width="23" height="5" style="fill:rgb(17,17,17);fill-opacity:0.704537;fill-rule:nonzero;"/>
                <rect x="183" y="309" width="4" height="5" style="fill:rgb(17,17,17);fill-opacity:0.704537;fill-rule:nonzero;"/>
                <path d="M681,338L676,338L676,264.751C676,263.508 677.508,263 678.75,263L736,263L736,267L681,267L681,338Z" style="fill:rgb(17,17,17);fill-opacity:0.704537;fill-rule:nonzero;"/>
                <g transform="matrix(0.913748,-0.40628,0.40628,0.913748,-260.258,104.966)">
                    <path d="M152.217,403.391L148.081,401.587L164.397,368.473L168.507,370.297L152.217,403.391Z" style="fill:rgb(189,0,0);fill-opacity:0.704537;fill-rule:nonzero;"/>
                </g>
                <path d="M332.353,269.395L330.167,265.46C332.597,264.112 335.219,263.211 337.964,262.784L338.657,267.229C336.437,267.576 334.316,268.304 332.353,269.395ZM351.544,269.77C349.622,268.602 347.531,267.791 345.329,267.358L346.196,262.943C348.92,263.477 351.505,264.48 353.881,265.925L351.544,269.77ZM323.745,279.323L319.539,277.722C320.525,275.131 321.949,272.753 323.773,270.651L327.172,273.601C325.695,275.302 324.542,277.228 323.745,279.323ZM359.758,280.028C359.044,277.902 357.967,275.934 356.559,274.176L360.07,271.362C361.81,273.533 363.14,275.966 364.023,278.594L359.758,280.028ZM319.327,293.952C318.447,291.442 318,288.809 318,286.126L317.752,285.831L322,285.866L322,286.126C322,288.3 322.611,290.432 323.324,292.46L319.327,293.952ZM363.819,294.679L359.593,293.352C360.36,291.252 360.75,288 360.75,287L365.25,287C365.25,290 364.769,292.082 363.819,294.679ZM329.63,306.483C327.243,305.073 325.138,303.272 323.374,301.127L326.848,298.268C328.279,300.006 329.985,301.466 331.918,302.608L329.63,306.483ZM353.35,306.64L351.114,302.735C353.062,301.62 354.786,300.182 356.24,298.463L359.676,301.367C357.883,303.489 355.754,305.263 353.35,306.64ZM341.627,309.751C340.191,309.751 338.754,309.621 337.356,309.366L338.164,304.939C340.345,305.338 342.648,305.353 344.84,304.983L345.59,309.42C344.289,309.639 342.955,309.751 341.627,309.751Z" style="fill:rgb(17,17,17);fill-opacity:0.704537;fill-rule:nonzero;"/>
                <path d="M351.702,286.165C351.702,291.584 347.31,295.976 341.891,295.976C336.472,295.976 332.08,291.584 332.08,286.165C332.08,280.747 336.472,276.354 341.891,276.354C347.31,276.354 351.702,280.747 351.702,286.165Z" style="fill:rgb(189,0,0);fill-opacity:0.704537;fill-rule:nonzero;"/>
                <path d="M1001.35,254.394L999.167,250.461C1001.6,249.112 1004.22,248.211 1006.96,247.784L1007.66,252.229C1005.44,252.576 1003.32,253.304 1001.35,254.394ZM1020.54,254.771C1018.62,253.602 1016.53,252.79 1014.33,252.358L1015.2,247.943C1017.92,248.477 1020.5,249.48 1022.88,250.924L1020.54,254.771ZM992.745,264.323L988.541,262.722C989.527,260.131 990.952,257.753 992.774,255.652L996.173,258.601C994.698,260.302 993.543,262.228 992.745,264.323ZM1028.76,265.027C1028.04,262.903 1026.97,260.934 1025.56,259.176L1029.07,256.362C1030.81,258.534 1032.14,260.967 1033.02,263.594L1028.76,265.027ZM988.328,278.952C987.447,276.441 987,273.808 987,271.126L986.751,270.813L991,270.885L991,271.126C991,273.299 991.612,275.43 992.324,277.46L988.328,278.952ZM1032.82,279.68L1028.59,278.352C1029.36,276.253 1029.75,273 1029.75,272L1034.25,272C1034.25,275 1033.77,277.083 1032.82,279.68ZM998.631,291.483C996.243,290.073 994.138,288.271 992.373,286.128L995.847,283.267C997.277,285.005 998.984,286.466 1000.92,287.608L998.631,291.483ZM1022.35,291.641L1020.11,287.734C1022.06,286.62 1023.79,285.183 1025.24,283.463L1028.68,286.367C1026.88,288.49 1024.75,290.265 1022.35,291.641ZM1010.63,294.751C1009.19,294.751 1007.76,294.621 1006.35,294.366L1007.16,289.939C1009.35,290.339 1011.65,290.353 1013.84,289.983L1014.59,294.42C1013.29,294.639 1011.95,294.751 1010.63,294.751Z" style="fill:rgb(17,17,17);fill-opacity:0.704537;fill-rule:nonzero;"/>
                <path d="M1020.7,271.165C1020.7,276.584 1016.31,280.976 1010.89,280.976C1005.47,280.976 1001.08,276.584 1001.08,271.165C1001.08,265.747 1005.47,261.354 1010.89,261.354C1016.31,261.354 1020.7,265.747 1020.7,271.165Z" style="fill:rgb(189,0,0);fill-opacity:0.704537;fill-rule:nonzero;"/>
            </g>
        </g>
    </g>
</svg>
