<svg data-name="Layer 1" xmlns="http://www.w3.org/2000/svg" viewBox="0 0 418 330">
  <path d="M317 226l45-98-65-1-8 7-70-43-33 61s22 169 24 170 64-1 64-1l4-7 52 1z" fill="#bd0000"/>
  <path d="M182 144c4-3 7-7 9-11l1-3c-3-3-1-6 0-9l21-36c1-3 2-5 5-4 2 1 3-1 4-3 6-9 9-19 9-29V26c0-20 15-30 33-24 11 3 18 10 24 18 15 22 18 47 17 73a130 130 0 0 1-3 21c0 4 1 5 4 5h73c19 0 33 10 37 26 3 12 1 23-5 32-1 2-2 4-1 6 10 16 4 35-8 47-5 4-6 8-6 14 1 13-5 23-14 31-5 4-7 7-8 13-2 20-21 36-41 37h-44c-2 0-4 0-6 2-3 2-7 3-11 3h-57c-6 0-13 0-16-8-9-4-15-11-22-17a18 18 0 0 0-13-5h-21c-3 0-4 0-5 3-5 16-13 22-30 22H24c-16 0-28-13-23-30l43-159c3-13 13-23 29-22h84c16-1 29 10 24 29v2l1-1zm4 146c3 4 7 7 12 10a101 101 0 0 0-1-13l-10-72-6-48c-1-1 0-3-2-4l-3 3-2 3-27 102c-1 4-5 9-2 12s8 0 12 0c10 0 20 0 29 7zm189-155c-4-1-7 1-9 5l-32 70a24 24 0 0 0-2 14l7 50c1 6 1 13 3 19v3l1 4c1 1-1 6 3 3 8-3 13-13 12-21-1-5 1-9 4-12l11-10c5-5 9-12 6-19-2-7 0-11 4-16l9-9c8-9 9-17 2-28a13 13 0 0 1-2-6c-1-4 1-8 4-12 10-13 6-29-9-34l-12-1zM67 309h41c9 0 12-3 15-11l12-44 30-115c2-6 0-9-6-9H72c-7 0-10 3-12 9l-3 11-35 129-5 20c-2 7 0 10 8 10h42zm177 5h15c8 1 12-2 15-10l75-164c2-4 1-5-3-5h-40c-4 0-7 1-8 6l-43 93-35 76c-1 3-1 4 2 4h22zm45-230l-2-23c-3-14-8-27-18-37-3-4-8-7-13-8-5 0-8 2-9 7a47 47 0 0 0 0 8c1 20 1 40-12 58-1 1-1 3 1 3l46 28c2 1 3 1 3-1 2-12 5-23 4-35zm-76 203a22 22 0 0 0 1-2l32-70c2-2 1-4 0-6l-25-38-17-27-6 8c-3 2-3 4-3 8l13 93 4 34zm42-92l25-54c1-2 1-3-1-4l-54-33c-3-2-4-1-5 1l-9 16v6l29 44 15 24zm64 50h-1l-27 60c-2 3-1 4 2 4h31c3 0 4-1 3-4l-4-35-4-25z"/>
</svg>
