<svg id="Layer_1" data-name="Layer 1" xmlns="http://www.w3.org/2000/svg" viewBox="0 0 874.44 358.24"><title>notifications</title><path d="M695.86,934.75a61,61,0,0,0-16.69,5c-12,5.93-16.48,15.76-12.27,28.5,3.79,11.46,9.1,22.19,17.32,31.22a7,7,0,0,1,1.94,4.34,29.36,29.36,0,0,0,21.66,25.1,3.82,3.82,0,0,1,2.72,1.84c3.59,6.18,7.44,12.23,10.86,18.51,4.19,7.7,3.92,9-1.76,15.78,8.67,2.38,17.25,4.38,25.59,7.09,24.36,7.91,43.54,22,53.72,46.37,1.29,3.08,2.8,3.69,6,3.2q42-6.48,84-12.54c3.81-.55,4.17-1.48,2.75-4.88-8.64-20.78-25-32.2-45.86-38.21-16.46-4.76-33-9.43-49.57-13.64-8.23-2.08-12.69-7.38-15.59-14.69-2-5.1-4-10.23-6-15.32-.56-1.41-1.44-2.61.56-3.75,4.88-2.77,4.72-7.34,3.57-11.87-1.46-5.72-4-11-8.41-15.07a8.42,8.42,0,0,1-2.84-6.55c12-1.88,24-3.63,36-5.69,11.65-2,15.87-10.18,10.67-20.89q-13.53-27.85-27.54-55.46c-6.27-12.32-16.87-17.87-30.45-16q-28.94,4-57.77,8.68c-12.3,2-16.41,10.21-11,21.44C690.17,923.08,693,928.91,695.86,934.75Z" transform="translate(-569.68 -794.05)" style="fill:#5467a6"/><path d="M1122.79,932.16c5.9-1,11.8-2,17.71-2.94,13-2,17.53-9.93,11.8-21.73q-13.72-28.29-28.16-56.23c-5.81-11.22-17.15-16.54-29.68-14.72-5.6.81-11.19,1.6-16.78,2.45-13.82,2.09-27.64,4.14-41.43,6.34-8.28,1.32-12.84,5.92-12.91,12.76,0,3.42,1.3,6.48,2.78,9.49q6.92,14.08,13.78,28.21c-29.48,4.41-59,8.87-88.46,13.2-10.25,1.51-13.11,6.15-8.52,15.48q19.08,38.78,38.6,77.34c3.82,7.58,11.28,11,19.57,9.78,28.49-4.28,57-8.38,85.47-12.87a28.79,28.79,0,0,1,19.19,3.39c11.24,6.17,22.57,12.18,33.9,18.2,1.23.65,2.72,2,4,.85s0-2.77-.61-4.06c-3.08-6.28-6.3-12.49-9.28-18.81-2.12-4.51-1.21-6.24,3.28-7.11,9.75-1.88,11.91-6.25,7.48-15.21Q1133.7,954.06,1122.79,932.16Z" transform="translate(-569.68 -794.05)" style="fill:#5467a6"/><path d="M610.19,958.11c-9.68.44-20.25,1.61-29.78,7.13-9,5.21-12.59,13.34-9.8,23.33A80.63,80.63,0,0,0,587,1019.7a10.89,10.89,0,0,1,2.6,5.1c2.49,11.56,7.75,20.94,20.63,23.44a2.89,2.89,0,0,1,2.36,1.56c3.47,7.59,9.26,13.84,12.41,21.62,1.64,4,1.12,7.2-2.44,10.15-9.74,8.08-19.22,16.47-28.92,24.6a27.92,27.92,0,0,0-10,18.34c-1.28,9.19,2.26,16.9,6.52,24.58,1.53,2.76,3.11,3.55,6.27,3.07,27-4.15,54-8.1,81-12.12,34.41-5.13,68.81-10.35,103.26-15.28,4.9-.7,5-2.13,3.19-6.11-7.31-16.45-20.19-26.87-36.67-32.47A408.23,408.23,0,0,0,701,1073.35c-13.1-2.8-21.14-9.45-24.12-22.49-.7-3-2.28-5.89-3.59-8.76-.75-1.62-.69-2.63,1-3.66,3.92-2.37,4.26-6.17,3.28-10.12a32.8,32.8,0,0,0-8.17-15.23c-1-1-2.35-1.79-2.53-3.55-.91-9-5.25-16.73-9.43-24.51C647.57,966.57,631.68,958.45,610.19,958.11Z" transform="translate(-569.68 -794.05)" style="fill:#5467a6"/><path d="M948.39,957.48c-12,1.85-22.72,3.23-33.33,5.27-6.49,1.24-8.51,6.66-5.25,13.23q19.61,39.59,39.48,79c3.58,7.09,11.07,11.08,18.68,9.59,5.78-1.12,8.8,1.29,11.09,6,2.93,6,5.93,11.92,8.93,17.86.81,1.61,1.44,3.7,3.54,3.84,2.33.15,2.69-2.16,3.47-3.73,3.63-7.3,7.46-14.52,10.7-22,2.64-6.08,7-8.65,13.38-9.56,29-4.17,57.95-8.57,86.91-12.94,7.67-1.16,10.48-6.32,7.25-13.37-2.42-5.29-5.14-10.45-7.75-15.66-3.89-7.76-6.37-8.89-15.08-7.57-27.81,4.21-55.62,8.46-83.46,12.45-16.58,2.37-28.44-4.11-35.88-19q-9.93-19.87-19.9-39.73C950.33,959.52,950,957.09,948.39,957.48Z" transform="translate(-569.68 -794.05)" style="fill:#5467a6"/><path d="M1405.26,890c10.74,10.78,20.49,22.32,27.51,35.94,9.15,17.79,14.08,36.51,9.79,56.44-6.19,28.73-25.56,44.72-53.09,51.51-26.19,6.45-51.68,2.45-76.26-7.61-33.6-13.74-60.43-35.48-77.64-68-8.36-15.81-12.74-32.66-10.24-50.58,3.94-28.2,20.92-45.57,47.2-54.54,15.25-5.21,31-5.48,46.91-4.05q5.14,10.25,10.27,20.5c-2.3,2.76-4.36,2.25-7,.1-4.51-3.69-6.88-2.81-8.4,2.78a31,31,0,0,0-1.16,11.34l-.78.75c-4.53-4-9.35-7.42-15.29-9.13-2.61-.76-5.25-2.13-3.91-5.69,1.62-4.32,6.12-7,9.16-5.81,1.58.62,3.46,2.06,4.71-.32.79-1.5-2.9-6.53-4.65-6.42-18,1.21-34.79,5.8-48.57,18.26-2.78,2.51-6.71,4.66-3.36,9.55.56.81-.2,2.56-.43,3.86-.39,2.23-.24,4.34,1.33,6.12a24.47,24.47,0,0,1,5.62,12.62c2.64,16.67,15.26,25.42,27.19,34.76.07.06.44-.26.76-.46-1.56-3.83-5.71-6-7.24-11.05,5.18,3.32,10.32,5.87,12,10.8,3,8.82,9.8,9.35,17.16,9.46,2.48,0,5-.65,7.35.7,6.52,3.74,14.5,3.74,20.82,8.06,1.13.77,2.57.34,3.9.08,6.37-1.21,7.75.11,6.72,6.74-.46,3-1.25,6.23.9,8.65,4.75,5.37,9.82,11.47,16.72,13,9.51,2.07,13.57,7,13.32,16.14-.27,10.13,6.84,14.16,15,18.88-1.17-3.74-2-6.58-3-9.34a4.49,4.49,0,0,1,.79-4.57c4.09-6,10.38-10.76,10.31-19.05a3.79,3.79,0,0,1,2-2.68c6.06-2.79,8.11-7.43,7-13.83a6.19,6.19,0,0,1,.68-3.39c1.34-2.84.12-4.47-2.41-5.45a38.17,38.17,0,0,0-6.18-2c-6.33-1.26-13.21-.53-18.31-5.87-.88-.92-2.8-.94-4.27-1.17a124.44,124.44,0,0,1-16-3.81c-6.31-1.88-12.46-2.7-18.35,2.25-4.41,3.7-9.93,2.09-13-2.66-1.47-2.24-2.83-4.61-6.3-3.53-2.55.81-3.57-1.19-4.43-3-2.33-4.91-3.09-5.12-6.89-.87-2.71,3-5.27,2.49-7.65,0a19.09,19.09,0,0,1-4.47-7.72c-1-3.16-.15-5.6,3.21-6.74,6.41-2.18,12.9-5.27,18.15,2.26.56.81,1.79,1.87,3,.87.87-.73.36-1.93-.1-2.78-2.2-4.08-1.38-7.55,1.74-10.83a5.14,5.14,0,0,0,.52-6.9c-2.57-3.52-1.38-5.42,2.33-6.46,2.64-.74,4.46-1.89,4.37-5.1-.06-2.23,1.63-3,3.72-3.17a45.72,45.72,0,0,0,4.93-.71c.77-.14,1.85-.23,1.74-1.33,0-.5-.7-1.08-1.21-1.39a17.48,17.48,0,0,0-3.14-1.52c-4.13-1.5-5.3-3.81-2.14-7.39,8.49,9.28,18.78,11.95,31.09,9.61C1381.23,892.94,1393.29,891.71,1405.26,890Z" transform="translate(-569.68 -794.05)"/><path d="M1403.86,901.34c.82,4.35.36,8.34-.51,12.7-1.26,6.31,9.18,18.47,15.6,20.79,3,1.08,3.68-1.6,5.44-2.41,2.31-1.06.17-2.6-.36-3.66A98.52,98.52,0,0,0,1403.86,901.34Z" transform="translate(-569.68 -794.05)" style="fill:#fdfdfd"/><path d="M610.19,958.11c21.49.34,37.38,8.46,47.3,26.92,4.18,7.78,8.52,15.49,9.43,24.51.18,1.76,1.52,2.51,2.53,3.55a32.8,32.8,0,0,1,8.17,15.23c1,4,.64,7.75-3.28,10.12-1.71,1-1.77,2-1,3.66,1.31,2.87,2.89,5.73,3.59,8.76,3,13,11,19.69,24.12,22.49a408.23,408.23,0,0,1,46.15,12.83c16.48,5.6,29.36,16,36.67,32.47,1.77,4,1.71,5.41-3.19,6.11-34.45,4.93-68.85,10.15-103.26,15.28-27,4-54,8-81,12.12-3.16.48-4.74-.31-6.27-3.07-4.26-7.68-7.8-15.39-6.52-24.58a27.92,27.92,0,0,1,10-18.34c9.7-8.13,19.18-16.52,28.92-24.6,3.56-3,4.08-6.1,2.44-10.15-3.15-7.78-8.94-14-12.41-21.62a2.89,2.89,0,0,0-2.36-1.56c-12.88-2.5-18.14-11.88-20.63-23.44a10.89,10.89,0,0,0-2.6-5.1,80.63,80.63,0,0,1-16.39-31.13c-2.79-10,.79-18.12,9.8-23.33C589.94,959.72,600.51,958.55,610.19,958.11Z" transform="translate(-569.68 -794.05)"/><path d="M1122.79,932.16q10.89,21.9,21.77,43.81c4.43,9,2.27,13.33-7.48,15.21-4.49.87-5.4,2.6-3.28,7.11,3,6.32,6.2,12.53,9.28,18.81.64,1.29,2,2.79.61,4.06s-2.81-.2-4-.85c-11.33-6-22.66-12-33.9-18.2a28.79,28.79,0,0,0-19.19-3.39c-28.46,4.49-57,8.59-85.47,12.87-8.29,1.24-15.75-2.2-19.57-9.78q-19.47-38.58-38.6-77.34c-4.59-9.33-1.73-14,8.52-15.48,29.5-4.33,59-8.79,88.46-13.2,4.33,8.42,8.71,16.81,13,25.26,6.65,13.22,17.72,18.81,32.41,16.52C1097.76,935.63,1110.28,934,1122.79,932.16Z" transform="translate(-569.68 -794.05)"/><path d="M767.52,985.13a8.42,8.42,0,0,0,2.84,6.55c4.39,4,6.95,9.35,8.41,15.07,1.15,4.53,1.31,9.1-3.57,11.87-2,1.14-1.12,2.34-.56,3.75,2,5.09,4,10.22,6,15.32,2.9,7.31,7.36,12.61,15.59,14.69,16.61,4.21,33.11,8.88,49.57,13.64,20.81,6,37.22,17.43,45.86,38.21,1.42,3.4,1.06,4.33-2.75,4.88q-42,6-84,12.54c-3.19.49-4.7-.12-6-3.2-10.18-24.34-29.36-38.46-53.72-46.37-8.34-2.71-16.92-4.71-25.59-7.09,5.68-6.76,6-8.08,1.76-15.78-3.42-6.28-7.27-12.33-10.86-18.51a3.82,3.82,0,0,0-2.72-1.84,29.36,29.36,0,0,1-21.66-25.1,7,7,0,0,0-1.94-4.34c-8.22-9-13.53-19.76-17.32-31.22-4.21-12.74.23-22.57,12.27-28.5a61,61,0,0,1,16.69-5q9.71,19,19.41,38a28,28,0,0,0,29.61,15.43Z" transform="translate(-569.68 -794.05)"/><path d="M948.39,957.48c1.61-.39,1.94,2,2.78,3.71q10,19.84,19.9,39.73c7.44,14.88,19.3,21.36,35.88,19,27.84-4,55.65-8.24,83.46-12.45,8.71-1.32,11.19-.19,15.08,7.57,2.61,5.21,5.33,10.37,7.75,15.66,3.23,7,.42,12.21-7.25,13.37-29,4.37-57.92,8.77-86.91,12.94-6.33.91-10.74,3.48-13.38,9.56-3.24,7.47-7.07,14.69-10.7,22-.78,1.57-1.14,3.88-3.47,3.73-2.1-.14-2.73-2.23-3.54-3.84-3-5.94-6-11.89-8.93-17.86-2.29-4.67-5.31-7.08-11.09-6-7.61,1.49-15.1-2.5-18.68-9.59q-19.89-39.45-39.48-79c-3.26-6.57-1.24-12,5.25-13.23C925.67,960.71,936.42,959.33,948.39,957.48Z" transform="translate(-569.68 -794.05)"/><path d="M767.52,985.13l-22.64,3.09a28,28,0,0,1-29.61-15.43q-9.75-19-19.41-38c-2.83-5.84-5.69-11.67-8.48-17.52-5.36-11.23-1.25-19.47,11-21.44q28.85-4.62,57.77-8.68c13.58-1.89,24.18,3.66,30.45,16q14.05,27.58,27.54,55.46c5.2,10.71,1,18.88-10.67,20.89C791.55,981.5,779.52,983.25,767.52,985.13Z" transform="translate(-569.68 -794.05)" style="fill:#bd0000"/><path d="M754.32,957.91c2.48-5.17,4.63-9.62,6.74-14.09,2-4.21,4.27-8.4,4.14-13.2-.24-9.14-5.26-15.24-13.26-18.84-8.67-3.91-17.36-4.38-25.5,1.6a9.2,9.2,0,0,0-2,2.21c-4.15,6-3.53,7.63,3.22,9.9,2.77.93,4.4,1.11,5.52-2.31,1.22-3.69,4.65-5,8.34-5.32,9.28-.66,15.55,7.43,12.06,16.11-3.34,8.31-7.46,16.31-11.21,24.46-1.58,3.42,1.34,10.69,4.32,10.29,12.8-1.74,25.55-3.78,38.64-5.77a35.85,35.85,0,0,1-1.6-3.67c-1.32-4.48-3.87-5.61-8.55-4.52C768.61,956.27,761.82,956.83,754.32,957.91Z" transform="translate(-569.68 -794.05)" style="fill:#cb242b"/><path d="M1122.79,932.16c-12.51,1.79-25,3.47-37.51,5.41-14.69,2.29-25.76-3.3-32.41-16.52-4.26-8.45-8.64-16.84-13-25.26q-6.89-14.1-13.78-28.21c-1.48-3-2.82-6.07-2.78-9.49.07-6.84,4.63-11.44,12.91-12.76,13.79-2.2,27.61-4.25,41.43-6.34,5.59-.85,11.18-1.64,16.78-2.45,12.53-1.82,23.87,3.5,29.68,14.72q14.43,27.93,28.16,56.23c5.73,11.8,1.2,19.71-11.8,21.73C1134.59,930.14,1128.69,931.18,1122.79,932.16Z" transform="translate(-569.68 -794.05)" style="fill:#bd0000"/><path d="M1097.65,915.91c1.27-.18,3.76-.39,6.19-.9,10.74-2.25,15.15-11.29,10.41-21.22-5-10.46-19.2-18-30.14-14-7,2.53-8.43-.47-10.29-5.28a15.6,15.6,0,0,0-1.38-2.66c-1.51-2.38-.38-3.12,1.93-3.44,5.93-.81,11.84-1.71,17.76-2.6,1.12-.17,2.53,0,3.16-1.15.86-1.57-4-8-6-7.76-9.71,1.38-19.4,2.89-29.11,4.32-2,.29-2.57,1-1.57,2.95,3.82,7.57,7.36,15.27,11.31,22.77,2.14,4.07,6.57,5,10.66,2.9,7.59-4,17.89-2.27,22.34,3.69s2,11.69-5.33,12.58a27,27,0,0,1-14.17-2c-2-.86-2.75-.61-3.49,1.58-1.27,3.75-1,6.13,3.36,7.47S1091.89,915.88,1097.65,915.91Z" transform="translate(-569.68 -794.05)" style="fill:#cb242b"/><path d="M1405.26,890c-12,1.69-24,2.92-35.89,5.17-12.31,2.34-22.6-.33-31.09-9.61l-8.57-15.94q-5.13-10.26-10.27-20.5-5.49-11.17-11-22.36c-.58-1.19-1.16-2.4-1.65-3.63-4.21-10.5,0-18.22,11.19-20s22.36-3.34,33.55-5c8.38-1.24,16.78-2.46,25.16-3.74,11.25-1.72,23.2,3.41,28.44,13.41q15.25,29.19,29.55,58.86c5,10.25.09,18.45-11.24,20.37C1417.39,888.05,1411.32,889,1405.26,890Z" transform="translate(-569.68 -794.05)" style="fill:#bd0000"/><path d="M1380.16,874.09a30.66,30.66,0,0,0,11.73-2.22c8.14-3.35,11-11.1,6.75-18.82a24.7,24.7,0,0,0-12.31-11.22c-2-.83-2.82-1.55-1.82-4,1.68-4.15.55-8.18-2-11.8-6.81-9.79-24.84-13.16-34.76-6.5-5,3.37-6.51,8.33-4.17,13.92,1.82,4.35,5.13,7.3,9.14,9.54,1.71.95,3,1.52,1.51,4-2.93,4.76-1.8,9.71.9,14.18C1360.83,870.54,1369.88,873.59,1380.16,874.09Z" transform="translate(-569.68 -794.05)" style="fill:#cb242b"/><path d="M754.32,957.91c7.5-1.08,14.29-1.64,20.86-3.15,4.68-1.09,7.23,0,8.55,4.52a35.85,35.85,0,0,0,1.6,3.67c-13.09,2-25.84,4-38.64,5.77-3,.4-5.9-6.87-4.32-10.29,3.75-8.15,7.87-16.15,11.21-24.46,3.49-8.68-2.78-16.77-12.06-16.11-3.69.27-7.12,1.63-8.34,5.32-1.12,3.42-2.75,3.24-5.52,2.31-6.75-2.27-7.37-3.9-3.22-9.9a9.2,9.2,0,0,1,2-2.21c8.14-6,16.83-5.51,25.5-1.6,8,3.6,13,9.7,13.26,18.84.13,4.8-2.15,9-4.14,13.2C759,948.29,756.8,952.74,754.32,957.91Z" transform="translate(-569.68 -794.05)" style="fill:#fdfdfd"/><path d="M1097.65,915.91c-5.76,0-10-1.36-14.32-2.7s-4.63-3.72-3.36-7.47c.74-2.19,1.49-2.44,3.49-1.58a27,27,0,0,0,14.17,2c7.29-.89,9.71-6.71,5.33-12.58s-14.75-7.66-22.34-3.69c-4.09,2.15-8.52,1.17-10.66-2.9-4-7.5-7.49-15.2-11.31-22.77-1-2-.38-2.66,1.57-2.95,9.71-1.43,19.4-2.94,29.11-4.32,1.93-.27,6.82,6.19,6,7.76-.63,1.15-2,1-3.16,1.15-5.92.89-11.83,1.79-17.76,2.6-2.31.32-3.44,1.06-1.93,3.44a15.6,15.6,0,0,1,1.38,2.66c1.86,4.81,3.31,7.81,10.29,5.28,10.94-4,25.15,3.53,30.14,14,4.74,9.93.33,19-10.41,21.22C1101.41,915.52,1098.92,915.73,1097.65,915.91Z" transform="translate(-569.68 -794.05)" style="fill:#fdfdfd"/><path d="M1380.16,874.09c-10.28-.5-19.33-3.55-25-12.9-2.7-4.47-3.83-9.42-.9-14.18,1.54-2.52.2-3.09-1.51-4-4-2.24-7.32-5.19-9.14-9.54-2.34-5.59-.85-10.55,4.17-13.92,9.92-6.66,28-3.29,34.76,6.5,2.51,3.62,3.64,7.65,2,11.8-1,2.47-.14,3.19,1.82,4a24.7,24.7,0,0,1,12.31,11.22c4.21,7.72,1.39,15.47-6.75,18.82A30.66,30.66,0,0,1,1380.16,874.09Z" transform="translate(-569.68 -794.05)" style="fill:#fdfdfd"/><path d="M1378.88,865.53a25.07,25.07,0,0,0,4.29-.79c6.94-2.23,8.19-8.35,2.8-13.34-4.3-4-12.53-5.23-17.77-2.66-4.93,2.41-6,6.65-2.67,11C1368.58,863.84,1373,865.17,1378.88,865.53Z" transform="translate(-569.68 -794.05)" style="fill:#fdfdfd"/><path d="M1366.19,840.39c3.43-.12,6.66-.77,8.6-4,1.59-2.64.67-5.12-1-7.38-3.25-4.51-11.67-6.58-16.66-4.15-4.24,2-5.35,6-2.6,9.85S1361.56,840.05,1366.19,840.39Z" transform="translate(-569.68 -794.05)" style="fill:#fdfdfd"/><path d="M1313.16,883.86a.82.82,0,0,1,.28,1.45,8,8,0,0,1-1.06-.7Z" transform="translate(-569.68 -794.05)" style="fill:#fdfdfd"/><path d="M1378.88,865.53c-5.92-.36-10.3-1.69-13.35-5.74-3.32-4.4-2.26-8.64,2.67-11,5.24-2.57,13.47-1.34,17.77,2.66,5.39,5,4.14,11.11-2.8,13.34A25.07,25.07,0,0,1,1378.88,865.53Z" transform="translate(-569.68 -794.05)" style="fill:#bd0000"/><path d="M1366.2,840.39c-4.64-.34-8.82-1.71-11.64-5.66s-1.64-7.8,2.6-9.85c5-2.43,13.41-.36,16.66,4.15,1.64,2.26,2.56,4.74,1,7.38C1372.85,839.62,1369.62,840.27,1366.2,840.39Z" transform="translate(-569.68 -794.05)" style="fill:#bd0000"/></svg>