<?xml version="1.0" standalone="no"?>
<!DOCTYPE svg PUBLIC "-//W3C//DTD SVG 20010904//EN"
 "http://www.w3.org/TR/2001/REC-SVG-20010904/DTD/svg10.dtd">
<svg version="1.0" xmlns="http://www.w3.org/2000/svg"
 width="512.000000pt" height="512.000000pt" viewBox="0 0 512.000000 512.000000"
 preserveAspectRatio="xMidYMid meet">
<metadata>
Created by potrace 1.11, written by Peter Selinger 2001-2013
</metadata>
<g transform="translate(0.000000,512.000000) scale(0.100000,-0.100000)"
fill="#000000" stroke="none">
<path d="M1910 4589 c-717 -68 -1351 -517 -1657 -1174 -361 -775 -199 -1686
408 -2294 609 -609 1524 -769 2306 -405 51 23 132 66 180 96 88 52 88 53 173
53 67 0 94 5 125 22 81 43 134 129 135 218 1 44 6 56 41 95 99 111 263 348
290 416 l8 22 47 -24 c35 -18 64 -24 108 -24 283 1 339 397 68 476 -50 15 -54
18 -48 42 3 15 10 56 16 92 21 122 8 110 115 110 l95 0 0 235 0 235 -94 0 -93
0 -17 103 c-9 56 -19 114 -22 130 l-6 27 486 0 486 0 0 235 0 235 -530 0 -530
0 0 -97 0 -98 -53 110 c-80 169 -182 329 -289 453 l-38 43 0 165 0 164 -187 0
-187 0 -100 60 c-376 221 -810 320 -1236 279z"/>
<path d="M3787 4233 c-4 -3 -7 -109 -7 -235 l0 -228 640 0 640 0 0 235 0 235
-633 0 c-349 0 -637 -3 -640 -7z"/>
<path d="M4729 2776 c-131 -47 -196 -199 -138 -326 84 -187 332 -199 436 -22
37 62 39 165 6 227 -58 110 -190 162 -304 121z"/>
<path d="M4732 2061 c-65 -23 -107 -61 -138 -126 -59 -123 -4 -269 121 -326
50 -23 142 -25 193 -3 80 33 152 137 152 220 0 106 -74 210 -173 239 -65 19
-90 19 -155 -4z"/>
</g>
</svg>
