<svg clip-rule="evenodd" fill-rule="evenodd" stroke-linejoin="round" stroke-miterlimit="1.41421" viewBox="0 0 346 50" xmlns="http://www.w3.org/2000/svg"><g fill-rule="nonzero" transform="matrix(.668381 0 0 .668381 -168.258 -232.1225)"><path d="m350.236 347.29c-7.92 0-13.968 2.592-22.032 12.528-3.024-8.208-9.792-12.528-19.872-12.528-8.496 0-14.832 3.456-21.456 11.52l-.72-9.936-2.592-1.584-31.824 9.936v5.904l7.776 1.296c.432 5.76.432 8.208.432 16.128v8.928c0 5.904 0 14.4-.144 21.312l-6.624 1.584v7.344h39.744v-7.344l-5.472-1.152c-.144-7.056-.144-15.696-.144-21.744v-23.184c2.88-2.16 6.048-3.6 8.928-3.6 5.472 0 6.912 3.456 6.912 12.24v14.544c0 6.048 0 14.544-.144 21.312l-6.192 1.584v7.344h38.736v-7.344l-5.472-1.152c-.144-7.056-.144-15.552-.144-21.744v-18.144c0-1.872-.144-3.6-.288-5.184 2.88-2.16 6.048-3.456 9.216-3.456 4.896 0 6.624 2.448 6.624 12.24v14.544c0 6.048 0 14.544-.144 21.456l-5.472 1.44v7.344h38.592v-7.344l-6.048-1.296c-.144-6.912-.144-15.408-.144-21.6v-16.56c0-16.848-6.336-25.632-22.032-25.632z"/><path d="m439.804 347.29c-8.208 0-14.112 2.304-21.888 11.376l-.72-9.792-2.592-1.584-31.824 9.936v5.904l7.776 1.296c.288 5.76.432 8.208.432 16.128v8.928c0 5.904 0 14.4-.144 21.312l-6.624 1.584v7.344h39.744v-7.344l-5.472-1.152c-.144-7.056-.144-15.696-.144-21.744v-23.04c3.456-2.304 6.912-3.744 9.36-3.744 4.608 0 6.48 2.88 6.48 10.512v16.272c0 6.048 0 14.544-.144 21.456l-6.192 1.44v7.344h39.888v-7.344l-6.048-1.296c-.144-6.912-.144-15.408-.144-21.6v-18.144c0-15.696-9.216-24.048-21.744-24.048z"/><path d="m570.556 347.29c-7.92 0-13.968 2.592-22.032 12.528-3.024-8.208-9.792-12.528-19.872-12.528-8.496 0-14.832 3.456-21.456 11.52l-.72-9.936-2.592-1.584-31.824 9.936v5.904l7.776 1.296c.432 5.76.432 8.208.432 16.128v8.928c0 5.904 0 14.4-.144 21.312l-6.624 1.584v7.344h39.744v-7.344l-5.472-1.152c-.144-7.056-.144-15.696-.144-21.744v-23.184c2.88-2.16 6.048-3.6 8.928-3.6 5.472 0 6.912 3.456 6.912 12.24v14.544c0 6.048 0 14.544-.144 21.312l-6.192 1.584v7.344h38.736v-7.344l-5.472-1.152c-.144-7.056-.144-15.552-.144-21.744v-18.144c0-1.872-.144-3.6-.288-5.184 2.88-2.16 6.048-3.456 9.216-3.456 4.896 0 6.624 2.448 6.624 12.24v14.544c0 6.048 0 14.544-.144 21.456l-5.472 1.44v7.344h38.592v-7.344l-6.048-1.296c-.144-6.912-.144-15.408-.144-21.6v-16.56c0-16.848-6.336-25.632-22.032-25.632z"/><path d="m701.596 347.29c-7.92 0-13.968 2.592-22.032 12.528-3.024-8.208-9.792-12.528-19.872-12.528-8.496 0-14.832 3.456-21.456 11.52l-.72-9.936-2.592-1.584-31.824 9.936v5.904l7.776 1.296c.432 5.76.432 8.208.432 16.128v8.928c0 5.904 0 14.4-.144 21.312l-6.624 1.584v7.344h39.744v-7.344l-5.472-1.152c-.144-7.056-.144-15.696-.144-21.744v-23.184c2.88-2.16 6.048-3.6 8.928-3.6 5.472 0 6.912 3.456 6.912 12.24v14.544c0 6.048 0 14.544-.144 21.312l-6.192 1.584v7.344h38.736v-7.344l-5.472-1.152c-.144-7.056-.144-15.552-.144-21.744v-18.144c0-1.872-.144-3.6-.288-5.184 2.88-2.16 6.048-3.456 9.216-3.456 4.896 0 6.624 2.448 6.624 12.24v14.544c0 6.048 0 14.544-.144 21.456l-5.472 1.44v7.344h38.592v-7.344l-6.048-1.296c-.144-6.912-.144-15.408-.144-21.6v-16.56c0-16.848-6.336-25.632-22.032-25.632z"/><path d="m753.868 422.026c7.92 0 14.112-6.192 14.112-13.824 0-7.776-6.192-14.256-14.112-14.256s-14.112 6.48-14.112 14.256c0 7.632 6.192 13.824 14.112 13.824z" fill="#bd0000"/></g></svg>