<svg viewBox="0 0 2570 361" version="1" xmlns="http://www.w3.org/2000/svg" fill-rule="evenodd" clip-rule="evenodd" stroke-linejoin="round" stroke-miterlimit="1">
  <circle cx="1508" cy="1247" r="413" fill="#bd0000" transform="translate(-478 -364) scale(.43632)"/>
  <circle cx="776" cy="615" r="43" transform="translate(-231) scale(.50189)"/>
  <circle cx="776" cy="615" r="43" transform="translate(-231 -127) scale(.50189)"/>
  <circle cx="776" cy="615" r="43" transform="translate(-231 -257) scale(.50189)"/>
  <circle cx="776" cy="615" r="43" transform="translate(-166) scale(.50189)"/>
  <circle cx="776" cy="615" r="43" transform="translate(-100) scale(.50189)"/>
  <circle cx="776" cy="615" r="43" transform="translate(30 -127) scale(.50189)"/>
  <circle cx="776" cy="615" r="43" transform="translate(-35 -64) scale(.50189)"/>
  <circle cx="776" cy="615" r="43" transform="translate(30 -64) scale(.50189)"/>
  <path d="M202 161h175v41H202zm-65 63h174v42H137zm0-127h94v41h-94zm105 0h94v41h-94zm106 0h94v41h-94zM202 31h113v42H202zm127 1h113v42H329z"/>
  <g fill-rule="nonzero">
    <path d="M689 266h32l54-151 20-2V96h-64v17l18 2-26 79-24-79 16-2V96h-89v17l18 2-27 82-23-82 17-2V96h-97v17l14 2 54 151h32l37-107c7 23 19 56 38 107z"/>
    <path d="M868 272c60 0 93-39 93-92s-39-89-93-89c-53 0-92 37-92 89s32 92 92 92zm0-19c-15 0-22-21-22-72s7-71 22-71c16 0 23 20 23 71s-7 72-23 72z"/>
    <path d="M958 266h111v-18l-27-6v-71c2-16 12-32 20-41l2 2c9 13 18 19 29 19 14 0 26-10 27-29-3-22-16-31-33-31s-36 14-45 44l-3-40-7-4-77 24v14l19 3 1 39v74l-17 3v18z"/>
    <path d="M1180 182c0-39 14-58 33-58 5 0 9 1 13 3v106c-4 3-9 4-15 4-18 0-31-20-31-55zm51 88l74-4v-18l-13-3V67l1-49-6-3-81 15v16l22 4v57a53 53 0 0 0-41-16c-38 0-77 34-77 92 0 59 30 89 69 89 19 0 35-7 48-21l4 19z"/>
    <path d="M1367 272c51 0 84-21 84-62 0-27-14-46-46-55l-20-5c-24-7-27-14-27-21 0-12 10-18 23-18l17 2 8 31h32l3-39c-20-9-37-14-58-14-51 0-78 25-78 60 0 27 15 47 42 54l20 5c23 7 28 14 28 23 0 13-10 18-28 18-9 0-17-2-25-5l-5-36h-32l-2 45c19 11 40 17 64 17zm294 0c10 0 19-2 37-6l4-28-35-8-23-26c16-21 25-39 35-66l23-4v-16h-79v16l26 5c-4 20-9 35-18 52l-29-31-25-27c36-14 52-30 52-53 0-28-23-45-64-45-42 0-69 22-69 57 0 17 5 34 20 55l1 2c-39 16-53 37-53 62 0 32 23 61 71 61 33 0 53-11 65-24l5 5c18 14 34 19 56 19zm-106-165c-8-14-11-24-11-33 0-14 8-24 20-24 14 0 21 9 21 23 0 12-4 30-18 49l-12-15zm3 94c9 10 18 23 29 34-6 3-14 5-23 5-24 0-45-16-45-46 0-12 3-22 9-32l30 39zm265-91h2v14c2 31 16 40 30 40s22-6 27-20c-2-29-28-53-67-53-56 0-100 33-100 91 0 60 43 90 91 90 33 0 59-13 74-41l-14-13c-9 9-20 16-35 16-28 0-46-21-46-60 0-48 22-64 38-64z"/>
    <path d="M1969 272c60 0 92-39 92-92s-38-89-92-89-92 37-92 89 32 92 92 92zm0-19c-15 0-22-21-22-72s7-71 22-71 22 20 22 71-7 72-22 72zm164-71c0-39 14-58 33-58 5 0 9 1 13 3v106c-5 3-9 4-15 4-18 0-31-20-31-55zm51 88l74-4v-18l-13-3V67l1-49-6-3-81 15v16l22 4v57a54 54 0 0 0-41-16c-38 0-77 34-77 92 0 59 30 89 69 89 19 0 35-7 48-21l4 19zm166-179c-46 0-94 30-94 90 0 57 39 91 91 91 34 0 61-13 76-41l-14-13c-10 9-22 16-40 16-20 0-39-14-43-48h97c2-7 2-12 2-19 0-42-25-76-75-76zm-4 19c9 0 18 8 18 32 0 18-5 24-22 24h-16c1-44 9-56 20-56z"/>
    <path d="M2486 272c51 0 84-21 84-62 0-27-13-46-46-55l-19-5c-25-7-28-14-28-21 0-12 10-18 23-18l17 2 8 31h32l3-39c-20-9-37-14-58-14-51 0-78 25-78 60 0 27 15 47 42 54l20 5c23 7 28 14 28 23 0 13-10 18-28 18-9 0-17-2-25-5l-5-36h-32l-2 45c19 11 40 17 64 17z"/>
  </g>
</svg>
