<svg viewBox="0 0 2570 361" version="1" xmlns="http://www.w3.org/2000/svg" fill-rule="evenodd" clip-rule="evenodd" stroke-linejoin="round" stroke-miterlimit="1">
  <circle cx="1508" cy="1247" r="413" fill="#bd0000" transform="translate(-478 -364) scale(.43632)"/>
  <circle cx="776" cy="615" r="43" transform="translate(-231) scale(.50189)"/>
  <circle cx="776" cy="615" r="43" transform="translate(-231 -127) scale(.50189)"/>
  <circle cx="776" cy="615" r="43" transform="translate(-231 -257) scale(.50189)"/>
  <circle cx="776" cy="615" r="43" transform="translate(-166) scale(.50189)"/>
  <circle cx="776" cy="615" r="43" transform="translate(-100) scale(.50189)"/>
  <circle cx="776" cy="615" r="43" transform="translate(30 -127) scale(.50189)"/>
  <circle cx="776" cy="615" r="43" transform="translate(-35 -64) scale(.50189)"/>
  <circle cx="776" cy="615" r="43" transform="translate(30 -64) scale(.50189)"/>
  <path d="M202 161h175v41H202zm-65 63h174v42H137zm0-127h94v41h-94zm105 0h94v41h-94zm106 0h94v41h-94zM202 31h113v42H202zm127 1h113v42H329z"/>
  <g font-family="'SourceSerifPro-Black','Source Serif Pro',serif" font-weight="900" font-size="702">
    <text x="1521" y="1427" transform="translate(-238 -443) scale(.49684)">
      <tspan x="1520.65px 2026.21px" y="1427.19px 1427.19px">wo</tspan>
    </text>
    <text x="2393" y="1427" transform="translate(-238 -443) scale(.49684)">
      r<tspan x="2696.77px 3086.47px" y="1427.19px 1427.19px">ds</tspan>
    </text>
    <text x="3411" y="1427" transform="translate(-238 -443) scale(.49684)">
      &amp;
    </text>
    <text x="3916" y="1427" transform="translate(-238 -443) scale(.49684)">
      c<tspan x="4241.31px 4614.86px 5004.56px 5338.79px" y="1427.19px 1427.19px 1427.19px 1427.19px">odes</tspan>
    </text>
  </g>
</svg>
