<svg viewBox="0 0 2400 755" version="1" xmlns="http://www.w3.org/2000/svg" fill-rule="evenodd" clip-rule="evenodd" stroke-linejoin="round" stroke-miterlimit="1"><circle cx="1508" cy="1247" r="413" fill="#bd0000" transform="matrix(.85698 0 0 .85698 -938 -668)"/><circle cx="776" cy="615" r="43" transform="translate(-453 46) scale(.98577)"/><circle cx="776" cy="615" r="43" transform="translate(-453 -204) scale(.98577)"/><circle cx="776" cy="615" r="43" transform="translate(-453 -459) scale(.98577)"/><circle cx="776" cy="615" r="43" transform="translate(-325 46) scale(.98577)"/><circle cx="776" cy="615" r="43" transform="translate(-197 46) scale(.98577)"/><circle cx="776" cy="615" r="43" transform="translate(60 -204) scale(.98577)"/><circle cx="776" cy="615" r="43" transform="translate(-69 -80) scale(.98577)"/><circle cx="776" cy="615" r="43" transform="translate(60 -80) scale(.98577)"/><path d="M398 362h342v81H398zM269 486h342v81H269zM269 236h184v81H269zM476 236h184v81H476zM683 236h184v81H683zM397 107h222v82H397zM646 109h222v82H646z"/><g fill-rule="nonzero"><path d="M1138 337h42l73-202 27-4v-22h-85v22l23 4-35 106-32-106 21-4v-22h-118v22l24 4-36 109-32-109 24-4v-22H904v22l18 3 73 203h42l50-144c9 32 25 76 51 144z"/><path d="M1378 344c80 0 124-52 124-123s-52-119-124-119c-71 0-123 50-123 119 0 70 43 123 123 123zm0-25c-20 0-29-28-29-96s9-95 29-95c21 0 30 27 30 95s-9 96-30 96z"/><path d="M1499 337h148v-24l-36-8-1-66v-30c4-21 17-42 28-55l2 3c12 18 24 26 39 26 19 0 34-14 36-40-3-28-21-41-44-41-22 0-49 19-61 59l-4-54-8-5-103 32v19l25 4 1 52v99l-22 5v24z"/><path d="M1796 224c0-52 18-77 44-77 6 0 12 1 17 4v142c-6 3-12 5-19 5-26 0-42-27-42-74zm67 118l99-5v-24l-16-4V70l2-65-8-5-110 21v21l30 5v76a72 72 0 0 0-55-21c-50 0-104 45-104 123 0 80 41 119 93 119 26 0 47-8 65-27l4 25z"/><path d="M2047 344c68 0 111-27 111-82 0-37-18-62-61-74l-26-7c-32-9-38-18-38-28 0-16 14-24 32-24 10 0 17 1 23 3l10 41h43l4-52c-26-13-49-19-78-19-67 0-104 34-104 81 0 36 20 62 56 72l27 7c31 9 38 18 38 30 0 18-14 25-37 25-13 0-23-3-34-7l-8-48h-42l-2 59c25 16 53 23 86 23zM1182 695c14 0 25-1 50-7l4-38-45-11-32-34c21-29 34-53 47-89l31-5v-22h-106v22l35 6c-5 28-11 48-24 71l-39-42-33-37c47-18 69-39 69-71 0-36-31-60-85-60-57 0-93 30-93 77 0 23 6 46 26 73l3 3c-53 22-71 50-71 84 0 43 30 80 94 80 45 0 71-15 87-31l7 6c24 19 46 25 75 25zm-141-221a81 81 0 0 1-15-43c0-19 10-33 27-33 18 0 27 12 27 31 0 16-5 40-23 66-9-10-13-15-16-21zm4 126c11 14 24 31 38 46-8 5-18 6-30 6-32 0-61-21-61-60 0-17 4-31 12-43l41 51zM1399 478h2l1 20c2 41 21 53 40 53s30-8 36-27c-2-38-37-71-89-71-76 0-134 44-134 122 0 81 58 120 121 120 44 0 79-16 100-54l-19-18c-13 13-27 22-47 22-38 0-61-29-61-80 0-65 29-87 50-87z"/><path d="M1595 695c80 0 123-51 123-122s-51-120-123-120-124 50-124 120c0 69 43 122 124 122zm0-25c-21 0-30-28-30-96s9-95 30-95c20 0 30 27 30 95s-10 96-30 96zM1814 575c0-52 19-77 44-77 7 0 12 1 17 4v142c-5 3-12 5-19 5-25 0-42-26-42-74zm68 119l99-6v-24l-17-4V421l2-65-8-5-109 21v21l30 5v76a72 72 0 0 0-55-21c-51 0-104 45-104 123 0 80 41 119 92 119 26 0 48-8 66-27l4 26zM2105 453c-61 0-126 40-126 120 0 78 52 122 122 122 46 0 81-16 101-54l-18-18a74 74 0 0 1-53 22c-28 0-53-19-58-65h130c2-8 2-15 2-25 0-56-33-102-100-102zm-6 25c12 0 24 12 24 44 0 24-6 31-28 31h-22c1-58 12-75 26-75z"/><path d="M2288 695c68 0 111-27 111-82 0-37-18-62-61-74l-26-7c-32-9-38-18-38-28 0-16 14-24 32-24 10 0 17 1 23 3l10 41h43l4-52c-26-13-49-19-78-19-67 0-104 34-104 81 0 36 20 62 56 72l27 7c31 9 38 18 38 31 0 17-14 24-37 24-13 0-23-2-34-7l-8-48h-42l-2 60c25 15 53 22 86 22z"/></g></svg>